<svg width="380" height="380" viewBox="0 0 380 380" fill="none" xmlns="http://www.w3.org/2000/svg">
<mask id="mask0" mask-type="alpha" maskUnits="userSpaceOnUse" x="0" y="0" width="380" height="380">
<rect width="380" height="380" fill="#C4C4C4"/>
</mask>
<g mask="url(#mask0)">
<g opacity="0.1">
<path fill-rule="evenodd" clip-rule="evenodd" d="M50.0824 0C22.4224 0.00634766 0.0020752 22.3901 0 50.0015C0.0020752 77.6128 22.4224 99.9966 50.0824 100.003C77.7456 100.001 100.17 77.6157 100.172 50.0015C100.172 22.3862 77.7465 0 50.0824 0ZM1.69214 50.0015C1.67468 37.1841 6.77686 24.8882 15.8689 15.8374C24.9362 6.76172 37.2535 1.66846 50.0938 1.68555C62.9342 1.66797 75.2517 6.76123 84.3187 15.8374C93.4107 24.8882 98.5129 37.1841 98.4954 50.0015C98.5125 62.8193 93.4103 75.1147 84.3187 84.166C75.252 93.2422 62.9342 98.3354 50.0938 98.3174C37.2535 98.3345 24.9362 93.2417 15.8689 84.166C6.77722 75.1147 1.67505 62.8193 1.69214 50.0015Z" transform="translate(48.9447 107.374)" fill="#41495A"/>
<path fill-rule="evenodd" clip-rule="evenodd" d="M70.9977 0C31.7874 0 0 31.731 0 70.8721C0 110.013 31.7874 141.744 70.9977 141.744C110.208 141.744 141.995 110.013 141.995 70.8721C141.995 31.731 110.208 0 70.9977 0ZM0.562866 70.8721C0.535156 52.2158 7.95996 34.3184 21.1929 21.144C34.3906 7.93457 52.3197 0.522949 71.009 0.550293C89.6984 0.522949 107.628 7.93457 120.825 21.144C134.058 34.3184 141.483 52.2158 141.455 70.8721C141.483 89.5283 134.058 107.426 120.825 120.6C107.627 133.809 89.6982 141.221 71.009 141.194C52.3199 141.221 34.3911 133.809 21.1929 120.6C7.96033 107.425 0.535522 89.5283 0.562866 70.8721Z" transform="translate(28.0294 86.5039)" fill="#41495A"/>
</g>
<path opacity="0.1" fill-rule="evenodd" clip-rule="evenodd" d="M0 57.4663C0.0488281 56.4062 0.124512 55.354 0.227173 54.3091L54.7292 0.23291C55.7946 0.128906 56.8573 0.0507812 57.9176 0L0 57.4663ZM0.334839 66.9131C0.238647 66.0303 0.153931 65.1323 0.0922852 64.2378L64.7446 0.0644531C65.6572 0.125488 66.5621 0.202148 67.4633 0.30127L0.334839 66.9131ZM20.5701 105.503C20.0566 105.045 19.5432 104.579 19.0298 104.105L104.911 18.8726C105.388 19.3823 105.858 19.8916 106.32 20.4014L20.5701 105.503ZM32.226 113.499C31.5842 113.16 30.9501 112.811 30.3237 112.452L113.328 30.0708C113.688 30.6924 114.038 31.3218 114.38 31.959L32.226 113.499ZM44.1631 118.284C44.9332 118.502 45.7034 118.705 46.5082 118.892L119.782 46.1499L119.769 46.0977L119.766 46.084C119.582 45.3394 119.391 44.564 119.174 43.8184L44.1631 118.284ZM87.5059 114.362L115.23 86.8447C114.04 89.2441 112.69 91.563 111.191 93.7852L94.4871 110.365C92.2523 111.85 89.92 113.186 87.5059 114.362ZM120.891 51.9087L52.3033 119.965C53.1813 120.087 54.0669 120.187 54.9526 120.271L121.184 54.5342C121.135 54.0044 121.077 53.4746 121.01 52.9443C120.997 52.8188 120.981 52.6938 120.966 52.5688L120.963 52.5449C120.936 52.332 120.91 52.1201 120.891 51.9087ZM76.4623 118.475C75.1993 118.816 73.9158 119.115 72.6117 119.37L120.302 72.0391C120.043 73.3257 119.741 74.5996 119.397 75.8608L76.4623 118.475ZM24.3862 108.569C24.8556 108.915 25.3409 109.255 25.8158 109.587L26.1074 109.792L110.648 25.8862C110.245 25.3076 109.833 24.7383 109.412 24.1777L24.3862 108.569ZM64.6716 120.405C63.6448 120.474 62.6179 120.516 61.5911 120.531L121.461 61.1006C121.445 62.1196 121.406 63.1392 121.342 64.1582L64.6716 120.405ZM36.8892 115.716C37.5848 116.011 38.287 116.292 38.9955 116.56L117.456 38.6816C117.184 37.978 116.901 37.2812 116.605 36.5908L36.8892 115.716ZM8.37512 29.6157L29.8926 8.25488C21.0159 13.4551 13.6127 20.8042 8.37512 29.6157ZM1.63269 46.0767C1.97412 44.7007 2.35913 43.3438 2.78784 42.0063L42.3186 2.77441C43.6638 2.34131 45.0282 1.95898 46.4119 1.62793L1.63269 46.0767ZM3.44629 80.4473C3.703 81.1655 3.97253 81.8765 4.25488 82.5796L83.1932 4.23096C82.4846 3.95068 81.7698 3.68311 81.0483 3.42822L3.44629 80.4473ZM1.29773 72.8037C1.46716 73.6025 1.65198 74.3975 1.85217 75.1846L75.7847 1.8042C74.9915 1.60156 74.1904 1.42188 73.3895 1.24609L1.29773 72.8037ZM7.42407 89.1953C7.07495 88.5713 6.73608 87.9341 6.40747 87.2842L87.9834 6.34424C88.6278 6.67041 89.2695 7.00781 89.9087 7.35693L7.42407 89.1953ZM14.2281 99.0825C14.6774 99.6128 15.1356 100.135 15.6028 100.649L101.422 15.4746C100.906 15.0122 100.375 14.5576 99.8396 14.1104L14.2281 99.0825ZM11.1938 95.2344C10.7819 94.6646 10.3774 94.084 9.99243 93.4951L94.2061 9.93701C94.7965 10.3242 95.3805 10.7217 95.9581 11.1294L11.1938 95.2344Z" transform="translate(13.5714 248.81)" fill="white"/>
<g opacity="0.1">
<path fill-rule="evenodd" clip-rule="evenodd" d="M74.5789 0C33.3896 0 0.0115356 33.252 0.0115356 74.2686H0C0 115.293 33.3857 148.537 74.5674 148.537C115.757 148.537 149.135 115.285 149.135 74.2686C149.135 33.248 115.757 0 74.5789 0ZM2.71436 74.4766C2.68744 55.4385 10.2817 37.1753 23.8154 23.731C37.314 10.252 55.6505 2.68799 74.765 2.71436C93.8782 2.68848 112.213 10.2524 125.711 23.731C139.244 37.1753 146.839 55.4385 146.812 74.4766C146.838 93.5142 139.244 111.777 125.711 125.222C112.213 138.701 93.8782 146.265 74.765 146.238C55.6505 146.265 37.314 138.701 23.8154 125.222C10.282 111.777 2.68787 93.5142 2.71436 74.4766Z" transform="translate(201.762 31.6665)" fill="white"/>
<path fill-rule="evenodd" clip-rule="evenodd" d="M105.69 0C47.3163 0 0 47.127 0 105.266C0 163.406 47.3163 210.536 105.69 210.536C164.059 210.532 211.379 163.406 211.379 105.266C211.379 47.1304 164.059 0 105.69 0ZM0.85553 105.266C0.814087 77.5645 11.8599 50.9888 31.548 31.4219C51.1937 11.8125 77.8763 0.811035 105.69 0.852051C133.503 0.811035 160.185 11.8125 179.831 31.4219C199.519 50.9883 210.565 77.5645 210.523 105.266C210.565 132.968 199.519 159.543 179.831 179.111C160.185 198.719 133.502 209.72 105.69 209.68C77.8766 209.72 51.1945 198.719 31.548 179.111C11.8603 159.543 0.814514 132.968 0.85553 105.266Z" transform="translate(169.19 0.904785)" fill="white"/>
</g>
<path opacity="0.1" fill-rule="evenodd" clip-rule="evenodd" d="M0 47.0635C0.0384521 46.1953 0.0999146 45.3335 0.184509 44.478L44.8944 0.19043C45.7708 0.104004 46.6434 0.0405273 47.5122 0L0 47.0635ZM0.257446 54.812C0.176697 54.0771 0.107544 53.3423 0.0575562 52.6108L53.1282 0.0532227C53.874 0.102539 54.6197 0.163574 55.3577 0.247559L0.257446 54.812ZM16.8715 86.4043C16.4409 86.0312 16.0168 85.6504 15.5991 85.2622L86.0639 15.4668C86.4534 15.8779 86.8379 16.2969 87.2172 16.7231L16.8715 86.4043ZM26.4277 92.9727C25.8998 92.6958 25.3796 92.4102 24.8671 92.1157L92.9832 24.6279C93.2805 25.1357 93.5688 25.6509 93.8481 26.1738L26.4277 92.9727ZM36.2262 96.8799C36.8605 97.0586 37.5063 97.2222 38.1482 97.3784L98.2842 37.7993C98.1304 37.1597 97.9651 36.52 97.7845 35.8955L36.2262 96.8799ZM71.8065 93.6733L94.567 71.1279C93.5881 73.0962 92.4786 74.9976 91.2458 76.8203L77.538 90.3989C75.7032 91.6157 73.7885 92.7095 71.8065 93.6733ZM99.1798 42.5127L42.9071 98.2539C43.6259 98.3525 44.3525 98.4365 45.079 98.5049L99.4335 44.6641C99.3925 44.23 99.3451 43.7959 99.2913 43.3618C99.268 43.145 99.238 42.9307 99.2081 42.7168L99.1798 42.5127ZM62.7499 97.0322C61.712 97.3115 60.6575 97.5566 59.5863 97.7671L98.7224 58.9971C98.5096 60.0532 98.2623 61.0977 97.9805 62.1309L62.7499 97.0322ZM19.9928 88.9141C20.4579 89.2568 20.9307 89.5918 21.4036 89.9155L90.7844 21.1978C90.4538 20.7256 90.1155 20.2598 89.7696 19.8003L19.9928 88.9141ZM53.0515 98.6079C52.2057 98.6636 51.3627 98.6978 50.5221 98.7104L99.6603 50.0366C99.65 50.8745 99.618 51.707 99.5642 52.5347L53.0515 98.6079ZM30.2564 94.7695C30.8279 95.0234 31.4045 95.2544 31.9862 95.4624L96.3775 31.6797C96.1546 31.1035 95.9227 30.5322 95.6818 29.9663L30.2564 94.7695ZM6.86334 24.2461L24.5134 6.7627C17.233 11.0195 11.1607 17.0342 6.86334 24.2461ZM1.33392 37.7344C1.60815 36.6099 1.92078 35.499 2.27185 34.4023L34.7231 2.26172C35.8276 1.9165 36.9476 1.60791 38.0828 1.33643L1.33392 37.7344ZM2.82544 65.8848C3.03558 66.4712 3.25598 67.0537 3.48663 67.6328L68.2777 3.45752C67.696 3.22656 67.1091 3.00684 66.5172 2.79883L2.82544 65.8848ZM1.0495 59.6362C1.18787 60.291 1.33783 60.9419 1.50696 61.5854L62.1849 1.48486C61.5353 1.3208 60.8779 1.16895 60.2206 1.02783L1.0495 59.6362ZM6.07745 73.0737C5.79041 72.5532 5.51239 72.0278 5.24329 71.4976L72.1793 5.19385C72.7278 5.46045 73.2582 5.7373 73.7708 6.02393L6.07745 73.0737ZM11.6705 81.146C12.0395 81.5801 12.4162 82.0078 12.8006 82.4292L83.2155 12.6797C82.7927 12.2988 82.3544 11.918 81.92 11.564L11.6705 81.146ZM9.19885 78.0005C8.8606 77.5322 8.53381 77.0562 8.21094 76.5767L77.2996 8.14453C77.784 8.45947 78.2632 8.78418 78.7373 9.11914L9.19885 78.0005Z" transform="translate(250.189 236.906)" fill="white"/>
<path opacity="0.1" fill-rule="evenodd" clip-rule="evenodd" d="M0 42.6035C0.0356445 41.8203 0.0916748 41.04 0.167969 40.2642L40.6832 0.174316C41.4774 0.0961914 42.2679 0.0380859 43.0546 0L0 42.6035ZM0.244263 49.6182C0.167847 48.9507 0.106689 48.2871 0.0609131 47.6235L48.1331 0.0488281C48.809 0.090332 49.4849 0.147461 50.1531 0.223145L0.244263 49.6182ZM15.2856 78.2153C14.9012 77.8765 14.5193 77.5312 14.14 77.1802L78.0096 13.9873C78.3635 14.3589 78.7123 14.7383 79.0559 15.125L15.2856 78.2153ZM23.9539 84.1265C23.4778 83.8887 23.0068 83.6357 22.541 83.3682L84.2684 22.2759C84.5357 22.7358 84.7966 23.2021 85.0512 23.6748L23.9539 84.1265ZM32.8512 87.6831C33.4279 87.8462 33.9968 87.9941 34.5925 88.1348L89.0531 34.2163C88.9118 33.6362 88.7629 33.0601 88.6025 32.4873L32.8512 87.6831ZM65.0686 84.7905L85.689 64.3833C84.8032 66.165 83.7992 67.8867 82.6837 69.5361L70.2618 81.8291C68.599 82.9297 66.8641 83.9189 65.0686 84.7905ZM89.8893 38.4824L89.8716 38.5L89.8702 38.4824H89.8893ZM89.8716 38.5L38.8807 88.939C39.5337 89.0298 40.1906 89.1055 40.8511 89.1665L90.1108 40.4277C90.0752 40.0356 90.0332 39.6426 89.9848 39.2485L89.9521 39.0591C89.9194 38.874 89.8866 38.688 89.8716 38.5ZM56.8624 87.8345C55.9204 88.085 54.9646 88.3062 53.9946 88.498L89.4578 53.4058C89.2643 54.3613 89.0403 55.3066 88.7857 56.2422L56.8624 87.8345ZM18.1383 80.4902C18.5583 80.8013 18.9861 81.1011 19.4175 81.3965L82.2523 19.1899C81.9545 18.7627 81.6489 18.3403 81.3358 17.9233L18.1383 80.4902ZM48.0912 89.2646C47.3275 89.3276 46.5637 89.3594 45.8 89.3594L90.3171 45.2808C90.3069 46.0391 90.2776 46.7974 90.2292 47.5557L48.0912 89.2646ZM27.4326 85.7871C27.9418 86.0044 28.4636 86.2129 28.9983 86.4126L87.3271 28.6763C87.126 28.1558 86.916 27.6387 86.697 27.1255L27.4326 85.7871ZM6.22046 21.9575L22.2203 6.12354C15.6246 9.97363 10.1198 15.4214 6.22046 21.9575ZM1.21045 34.1748C1.45996 33.1436 1.74377 32.1323 2.06201 31.1416L31.4651 2.04395C32.4834 1.73828 33.5017 1.45898 34.5199 1.20605L1.21045 34.1748ZM2.56213 59.6396C2.75049 60.1704 2.95032 60.6978 3.16162 61.2207L61.8685 3.12793C61.3416 2.9209 60.8096 2.72217 60.2723 2.53271L2.56213 59.6396ZM0.950806 53.9863C1.07678 54.5776 1.21423 55.1694 1.36316 55.7534L56.3508 1.3457C55.7627 1.19824 55.167 1.05762 54.5713 0.932617L0.950806 53.9863ZM5.53308 66.1504C5.27856 65.6802 5.02393 65.2051 4.76941 64.7251L65.4047 4.69824C65.8883 4.95117 66.3683 5.20361 66.8442 5.45654L5.53308 66.1504ZM10.5927 73.4453C10.9287 73.8394 11.2698 74.2266 11.6161 74.6055L75.4054 11.4771C75.0236 11.1323 74.6417 10.7983 74.2294 10.4648L10.5927 73.4453ZM8.3512 70.5903C8.04565 70.1655 7.7478 69.7373 7.45764 69.3013L70.0557 7.35205C70.4961 7.6377 70.9301 7.93213 71.3578 8.23535L8.3512 70.5903Z" transform="translate(48.8572 27.1431)" fill="white"/>
<path d="M13.3663 194.694L36.2625 18.8248C36.7719 15.7938 37.8959 12.8988 39.5655 10.3173C41.235 7.73585 43.4149 5.5224 45.9714 3.81276C48.5279 2.10311 51.4071 0.933329 54.4323 0.375168C57.4576 -0.182993 60.5651 -0.117762 63.5642 0.56687C66.5633 1.2515 69.3908 2.54109 71.8731 4.35651C74.3555 6.17194 76.4404 8.47494 77.9999 11.1242C79.5594 13.7734 80.5606 16.7131 80.9422 19.7627C81.3238 22.8124 81.0776 25.9078 80.2188 28.859L34.7505 186.602L23.5184 235.91C22.9397 238.507 21.4644 240.816 19.3512 242.434C17.2381 244.052 14.6221 244.875 11.9623 244.758C9.1967 244.59 6.58095 243.445 4.58261 241.528C2.58428 239.611 1.33362 237.046 1.05421 234.292L0.190205 226.847C-1.86181 204.405 13.3663 194.694 13.3663 194.694Z" transform="translate(57.9048 278.913)" fill="#C48469"/>
<path d="M67.7503 194.694L44.8541 18.8248C44.3446 15.7938 43.2207 12.8988 41.5511 10.3173C39.8816 7.73585 37.7017 5.5224 35.1452 3.81276C32.5887 2.10311 29.7095 0.933329 26.6842 0.375168C23.659 -0.182993 20.5515 -0.117762 17.5524 0.56687C14.5533 1.2515 11.7258 2.54109 9.24346 4.35651C6.76111 6.17194 4.67622 8.47494 3.1167 11.1242C1.55719 13.7734 0.555931 16.7131 0.174368 19.7627C-0.207195 22.8124 0.038981 25.9078 0.89779 28.859L46.3661 186.602L57.7062 235.91C58.2848 238.507 59.7602 240.816 61.8733 242.434C63.9865 244.052 66.6025 244.875 69.2623 244.758C72.0279 244.59 74.6436 243.445 76.642 241.528C78.6403 239.611 79.891 237.046 80.1704 234.292L81.0344 226.847C83.0864 204.405 67.7503 194.694 67.7503 194.694Z" transform="translate(220.062 278.913)" fill="#C48469"/>
<path d="M2.48402 6.58542e-06H23.5442C55.1884 6.58542e-06 81.5406 13.2711 87.4806 39.7055C90.9367 55.0267 98.7127 85.5611 98.7127 85.5611H3.29592e-06L2.48402 6.58542e-06Z" transform="translate(174.088 230.842)" fill="#F1A71E"/>
<path d="M96.2287 6.58542e-06H75.1685C43.5243 6.58542e-06 17.1721 13.2711 11.2321 39.7055C7.77606 55.0267 0 85.5611 0 85.5611H98.7127L96.2287 6.58542e-06Z" transform="translate(86.2832 230.842)" fill="#F1A71E"/>
<path d="M37.0443 74.0163C57.5033 74.0163 74.0885 57.4472 74.0885 37.0081C74.0885 16.5691 57.5033 0 37.0443 0C16.5853 0 0 16.5691 0 37.0081C0 57.4472 16.5853 74.0163 37.0443 74.0163Z" transform="translate(142.552 31.667)" fill="#A19EA9"/>
<path d="M53.3524 6.58542e-06H95.2567C112.321 17.0475 134.245 22.658 134.245 50.603L147.205 206.62C147.205 206.62 104.869 221.941 66.4205 221.941C27.9722 221.941 -3.29592e-06 213.094 -3.29592e-06 213.094L14.2561 50.603C14.2561 22.658 33.2642 19.9607 53.3524 6.58542e-06Z" transform="translate(105.939 230.842)" fill="#F1A71E"/>
<path d="M12.9601 3.29271e-06H99.1447C102.582 3.29271e-06 105.878 1.3641 108.309 3.79222C110.739 6.22033 112.105 9.51358 112.105 12.9475C112.105 16.3813 110.739 19.6746 108.309 22.1027C105.878 24.5308 102.582 25.8949 99.1447 25.8949H12.9601C9.52286 25.8949 6.22641 24.5308 3.79592 22.1027C1.36543 19.6746 0 16.3813 0 12.9475C0 9.51358 1.36543 6.22033 3.79592 3.79222C6.22641 1.3641 9.52286 3.29271e-06 12.9601 3.29271e-06Z" transform="translate(123.543 156.61)" fill="#B87C63"/>
<path d="M43.3084 0.000138513C54.7945 0.000138513 65.8102 4.55852 73.932 12.6725C82.0539 20.7864 86.6168 31.7913 86.6168 43.2662V64.1979C86.6168 76.9296 79.5967 89.1218 70.2007 97.7534C67.4108 100.355 65.2362 103.544 63.8351 107.09C62.4339 110.636 61.8414 114.45 62.1006 118.254L63.3966 135.841L43.3084 161.52L23.2203 135.841L24.5163 118.254C24.7903 114.449 24.2046 110.631 22.8025 107.082C21.4004 103.534 19.2179 100.346 16.4163 97.7534C7.02019 89.1218 0.000138648 76.8217 0.000138648 64.1979V43.2662C-0.0141075 37.5804 1.09636 31.9479 3.26777 26.6922C5.43917 21.4365 8.62869 16.6612 12.6531 12.6407C16.6775 8.62028 21.4574 5.43386 26.7182 3.26458C31.9791 1.0953 37.6171 -0.0140938 43.3084 0.000138513Z" transform="translate(136.287 103.741)" fill="#C48469"/>
<path d="M52.3804 0.000173542H54.4324C57.4829 -0.00862294 60.5251 0.317014 63.5045 0.971234C88.7766 4.96337 104.869 24.0609 104.869 61.8243C104.869 73.2612 99.1447 92.5745 95.7967 92.5745L88.6686 53.0847C88.3905 51.5451 87.7891 50.0818 86.9042 48.791C86.0192 47.5003 84.8707 46.4114 83.5342 45.596C82.1976 44.7806 80.7034 44.2572 79.1499 44.0602C77.5963 43.8632 76.0186 43.9971 74.5205 44.4531L64.8005 47.4742C56.7436 49.956 48.1252 49.956 40.0683 47.4742L30.4562 44.4531C28.9515 43.9773 27.3623 43.8282 25.7952 44.0156C24.2281 44.2031 22.7192 44.7228 21.3694 45.5401C20.0196 46.3573 18.8602 47.4532 17.9687 48.7544C17.0772 50.0555 16.4742 51.5319 16.2001 53.0847L9.07206 92.5745C5.72404 92.5745 -3.29592e-06 73.1533 -3.29592e-06 61.8243C0.107997 18.774 20.9521 0.000173542 52.3804 0.000173542Z" transform="translate(127 76.9834)" fill="#B3AFBB"/>
<g opacity="0.47">
<path opacity="0.47" d="M96.0127 -6.58542e-06C64.1332 3.9921 31.8795 3.9921 1.64796e-06 -6.58542e-06" transform="translate(131.536 333.666)" stroke="#CF8929" stroke-width="10" stroke-linecap="round" stroke-linejoin="round"/>
</g>
<g opacity="0.29">
<path opacity="0.29" d="M6.37204 17.9106C5.23866 11.6336 3.0863 5.58366 0 6.58542e-06" transform="translate(195.364 171.5)" stroke="#B37860" stroke-width="4" stroke-linecap="round" stroke-linejoin="round"/>
<path opacity="0.29" d="M3.29592e-06 17.9106C1.13339 11.6336 3.28575 5.58366 6.37204 6.58542e-06" transform="translate(157.348 171.5)" stroke="#B37860" stroke-width="4" stroke-linecap="round" stroke-linejoin="round"/>
</g>
<path d="M2.29359 12.0681L12.0622 2.29639C13.2852 1.07352 11.3914 -0.833439 10.1639 0.398371L0.395318 10.1724C-0.827716 11.3952 1.06609 13.3022 2.29359 12.0704V12.0681Z" transform="translate(270.715 69.7729)" fill="#333845"/>
<path d="M0.402055 2.18462L12.2252 13.1389C13.4693 14.2917 15.3691 12.4781 14.1317 11.3232L2.30858 0.368883C1.06451 -0.783864 -0.835278 1.02973 0.402055 2.18462Z" transform="translate(294.592 67.6948)" fill="#333845"/>
<path d="M2.32868 21.4385L19.9011 4.6991L22.425 2.29583C23.6881 1.09195 21.7732 -0.819842 20.5101 0.38179L2.93766 17.1212L0.413776 19.5245C-0.849294 20.7284 1.06561 22.6402 2.32868 21.4385Z" transform="translate(321.583 64.5776)" fill="#333845"/>
<path d="M19.7239 9.86997C19.7503 12.4961 18.7119 15.0222 16.8425 16.8793C14.9732 18.7363 12.4303 19.7679 9.78683 19.7417C4.35793 19.6601 0 15.2649 0 9.87109C0 4.4773 4.35793 0.0820599 9.78683 0.000487758C12.4303 -0.0257294 14.9732 1.0059 16.8425 2.86293C18.7119 4.71995 19.7503 7.24613 19.7239 9.87222V9.86997Z" transform="translate(255.143 77.0464)" fill="#87C987"/>
<path d="M19.7233 9.72181C19.7771 13.2836 17.9095 16.5981 14.8363 18.3947C11.7632 20.1913 7.96127 20.1913 4.88811 18.3947C1.81496 16.5981 -0.0526909 13.2836 0.00113274 9.72181C0.0826262 4.32898 4.47362 0 9.86221 0C15.2508 0 19.6418 4.32898 19.7233 9.72181Z" transform="translate(279.02 53.1479)" fill="#F89C55"/>
<path d="M19.7244 9.87109C19.6429 15.3467 15.2514 19.7422 9.86221 19.7422C4.473 19.7422 0.0815028 15.3467 0 9.87109C0.0815028 4.39546 4.473 0 9.86221 0C15.2514 0 19.6429 4.39546 19.7244 9.87109Z" transform="translate(339.231 47.9526)" fill="#E566A1"/>
<path d="M19.7239 9.87134C19.7239 15.3229 15.3086 19.7422 9.86197 19.7422C4.41535 19.7422 0 15.3229 0 9.87134C0 4.41982 4.41535 0.000487714 9.86197 0.000487714C12.4855 -0.0257271 15.0091 1.00581 16.8643 2.86267C18.7195 4.71953 19.7501 7.24548 19.7239 9.87134Z" transform="translate(303.935 79.1245)" fill="#A6DDE0"/>
<path d="M12.7634 58.5362C11.0879 58.5367 9.42861 58.2129 7.88039 57.5831C6.33217 56.9534 4.9253 56.03 3.7401 54.8658C2.55491 53.7016 1.61461 52.3193 0.972881 50.7979C0.331153 49.2765 0.000569084 47.6458 1.58283e-06 45.9988V12.5416C1.58283e-06 9.21539 1.34426 6.02538 3.73705 3.67336C6.12984 1.32135 9.37516 1.4262e-06 12.7591 1.4262e-06C16.143 1.4262e-06 19.3883 1.32135 21.7811 3.67336C24.1739 6.02538 25.5182 9.21539 25.5182 12.5416V45.9988C25.517 49.3236 24.1728 52.5118 21.7811 54.8628C19.3894 57.2138 16.1458 58.5351 12.7634 58.5362Z" transform="translate(268.719 196.333)" fill="#42C7BB"/>
<path d="M0.00864643 -7.77928e-07V17.0281C-0.0544757 18.7128 0.228589 20.3927 0.840928 21.9675C1.45327 23.5422 2.38231 24.9794 3.57252 26.1932C4.76274 27.407 6.1897 28.3725 7.76811 29.032C9.34653 29.6914 11.044 30.0313 12.7591 30.0313C14.4742 30.0313 16.1716 29.6914 17.75 29.032C19.3285 28.3725 20.7554 27.407 21.9456 26.1932C23.1359 24.9794 24.0649 23.5422 24.6772 21.9675C25.2896 20.3927 25.5726 18.7128 25.5095 17.0281V-7.77928e-07H0.00864643Z" transform="translate(268.714 225.305)" fill="#5171C0"/>
<path d="M44.1404 3.23961C45.3836 4.34418 46.3933 5.67867 47.1117 7.16687C47.8302 8.65506 48.2434 10.2678 48.3277 11.913C48.412 13.5581 48.1657 15.2035 47.603 16.7551C47.0403 18.3067 46.1721 19.7342 45.048 20.956L22.2269 45.7673C21.1032 46.9894 19.7456 47.9818 18.2316 48.6881C16.7176 49.3943 15.0769 49.8004 13.4032 49.8833C11.7295 49.9661 10.0556 49.7241 8.47708 49.1709C6.89857 48.6178 5.44637 47.7644 4.20343 46.6595C2.96021 45.555 1.95053 44.2205 1.23207 42.7323C0.513606 41.2441 0.100438 39.6313 0.0161511 37.9862C-0.0681357 36.341 0.178113 34.6956 0.740837 33.144C1.30356 31.5924 2.17174 30.1649 3.29577 28.9432L26.1169 4.1318C27.2406 2.90976 28.5982 1.91729 30.1122 1.21107C31.6262 0.504855 33.2669 0.0987217 34.9406 0.0158712C36.6143 -0.0669792 38.2882 0.175079 39.8667 0.728214C41.4453 1.28135 42.8974 2.13472 44.1404 3.23961Z" transform="translate(295.465 225.148)" fill="#42C7BB"/>
<path d="M18.9312 33.5819L30.5449 20.9553C32.8146 18.4877 33.994 15.2348 33.8238 11.9124C33.6536 8.58991 32.1476 5.46999 29.6372 3.23897C27.1268 1.00795 23.8175 -0.151427 20.4375 0.0158911C17.0574 0.183209 13.8834 1.66352 11.6137 4.13116L-1.58283e-06 16.762L18.9312 33.5819Z" transform="translate(309.97 225.146)" fill="#5171C0"/>
</g>
<path fill-rule="evenodd" clip-rule="evenodd" d="M29.5237 20.14H37.0981L25.5006 0L13.9032 20.14H21.4763C21.367 47.6266 19.6581 61.9447 0 61.9447V70C7.02274 70 12.5967 68.4901 17.0398 65.3853C20.7553 62.7879 23.5345 59.1776 25.5006 54.3786C27.4665 59.1776 30.2453 62.7888 33.9615 65.3853C38.4046 68.4901 43.9773 70 51 70V61.9447C31.3416 61.9447 29.633 47.6266 29.5237 20.14Z" transform="translate(0 285)" fill="#EB8231"/>
<path fill-rule="evenodd" clip-rule="evenodd" d="M0 0V53.8239H28.5L0 0Z" transform="translate(53.4996 105)" fill="#FCCB6F"/>
<path fill-rule="evenodd" clip-rule="evenodd" d="M0 0L28.5 53.8239V0H0Z" transform="translate(25 140.176)" fill="#FCCB6F"/>
</svg>
