<svg width="190" height="161" viewBox="0 0 190 161" fill="none" xmlns="http://www.w3.org/2000/svg">
<rect width="190" height="161" fill="white"/>
<path d="M188.31 143.4L104.958 5.61868C102.885 2.14832 99.0723 0 95.0104 0C90.9485 0 87.1353 2.14832 85.0214 5.61868L1.66965 143.4C-0.485642 146.995 -0.568538 151.456 1.50386 155.092C3.57625 158.728 7.43091 161 11.6586 161H178.362C182.548 161 186.444 158.728 188.517 155.092C190.548 151.456 190.506 146.995 188.31 143.4Z" fill="#FCCC6F"/>
<path d="M144.073 130.51H3.73031C2.40398 130.51 1.16054 129.808 0.497375 128.651C-0.165792 127.494 -0.165792 126.09 0.497375 124.933L70.5444 1.90044C71.2075 0.743649 72.451 3.152e-07 73.7773 3.152e-07C75.1036 3.152e-07 76.3471 0.702335 77.0102 1.90044L147.264 124.933C147.928 126.09 147.928 127.494 147.264 128.651C146.643 129.808 145.399 130.51 144.073 130.51ZM10.1547 123.074H137.649L73.8187 11.32L10.1547 123.074Z" transform="translate(21.1904 15.3688)" fill="#FFE2AD"/>
<path d="M17.118 73.456C17.118 78.0418 13.2219 82.0493 8.62117 82.0493C3.68887 82.0493 1.26489e-06 78.0418 1.26489e-06 73.456C1.26489e-06 68.7875 3.68887 64.8627 8.62117 64.8627C13.2219 64.8627 17.118 68.7462 17.118 73.456ZM15.0041 52.3033C15.0041 55.7737 11.1909 57.2196 8.53827 57.2196C4.97375 57.2196 1.94805 55.7737 1.94805 52.3033C1.94805 39.0416 0.37303 19.9959 0.37303 6.77547C0.37303 2.43751 3.93755 1.2608e-06 8.53827 1.2608e-06C12.8903 1.2608e-06 16.5792 2.43751 16.5792 6.77547C16.5792 19.9959 15.0041 39.0416 15.0041 52.3033Z" transform="translate(86.5537 51.7662)" fill="white"/>
</svg>
