<svg width="91" height="175" viewBox="0 0 91 175" fill="none" xmlns="http://www.w3.org/2000/svg">
<rect width="91" height="175" fill="white"/>
<path d="M73.1986 1.74529e-06H16.636C5.6008 1.74529e-06 1.69231e-06 5.77615 1.69231e-06 17.1569V157.843C1.69231e-06 169.224 5.6008 175 16.636 175H73.1986C84.2338 175 89.8346 169.224 89.8346 157.843V17.1569C89.8346 5.83334 84.2338 1.74529e-06 73.1986 1.74529e-06Z" transform="translate(0.165527)" fill="#73C8CC"/>
<path d="M19.1315 1.74529e-06H1.94087C0.887257 1.74529e-06 1.69231e-06 0.915034 1.69231e-06 2.00164C1.69231e-06 3.08824 0.887257 4.00327 1.94087 4.00327H19.1315C20.1851 4.00327 21.0723 3.08824 21.0723 2.00164C21.0723 0.915034 20.2405 1.74529e-06 19.1315 1.74529e-06Z" transform="translate(34.5474 10.8656)" fill="white"/>
<path d="M72.3113 0H0V127.819H72.3113V0Z" transform="translate(9 21.9031)" fill="#58A158"/>
<path fill-rule="evenodd" clip-rule="evenodd" d="M2.77314 5.70774H40.0937C43.7881 5.70774 43.7944 0 40.0937 0H2.77314C-0.921268 0 -0.927488 5.70774 2.77314 5.70774Z" transform="translate(25.7122 83.042)" fill="white"/>
<path fill-rule="evenodd" clip-rule="evenodd" d="M0 2.75684V39.8557C0 43.5282 5.74185 43.5339 5.74185 39.8557V2.75684C5.74185 -0.916091 0 -0.921799 0 2.75684Z" transform="translate(44.0076 64.5898)" fill="white"/>
</svg>
