<svg width="353" height="373" viewBox="0 0 353 373" fill="none" xmlns="http://www.w3.org/2000/svg">
<mask id="mask0" mask-type="alpha" maskUnits="userSpaceOnUse" x="-17" y="-7" width="380" height="380">
<rect width="380" height="380" transform="translate(-17 -7)" fill="#C4C4C4"/>
</mask>
<g mask="url(#mask0)">
<g opacity="0.1">
<path fill-rule="evenodd" clip-rule="evenodd" d="M50.0825 0C22.4224 0.00634766 0.00219727 22.3901 0 50.0015C0.00219727 77.6128 22.4224 99.9966 50.0825 100.003C77.7456 100.001 100.17 77.6157 100.173 50.0015C100.173 22.3862 77.7463 0 50.0825 0ZM1.69214 50.0015C1.67456 37.1841 6.77686 24.8882 15.8689 15.8374C24.936 6.76172 37.2534 1.66846 50.0938 1.68555C62.9341 1.66797 75.2517 6.76123 84.3186 15.8374C93.4106 24.8882 98.5129 37.1841 98.4954 50.0015C98.5125 62.8193 93.4104 75.1147 84.3186 84.166C75.252 93.2422 62.9343 98.3354 50.0938 98.3174C37.2534 98.3345 24.936 93.2417 15.8689 84.166C6.77734 75.1147 1.67505 62.8193 1.69214 50.0015Z" transform="translate(31.9448 100.374)" fill="#41495A"/>
<path fill-rule="evenodd" clip-rule="evenodd" d="M70.9976 0C31.7874 0 0 31.731 0 70.8721C0 110.013 31.7874 141.744 70.9976 141.744C110.208 141.744 141.995 110.013 141.995 70.8721C141.995 31.731 110.208 0 70.9976 0ZM0.562744 70.8721C0.535156 52.2158 7.95996 34.3184 21.1929 21.144C34.3906 7.93457 52.3198 0.522949 71.009 0.550293C89.6985 0.522949 107.627 7.93457 120.825 21.144C134.058 34.3184 141.483 52.2158 141.455 70.8721C141.483 89.5283 134.058 107.426 120.825 120.6C107.627 133.809 89.6982 141.221 71.009 141.194C52.3198 141.221 34.3911 133.809 21.1929 120.6C7.96021 107.425 0.535645 89.5283 0.562744 70.8721Z" transform="translate(11.0295 79.5034)" fill="#41495A"/>
</g>
<path opacity="0.1" fill-rule="evenodd" clip-rule="evenodd" d="M0 72.0381C0.0610352 70.7095 0.155762 69.3901 0.284424 68.0806L68.49 0.29248C69.8232 0.161133 71.1531 0.0639648 72.48 0L0 72.0381ZM0.418701 83.8813C0.29834 82.7744 0.192383 81.6484 0.115234 80.5273L81.0234 0.0810547C82.1653 0.157715 83.2979 0.253418 84.4255 0.37793L0.418701 83.8813ZM25.7419 132.257C25.0994 131.683 24.457 131.098 23.8145 130.504L131.289 23.6587C131.886 24.2974 132.474 24.9365 133.052 25.5752L25.7419 132.257ZM40.3289 142.28C39.5256 141.855 38.7322 141.417 37.9482 140.967L141.823 37.6963C142.273 38.4756 142.711 39.2646 143.138 40.063L40.3289 142.28ZM55.2671 148.278C56.231 148.552 57.1946 148.806 58.2017 149.04L149.899 57.8521L149.884 57.79C149.653 56.8511 149.411 55.8721 149.138 54.9297L55.2671 148.278ZM109.508 143.362L144.203 108.867C142.713 111.875 141.025 114.781 139.148 117.567L118.244 138.351C115.448 140.213 112.529 141.887 109.508 143.362ZM151.287 65.0718L65.4541 150.386C66.5527 150.539 67.6611 150.664 68.7695 150.769L151.653 68.3633C151.592 67.6987 151.52 67.0347 151.437 66.3701C151.42 66.2212 151.402 66.0728 151.384 65.9248L151.377 65.8726C151.344 65.605 151.311 65.3384 151.287 65.0718ZM95.6875 148.518C94.1069 148.946 92.5007 149.319 90.8687 149.639L150.55 90.3066C150.225 91.9194 149.848 93.5166 149.417 95.0977L95.6875 148.518ZM30.5176 136.1C31.1155 136.541 31.7339 136.975 32.3384 137.399L32.6716 137.633L138.469 32.4502C137.965 31.7251 137.449 31.0112 136.922 30.3086L30.5176 136.1ZM80.9321 150.937C79.6472 151.023 78.3621 151.076 77.0771 151.095L152 76.5942C151.981 77.8721 151.931 79.1494 151.851 80.4272L80.9321 150.937ZM46.1643 145.059C47.0349 145.429 47.9136 145.782 48.8003 146.118L146.989 48.4902C146.648 47.6089 146.293 46.7354 145.924 45.8696L46.1643 145.059ZM10.4807 37.1255L37.4082 10.3481C26.2998 16.8667 17.0352 26.0796 10.4807 37.1255ZM2.04346 57.7603C2.4707 56.0356 2.95264 54.335 3.48901 52.6577L52.9592 3.47803C54.6426 2.93506 56.3501 2.45557 58.0815 2.04053L2.04346 57.7603ZM4.31299 100.847C4.63428 101.748 4.97168 102.639 5.32495 103.521L104.111 5.3042C103.224 4.95264 102.33 4.61719 101.427 4.29785L4.31299 100.847ZM1.62402 91.2646C1.83594 92.2661 2.06738 93.2627 2.31787 94.2495L94.8394 2.26172C93.8467 2.00781 92.8445 1.78223 91.842 1.56201L1.62402 91.2646ZM9.29102 111.814C8.854 111.031 8.42993 110.233 8.0188 109.418L110.106 7.95361C110.912 8.3623 111.715 8.78564 112.515 9.22314L9.29102 111.814ZM17.8057 124.208C18.3679 124.872 18.9414 125.527 19.5259 126.172L126.923 19.3989C126.277 18.8193 125.613 18.249 124.943 17.6885L17.8057 124.208ZM14.0085 119.384C13.4929 118.67 12.9871 117.941 12.5051 117.204L117.893 12.457C118.632 12.9424 119.363 13.4409 120.085 13.9517L14.0085 119.384Z" transform="translate(0.19043 103.381)" fill="white"/>
<path opacity="0.1" fill-rule="evenodd" clip-rule="evenodd" d="M0 42.6035C0.0356445 41.8203 0.0915527 41.04 0.167969 40.2642L40.6831 0.174316C41.4775 0.0961914 42.2678 0.0380859 43.0544 0L0 42.6035ZM0.244385 49.6182C0.167969 48.9507 0.106934 48.2871 0.0610352 47.6235L48.1331 0.0488281C48.8091 0.090332 49.4849 0.147461 50.1533 0.223145L0.244385 49.6182ZM15.2856 78.2158C14.9014 77.877 14.5195 77.5317 14.1401 77.1807L78.0098 13.9878C78.3635 14.3594 78.7124 14.7388 79.0562 15.1255L15.2856 78.2158ZM23.9539 84.127C23.4778 83.8892 23.0068 83.6362 22.541 83.3687L84.2683 22.2764C84.5356 22.7363 84.7966 23.2026 85.0513 23.6753L23.9539 84.127ZM32.8513 87.6831C33.428 87.8462 33.9968 87.9941 34.5925 88.1348L89.0532 34.2163C88.9119 33.6362 88.7629 33.0601 88.6025 32.4873L32.8513 87.6831ZM65.0686 84.7905L85.689 64.3833C84.8032 66.165 83.7993 67.8867 82.6838 69.5361L70.262 81.8291C68.5991 82.9297 66.864 83.9189 65.0686 84.7905ZM89.8892 38.4824L89.8716 38.5L89.8701 38.4824H89.8892ZM89.8716 38.5L38.8806 88.939C39.5337 89.0298 40.1904 89.1055 40.8511 89.1665L90.1106 40.4277C90.0752 40.0356 90.033 39.6426 89.9846 39.2485L89.9519 39.0596C89.9192 38.874 89.8867 38.688 89.8716 38.5ZM56.8625 87.835C55.9207 88.0854 54.9648 88.3066 53.9949 88.4985L89.458 53.4062C89.2646 54.3618 89.0405 55.3071 88.7859 56.2427L56.8625 87.835ZM18.1382 80.4902C18.5583 80.8013 18.9858 81.1011 19.4175 81.3965L82.2522 19.1899C81.9543 18.7627 81.6489 18.3403 81.3357 17.9233L18.1382 80.4902ZM48.0913 89.2646C47.3274 89.3276 46.5637 89.3594 45.8 89.3594L90.3171 45.2808C90.3069 46.0391 90.2776 46.7974 90.2292 47.5557L48.0913 89.2646ZM27.4326 85.7871C27.9417 86.0044 28.4636 86.2129 28.9983 86.4126L87.3271 28.6763C87.126 28.1558 86.916 27.6387 86.697 27.1255L27.4326 85.7871ZM6.22046 21.958L22.2202 6.12402C15.6245 9.97412 10.1196 15.4219 6.22046 21.958ZM1.21045 34.1748C1.45996 33.1436 1.7439 32.1323 2.06201 31.1416L31.4651 2.04395C32.4834 1.73828 33.5017 1.45898 34.52 1.20605L1.21045 34.1748ZM2.56226 59.6396C2.75073 60.1704 2.95044 60.6978 3.16187 61.2207L61.8687 3.12793C61.3418 2.9209 60.8096 2.72217 60.2725 2.53271L2.56226 59.6396ZM0.950684 53.9863C1.07666 54.5776 1.21411 55.1694 1.36304 55.7534L56.3506 1.3457C55.7627 1.19824 55.167 1.05762 54.5713 0.932617L0.950684 53.9863ZM5.5332 66.1504C5.27856 65.6802 5.02417 65.2051 4.76953 64.7251L65.4048 4.69824C65.8884 4.95117 66.3684 5.20361 66.8445 5.45654L5.5332 66.1504ZM10.5928 73.4458C10.9287 73.8398 11.27 74.2271 11.6162 74.606L75.4055 11.4775C75.0237 11.1328 74.6418 10.7988 74.2295 10.4653L10.5928 73.4458ZM8.35132 70.5903C8.0459 70.1655 7.74805 69.7373 7.45776 69.3013L70.0557 7.35205C70.4961 7.6377 70.9302 7.93213 71.3579 8.23535L8.35132 70.5903Z" transform="translate(11.9524 278.905)" fill="white"/>
<g opacity="0.1">
<path fill-rule="evenodd" clip-rule="evenodd" d="M74.5789 0C33.3896 0 0.0114746 33.252 0.0114746 74.2686H0C0 115.293 33.3857 148.537 74.5674 148.537C115.757 148.537 149.135 115.285 149.135 74.2686C149.135 33.248 115.757 0 74.5789 0ZM2.53198 74.269C2.50513 55.231 10.0994 36.9678 23.6331 23.5234C37.1316 10.0444 55.4683 2.48047 74.5825 2.50684C93.6958 2.48096 112.031 10.0449 125.528 23.5234C139.062 36.9678 146.656 55.231 146.629 74.269C146.656 93.3066 139.062 111.57 125.528 125.014C112.031 138.493 93.6958 146.057 74.5825 146.031C55.4683 146.057 37.1316 138.494 23.6331 125.014C10.0999 111.57 2.50562 93.3066 2.53198 74.269Z" transform="translate(169.729 41.188)" fill="white"/>
<path fill-rule="evenodd" clip-rule="evenodd" d="M105.689 0C47.3162 0 0 47.127 0 105.266C0 163.406 47.3162 210.536 105.689 210.536C164.059 210.532 211.379 163.406 211.379 105.266C211.379 47.1304 164.059 0 105.689 0ZM0.855469 105.266C0.814209 77.564 11.8601 50.9883 31.5481 31.4214C51.1938 11.812 77.8765 0.810547 105.689 0.851562C133.503 0.810547 160.185 11.812 179.831 31.4214C199.52 50.9878 210.565 77.564 210.523 105.266C210.565 132.967 199.519 159.543 179.831 179.11C160.185 198.718 133.502 209.72 105.689 209.68C77.8767 209.72 51.1946 198.718 31.5481 179.11C11.8604 159.543 0.814697 132.967 0.855469 105.266Z" transform="translate(138.619 10.1904)" fill="white"/>
</g>
<path opacity="0.1" fill-rule="evenodd" clip-rule="evenodd" d="M0 47.0635C0.0383301 46.1953 0.0998535 45.3335 0.18457 44.478L44.8943 0.19043C45.7708 0.104004 46.6436 0.0405273 47.5122 0L0 47.0635ZM0.257324 54.812C0.176514 54.0771 0.107422 53.3423 0.057373 52.6108L53.1279 0.0532227C53.8738 0.102539 54.6194 0.163574 55.3577 0.247559L0.257324 54.812ZM16.8716 86.4043C16.4409 86.0312 16.0168 85.6504 15.5991 85.2622L86.064 15.4668C86.4536 15.8779 86.8379 16.2969 87.2173 16.7231L16.8716 86.4043ZM26.428 92.9727C25.8999 92.6958 25.3796 92.4102 24.8672 92.1157L92.9834 24.6279C93.2805 25.1357 93.5688 25.6509 93.8481 26.1738L26.428 92.9727ZM36.2261 96.8799C36.8604 97.0586 37.5061 97.2222 38.1482 97.3784L98.2839 37.7993C98.1304 37.1597 97.9651 36.52 97.7844 35.8955L36.2261 96.8799ZM71.8064 93.6733L94.5669 71.1279C93.5881 73.0962 92.4785 74.9976 91.2456 76.8203L77.5378 90.3989C75.7031 91.6157 73.7883 92.7095 71.8064 93.6733ZM99.1797 42.5127L42.907 98.2539C43.6257 98.3525 44.3523 98.4365 45.0789 98.5049L99.4333 44.6641C99.3923 44.23 99.345 43.7959 99.2913 43.3618C99.2676 43.1431 99.2373 42.9263 99.207 42.71L99.1797 42.5127ZM62.75 97.0322C61.7122 97.3115 60.6577 97.5566 59.5864 97.7671L98.7224 58.9971C98.5098 60.0532 98.2625 61.0977 97.9805 62.1309L62.75 97.0322ZM19.9927 88.9141C20.4578 89.2568 20.9307 89.5918 21.4033 89.9155L90.7842 21.1978C90.4536 20.7256 90.1155 20.2598 89.7695 19.8003L19.9927 88.9141ZM53.0513 98.6079C52.2056 98.6636 51.3625 98.6978 50.522 98.7104L99.6602 50.0366C99.6499 50.8745 99.6179 51.707 99.564 52.5347L53.0513 98.6079ZM30.2563 94.7695C30.8279 95.0234 31.4045 95.2544 31.9861 95.4624L96.3774 31.6797C96.1545 31.1035 95.9226 30.5322 95.6816 29.9663L30.2563 94.7695ZM6.86353 24.2461L24.5134 6.7627C17.2332 11.0195 11.1609 17.0347 6.86353 24.2461ZM1.33398 37.7344C1.60815 36.6099 1.9209 35.499 2.27197 34.4023L34.7231 2.26172C35.8276 1.9165 36.9475 1.60791 38.0828 1.33643L1.33398 37.7344ZM2.82544 65.8848C3.03564 66.4712 3.25586 67.0537 3.48657 67.6328L68.2776 3.45752C67.696 3.22656 67.1091 3.00684 66.5171 2.79883L2.82544 65.8848ZM1.04956 59.6362C1.18799 60.291 1.33789 60.9419 1.50708 61.5854L62.1851 1.48486C61.5354 1.3208 60.8779 1.16895 60.2207 1.02783L1.04956 59.6362ZM6.07739 73.0737C5.79028 72.5532 5.51221 72.0278 5.24316 71.4976L72.1792 5.19385C72.7275 5.46045 73.2581 5.7373 73.7708 6.02393L6.07739 73.0737ZM11.6704 81.146C12.0396 81.5801 12.4163 82.0078 12.8005 82.4292L83.2153 12.6797C82.7927 12.2988 82.3545 11.918 81.9199 11.564L11.6704 81.146ZM9.19897 78.0005C8.8606 77.5322 8.53394 77.0562 8.21094 76.5767L77.2996 8.14453C77.7839 8.45947 78.2632 8.78418 78.7373 9.11914L9.19897 78.0005Z" transform="translate(233.189 229.906)" fill="white"/>
<path d="M13.3663 194.694L36.2625 18.8248C36.7719 15.7938 37.8959 12.8988 39.5655 10.3173C41.235 7.73585 43.4149 5.5224 45.9714 3.81276C48.5279 2.10311 51.4071 0.933329 54.4323 0.375168C57.4576 -0.182993 60.5651 -0.117762 63.5642 0.56687C66.5633 1.2515 69.3908 2.54109 71.8731 4.35651C74.3555 6.17194 76.4404 8.47494 77.9999 11.1242C79.5594 13.7734 80.5606 16.7131 80.9422 19.7627C81.3238 22.8124 81.0776 25.9078 80.2188 28.859L34.7505 186.602L23.5184 235.91C22.9397 238.507 21.4644 240.816 19.3512 242.434C17.2381 244.052 14.6221 244.875 11.9623 244.758C9.1967 244.59 6.58095 243.445 4.58261 241.528C2.58428 239.611 1.33362 237.046 1.05421 234.292L0.190205 226.847C-1.86181 204.405 13.3663 194.694 13.3663 194.694Z" transform="translate(59 247.483)" fill="#C48469"/>
<path d="M67.7503 194.694L44.8541 18.8248C44.3446 15.7938 43.2207 12.8988 41.5511 10.3173C39.8816 7.73585 37.7017 5.5224 35.1452 3.81276C32.5887 2.10311 29.7095 0.933329 26.6842 0.375168C23.659 -0.182993 20.5515 -0.117762 17.5524 0.56687C14.5533 1.2515 11.7258 2.54109 9.24346 4.35651C6.76111 6.17194 4.67622 8.47494 3.1167 11.1242C1.55719 13.7734 0.555931 16.7131 0.174368 19.7627C-0.207195 22.8124 0.038981 25.9078 0.89779 28.859L46.3661 186.602L57.7062 235.91C58.2848 238.507 59.7602 240.816 61.8733 242.434C63.9865 244.052 66.6025 244.875 69.2623 244.758C72.0279 244.59 74.6436 243.445 76.642 241.528C78.6403 239.611 79.891 237.046 80.1704 234.292L81.0344 226.847C83.0864 204.405 67.7503 194.694 67.7503 194.694Z" transform="translate(221.158 247.483)" fill="#C48469"/>
<path d="M2.48402 6.58542e-06H23.5442C55.1884 6.58542e-06 81.5406 13.2711 87.4806 39.7055C90.9367 55.0267 98.7127 85.5611 98.7127 85.5611H3.29592e-06L2.48402 6.58542e-06Z" transform="translate(175.183 199.413)" fill="#F1A71E"/>
<path d="M96.2287 6.58542e-06H75.1685C43.5243 6.58542e-06 17.1721 13.2711 11.2321 39.7055C7.77606 55.0267 0 85.5611 0 85.5611H98.7127L96.2287 6.58542e-06Z" transform="translate(87.3784 199.413)" fill="#F1A71E"/>
<path d="M37.0443 74.0163C57.5033 74.0163 74.0885 57.4472 74.0885 37.0081C74.0885 16.5691 57.5033 0 37.0443 0C16.5853 0 0 16.5691 0 37.0081C0 57.4472 16.5853 74.0163 37.0443 74.0163Z" transform="translate(143.647 0.237793)" fill="#A19EA9"/>
<path d="M53.3524 6.58542e-06H95.2567C112.321 17.0475 134.245 22.658 134.245 50.603L147.205 206.62C147.205 206.62 104.869 221.941 66.4205 221.941C27.9722 221.941 -3.29592e-06 213.094 -3.29592e-06 213.094L14.2561 50.603C14.2561 22.658 33.2642 19.9607 53.3524 6.58542e-06Z" transform="translate(107.035 199.413)" fill="#F1A71E"/>
<path d="M12.9601 3.29271e-06H99.1447C102.582 3.29271e-06 105.878 1.3641 108.309 3.79222C110.739 6.22033 112.105 9.51358 112.105 12.9475C112.105 16.3813 110.739 19.6746 108.309 22.1027C105.878 24.5308 102.582 25.8949 99.1447 25.8949H12.9601C9.52286 25.8949 6.22641 24.5308 3.79592 22.1027C1.36543 19.6746 0 16.3813 0 12.9475C0 9.51358 1.36543 6.22033 3.79592 3.79222C6.22641 1.3641 9.52286 3.29271e-06 12.9601 3.29271e-06Z" transform="translate(124.639 125.181)" fill="#B87C63"/>
<path d="M43.3084 0.000138513C54.7945 0.000138513 65.8102 4.55852 73.932 12.6725C82.0539 20.7864 86.6168 31.7913 86.6168 43.2662V64.1979C86.6168 76.9296 79.5967 89.1218 70.2007 97.7534C67.4108 100.355 65.2362 103.544 63.8351 107.09C62.4339 110.636 61.8414 114.45 62.1006 118.254L63.3966 135.841L43.3084 161.52L23.2203 135.841L24.5163 118.254C24.7903 114.449 24.2046 110.631 22.8025 107.082C21.4004 103.534 19.2179 100.346 16.4163 97.7534C7.02019 89.1218 0.000138648 76.8217 0.000138648 64.1979V43.2662C-0.0141075 37.5804 1.09636 31.9479 3.26777 26.6922C5.43917 21.4365 8.62869 16.6612 12.6531 12.6407C16.6775 8.62028 21.4574 5.43386 26.7182 3.26458C31.9791 1.0953 37.6171 -0.0140938 43.3084 0.000138513Z" transform="translate(137.383 72.3115)" fill="#C48469"/>
<path d="M52.3804 0.000173542H54.4324C57.4829 -0.00862294 60.5251 0.317014 63.5045 0.971234C88.7766 4.96337 104.869 24.0609 104.869 61.8243C104.869 73.2612 99.1447 92.5745 95.7967 92.5745L88.6686 53.0847C88.3905 51.5451 87.7891 50.0818 86.9042 48.791C86.0192 47.5003 84.8707 46.4114 83.5342 45.596C82.1976 44.7806 80.7034 44.2572 79.1499 44.0602C77.5963 43.8632 76.0186 43.9971 74.5205 44.4531L64.8005 47.4742C56.7436 49.956 48.1252 49.956 40.0683 47.4742L30.4562 44.4531C28.9515 43.9773 27.3623 43.8282 25.7952 44.0156C24.2281 44.2031 22.7192 44.7228 21.3694 45.5401C20.0196 46.3573 18.8602 47.4532 17.9687 48.7544C17.0772 50.0555 16.4742 51.5319 16.2001 53.0847L9.07206 92.5745C5.72404 92.5745 -3.29592e-06 73.1533 -3.29592e-06 61.8243C0.107997 18.774 20.9521 0.000173542 52.3804 0.000173542Z" transform="translate(128.095 45.5542)" fill="#B3AFBB"/>
<g opacity="0.47">
<path opacity="0.47" d="M96.0127 -6.58542e-06C64.1332 3.9921 31.8795 3.9921 1.64796e-06 -6.58542e-06" transform="translate(132.631 302.237)" stroke="#CF8929" stroke-width="10" stroke-linecap="round" stroke-linejoin="round"/>
</g>
<g opacity="0.29">
<path opacity="0.29" d="M6.37204 17.9106C5.23866 11.6336 3.0863 5.58366 0 6.58542e-06" transform="translate(196.459 140.07)" stroke="#B37860" stroke-width="4" stroke-linecap="round" stroke-linejoin="round"/>
<path opacity="0.29" d="M3.29592e-06 17.9106C1.13339 11.6336 3.28575 5.58366 6.37204 6.58542e-06" transform="translate(158.443 140.071)" stroke="#B37860" stroke-width="4" stroke-linecap="round" stroke-linejoin="round"/>
</g>
</g>
<path d="M55.7011 1.32642e-06H12.6593C4.26198 1.32642e-06 1.28777e-06 4.38987 1.28777e-06 13.0392V119.961C1.28777e-06 128.61 4.26198 133 12.6593 133H55.7011C64.0984 133 68.3604 128.61 68.3604 119.961V13.0392C68.3604 4.43334 64.0984 1.32642e-06 55.7011 1.32642e-06Z" transform="translate(6.64966 64.4761)" fill="#A6DDE0"/>
<path d="M14.5582 1.32642e-06H1.47692C0.675166 1.32642e-06 1.28777e-06 0.695426 1.28777e-06 1.52124C1.28777e-06 2.34706 0.675166 3.04248 1.47692 3.04248H14.5582C15.36 3.04248 16.0352 2.34706 16.0352 1.52124C16.0352 0.695426 15.4022 1.32642e-06 14.5582 1.32642e-06Z" transform="translate(32.813 72.7339)" fill="white"/>
<path d="M55.0259 0H0V97.1422H55.0259V0Z" transform="translate(13.3726 81.1226)" fill="#58A158"/>
<path fill-rule="evenodd" clip-rule="evenodd" d="M2.11024 4.33788H30.5097C33.321 4.33788 33.3257 0 30.5097 0H2.11024C-0.701046 0 -0.70578 4.33788 2.11024 4.33788Z" transform="translate(26.0898 127.588)" fill="white"/>
<path fill-rule="evenodd" clip-rule="evenodd" d="M0 2.0952V30.2903C0 33.0814 4.36931 33.0857 4.36931 30.2903V2.0952C4.36931 -0.69623 0 -0.700567 0 2.0952Z" transform="translate(40.0117 113.564)" fill="white"/>
<path d="M55.7011 1.32642e-06H12.6593C4.26198 1.32642e-06 1.28777e-06 4.38987 1.28777e-06 13.0392V119.961C1.28777e-06 128.61 4.26198 133 12.6593 133H55.7011C64.0984 133 68.3604 128.61 68.3604 119.961V13.0392C68.3604 4.43334 64.0984 1.32642e-06 55.7011 1.32642e-06Z" transform="translate(284.412 64.4761)" fill="#A6DDE0"/>
<path d="M14.5582 1.32642e-06H1.47692C0.675166 1.32642e-06 1.28777e-06 0.695426 1.28777e-06 1.52124C1.28777e-06 2.34706 0.675166 3.04248 1.47692 3.04248H14.5582C15.36 3.04248 16.0352 2.34706 16.0352 1.52124C16.0352 0.695426 15.4022 1.32642e-06 14.5582 1.32642e-06Z" transform="translate(310.575 72.7339)" fill="white"/>
<path d="M55.0259 0H0V97.1422H55.0259V0Z" transform="translate(291.134 81.1226)" fill="#F5B33C"/>
<path fill-rule="evenodd" clip-rule="evenodd" d="M0 2.45406V22.4053C0 25.6745 5.2492 25.68 5.2492 22.4053V2.45406C5.2492 -0.815478 0 -0.820559 0 2.45406Z" transform="translate(317.477 112.356)" fill="white"/>
<path fill-rule="evenodd" clip-rule="evenodd" d="M7.60958 3.68278C7.60958 5.71682 5.90622 7.36556 3.80479 7.36556C1.70336 7.36556 0 5.71682 0 3.68278C0 1.64874 1.70336 0 3.80479 0C5.90622 0 7.60958 1.64874 7.60958 3.68278Z" transform="translate(316.246 141.471)" fill="white"/>
</svg>
