<svg width="171" height="166" viewBox="0 0 171 166" fill="none" xmlns="http://www.w3.org/2000/svg">
<path fill-rule="evenodd" clip-rule="evenodd" d="M48.6585 51.1833H2.87961C1.28909 51.1833 0 49.9014 0 48.3203V2.86307C0 1.28133 1.28909 0 2.87961 0H48.6585V51.1833Z" transform="translate(0 56.7167)" fill="#F89C55"/>
<path fill-rule="evenodd" clip-rule="evenodd" d="M117.42 51.1833H0V0H117.42C120.138 0 122.341 2.13947 122.341 4.77919V46.4035C122.341 49.0432 120.138 51.1833 117.42 51.1833Z" transform="translate(48.6587 56.7167)" fill="#EDEDED"/>
<path fill-rule="evenodd" clip-rule="evenodd" d="M0 2.76667C0 4.29465 1.23868 5.53333 2.76667 5.53333H101.502C103.03 5.53333 104.268 4.29465 104.268 2.76667C104.268 1.23868 103.03 0 101.502 0H2.76667C1.23868 0 0 1.23868 0 2.76667Z" transform="translate(58.3901 94.0667)" fill="#C7C5C5"/>
<path fill-rule="evenodd" clip-rule="evenodd" d="M0 2.76667C0 4.29465 1.23868 5.53333 2.76667 5.53333H31.9894C33.5174 5.53333 34.7561 4.29465 34.7561 2.76667C34.7561 1.23868 33.5174 0 31.9894 0H2.76667C1.23868 0 0 1.23868 0 2.76667Z" transform="translate(58.3901 80.2333)" fill="#C7C5C5"/>
<path fill-rule="evenodd" clip-rule="evenodd" d="M0 2.76667C0 4.29465 1.23868 5.53333 2.76667 5.53333H55.6236C57.1516 5.53333 58.3902 4.29465 58.3902 2.76667C58.3902 1.23868 57.1516 0 55.6236 0H2.76667C1.23868 0 0 1.23868 0 2.76667Z" transform="translate(58.3901 63.6333)" fill="#C7C5C5"/>
<path fill-rule="evenodd" clip-rule="evenodd" d="M8.0821 36.0322C7.22104 35.1543 6.78955 34.0779 6.78955 32.8043C6.78955 31.5307 7.22104 30.4537 8.0821 29.5738C8.94315 28.6959 9.99953 28.2579 11.2487 28.2579C12.4972 28.2579 13.5536 28.6959 14.4146 29.5738C15.2757 30.4537 15.7072 31.5307 15.7072 32.8043C15.7072 34.0779 15.2757 35.1543 14.4146 36.0322C13.5536 36.9102 12.4972 37.3501 11.2487 37.3501C9.99953 37.3501 8.94315 36.9102 8.0821 36.0322ZM14.998 26.1909H7.29698V22.3168C7.29698 20.9052 7.47378 19.8471 7.82995 19.1397C8.18357 18.4355 8.9342 17.4776 10.0844 16.2723L13.5286 12.6578C14.0361 12.0376 14.2882 11.2371 14.2882 10.2558C14.2882 9.27307 14.0176 8.45568 13.4776 7.80034C12.9382 7.14695 12.2291 6.8196 11.3495 6.8196C10.4725 6.8196 9.73781 7.20812 9.14547 7.98321C8.55505 8.75765 8.1925 9.78069 8.05718 11.0569H0C0.372125 7.61291 1.60531 4.90954 3.69891 2.94546C5.79316 0.98334 8.41973 0 11.5793 0C14.7363 0 17.3029 0.877913 19.2797 2.63634C21.2545 4.39217 22.2439 6.8196 22.2439 9.91865C22.2439 11.2977 22.0741 12.3207 21.7365 12.9923C21.3994 13.6646 21.1626 14.1468 21.0273 14.439C20.892 14.7319 20.5792 15.1718 20.0903 15.7575C19.5988 16.3426 19.2707 16.722 19.1009 16.8925C18.2903 17.719 17.5237 18.4941 16.7954 19.2171C16.0703 19.9408 15.5878 20.535 15.3535 20.999C15.1148 21.4643 14.998 22.1619 14.998 23.0912V26.1909Z" transform="translate(11.1221 63.6333)" fill="white"/>
<path fill-rule="evenodd" clip-rule="evenodd" d="M48.6585 51.1833H2.87961C1.28909 51.1833 0 49.902 0 48.3203V2.86307C0 1.28198 1.28909 0 2.87961 0H48.6585V51.1833Z" fill="#42C7BB"/>
<path fill-rule="evenodd" clip-rule="evenodd" d="M117.42 51.1833H0V0H117.42C120.138 0 122.341 2.14012 122.341 4.77985V46.4041C122.341 49.0439 120.138 51.1833 117.42 51.1833Z" transform="translate(48.6587)" fill="#EDEDED"/>
<path fill-rule="evenodd" clip-rule="evenodd" d="M0 2.76667C0 4.29465 1.23868 5.53333 2.76667 5.53333H101.502C103.03 5.53333 104.268 4.29465 104.268 2.76667C104.268 1.23868 103.03 0 101.502 0H2.76667C1.23868 0 0 1.23868 0 2.76667Z" transform="translate(58.3901 37.35)" fill="#C7C5C5"/>
<path fill-rule="evenodd" clip-rule="evenodd" d="M0 2.76667C0 4.29465 1.23868 5.53333 2.76667 5.53333H31.9894C33.5174 5.53333 34.7561 4.29465 34.7561 2.76667C34.7561 1.23868 33.5174 0 31.9894 0H2.76667C1.23868 0 0 1.23868 0 2.76667Z" transform="translate(58.3901 22.1333)" fill="#C7C5C5"/>
<path fill-rule="evenodd" clip-rule="evenodd" d="M0 2.76667C0 4.29465 1.23868 5.53333 2.76667 5.53333H55.6236C57.1516 5.53333 58.3902 4.29465 58.3902 2.76667C58.3902 1.23868 57.1516 0 55.6236 0H2.76667C1.23868 0 0 1.23868 0 2.76667Z" transform="translate(58.3901 8.30005)" fill="#C7C5C5"/>
<path fill-rule="evenodd" clip-rule="evenodd" d="M8.0821 36.0322C7.22104 35.1543 6.78955 34.0773 6.78955 32.8037C6.78955 31.5301 7.22104 30.4537 8.0821 29.5732C8.94315 28.6953 9.99953 28.2579 11.2487 28.2579C12.4972 28.2579 13.5536 28.6953 14.4146 29.5732C15.2757 30.4537 15.7072 31.5301 15.7072 32.8037C15.7072 34.0773 15.2757 35.1543 14.4146 36.0322C13.5536 36.9102 12.4972 37.3501 11.2487 37.3501C9.99953 37.3501 8.94315 36.9102 8.0821 36.0322ZM14.998 26.1903H7.29698V22.3162C7.29698 20.9046 7.47378 19.8464 7.82995 19.1397C8.18357 18.4349 8.9342 17.4776 10.0844 16.2716L13.5286 12.6572C14.0361 12.037 14.2882 11.2365 14.2882 10.2558C14.2882 9.27242 14.0176 8.45568 13.4776 7.79969C12.9382 7.14695 12.2291 6.81895 11.3495 6.81895C10.4725 6.81895 9.73781 7.20747 9.14547 7.98256C8.55505 8.75765 8.1925 9.78069 8.05718 11.0562H0C0.372125 7.61291 1.60531 4.90889 3.69891 2.94481C5.79316 0.98334 8.41973 0 11.5793 0C14.7363 0 17.3029 0.877912 19.2797 2.63569C21.2545 4.39151 22.2439 6.81895 22.2439 9.91865C22.2439 11.2977 22.0741 12.3201 21.7365 12.9923C21.3994 13.6639 21.1626 14.1462 21.0273 14.439C20.892 14.7319 20.5792 15.1718 20.0903 15.7569C19.5988 16.3419 19.2707 16.7213 19.1009 16.8925C18.2903 17.7183 17.5237 18.4934 16.7954 19.2171C16.0703 19.9401 15.5878 20.535 15.3535 20.9983C15.1148 21.4643 14.998 22.1619 14.998 23.0912V26.1903Z" transform="translate(11.1221 6.91663)" fill="white"/>
<path fill-rule="evenodd" clip-rule="evenodd" d="M48.6585 51.1833H2.87961C1.28909 51.1833 0 49.9014 0 48.3196V2.86304C0 1.28197 1.28909 0 2.87961 0H48.6585V51.1833Z" transform="translate(0 114.817)" fill="#7692D9"/>
<path fill-rule="evenodd" clip-rule="evenodd" d="M117.42 51.1833H0V0H117.42C120.138 0 122.341 2.14009 122.341 4.77978V46.4035C122.341 49.0432 120.138 51.1833 117.42 51.1833Z" transform="translate(48.6587 114.817)" fill="#EDEDED"/>
<path fill-rule="evenodd" clip-rule="evenodd" d="M0 2.76667C0 4.29465 1.23868 5.53333 2.76667 5.53333H101.502C103.03 5.53333 104.268 4.29465 104.268 2.76667C104.268 1.23868 103.03 0 101.502 0H2.76667C1.23868 0 0 1.23868 0 2.76667Z" transform="translate(58.3901 152.167)" fill="#C7C5C5"/>
<path fill-rule="evenodd" clip-rule="evenodd" d="M0 2.76667C0 4.29465 1.23868 5.53333 2.76667 5.53333H31.9894C33.5174 5.53333 34.7561 4.29465 34.7561 2.76667C34.7561 1.23868 33.5174 0 31.9894 0H2.76667C1.23868 0 0 1.23868 0 2.76667Z" transform="translate(58.3901 136.95)" fill="#C7C5C5"/>
<path fill-rule="evenodd" clip-rule="evenodd" d="M0 2.76667C0 4.29465 1.23868 5.53333 2.76667 5.53333H55.6236C57.1516 5.53333 58.3902 4.29465 58.3902 2.76667C58.3902 1.23868 57.1516 0 55.6236 0H2.76667C1.23868 0 0 1.23868 0 2.76667Z" transform="translate(58.3901 123.117)" fill="#C7C5C5"/>
<path fill-rule="evenodd" clip-rule="evenodd" d="M8.0821 36.0322C7.22104 35.1543 6.78955 34.0773 6.78955 32.8037C6.78955 31.5307 7.22104 30.4537 8.0821 29.5732C8.94315 28.6953 9.99953 28.2579 11.2487 28.2579C12.4972 28.2579 13.5536 28.6953 14.4146 29.5732C15.2757 30.4537 15.7072 31.5307 15.7072 32.8037C15.7072 34.0773 15.2757 35.1543 14.4146 36.0322C13.5536 36.9102 12.4972 37.3501 11.2487 37.3501C9.99953 37.3501 8.94315 36.9102 8.0821 36.0322ZM14.998 26.1909H7.29698V22.3162C7.29698 20.9046 7.47378 19.8464 7.82995 19.1397C8.18357 18.4349 8.9342 17.4776 10.0844 16.2723L13.5286 12.6578C14.0361 12.037 14.2882 11.2365 14.2882 10.2558C14.2882 9.27242 14.0176 8.45568 13.4776 7.80034C12.9382 7.14695 12.2291 6.81895 11.3495 6.81895C10.4725 6.81895 9.73781 7.20812 9.14547 7.98256C8.55505 8.75765 8.1925 9.78069 8.05718 11.0562H0C0.372125 7.61291 1.60531 4.90889 3.69891 2.94481C5.79316 0.98334 8.41973 0 11.5793 0C14.7363 0 17.3029 0.877912 19.2797 2.63569C21.2545 4.39151 22.2439 6.81895 22.2439 9.91865C22.2439 11.2977 22.0741 12.3207 21.7365 12.9923C21.3994 13.6639 21.1626 14.1462 21.0273 14.439C20.892 14.7319 20.5792 15.1718 20.0903 15.7569C19.5988 16.3419 19.2707 16.7213 19.1009 16.8925C18.2903 17.719 17.5237 18.4934 16.7954 19.2171C16.0703 19.9401 15.5878 20.535 15.3535 20.9983C15.1148 21.4643 14.998 22.1619 14.998 23.0912V26.1909Z" transform="translate(11.1221 120.35)" fill="white"/>
</svg>
