<svg width="162" height="201" viewBox="0 0 162 201" fill="none" xmlns="http://www.w3.org/2000/svg">
<path d="M159.058 179H2.88082C2.11628 179.001 1.38259 178.735 0.841977 178.26C0.301364 177.785 -0.00162534 177.14 6.55797e-06 176.468V2.53175C-0.00162534 1.85985 0.301364 1.21506 0.841977 0.739954C1.38259 0.264848 2.11628 -0.00142885 2.88082 5.31839e-06H159.119C159.884 -0.00142885 160.617 0.264848 161.158 0.739954C161.699 1.21506 162.002 1.85985 162 2.53175V176.522C161.925 177.904 160.632 178.993 159.058 179Z" transform="translate(0 22)" fill="#E6E6E8"/>
<path d="M0 0V151.718H107.527H130.235V130.415V0H0Z" transform="translate(15.8823 33.3831)" fill="white"/>
<path d="M48.0796 16.2387V12.0201C48.0796 5.38158 42.3614 0 35.3075 0C28.2537 0 22.5354 5.38158 22.5354 12.0201V16.2387H0V40.8568H70.6765V16.2387H48.0796Z" transform="translate(45.7944)" fill="#F5B33C"/>
<path d="M25.4118 16.1932V11.9865C25.4118 5.36652 19.7231 0 12.7059 0C5.68862 0 0 5.36652 0 11.9865V16.1932" transform="translate(68.2939)" fill="#CF8C15"/>
<path d="M4.22936 7.06976H97.7699C103.405 7.06976 103.413 0 97.7699 0H4.22936C-1.40614 0 -1.41344 7.06976 4.22936 7.06976Z" transform="translate(30 74)" fill="#8D919E"/>
<path d="M4.22936 7.06976H97.7699C103.405 7.06976 103.413 0 97.7699 0H4.22936C-1.40614 0 -1.41344 7.06976 4.22936 7.06976Z" transform="translate(30 107.581)" fill="#8D919E"/>
<path d="M4.22997 7.06976H97.7693C103.406 7.06976 103.413 0 97.7693 0H4.22997C-1.40634 0 -1.41364 7.06976 4.22997 7.06976Z" transform="translate(30.0005 142.93)" fill="#8D919E"/>
</svg>
