<svg width="164" height="144" viewBox="0 0 164 144" fill="none" xmlns="http://www.w3.org/2000/svg">
<rect width="164" height="144" fill="white"/>
<path fill-rule="evenodd" clip-rule="evenodd" d="M81.8571 0L0 48.6041V120.228H163.716V48.6041L81.8571 0Z" fill="#5B95BA"/>
<path fill-rule="evenodd" clip-rule="evenodd" d="M0 71.6242H163.715V0H0V71.6242Z" transform="translate(0 48.6042)" fill="#407BA0"/>
<path fill-rule="evenodd" clip-rule="evenodd" d="M163.715 86.9728C163.715 91.1933 160.263 94.6471 156.042 94.6471H7.67471C3.45374 94.6471 0 91.1933 0 86.9728V0L81.8571 35.8133L163.716 0V86.9728H163.715Z" transform="translate(0 48.6039)" fill="#A6DDE0"/>
<path fill-rule="evenodd" clip-rule="evenodd" d="M163.715 86.9728C163.715 91.1933 160.263 94.6471 156.042 94.6471H7.67471C3.45374 94.6471 0 91.1933 0 86.9728V71.6242L163.715 0V86.9728Z" transform="translate(0 48.6039)" fill="#73C8CC"/>
</svg>
