<svg width="301" height="248" viewBox="0 0 301 248" fill="none" xmlns="http://www.w3.org/2000/svg">
<path d="M-5.51658e-07 4.25812C-5.51658e-07 14.958 -5.51658e-07 25.5851 -5.51658e-07 36.285C-5.51658e-07 41.8897 8.67683 41.8897 8.67683 36.285C8.67683 25.5851 8.67683 14.958 8.67683 4.25812C8.67683 -1.41937 -5.51658e-07 -1.41937 -5.51658e-07 4.25812Z" transform="translate(15.7446 23.4834)" fill="#10847A"/>
<path d="M35.9908 -1.11066e-06C25.3617 -1.11066e-06 14.8048 -1.11066e-06 4.17573 -1.11066e-06C-1.39191 -1.11066e-06 -1.39191 8.7346 4.17573 8.7346C14.8048 8.7346 25.3617 8.7346 35.9908 8.7346C41.5584 8.7346 41.5584 -1.11066e-06 35.9908 -1.11066e-06Z" transform="translate(0 39.3867)" fill="#10847A"/>
<path d="M-8.82653e-06 4.20352C-8.82653e-06 14.9034 -8.82653e-06 25.5305 -8.82653e-06 36.2304C-8.82653e-06 41.8351 8.67682 41.8351 8.67682 36.2304C8.67682 25.5305 8.67682 14.9034 8.67682 4.20352C8.67682 -1.40119 -8.82653e-06 -1.40119 -8.82653e-06 4.20352Z" transform="translate(240.731 193.828)" fill="#A9EBE5"/>
<path d="M35.9908 -8.8853e-06C25.3616 -8.8853e-06 14.8048 -8.8853e-06 4.17572 -8.8853e-06C-1.39192 -8.8853e-06 -1.39192 8.7346 4.17572 8.7346C14.8048 8.7346 25.3616 8.7346 35.9908 8.7346C41.5584 8.7346 41.5584 -8.8853e-06 35.9908 -8.8853e-06Z" transform="translate(224.987 209.678)" fill="#A9EBE5"/>
<path d="M1.10332e-06 3.16629C1.10332e-06 8.47984 1.10332e-06 13.8662 1.10332e-06 19.1797C1.10332e-06 23.4015 6.50763 23.4015 6.50763 19.1797C6.50763 13.8662 6.50763 8.47984 6.50763 3.16629C6.50763 -1.05543 1.10332e-06 -1.05543 1.10332e-06 3.16629Z" transform="translate(51.6094 56.6025)" fill="#A9EBE5"/>
<path d="M19.0529 -1.11066e-06C13.7745 -1.11066e-06 8.42376 -1.11066e-06 3.14535 -1.11066e-06C-1.04845 -1.11066e-06 -1.04845 6.55095 3.14535 6.55095C8.42376 6.55095 13.7745 6.55095 19.0529 6.55095C23.2467 6.55095 23.2467 -1.11066e-06 19.0529 -1.11066e-06Z" transform="translate(43.7637 64.5)" fill="#A9EBE5"/>
<path d="M0 3.13906C0 9.10771 0 15.0764 0 21.045C0 25.2667 6.50762 25.2667 6.50762 21.045C6.50762 15.0764 6.50762 9.10771 6.50762 3.13906C6.50762 -1.00988 0 -1.08267 0 3.13906Z" transform="translate(79.52)" fill="#10847A"/>
<path d="M20.9329 -1.38833e-07C15.0037 -1.38833e-07 9.07452 -1.38833e-07 3.14535 -1.38833e-07C-1.04845 -1.38833e-07 -1.04845 6.55095 3.14535 6.55095C9.07452 6.55095 15.0037 6.55095 20.9329 6.55095C25.1267 6.55095 25.1267 -1.38833e-07 20.9329 -1.38833e-07Z" transform="translate(70.7344 8.88867)" fill="#10847A"/>
<path d="M0 3.16629C0 9.13494 0 15.1036 0 21.0722C0 25.294 6.50762 25.294 6.50762 21.0722C6.50762 15.1036 6.50762 9.13494 6.50762 3.16629C6.50762 -1.05543 0 -1.05543 0 3.16629Z" transform="translate(277.754 165.167)" fill="#10847A"/>
<path d="M20.9328 -8.8853e-06C15.0037 -8.8853e-06 9.07453 -8.8853e-06 3.14536 -8.8853e-06C-1.04844 -8.8853e-06 -1.04844 6.55094 3.14536 6.55094C9.07453 6.55094 15.0037 6.55094 20.9328 6.55094C25.1267 6.55094 25.1267 -8.8853e-06 20.9328 -8.8853e-06Z" transform="translate(268.968 174.012)" fill="#10847A"/>
<path d="M-5.51658e-07 3.1663C-5.51658e-07 9.13494 -5.51658e-07 15.1036 -5.51658e-07 21.0722C-5.51658e-07 25.294 6.50762 25.294 6.50762 21.0722C6.50762 15.1036 6.50762 9.13494 6.50762 3.1663C6.50762 -1.05543 -5.51658e-07 -1.05543 -5.51658e-07 3.1663Z" transform="translate(29.8447 109.009)" fill="#24AB9F"/>
<path d="M20.9329 -4.44265e-06C15.0037 -4.44265e-06 9.07452 -4.44265e-06 3.14535 -4.44265e-06C-1.04845 -4.44265e-06 -1.04845 6.55095 3.14535 6.55095C9.07452 6.55095 15.0037 6.55095 20.9329 6.55095C25.1267 6.55095 25.1267 -4.44265e-06 20.9329 -4.44265e-06Z" transform="translate(21.0596 117.854)" fill="#24AB9F"/>
<path d="M-8.82653e-06 3.1663C-8.82653e-06 8.47985 -8.82653e-06 13.8662 -8.82653e-06 19.1797C-8.82653e-06 23.4015 6.50761 23.4015 6.50761 19.1797C6.50761 13.8662 6.50761 8.47985 6.50761 3.1663C6.50761 -1.05543 -8.82653e-06 -1.05543 -8.82653e-06 3.1663Z" transform="translate(286.648 225.653)" fill="#24AB9F"/>
<path d="M19.0529 4.44265e-06C13.7745 4.44265e-06 8.42375 4.44265e-06 3.14534 4.44265e-06C-1.04846 4.44265e-06 -1.04846 6.55096 3.14534 6.55096C8.42375 6.55096 13.7745 6.55096 19.0529 6.55096C23.2467 6.55096 23.2467 4.44265e-06 19.0529 4.44265e-06Z" transform="translate(278.802 233.551)" fill="#24AB9F"/>
<path d="M-8.82653e-06 3.1663C-8.82653e-06 9.13494 -8.82653e-06 15.1036 -8.82653e-06 21.0722C-8.82653e-06 25.294 6.50761 25.294 6.50761 21.0722C6.50761 15.1036 6.50761 9.13494 6.50761 3.1663C6.50761 -1.05543 -8.82653e-06 -1.05543 -8.82653e-06 3.1663Z" transform="translate(257.001 120.84)" fill="#24AB9F"/>
<path d="M20.9329 0C15.0037 0 9.07452 0 3.14535 0C-1.04845 0 -1.04845 6.55095 3.14535 6.55095C9.07452 6.55095 15.0037 6.55095 20.9329 6.55095C25.1267 6.55095 25.1267 0 20.9329 0Z" transform="translate(248.216 129.756)" fill="#24AB9F"/>
<ellipse cx="86.7137" cy="87.0986" rx="86.7137" ry="87.0986" transform="translate(65.6216 42.3721)" fill="#63D49E"/>
<path d="M81.8273 2.66647L32.5515 55.4318L14.5203 36.1252C11.1998 32.5659 5.8136 32.5659 2.49317 36.1252C-0.831057 39.6805 -0.831057 45.4477 2.49317 49.003L26.5398 74.7505C28.2 76.5281 30.3795 77.421 32.5552 77.421C34.731 77.421 36.9067 76.5322 38.5669 74.7505L93.8582 15.5483C97.1786 11.989 97.1786 6.22582 93.8582 2.66647C90.534 -0.888826 85.1516 -0.888826 81.8273 2.66647Z" transform="translate(104.16 90.7617)" fill="white"/>
</svg>
