<svg width="163" height="164" viewBox="0 0 163 164" fill="none" xmlns="http://www.w3.org/2000/svg">
<rect width="163" height="164" fill="white"/>
<path d="M16.9314 70.645H2.81595C1.24757 70.645 -2.1756e-06 69.395 -2.1756e-06 67.8235V2.82152C-2.1756e-06 1.25004 1.24757 1.08995e-06 2.81595 1.08995e-06H16.9314C18.4997 1.08995e-06 19.7473 1.25004 19.7473 2.82152V67.8235C19.7473 69.3593 18.4997 70.645 16.9314 70.645Z" transform="translate(79.8003 90.101)" fill="#FCCB6F"/>
<path d="M16.9314 53.7159H2.81595C1.24757 53.7159 -2.1756e-06 52.4659 -2.1756e-06 50.8944V2.82152C-2.1756e-06 1.25004 1.24757 4.35979e-06 2.81595 4.35979e-06H16.9314C18.4997 4.35979e-06 19.7473 1.25004 19.7473 2.82152V50.8587C19.7473 52.4302 18.4997 53.7159 16.9314 53.7159Z" transform="translate(79.8003 107.03)" fill="#F5B33C"/>
<path d="M16.9314 121.539H2.81595C1.24757 121.539 2.1756e-06 120.289 2.1756e-06 118.718V2.82151C2.1756e-06 1.25004 1.24757 1.08995e-06 2.81595 1.08995e-06H16.9314C18.4997 1.08995e-06 19.7473 1.25004 19.7473 2.82151V118.718C19.7473 120.254 18.4641 121.539 16.9314 121.539Z" transform="translate(108.031 39.2065)" fill="#24AB9F"/>
<path d="M16.9314 87.6098H2.81595C1.24757 87.6098 2.1756e-06 86.3598 2.1756e-06 84.7883V2.82151C2.1756e-06 1.25004 1.24757 1.08995e-06 2.81595 1.08995e-06H16.9314C18.4997 1.08995e-06 19.7473 1.25004 19.7473 2.82151V84.7883C19.7473 86.3241 18.4641 87.6098 16.9314 87.6098Z" transform="translate(108.031 73.1361)" fill="#109488"/>
<path d="M16.8957 53.7159H2.81595C1.24757 53.7159 -1.0878e-06 52.4659 -1.0878e-06 50.8944V2.82152C-1.0878e-06 1.25004 1.24757 4.35979e-06 2.81595 4.35979e-06H16.9314C18.4997 4.35979e-06 19.7473 1.25004 19.7473 2.82152V50.8587C19.7473 52.4302 18.4641 53.7159 16.8957 53.7159Z" transform="translate(23.4097 107.03)" fill="#73C8CC"/>
<path d="M16.9314 138.504H2.81595C1.24758 138.504 4.35119e-06 137.254 4.35119e-06 135.683V2.82151C4.35119e-06 1.25004 1.24758 -2.72487e-07 2.81595 -2.72487e-07H16.9314C18.4997 -2.72487e-07 19.7473 1.25004 19.7473 2.82151V135.683C19.7473 137.218 18.4997 138.504 16.9314 138.504Z" transform="translate(136.226 22.2417)" fill="#5A478F"/>
<path d="M16.9314 104.575H2.81595C1.24758 104.575 4.35119e-06 103.325 4.35119e-06 101.753V2.82151C4.35119e-06 1.25004 1.24758 1.08995e-06 2.81595 1.08995e-06H16.9314C18.4997 1.08995e-06 19.7473 1.25004 19.7473 2.82151V101.753C19.7473 103.289 18.4997 104.575 16.9314 104.575Z" transform="translate(136.226 56.1714)" fill="#47337D"/>
<path d="M16.9314 87.6098H2.81595C1.24757 87.6098 1.0878e-06 86.3598 1.0878e-06 84.7883V2.82151C1.0878e-06 1.25004 1.24757 1.08995e-06 2.81595 1.08995e-06H16.9314C18.4997 1.08995e-06 19.7473 1.25004 19.7473 2.82151V84.7883C19.7473 86.3241 18.4997 87.6098 16.9314 87.6098Z" transform="translate(51.605 73.1361)" fill="#FCA79A"/>
<path d="M16.9314 70.645H2.81595C1.24757 70.645 1.0878e-06 69.395 1.0878e-06 67.8235V2.82152C1.0878e-06 1.25004 1.24757 1.08995e-06 2.81595 1.08995e-06H16.9314C18.4997 1.08995e-06 19.7473 1.25004 19.7473 2.82152V67.8235C19.7473 69.3593 18.4997 70.645 16.9314 70.645Z" transform="translate(51.605 90.101)" fill="#F47E6C"/>
<path d="M16.8957 36.7511H2.81595C1.24757 36.7511 -1.0878e-06 35.5011 -1.0878e-06 33.9296V2.82152C-1.0878e-06 1.25004 1.24757 4.35979e-06 2.81595 4.35979e-06H16.9314C18.4997 4.35979e-06 19.7473 1.25004 19.7473 2.82152V33.9296C19.7473 35.4654 18.4641 36.7511 16.8957 36.7511Z" transform="translate(23.4097 123.995)" fill="#5BB0B5"/>
<path d="M0.110895 2.06256C0.110895 7.31272 0.110895 12.5986 0.110895 17.8488C0.110895 30.4206 0.110895 42.9924 0.110895 55.5642C0.110895 70.8147 0.110895 86.1008 0.110895 101.351C0.110895 114.495 0.110895 127.638 0.110895 140.817C0.110895 147.21 -0.138619 153.674 0.110895 160.103C0.110895 160.21 0.110895 160.282 0.110895 160.389C0.110895 163.139 4.38829 163.139 4.38829 160.389C4.38829 155.139 4.38829 149.853 4.38829 144.603C4.38829 132.031 4.38829 119.459 4.38829 106.887C4.38829 91.6367 4.38829 76.3505 4.38829 61.1001C4.38829 47.9568 4.38829 34.8136 4.38829 21.6346C4.38829 15.2415 4.63781 8.77705 4.38829 2.34829C4.38829 2.24114 4.38829 2.16971 4.38829 2.06256C4.38829 -0.687521 0.110895 -0.687521 0.110895 2.06256Z" transform="translate(8.43506)" fill="#4A5E81"/>
<path d="M160.073 0.111117C154.833 0.111117 149.557 0.111117 144.318 0.111117C131.771 0.111117 119.224 0.111117 106.676 0.111117C91.4561 0.111117 76.2 0.111117 60.9796 0.111117C47.8623 0.111117 34.7449 0.111117 21.5919 0.111117C15.2115 0.111117 8.75975 -0.138891 2.34366 0.111117C2.23672 0.111117 2.16543 0.111117 2.0585 0.111117C-0.686166 0.111117 -0.686166 4.39696 2.0585 4.39696C7.29831 4.39696 12.5738 4.39696 17.8136 4.39696C30.3606 4.39696 42.9076 4.39696 55.4547 4.39696C70.6751 4.39696 85.9311 4.39696 101.152 4.39696C114.269 4.39696 127.386 4.39696 140.539 4.39696C146.92 4.39696 153.371 4.64697 159.787 4.39696C159.894 4.39696 159.966 4.39696 160.073 4.39696C162.817 4.39696 162.853 0.111117 160.073 0.111117Z" transform="translate(0.855469 158.492)" fill="#4A5E81"/>
<path d="M10.5064 -1.08995e-06C7.6904 -1.08995e-06 4.87445 -1.08995e-06 2.0585 -1.08995e-06C-0.686165 -1.08995e-06 -0.686165 4.28584 2.0585 4.28584C4.87445 4.28584 7.6904 4.28584 10.5064 4.28584C13.2867 4.28584 13.2867 -1.08995e-06 10.5064 -1.08995e-06Z" transform="translate(0.178223 22.9204)" fill="#4A5E81"/>
<path d="M10.5064 -1.08995e-06C7.6904 -1.08995e-06 4.87445 -1.08995e-06 2.0585 -1.08995e-06C-0.686165 -1.08995e-06 -0.686165 4.28584 2.0585 4.28584C4.87445 4.28584 7.6904 4.28584 10.5064 4.28584C13.2867 4.28584 13.2867 -1.08995e-06 10.5064 -1.08995e-06Z" transform="translate(0.178223 39.8851)" fill="#4A5E81"/>
<path d="M10.5064 1.08995e-06C7.6904 1.08995e-06 4.87445 1.08995e-06 2.0585 1.08995e-06C-0.686166 1.08995e-06 -0.686166 4.28585 2.0585 4.28585C4.87445 4.28585 7.6904 4.28585 10.5064 4.28585C13.251 4.28585 13.251 1.08995e-06 10.5064 1.08995e-06Z" transform="translate(0.0712891 56.1714)" fill="#4A5E81"/>
<path d="M10.5064 1.08995e-06C7.6904 1.08995e-06 4.87445 1.08995e-06 2.0585 1.08995e-06C-0.686166 1.08995e-06 -0.686166 4.28585 2.0585 4.28585C4.87445 4.28585 7.6904 4.28585 10.5064 4.28585C13.251 4.28585 13.251 1.08995e-06 10.5064 1.08995e-06Z" transform="translate(0.0712891 73.1361)" fill="#4A5E81"/>
<path d="M10.5064 2.17989e-06C7.6904 2.17989e-06 4.87445 2.17989e-06 2.0585 2.17989e-06C-0.686166 2.17989e-06 -0.686166 4.28585 2.0585 4.28585C4.87445 4.28585 7.6904 4.28585 10.5064 4.28585C13.251 4.28585 13.251 2.17989e-06 10.5064 2.17989e-06Z" transform="translate(0.142578 90.7439)" fill="#4A5E81"/>
<path d="M10.5064 4.35979e-06C7.6904 4.35979e-06 4.87445 4.35979e-06 2.0585 4.35979e-06C-0.686166 4.35979e-06 -0.686166 4.28585 2.0585 4.28585C4.87445 4.28585 7.6904 4.28585 10.5064 4.28585C13.251 4.28585 13.251 4.35979e-06 10.5064 4.35979e-06Z" transform="translate(0.142578 107.744)" fill="#4A5E81"/>
<path d="M10.5064 4.35979e-06C7.6904 4.35979e-06 4.87445 4.35979e-06 2.0585 4.35979e-06C-0.686165 4.35979e-06 -0.686165 4.28585 2.0585 4.28585C4.87445 4.28585 7.6904 4.28585 10.5064 4.28585C13.2867 4.28585 13.2867 4.35979e-06 10.5064 4.35979e-06Z" transform="translate(0 123.995)" fill="#4A5E81"/>
<path d="M10.5064 -4.35979e-06C7.6904 -4.35979e-06 4.87445 -4.35979e-06 2.0585 -4.35979e-06C-0.686165 -4.35979e-06 -0.686165 4.28584 2.0585 4.28584C4.87445 4.28584 7.6904 4.28584 10.5064 4.28584C13.2867 4.28584 13.2867 -4.35979e-06 10.5064 -4.35979e-06Z" transform="translate(0 140.995)" fill="#4A5E81"/>
</svg>
