<svg width="173" height="152" viewBox="0 0 173 152" fill="none" xmlns="http://www.w3.org/2000/svg">
<rect width="173" height="152" fill="white"/>
<rect width="173" height="104" transform="translate(0 48)" fill="#F5F5F5"/>
<path d="M173 0H155.701H86.5012H51.9012H0.00115333H0V33H0.00115333H173V0Z" transform="translate(0 15)" fill="#407BA0"/>
<path d="M5.1 31C2.28344 31 0 29.3985 0 27.4231V3.57692C0 1.60151 2.28344 0 5.1 0C7.91656 0 10.2 1.60151 10.2 3.57692V27.4231C10.2 29.3985 7.91656 31 5.1 31Z" transform="translate(27)" fill="#164B6E"/>
<path d="M5.1 31C2.28344 31 0 29.3985 0 27.4231V3.57692C0 1.60151 2.28344 0 5.1 0C7.91656 0 10.2 1.60151 10.2 3.57692V27.4231C10.2 29.3985 7.91656 31 5.1 31Z" transform="translate(81.3999)" fill="#164B6E"/>
<path d="M5.1 31C2.28344 31 0 29.3985 0 27.4231V3.57692C0 1.60151 2.28344 0 5.1 0C7.91656 0 10.2 1.60151 10.2 3.57692V27.4231C10.2 29.3985 7.91656 31 5.1 31Z" transform="translate(136)" fill="#164B6E"/>
<path d="M-4.04602e-07 12.4583C-4.04602e-07 7.54854 3.83686 2.37258 9.32436 -1.12055e-06C14.8122 2.37258 18.6487 7.54821 18.6487 12.4583C18.6487 17.5519 14.4741 21.6811 9.32436 21.6811C4.17428 21.6811 -4.04602e-07 17.5519 -4.04602e-07 12.4583Z" transform="translate(77.9338 65)" fill="#F89C55"/>
<path d="M34.5003 -3.84188e-06C10.8311 -3.84188e-06 8.49665e-07 14.7564 8.49665e-07 14.7564V33.2021H69V14.7564C69 14.7564 58.1692 -3.84188e-06 34.5003 -3.84188e-06Z" transform="translate(52 103.798)" fill="#FCCB6F"/>
<path d="M2.79744 -2.12104e-06C1.25222 -2.12104e-06 4.04602e-07 1.23858 4.04602e-07 2.76697V17.5234H5.59455V2.76697C5.59488 1.23825 4.34266 -2.12104e-06 2.79744 -2.12104e-06Z" transform="translate(84.46 80.6791)" fill="#24AB9F"/>
<path d="M69 4.58993V24.5623C62.883 23.629 60.96 24.5714 58.947 25.5567C56.865 26.5757 54.273 27.8456 49.5 27.8456C44.724 27.8456 42.135 26.5757 40.05 25.5567C38.349 24.7244 37.224 24.1736 34.497 24.1736C31.773 24.1736 30.648 24.7244 28.947 25.5567C26.865 26.5757 24.273 27.8456 19.5 27.8456C14.724 27.8456 12.135 26.5757 10.053 25.5567C8.037 24.5714 6.111 23.6259 0 24.5592V4.58993C0 2.05629 2.016 0 4.5 0H64.5C66.984 0 69 2.05629 69 4.58993Z" transform="translate(52 94.0985)" fill="#E566A1"/>
</svg>
