<svg width="162" height="150" viewBox="0 0 162 150" fill="none" xmlns="http://www.w3.org/2000/svg">
<path fill-rule="evenodd" clip-rule="evenodd" d="M54.9915 0L0 74.3155L57.4109 116.877L112.403 42.5615L54.9923 0H54.9915Z" transform="translate(49.5967)" fill="#EDEDED"/>
<path fill-rule="evenodd" clip-rule="evenodd" d="M15.3723 20.802L16.5881 20.4845L22.6675 35.2848L21.4519 35.602L15.3723 20.802ZM35.3478 14.137L35.6951 15.3488L16.646 19.5898L16.2987 18.3781L35.3478 14.137ZM14.939 0.0287305L16.1838 0L16.5022 15.4348L15.2575 15.4636L14.939 0.0287305ZM15.1988 18.6654L14.8225 19.8772L0 15.3765L0.376339 14.1649L15.1988 18.6654Z" transform="matrix(0.807562 0.589782 -0.593082 0.805142 109.448 26.442)" fill="#4A5E81"/>
<path fill-rule="evenodd" clip-rule="evenodd" d="M8.36703 0C12.988 0 16.7342 3.73311 16.7342 8.33833C16.7342 12.9434 12.988 16.6765 8.36703 16.6765C3.74603 16.6765 0 12.9434 0 8.33833C0 3.73311 3.74603 0 8.36703 0" transform="matrix(0.807562 0.589782 -0.593082 0.805142 108.868 39.6279)" fill="#5A478F"/>
<path fill-rule="evenodd" clip-rule="evenodd" d="M6.08001 0C9.43808 0 12.1602 2.71271 12.1602 6.0592C12.1602 9.40553 9.43808 12.1182 6.08001 12.1182C2.7221 12.1182 0 9.40553 0 6.0592C0 2.71271 2.7221 0 6.08001 0" transform="matrix(0.807562 0.589782 -0.593082 0.805142 104.254 62.1947)" fill="#F47E6C"/>
<path fill-rule="evenodd" clip-rule="evenodd" d="M4.54521 0C7.05558 0 9.09057 2.02797 9.09057 4.52969C9.09057 7.0314 7.05558 9.05937 4.54521 9.05937C2.03499 9.05937 0 7.0314 0 4.52969C0 2.02797 2.03499 0 4.54521 0" transform="matrix(0.807562 0.589782 -0.593082 0.805142 128.839 53.1779)" fill="#73C8CC"/>
<mask id="mask0" mask-type="alpha" maskUnits="userSpaceOnUse" x="90" y="27" width="18" height="18">
<path fill-rule="evenodd" clip-rule="evenodd" d="M0 11.944V0L11.9853 0V11.944H0H0Z" transform="matrix(0.807562 0.589782 -0.593082 0.805142 97.825 27.9197)" fill="white"/>
</mask>
<g mask="url(#mask0)">
<path fill-rule="evenodd" clip-rule="evenodd" d="M5.99275 0C9.30245 0 11.9853 2.67379 11.9853 5.97193C11.9853 9.27022 9.30245 11.944 5.99275 11.944C2.68304 11.944 0 9.27022 0 5.97193C0 2.67379 2.68304 0 5.99275 0" transform="matrix(0.807562 0.589782 -0.593082 0.805142 97.825 27.9197)" fill="#42C7BB"/>
</g>
<path fill-rule="evenodd" clip-rule="evenodd" d="M3.50299 0C5.43754 0 7.00598 1.56288 7.00598 3.49091C7.00598 5.41879 5.43754 6.98166 3.50299 6.98166C1.56844 6.98166 0 5.41879 0 3.49091C0 1.56288 1.56844 0 3.50299 0" transform="matrix(0.807562 0.589782 -0.593082 0.805142 123.119 27.9946)" fill="#FCCB6F"/>
<path fill-rule="evenodd" clip-rule="evenodd" d="M0 10.5817L13.6717 102.044L84.3289 91.4618L70.6573 0L0 10.5817Z" transform="translate(0 10.3425)" fill="#F5F5F5"/>
<path d="M5.64372 23.0447H0.938641C0.415854 23.0447 -7.25191e-07 22.637 -7.25191e-07 22.1244V0.920393C-7.25191e-07 0.40777 0.415854 3.55546e-07 0.938641 3.55546e-07H5.64372C6.16651 3.55546e-07 6.58236 0.40777 6.58236 0.920393V22.1244C6.58236 22.6253 6.16651 23.0447 5.64372 23.0447Z" transform="matrix(0.988383 -0.151984 0.153263 0.988185 40.3555 54.821)" fill="#FCCB6F"/>
<path d="M5.64372 17.5224H0.938641C0.415854 17.5224 -7.25191e-07 17.1146 -7.25191e-07 16.602V0.920393C-7.25191e-07 0.407769 0.415854 1.42218e-06 0.938641 1.42218e-06H5.64372C6.16651 1.42218e-06 6.58236 0.407769 6.58236 0.920393V16.5904C6.58236 17.103 6.16651 17.5224 5.64372 17.5224Z" transform="matrix(0.988383 -0.151984 0.153263 0.988185 41.2019 60.2791)" fill="#F5B33C"/>
<path d="M5.64373 39.6468H0.938641C0.415853 39.6468 7.25191e-07 39.239 7.25191e-07 38.7264V0.920391C7.25191e-07 0.407768 0.415853 3.55546e-07 0.938641 3.55546e-07H5.64373C6.16651 3.55546e-07 6.58237 0.407768 6.58237 0.920391V38.7264C6.58237 39.2273 6.15463 39.6468 5.64373 39.6468Z" transform="matrix(0.988383 -0.151984 0.153263 0.988185 47.1111 36.986)" fill="#24AB9F"/>
<path d="M5.64373 28.5787H0.938641C0.415853 28.5787 7.25191e-07 28.171 7.25191e-07 27.6584V0.920391C7.25191e-07 0.407768 0.415853 3.55546e-07 0.938641 3.55546e-07H5.64373C6.16651 3.55546e-07 6.58237 0.407768 6.58237 0.920391V27.6584C6.58237 28.1593 6.15463 28.5787 5.64373 28.5787Z" transform="matrix(0.988383 -0.151984 0.153263 0.988185 48.8071 47.9221)" fill="#109488"/>
<path d="M5.63184 17.5224H0.938641C0.415853 17.5224 -3.62595e-07 17.1146 -3.62595e-07 16.602V0.920393C-3.62595e-07 0.407769 0.415853 1.42218e-06 0.938641 1.42218e-06H5.64373C6.16651 1.42218e-06 6.58237 0.407769 6.58237 0.920393V16.5904C6.58237 17.103 6.15463 17.5224 5.63184 17.5224Z" transform="matrix(0.988383 -0.151984 0.153263 0.988185 22.6245 63.1362)" fill="#73C8CC"/>
<path d="M5.64373 45.1808H0.938641C0.415854 45.1808 1.45038e-06 44.773 1.45038e-06 44.2604V0.920392C1.45038e-06 0.407768 0.415854 -8.88865e-08 0.938641 -8.88865e-08H5.64373C6.16651 -8.88865e-08 6.58237 0.407768 6.58237 0.920392V44.2604C6.58237 44.7613 6.16651 45.1808 5.64373 45.1808Z" transform="matrix(0.988383 -0.151984 0.153263 0.988185 55.5544 30.0908)" fill="#5A478F"/>
<path d="M5.64373 34.1127H0.938641C0.415854 34.1127 1.45038e-06 33.705 1.45038e-06 33.1924V0.920391C1.45038e-06 0.407768 0.415854 3.55546e-07 0.938641 3.55546e-07H5.64373C6.16651 3.55546e-07 6.58237 0.407768 6.58237 0.920391V33.1924C6.58237 33.6933 6.16651 34.1127 5.64373 34.1127Z" transform="matrix(0.988383 -0.151984 0.153263 0.988185 57.249 41.0259)" fill="#47337D"/>
<path d="M5.64373 28.5787H0.93864C0.415853 28.5787 3.62595e-07 28.171 3.62595e-07 27.6584V0.920391C3.62595e-07 0.407768 0.415853 3.55546e-07 0.93864 3.55546e-07H5.64373C6.16651 3.55546e-07 6.58237 0.407768 6.58237 0.920391V27.6584C6.58237 28.1593 6.16651 28.5787 5.64373 28.5787Z" transform="matrix(0.988383 -0.151984 0.153263 0.988185 30.2197 50.7823)" fill="#FCA79A"/>
<path d="M5.64373 23.0447H0.93864C0.415853 23.0447 3.62595e-07 22.637 3.62595e-07 22.1244V0.920393C3.62595e-07 0.40777 0.415853 3.55546e-07 0.93864 3.55546e-07H5.64373C6.16651 3.55546e-07 6.58237 0.40777 6.58237 0.920393V22.1244C6.58237 22.6253 6.16651 23.0447 5.64373 23.0447Z" transform="matrix(0.988383 -0.151984 0.153263 0.988185 31.0664 56.249)" fill="#F47E6C"/>
<path d="M5.63184 11.9884H0.938641C0.415853 11.9884 -3.62595e-07 11.5806 -3.62595e-07 11.068V0.920392C-3.62595e-07 0.407769 0.415853 1.42218e-06 0.938641 1.42218e-06H5.64373C6.16651 1.42218e-06 6.58237 0.407769 6.58237 0.920392V11.068C6.58237 11.569 6.15463 11.9884 5.63184 11.9884Z" transform="matrix(0.988383 -0.151984 0.153263 0.988185 23.4719 68.6045)" fill="#5BB0B5"/>
<path d="M0.0369648 0.672818C0.0369648 2.38545 0.0369648 4.10972 0.0369648 5.82235C0.0369648 9.92334 0.0369648 14.0243 0.0369648 18.1253C0.0369648 23.1001 0.0369648 28.0865 0.0369648 33.0613C0.0369648 37.3487 0.0369648 41.6361 0.0369648 45.9351C0.0369648 48.0206 -0.0462059 50.1293 0.0369648 52.2264C0.0369648 52.2614 0.0369648 52.2847 0.0369648 52.3196C0.0369648 53.2167 1.46275 53.2167 1.46275 52.3196C1.46275 50.607 1.46275 48.8827 1.46275 47.1701C1.46275 43.0691 1.46275 38.9681 1.46275 34.8671C1.46275 29.8923 1.46275 24.9059 1.46275 19.9311C1.46275 15.6437 1.46275 11.3564 1.46275 7.05731C1.46275 4.97186 1.54592 2.86312 1.46275 0.766022C1.46275 0.731071 1.46275 0.70777 1.46275 0.672818C1.46275 -0.224273 0.0369648 -0.224273 0.0369648 0.672818Z" transform="matrix(0.988383 -0.151984 0.153263 0.988185 12.3391 29.3945)" fill="#4A5E81"/>
<path d="M53.357 0.0362468C51.6104 0.0362468 49.8519 0.0362468 48.1053 0.0362468C43.923 0.0362468 39.7407 0.0362468 35.5584 0.0362468C30.485 0.0362468 25.3997 0.0362468 20.3263 0.0362468C15.9539 0.0362468 11.5815 0.0362468 7.19724 0.0362468C5.07044 0.0362468 2.91989 -0.0453069 0.78121 0.0362468C0.745566 0.0362468 0.721803 0.0362468 0.686158 0.0362468C-0.228719 0.0362468 -0.228719 1.43431 0.686158 1.43431C2.43274 1.43431 4.19121 1.43431 5.93779 1.43431C10.1201 1.43431 14.3024 1.43431 18.4847 1.43431C23.5581 1.43431 28.6434 1.43431 33.7168 1.43431C38.0892 1.43431 42.4616 1.43431 46.8459 1.43431C48.9727 1.43431 51.1232 1.51586 53.2619 1.43431C53.2976 1.43431 53.3213 1.43431 53.357 1.43431C54.2718 1.43431 54.2837 0.0362468 53.357 0.0362468Z" transform="matrix(0.988383 -0.151984 0.153263 0.988185 17.7659 80.8679)" fill="#4A5E81"/>
<path d="M3.50208 -3.55546e-07C2.56344 -3.55546e-07 1.6248 -3.55546e-07 0.686158 -3.55546e-07C-0.228719 -3.55546e-07 -0.228719 1.39806 0.686158 1.39806C1.6248 1.39806 2.56344 1.39806 3.50208 1.39806C4.42884 1.39806 4.42884 -3.55546e-07 3.50208 -3.55546e-07Z" transform="matrix(0.988383 -0.151984 0.153263 0.988185 10.7649 37.1996)" fill="#4A5E81"/>
<path d="M3.50208 -3.55546e-07C2.56344 -3.55546e-07 1.6248 -3.55546e-07 0.686158 -3.55546e-07C-0.228719 -3.55546e-07 -0.228719 1.39806 0.686158 1.39806C1.6248 1.39806 2.56344 1.39806 3.50208 1.39806C4.42884 1.39806 4.42884 -3.55546e-07 3.50208 -3.55546e-07Z" transform="matrix(0.988383 -0.151984 0.153263 0.988185 11.6128 42.6687)" fill="#4A5E81"/>
<path d="M3.50208 3.55546e-07C2.56344 3.55546e-07 1.6248 3.55546e-07 0.686158 3.55546e-07C-0.228719 3.55546e-07 -0.228719 1.39806 0.686158 1.39806C1.6248 1.39806 2.56344 1.39806 3.50208 1.39806C4.41696 1.39806 4.41696 3.55546e-07 3.50208 3.55546e-07Z" transform="matrix(0.988383 -0.151984 0.153263 0.988185 12.3916 47.924)" fill="#4A5E81"/>
<path d="M3.50208 3.55546e-07C2.56344 3.55546e-07 1.6248 3.55546e-07 0.686158 3.55546e-07C-0.228719 3.55546e-07 -0.228719 1.39806 0.686158 1.39806C1.6248 1.39806 2.56344 1.39806 3.50208 1.39806C4.41696 1.39806 4.41696 3.55546e-07 3.50208 3.55546e-07Z" transform="matrix(0.988383 -0.151984 0.153263 0.988185 13.2397 53.3949)" fill="#4A5E81"/>
<path d="M3.50208 7.11092e-07C2.56344 7.11092e-07 1.6248 7.11092e-07 0.686158 7.11092e-07C-0.228719 7.11092e-07 -0.228719 1.39806 0.686158 1.39806C1.6248 1.39806 2.56344 1.39806 3.50208 1.39806C4.41696 1.39806 4.41696 7.11092e-07 3.50208 7.11092e-07Z" transform="matrix(0.988383 -0.151984 0.153263 0.988185 14.144 59.0656)" fill="#4A5E81"/>
<path d="M3.50208 1.42218e-06C2.56344 1.42218e-06 1.6248 1.42218e-06 0.686158 1.42218e-06C-0.228719 1.42218e-06 -0.228719 1.39806 0.686158 1.39806C1.6248 1.39806 2.56344 1.39806 3.50208 1.39806C4.41696 1.39806 4.41696 1.42218e-06 3.50208 1.42218e-06Z" transform="matrix(0.988383 -0.151984 0.153263 0.988185 14.9944 64.5479)" fill="#4A5E81"/>
<path d="M3.50208 1.42218e-06C2.56344 1.42218e-06 1.6248 1.42218e-06 0.686158 1.42218e-06C-0.228719 1.42218e-06 -0.228719 1.39806 0.686158 1.39806C1.6248 1.39806 2.56344 1.39806 3.50208 1.39806C4.42884 1.39806 4.42884 1.42218e-06 3.50208 1.42218e-06Z" transform="matrix(0.988383 -0.151984 0.153263 0.988185 15.7595 69.7906)" fill="#4A5E81"/>
<path d="M3.50208 -1.42218e-06C2.56344 -1.42218e-06 1.6248 -1.42218e-06 0.686158 -1.42218e-06C-0.228719 -1.42218e-06 -0.228719 1.39806 0.686158 1.39806C1.6248 1.39806 2.56344 1.39806 3.50208 1.39806C4.42884 1.39806 4.42884 -1.42218e-06 3.50208 -1.42218e-06Z" transform="matrix(0.988383 -0.151984 0.153263 0.988185 16.6099 75.2703)" fill="#4A5E81"/>
<path fill-rule="evenodd" clip-rule="evenodd" d="M0.540675 3.14087C3.40118 6.00367 6.26169 8.86647 9.1222 11.7293C10.7963 13.4047 13.3947 10.8054 11.7203 9.12937C8.85951 6.26657 5.999 3.40377 3.13849 0.540969C1.46468 -1.13449 -1.13405 1.4648 0.540675 3.14087" transform="translate(101.962 111.377)" fill="#164B6E"/>
<path fill-rule="evenodd" clip-rule="evenodd" d="M56.104 28.0746C56.104 43.5796 43.5448 56.1493 28.0521 56.1493C12.5592 56.1493 0 43.5796 0 28.0746C0 12.5693 12.5592 0 28.0521 0C43.5448 0 56.104 12.5693 56.104 28.0746" transform="translate(53.1152 67.7356)" fill="#2B688F"/>
<path fill-rule="evenodd" clip-rule="evenodd" d="M32.4934 22.7694L22.7542 32.5194L0 9.74694L4.78201 4.96386L9.7422 0L32.4934 22.7694Z" transform="translate(107.6 117.019)" fill="#FCCB6F"/>
<path fill-rule="evenodd" clip-rule="evenodd" d="M48.5702 24.1782C48.5702 30.6362 46.043 36.7081 41.4571 41.2774H41.4539C39.6506 43.0729 37.5855 44.5691 35.32 45.7211C31.8846 47.4715 28.1716 48.3564 24.2838 48.3564C15.115 48.3564 6.82226 43.3045 2.64682 35.1668C1.7681 33.455 1.10559 31.6788 0.662512 29.8415C0.222992 28.0041 0 26.1121 0 24.1782C0 21.9451 0.307018 19.7281 0.918145 17.5818C1.85503 14.2868 3.45185 11.2847 5.66852 8.65254C10.2996 3.1534 17.0864 0 24.2838 0C28.1681 0 31.8814 0.8881 35.32 2.63856C42.6464 6.36794 47.5458 13.4373 48.4251 21.5461V21.5525C48.5221 22.4277 48.5702 23.3126 48.5702 24.1782" transform="translate(57.0315 71.6364)" fill="white"/>
<path fill-rule="evenodd" clip-rule="evenodd" d="M0 37.8807C7.00906 40.1398 14.5963 38.3208 19.8004 33.1393C22.007 30.9422 23.6103 28.3413 24.5624 25.4064C25.1913 23.4722 25.5106 21.4556 25.5106 19.4175L25.5122 19.4156C25.5106 14.2305 23.4836 9.35591 19.802 5.68992C19.3085 5.19889 18.7769 4.72395 18.2226 4.28183C18.221 4.28022 18.221 4.28022 18.2191 4.27829C13.0974 0.172435 6.28644 -1.07123 0.00193906 0.952419" transform="translate(76.6174 76.3159)" fill="#BCE0F7" fill-opacity="0.25"/>
</svg>
