<svg width="378" height="373" viewBox="0 0 378 373" fill="none" xmlns="http://www.w3.org/2000/svg">
<mask id="mask0" mask-type="alpha" maskUnits="userSpaceOnUse" x="0" y="-7" width="380" height="380">
<rect width="380" height="380" transform="translate(0 -7)" fill="#C4C4C4"/>
</mask>
<g mask="url(#mask0)">
<g opacity="0.1">
<path fill-rule="evenodd" clip-rule="evenodd" d="M50.0824 0C22.4224 0.00634766 0.0020752 22.3901 0 50.0015C0.0020752 77.6128 22.4224 99.9966 50.0824 100.003C77.7456 100.001 100.17 77.6157 100.172 50.0015C100.172 22.3862 77.7465 0 50.0824 0ZM1.69214 50.0015C1.67468 37.1841 6.77686 24.8882 15.8689 15.8374C24.9362 6.76172 37.2535 1.66846 50.0938 1.68555C62.9342 1.66797 75.2517 6.76123 84.3187 15.8374C93.4108 24.8882 98.5129 37.1841 98.4954 50.0015C98.5125 62.8193 93.4104 75.1147 84.3187 84.166C75.252 93.2422 62.9342 98.3354 50.0938 98.3174C37.2535 98.3345 24.9362 93.2417 15.8689 84.166C6.77722 75.1147 1.67505 62.8193 1.69214 50.0015Z" transform="translate(48.9447 100.374)" fill="#41495A"/>
<path fill-rule="evenodd" clip-rule="evenodd" d="M70.9977 0C31.7874 0 0 31.731 0 70.8721C0 110.013 31.7874 141.744 70.9977 141.744C110.208 141.744 141.995 110.013 141.995 70.8721C141.995 31.731 110.208 0 70.9977 0ZM0.562866 70.8721C0.535156 52.2158 7.95996 34.3184 21.1929 21.144C34.3906 7.93457 52.3197 0.522949 71.009 0.550293C89.6984 0.522949 107.628 7.93457 120.825 21.144C134.058 34.3184 141.483 52.2158 141.455 70.8721C141.483 89.5283 134.058 107.426 120.825 120.6C107.627 133.809 89.6982 141.221 71.009 141.194C52.3199 141.221 34.3911 133.809 21.1929 120.6C7.96033 107.425 0.535522 89.5283 0.562866 70.8721Z" transform="translate(28.0294 79.5034)" fill="#41495A"/>
</g>
<path opacity="0.1" fill-rule="evenodd" clip-rule="evenodd" d="M0 57.4663C0.0488281 56.4062 0.124512 55.354 0.227173 54.3091L54.7292 0.23291C55.7946 0.128906 56.8573 0.0507812 57.9176 0L0 57.4663ZM0.334717 66.9131C0.238525 66.0303 0.153809 65.1323 0.0921631 64.2378L64.7445 0.0644531C65.6571 0.125488 66.562 0.202148 67.463 0.30127L0.334717 66.9131ZM20.5701 105.503C20.0566 105.045 19.5432 104.579 19.0298 104.105L104.911 18.8726C105.388 19.3823 105.858 19.8916 106.32 20.4014L20.5701 105.503ZM32.226 113.499C31.5842 113.16 30.9501 112.811 30.3237 112.452L113.328 30.0708C113.688 30.6924 114.038 31.3218 114.38 31.959L32.226 113.499ZM44.163 118.284C44.9331 118.501 45.7032 118.704 46.5081 118.892L119.782 46.1494L119.77 46.1006C119.585 45.3511 119.392 44.5698 119.174 43.8179L44.163 118.284ZM87.5059 114.362L115.23 86.8447C114.04 89.2441 112.69 91.563 111.191 93.7852L94.4871 110.365C92.2523 111.85 89.92 113.186 87.5059 114.362ZM120.891 51.9087L52.3033 119.965C53.1813 120.087 54.0669 120.187 54.9526 120.271L121.184 54.5342C121.135 54.0044 121.077 53.4746 121.01 52.9443C120.996 52.8105 120.979 52.6772 120.963 52.5444C120.936 52.332 120.91 52.1201 120.891 51.9087ZM76.4623 118.475C75.1993 118.816 73.9158 119.115 72.6117 119.37L120.302 72.0391C120.043 73.3257 119.741 74.5996 119.397 75.8608L76.4623 118.475ZM24.3861 108.569C24.8555 108.914 25.3408 109.254 25.8157 109.587L26.1073 109.792L110.648 25.8857C110.245 25.3071 109.833 24.7378 109.412 24.1772L24.3861 108.569ZM64.6716 120.405C63.6448 120.474 62.6179 120.516 61.5911 120.531L121.461 61.1006C121.446 62.1196 121.406 63.1392 121.342 64.1582L64.6716 120.405ZM36.8892 115.715C37.5848 116.011 38.287 116.292 38.9955 116.56L117.456 38.6812C117.184 37.9775 116.901 37.2808 116.605 36.5903L36.8892 115.715ZM8.37512 29.6157L29.8926 8.25488C21.0159 13.4551 13.6127 20.8042 8.37512 29.6157ZM1.63269 46.0767C1.97412 44.7007 2.35913 43.3438 2.78784 42.0063L42.3186 2.77441C43.6638 2.34131 45.0282 1.95898 46.4119 1.62793L1.63269 46.0767ZM3.44629 80.4473C3.703 81.1655 3.97253 81.8765 4.25488 82.5796L83.1932 4.23096C82.4846 3.95068 81.7698 3.68311 81.0483 3.42822L3.44629 80.4473ZM1.29773 72.8037C1.46716 73.6025 1.65198 74.3975 1.85217 75.1846L75.7847 1.8042C74.9915 1.60156 74.1904 1.42188 73.3895 1.24609L1.29773 72.8037ZM7.42395 89.1953C7.07483 88.5713 6.73596 87.9341 6.40735 87.2842L87.9833 6.34424C88.6277 6.67041 89.2694 7.00781 89.9086 7.35693L7.42395 89.1953ZM14.2281 99.0825C14.6774 99.6128 15.1356 100.135 15.6028 100.649L101.422 15.4746C100.906 15.0122 100.375 14.5576 99.8396 14.1104L14.2281 99.0825ZM11.1938 95.2339C10.7819 94.6641 10.3774 94.0835 9.99243 93.4946L94.2061 9.93652C94.7965 10.3237 95.3805 10.7212 95.9581 11.1289L11.1938 95.2339Z" transform="translate(25.3334 0.237793)" fill="white"/>
<path opacity="0.1" fill-rule="evenodd" clip-rule="evenodd" d="M0 42.6035C0.0356445 41.8203 0.0916748 41.04 0.167969 40.2642L40.6832 0.174316C41.4774 0.0961914 42.2679 0.0380859 43.0546 0L0 42.6035ZM0.244263 49.6182C0.167847 48.9507 0.106689 48.2871 0.0609131 47.6235L48.1331 0.0488281C48.809 0.090332 49.4849 0.147461 50.1531 0.223145L0.244263 49.6182ZM15.2858 78.2158C14.9014 77.877 14.5194 77.5317 14.1401 77.1807L78.0098 13.9878C78.3636 14.3594 78.7124 14.7388 79.056 15.1255L15.2858 78.2158ZM23.9539 84.127C23.4778 83.8892 23.0068 83.6362 22.541 83.3687L84.2684 22.2764C84.5356 22.7363 84.7966 23.2026 85.0511 23.6753L23.9539 84.127ZM32.8512 87.6831C33.4279 87.8462 33.9968 87.9941 34.5925 88.1348L89.0531 34.2163C88.9119 33.6362 88.7629 33.0601 88.6025 32.4873L32.8512 87.6831ZM65.0686 84.7905L85.689 64.3833C84.8031 66.165 83.7992 67.8867 82.6837 69.5361L70.2618 81.8291C68.599 82.9297 66.8641 83.9189 65.0686 84.7905ZM89.8894 38.4824L89.8716 38.5L89.8702 38.4824H89.8894ZM89.8716 38.5L38.8807 88.939C39.5337 89.0298 40.1906 89.1055 40.8511 89.1665L90.1108 40.4277C90.0752 40.0356 90.0332 39.6426 89.9849 39.2485L89.9521 39.0591C89.9194 38.8735 89.8867 38.688 89.8716 38.5ZM56.8624 87.835C55.9204 88.0854 54.9646 88.3066 53.9946 88.4985L89.4578 53.4062C89.2643 54.3618 89.0403 55.3071 88.7858 56.2427L56.8624 87.835ZM18.1383 80.4902C18.5583 80.8013 18.9861 81.1011 19.4175 81.3965L82.2523 19.1899C81.9545 18.7627 81.6489 18.3403 81.3358 17.9233L18.1383 80.4902ZM48.0912 89.2646C47.3275 89.3276 46.5637 89.3594 45.8 89.3594L90.3171 45.2808C90.3069 46.0391 90.2776 46.7974 90.2292 47.5557L48.0912 89.2646ZM27.4326 85.7871C27.9418 86.0044 28.4636 86.2129 28.9983 86.4126L87.327 28.6763C87.126 28.1558 86.9159 27.6387 86.697 27.1255L27.4326 85.7871ZM6.22046 21.958L22.2203 6.12402C15.6246 9.97412 10.1198 15.4219 6.22046 21.958ZM1.21045 34.1748C1.45996 33.1436 1.74377 32.1323 2.06201 31.1416L31.4651 2.04395C32.4834 1.73828 33.5017 1.45898 34.5199 1.20605L1.21045 34.1748ZM2.56213 59.6396C2.75049 60.1704 2.95032 60.6978 3.16162 61.2207L61.8685 3.12793C61.3416 2.9209 60.8096 2.72217 60.2723 2.53271L2.56213 59.6396ZM0.950806 53.9863C1.07678 54.5776 1.21423 55.1694 1.36316 55.7534L56.3508 1.3457C55.7627 1.19824 55.167 1.05762 54.5713 0.932617L0.950806 53.9863ZM5.53308 66.1504C5.27856 65.6802 5.02393 65.2051 4.76941 64.7251L65.4047 4.69824C65.8883 4.95117 66.3683 5.20361 66.8442 5.45654L5.53308 66.1504ZM10.5928 73.4458C10.9288 73.8398 11.2699 74.2271 11.6162 74.606L75.4055 11.4775C75.0237 11.1328 74.6418 10.7988 74.2295 10.4653L10.5928 73.4458ZM8.3512 70.5903C8.04565 70.1655 7.7478 69.7373 7.45764 69.3013L70.0557 7.35205C70.4961 7.6377 70.9301 7.93213 71.3578 8.23535L8.3512 70.5903Z" transform="translate(28.9524 278.905)" fill="white"/>
<g opacity="0.1">
<path fill-rule="evenodd" clip-rule="evenodd" d="M74.579 0C33.3895 0 0.0114746 33.252 0.0114746 74.2686H0C0 115.293 33.3857 148.537 74.5673 148.537C115.757 148.537 149.135 115.285 149.135 74.2686C149.135 33.248 115.757 0 74.579 0ZM2.53223 74.269C2.50525 55.231 10.0995 36.9678 23.6333 23.5234C37.1318 10.0444 55.4684 2.48047 74.5826 2.50684C93.6959 2.48096 112.031 10.0449 125.528 23.5234C139.062 36.9678 146.656 55.231 146.63 74.269C146.656 93.3066 139.062 111.57 125.528 125.014C112.031 138.493 93.6959 146.057 74.5826 146.031C55.4684 146.057 37.1318 138.494 23.6333 125.014C10.0999 111.57 2.50574 93.3066 2.53223 74.269Z" transform="translate(186.73 41.188)" fill="white"/>
<path fill-rule="evenodd" clip-rule="evenodd" d="M105.69 0C47.3163 0 0 47.127 0 105.266C0 163.406 47.3163 210.536 105.69 210.536C164.059 210.532 211.379 163.406 211.379 105.266C211.379 47.1304 164.059 0 105.69 0ZM0.855591 105.266C0.814209 77.5645 11.86 50.9888 31.5481 31.4219C51.1937 11.8125 77.8763 0.811035 105.69 0.852051C133.503 0.811035 160.185 11.8125 179.831 31.4219C199.519 50.9883 210.565 77.5645 210.524 105.266C210.565 132.968 199.519 159.543 179.831 179.111C160.185 198.719 133.503 209.72 105.69 209.68C77.8766 209.72 51.1945 198.719 31.5481 179.111C11.8604 159.543 0.814575 132.968 0.855591 105.266Z" transform="translate(155.619 10.1904)" fill="white"/>
</g>
<path opacity="0.1" fill-rule="evenodd" clip-rule="evenodd" d="M0 47.0635C0.0383301 46.1953 0.0998535 45.3335 0.18457 44.478L44.8943 0.19043C45.7708 0.104004 46.6436 0.0405273 47.5122 0L0 47.0635ZM0.257324 54.812C0.176514 54.0771 0.107422 53.3423 0.057373 52.6108L53.1279 0.0532227C53.8738 0.102539 54.6194 0.163574 55.3577 0.247559L0.257324 54.812ZM16.8716 86.4043C16.4409 86.0312 16.0168 85.6504 15.5991 85.2622L86.064 15.4668C86.4536 15.8779 86.8379 16.2969 87.2173 16.7231L16.8716 86.4043ZM26.428 92.9727C25.8999 92.6958 25.3796 92.4102 24.8672 92.1157L92.9834 24.6279C93.2805 25.1357 93.5688 25.6509 93.8481 26.1738L26.428 92.9727ZM36.2261 96.8799C36.8604 97.0586 37.5061 97.2222 38.1482 97.3784L98.2839 37.7993C98.1304 37.1597 97.9651 36.52 97.7844 35.8955L36.2261 96.8799ZM71.8064 93.6733L94.5669 71.1279C93.5881 73.0962 92.4785 74.9976 91.2456 76.8203L77.5378 90.3989C75.7031 91.6157 73.7883 92.7095 71.8064 93.6733ZM99.1797 42.5127L42.907 98.2539C43.6257 98.3525 44.3523 98.4365 45.0789 98.5049L99.4333 44.6641C99.3923 44.23 99.345 43.7959 99.2913 43.3618C99.2676 43.1431 99.2373 42.9263 99.207 42.71L99.1797 42.5127ZM62.75 97.0322C61.7122 97.3115 60.6577 97.5566 59.5864 97.7671L98.7224 58.9971C98.5098 60.0532 98.2625 61.0977 97.9805 62.1309L62.75 97.0322ZM19.9927 88.9141C20.4578 89.2568 20.9307 89.5918 21.4033 89.9155L90.7842 21.1978C90.4536 20.7256 90.1155 20.2598 89.7695 19.8003L19.9927 88.9141ZM53.0513 98.6079C52.2056 98.6636 51.3625 98.6978 50.522 98.7104L99.6602 50.0366C99.6499 50.8745 99.6179 51.707 99.564 52.5347L53.0513 98.6079ZM30.2563 94.7695C30.8279 95.0234 31.4045 95.2544 31.9861 95.4624L96.3774 31.6797C96.1545 31.1035 95.9226 30.5322 95.6816 29.9663L30.2563 94.7695ZM6.86353 24.2461L24.5134 6.7627C17.2332 11.0195 11.1609 17.0347 6.86353 24.2461ZM1.33398 37.7344C1.60815 36.6099 1.9209 35.499 2.27197 34.4023L34.7231 2.26172C35.8276 1.9165 36.9475 1.60791 38.0828 1.33643L1.33398 37.7344ZM2.82544 65.8848C3.03564 66.4712 3.25586 67.0537 3.48657 67.6328L68.2776 3.45752C67.696 3.22656 67.1091 3.00684 66.5171 2.79883L2.82544 65.8848ZM1.04956 59.6362C1.18799 60.291 1.33789 60.9419 1.50708 61.5854L62.1851 1.48486C61.5354 1.3208 60.8779 1.16895 60.2207 1.02783L1.04956 59.6362ZM6.07739 73.0737C5.79028 72.5532 5.51221 72.0278 5.24316 71.4976L72.1792 5.19385C72.7275 5.46045 73.2581 5.7373 73.7708 6.02393L6.07739 73.0737ZM11.6704 81.146C12.0396 81.5801 12.4163 82.0078 12.8005 82.4292L83.2153 12.6797C82.7927 12.2988 82.3545 11.918 81.9199 11.564L11.6704 81.146ZM9.19897 78.0005C8.8606 77.5322 8.53394 77.0562 8.21094 76.5767L77.2996 8.14453C77.7839 8.45947 78.2632 8.78418 78.7373 9.11914L9.19897 78.0005Z" transform="translate(250.189 229.906)" fill="white"/>
<rect width="67.8571" height="93.1" transform="translate(241.571 57.3281)" fill="#E6E6E8"/>
<path d="M74.5098 0H67.0593H37.2554H22.3534H0.000496732H0V29.26H0.000496732H74.5098V0Z" transform="translate(241.571 28.0679)" fill="#407BA0"/>
<path d="M67.8571 0H61.0719H33.929H20.3576H0.000452381H0V29.26H0.000452381H67.8571V0Z" transform="translate(309.428 28.0679)" fill="#2B688F"/>
<path d="M3.36435 19.95C1.50633 19.95 0 18.9194 0 17.6481V2.30192C0 1.03065 1.50633 0 3.36435 0C5.22237 0 6.72871 1.03065 6.72871 2.30192V17.6481C6.72871 18.9194 5.22237 19.95 3.36435 19.95Z" transform="translate(265.521 17.4282)" fill="#164B6E"/>
<path d="M3.36435 19.95C1.50633 19.95 0 18.9194 0 17.6481V2.30192C0 1.03065 1.50633 0 3.36435 0C5.22237 0 6.72871 1.03065 6.72871 2.30192V17.6481C6.72871 18.9194 5.22237 19.95 3.36435 19.95Z" transform="translate(305.398 17.4282)" fill="#164B6E"/>
<path d="M3.36435 19.95C1.50633 19.95 0 18.9194 0 17.6481V2.30192C0 1.03065 1.50633 0 3.36435 0C5.22237 0 6.72871 1.03065 6.72871 2.30192V17.6481C6.72871 18.9194 5.22237 19.95 3.36435 19.95Z" transform="translate(344.022 17.4282)" fill="#164B6E"/>
<rect width="67.8571" height="93.1" transform="translate(309.428 57.3281)" fill="#D3D5DB"/>
<rect width="11.9894" height="11.9241" transform="translate(265.521 126.488)" fill="#F683B9"/>
<rect width="11.9894" height="11.9241" transform="translate(246.893 126.488)" fill="#F683B9"/>
<rect width="11.9894" height="11.9241" transform="translate(284.148 126.488)" fill="#F683B9"/>
<rect width="11.9894" height="11.9241" transform="translate(302.776 126.488)" fill="#F683B9"/>
<rect width="11.9894" height="11.9241" transform="translate(322.734 126.488)" fill="#F683B9"/>
<rect width="11.9894" height="11.9241" transform="translate(341.361 126.488)" fill="#F683B9"/>
<rect width="11.9894" height="11.9241" transform="translate(359.989 126.488)" fill="#F683B9"/>
<rect width="11.9894" height="11.9241" transform="translate(265.521 107.868)" fill="#F683B9"/>
<rect width="11.9894" height="11.9241" transform="translate(246.893 107.868)" fill="#F683B9"/>
<rect width="11.9894" height="11.9241" transform="translate(284.148 107.868)" fill="#F683B9"/>
<rect width="11.9894" height="11.9241" transform="translate(302.776 107.868)" fill="#F683B9"/>
<rect width="11.9894" height="11.9241" transform="translate(322.734 107.868)" fill="#F683B9"/>
<rect width="11.9894" height="11.9241" transform="translate(341.361 107.868)" fill="#F683B9"/>
<rect width="11.9894" height="11.9241" transform="translate(359.989 107.868)" fill="#F683B9"/>
<rect width="11.9894" height="11.9241" transform="translate(265.521 69.2983)" fill="white"/>
<rect width="11.9894" height="11.9241" transform="translate(246.893 69.2983)" fill="white"/>
<rect width="11.9894" height="11.9241" transform="translate(284.148 69.2983)" fill="white"/>
<rect width="11.9894" height="11.9241" transform="translate(302.776 69.2983)" fill="white"/>
<rect width="11.9894" height="11.9241" transform="translate(322.734 69.2983)" fill="white"/>
<rect width="11.9894" height="11.9241" transform="translate(341.361 69.2983)" fill="white"/>
<rect width="11.9894" height="11.9241" transform="translate(359.989 69.2983)" fill="white"/>
<path d="M0 0H11.9894V11.9241H0V0Z" transform="translate(265.521 87.918)" fill="white"/>
<path d="M0 0H11.9894V11.9241H0V0Z" transform="translate(246.893 87.918)" fill="white"/>
<path d="M0 0H11.9894V11.9241H0V0Z" transform="translate(284.148 87.918)" fill="white"/>
<path d="M0 0H11.9894V11.9241H0V0Z" transform="translate(302.776 87.918)" fill="white"/>
<path d="M0 0H11.9894V11.9241H0V0Z" transform="translate(322.734 87.918)" fill="white"/>
<path d="M0 0H11.9894V11.9241H0V0Z" transform="translate(341.361 87.918)" fill="white"/>
<path d="M0 0H11.9894V11.9241H0V0Z" transform="translate(359.989 87.918)" fill="white"/>
<path fill-rule="evenodd" clip-rule="evenodd" d="M0 9.97713H5.06599V0H0V9.97713Z" transform="translate(59.4429 215.225)" fill="#DE9A1F"/>
<path fill-rule="evenodd" clip-rule="evenodd" d="M4.74471 13.5791L0 6.90471L10.0182 0L14.7626 6.67296L4.74471 13.5791Z" transform="translate(21.1703 223.168)" fill="#DE9A1F"/>
<path fill-rule="evenodd" clip-rule="evenodd" d="M14.5237 6.93104L10.0525 13.2199L0 6.28882L4.47263 0L14.5237 6.93104Z" transform="translate(88.2583 223.165)" fill="#DE9A1F"/>
<path fill-rule="evenodd" clip-rule="evenodd" d="M12.6648 7.48197H2.53424C1.13572 7.48197 0 6.36572 0 4.98857V2.49341C0 1.11661 1.13572 0 2.53424 0H12.6648C14.0633 0 15.198 1.11661 15.198 2.49341V4.98857C15.198 6.36572 14.0647 7.48197 12.6648 7.48197Z" transform="translate(54.3767 210.237)" fill="#FCCB6F"/>
<path fill-rule="evenodd" clip-rule="evenodd" d="M46.0685 10.6247C38.0554 -0.640371 22.232 -3.38343 10.7921 4.50059C-0.647872 12.3902 -3.43814 27.9732 4.57109 39.2383C4.95691 39.7801 5.54492 40.1488 6.20638 40.2643C6.35401 40.2889 6.50021 40.3012 6.64676 40.3012C7.16381 40.3012 7.67052 40.1449 8.09984 39.8514L45.4459 14.0992C45.9962 13.7193 46.3713 13.1402 46.4865 12.4903C46.6034 11.8386 46.4529 11.1665 46.0685 10.6247Z" transform="translate(0 201.097)" fill="#FAD591"/>
<path fill-rule="evenodd" clip-rule="evenodd" d="M35.7337 4.50166C24.2923 -3.38658 8.46889 -0.636492 0.456805 10.6258C0.0724077 11.169 -0.0780707 11.8397 0.0385322 12.4914C0.154422 13.1413 0.528835 13.7203 1.0794 14.1003L38.4259 39.8525C38.8552 40.1474 39.3633 40.3023 39.8789 40.3023C40.0251 40.3023 40.1713 40.2914 40.319 40.2654C40.9804 40.1513 41.5684 39.7812 41.9543 39.2394C49.9635 27.9743 47.1736 12.3913 35.7337 4.50166Z" transform="translate(77.427 201.095)" fill="#FAD591"/>
<path fill-rule="evenodd" clip-rule="evenodd" d="M4.2775 0L0.085139 16.5089C-0.358095 18.2576 0.985157 19.9529 2.81657 19.9529C3.73157 19.9529 4.59093 19.5139 5.11761 18.7762L13.9834 6.37239L4.2775 0Z" transform="translate(26.5166 323.19)" fill="#164B6E"/>
<path fill-rule="evenodd" clip-rule="evenodd" d="M9.70764 0L13.8989 16.5089C14.3432 18.2576 12.9986 19.9529 11.1675 19.9529C10.2518 19.9529 9.39278 19.5139 8.8661 18.7762L0 6.37239L9.70764 0Z" transform="translate(83.4521 323.189)" fill="#164B6E"/>
<path fill-rule="evenodd" clip-rule="evenodd" d="M56.5795 104.031C29.7255 104.031 7.95703 82.7154 7.95703 56.4231C7.95703 30.1296 29.7255 8.81641 56.5795 8.81641C83.4316 8.81641 105.2 30.1296 105.2 56.4231C105.2 82.717 83.4316 104.031 56.5795 104.031ZM56.5789 111.084C25.3306 111.084 0 86.2155 0 55.5412C0 24.8654 25.3306 0 56.5789 0C87.8249 0 113.156 24.8654 113.156 55.5412C113.156 86.2174 87.8249 111.084 56.5789 111.084Z" transform="translate(5.38782 223.312)" fill="#42C7BB"/>
<path fill-rule="evenodd" clip-rule="evenodd" d="M49.3942 95.9767C22.1149 95.9767 0 74.492 0 47.9887C0 21.4858 22.1149 0 49.3942 0C76.6732 0 98.7869 21.4858 98.7869 47.9887C98.7869 74.492 76.6732 95.9767 49.3942 95.9767Z" transform="translate(12.5725 231.31)" fill="#24AB9F"/>
<path fill-rule="evenodd" clip-rule="evenodd" d="M44.1946 85.8733C19.7861 85.8733 0 66.6487 0 42.936C0 19.2222 19.7861 0 44.1946 0C68.6013 0 88.3878 19.2222 88.3878 42.936C88.3878 66.6501 68.6013 85.8733 44.1946 85.8733Z" transform="translate(17.9615 236.642)" fill="white"/>
<path fill-rule="evenodd" clip-rule="evenodd" d="M1.0851 3.88305C8.21072 7.40634 15.3367 10.9296 22.4623 14.4529C24.917 15.6668 27.0861 12.0329 24.6221 10.8148L3.24493 0.244599C0.790561 -0.968921 -1.37854 2.66462 1.0851 3.88305Z" transform="translate(62.3441 279.615)" fill="#2B688F"/>
<path fill-rule="evenodd" clip-rule="evenodd" d="M4.27901 18.9436C4.27901 13.3075 4.27936 7.6711 4.27972 2.03504C4.28008 -0.676065 0.00106975 -0.68063 0.000713168 2.03504C0.000356584 7.6711 0 13.3075 0 18.9436C-0.000356584 21.6547 4.27865 21.6592 4.27901 18.9436Z" transform="translate(59.8363 253.929)" fill="#2B688F"/>
<path fill-rule="evenodd" clip-rule="evenodd" d="M12.6641 6.23509C12.6641 9.67937 9.82959 12.4705 6.33222 12.4705C2.83591 12.4705 0 9.67937 0 6.23509C0 2.79117 2.83591 0 6.33222 0C9.82959 0 12.6641 2.79117 12.6641 6.23509Z" transform="translate(55.6801 272.191)" fill="#FCCB6F"/>
<path d="M13.3663 194.694L36.2625 18.8248C36.7719 15.7938 37.8959 12.8988 39.5655 10.3173C41.235 7.73585 43.4149 5.5224 45.9714 3.81276C48.5279 2.10311 51.4071 0.933329 54.4323 0.375168C57.4576 -0.182993 60.5651 -0.117762 63.5642 0.56687C66.5633 1.2515 69.3908 2.54109 71.8731 4.35651C74.3555 6.17194 76.4404 8.47494 77.9999 11.1242C79.5594 13.7734 80.5606 16.7131 80.9422 19.7627C81.3238 22.8124 81.0776 25.9078 80.2188 28.859L34.7505 186.602L23.5184 235.91C22.9397 238.507 21.4644 240.816 19.3512 242.434C17.2381 244.052 14.6221 244.875 11.9623 244.758C9.1967 244.59 6.58095 243.445 4.58261 241.528C2.58428 239.611 1.33362 237.046 1.05421 234.292L0.190205 226.847C-1.86181 204.405 13.3663 194.694 13.3663 194.694Z" transform="translate(76 247.483)" fill="#C48469"/>
<path d="M67.7503 194.694L44.8541 18.8248C44.3446 15.7938 43.2207 12.8988 41.5511 10.3173C39.8816 7.73585 37.7017 5.5224 35.1452 3.81276C32.5887 2.10311 29.7095 0.933329 26.6842 0.375168C23.659 -0.182993 20.5515 -0.117762 17.5524 0.56687C14.5533 1.2515 11.7258 2.54109 9.24346 4.35651C6.76111 6.17194 4.67622 8.47494 3.1167 11.1242C1.55719 13.7734 0.555931 16.7131 0.174368 19.7627C-0.207195 22.8124 0.038981 25.9078 0.89779 28.859L46.3661 186.602L57.7062 235.91C58.2848 238.507 59.7602 240.816 61.8733 242.434C63.9865 244.052 66.6025 244.875 69.2623 244.758C72.0279 244.59 74.6436 243.445 76.642 241.528C78.6403 239.611 79.891 237.046 80.1704 234.292L81.0344 226.847C83.0864 204.405 67.7503 194.694 67.7503 194.694Z" transform="translate(238.158 247.483)" fill="#C48469"/>
<path d="M2.48402 6.58542e-06H23.5442C55.1884 6.58542e-06 81.5406 13.2711 87.4806 39.7055C90.9367 55.0267 98.7127 85.5611 98.7127 85.5611H3.29592e-06L2.48402 6.58542e-06Z" transform="translate(192.183 199.413)" fill="#F1A71E"/>
<path d="M96.2287 6.58542e-06H75.1685C43.5243 6.58542e-06 17.1721 13.2711 11.2321 39.7055C7.77606 55.0267 0 85.5611 0 85.5611H98.7127L96.2287 6.58542e-06Z" transform="translate(104.378 199.413)" fill="#F1A71E"/>
<path d="M37.0443 74.0163C57.5033 74.0163 74.0885 57.4472 74.0885 37.0081C74.0885 16.5691 57.5033 0 37.0443 0C16.5853 0 0 16.5691 0 37.0081C0 57.4472 16.5853 74.0163 37.0443 74.0163Z" transform="translate(160.647 0.237793)" fill="#A19EA9"/>
<path d="M53.3524 6.58542e-06H95.2567C112.321 17.0475 134.245 22.658 134.245 50.603L147.205 206.62C147.205 206.62 104.869 221.941 66.4205 221.941C27.9722 221.941 -3.29592e-06 213.094 -3.29592e-06 213.094L14.2561 50.603C14.2561 22.658 33.2642 19.9607 53.3524 6.58542e-06Z" transform="translate(124.035 199.413)" fill="#F1A71E"/>
<path d="M12.9601 3.29271e-06H99.1447C102.582 3.29271e-06 105.878 1.3641 108.309 3.79222C110.739 6.22033 112.105 9.51358 112.105 12.9475C112.105 16.3813 110.739 19.6746 108.309 22.1027C105.878 24.5308 102.582 25.8949 99.1447 25.8949H12.9601C9.52286 25.8949 6.22641 24.5308 3.79592 22.1027C1.36543 19.6746 0 16.3813 0 12.9475C0 9.51358 1.36543 6.22033 3.79592 3.79222C6.22641 1.3641 9.52286 3.29271e-06 12.9601 3.29271e-06Z" transform="translate(141.639 125.181)" fill="#B87C63"/>
<path d="M43.3084 0.000138513C54.7945 0.000138513 65.8102 4.55852 73.932 12.6725C82.0539 20.7864 86.6168 31.7913 86.6168 43.2662V64.1979C86.6168 76.9296 79.5967 89.1218 70.2007 97.7534C67.4108 100.355 65.2362 103.544 63.8351 107.09C62.4339 110.636 61.8414 114.45 62.1006 118.254L63.3966 135.841L43.3084 161.52L23.2203 135.841L24.5163 118.254C24.7903 114.449 24.2046 110.631 22.8025 107.082C21.4004 103.534 19.2179 100.346 16.4163 97.7534C7.02019 89.1218 0.000138648 76.8217 0.000138648 64.1979V43.2662C-0.0141075 37.5804 1.09636 31.9479 3.26777 26.6922C5.43917 21.4365 8.62869 16.6612 12.6531 12.6407C16.6775 8.62028 21.4574 5.43386 26.7182 3.26458C31.9791 1.0953 37.6171 -0.0140938 43.3084 0.000138513Z" transform="translate(154.383 72.3115)" fill="#C48469"/>
<path d="M52.3804 0.000173542H54.4324C57.4829 -0.00862294 60.5251 0.317014 63.5045 0.971234C88.7766 4.96337 104.869 24.0609 104.869 61.8243C104.869 73.2612 99.1447 92.5745 95.7967 92.5745L88.6686 53.0847C88.3905 51.5451 87.7891 50.0818 86.9042 48.791C86.0192 47.5003 84.8707 46.4114 83.5342 45.596C82.1976 44.7806 80.7034 44.2572 79.1499 44.0602C77.5963 43.8632 76.0186 43.9971 74.5205 44.4531L64.8005 47.4742C56.7436 49.956 48.1252 49.956 40.0683 47.4742L30.4562 44.4531C28.9515 43.9773 27.3623 43.8282 25.7952 44.0156C24.2281 44.2031 22.7192 44.7228 21.3694 45.5401C20.0196 46.3573 18.8602 47.4532 17.9687 48.7544C17.0772 50.0555 16.4742 51.5319 16.2001 53.0847L9.07206 92.5745C5.72404 92.5745 -3.29592e-06 73.1533 -3.29592e-06 61.8243C0.107997 18.774 20.9521 0.000173542 52.3804 0.000173542Z" transform="translate(145.095 45.5542)" fill="#B3AFBB"/>
<g opacity="0.47">
<path opacity="0.47" d="M96.0127 -6.58542e-06C64.1332 3.9921 31.8795 3.9921 1.64796e-06 -6.58542e-06" transform="translate(149.631 302.237)" stroke="#CF8929" stroke-width="10" stroke-linecap="round" stroke-linejoin="round"/>
</g>
<g opacity="0.29">
<path opacity="0.29" d="M6.37204 17.9106C5.23866 11.6336 3.0863 5.58366 0 6.58542e-06" transform="translate(213.459 140.07)" stroke="#B37860" stroke-width="4" stroke-linecap="round" stroke-linejoin="round"/>
<path opacity="0.29" d="M3.29592e-06 17.9106C1.13339 11.6336 3.28575 5.58366 6.37204 6.58542e-06" transform="translate(175.443 140.071)" stroke="#B37860" stroke-width="4" stroke-linecap="round" stroke-linejoin="round"/>
</g>
</g>
</svg>
