<svg width="181" height="190" viewBox="0 0 181 190" fill="none" xmlns="http://www.w3.org/2000/svg">
<g clip-path="url(#clip0)">
<path d="M147.584 62.4932C151.404 57.037 153.463 50.5507 153.463 43.7597C153.463 25.7155 138.804 11.0361 120.786 11.0361C114.869 11.0361 109.074 12.6556 104.038 15.664C94.5865 5.65311 81.5782 0 67.6528 0C39.992 0 17.4885 22.5369 17.4885 50.2383C17.4885 54.7712 18.0916 59.2375 19.2852 63.5711C7.57202 69.6226 1.79607e-07 81.7983 1.79607e-07 95.2764C1.79607e-07 114.949 15.9811 130.954 35.624 130.954C40.3209 130.954 44.9717 130.019 49.285 128.225C55.9773 135.357 65.4067 139.51 75.2705 139.51C81.4972 139.51 87.5124 137.911 92.8611 134.856C99.8006 138.893 107.643 141.011 115.744 141.011C140.926 141.011 161.413 120.494 161.413 95.2764C161.412 82.7556 156.43 71.0732 147.584 62.4932Z" transform="translate(17.5874)" fill="#C5EDF0"/>
<path d="M6.40317 12.8158C9.93955 12.8158 12.8063 9.94687 12.8063 6.40789C12.8063 2.86891 9.93955 -3.02456e-06 6.40317 -3.02456e-06C2.8668 -3.02456e-06 0 2.86891 0 6.40789C0 9.94687 2.8668 12.8158 6.40317 12.8158Z" transform="matrix(0.865706 -0.500553 0.499447 0.866344 20.457 159.27)" fill="#73C8CC"/>
<path d="M4.92552 9.85829C7.6458 9.85829 9.85103 7.65144 9.85103 4.92915C9.85103 2.20685 7.6458 -2.32658e-06 4.92552 -2.32658e-06C2.20523 -2.32658e-06 0 2.20685 0 4.92915C0 7.65144 2.20523 9.85829 4.92552 9.85829Z" transform="matrix(0.865706 -0.500553 0.499447 0.866344 8.63965 181.459)" fill="#73C8CC"/>
<path d="M9.23335 18.5476C14.3328 18.5476 18.4667 14.3956 18.4667 9.27378C18.4667 4.15201 14.3328 -6.64139e-06 9.23335 -6.64139e-06C4.13391 -6.64139e-06 0 4.15201 0 9.27378C0 14.3956 4.13391 18.5476 9.23335 18.5476Z" transform="matrix(0.865706 -0.500553 0.499447 0.866344 44.0903 147.31)" fill="#73C8CC"/>
</g>
<defs>
<clipPath id="clip0">
<rect width="181" height="190" fill="white"/>
</clipPath>
</defs>
</svg>
