<svg width="128" height="216" viewBox="0 0 128 216" fill="none" xmlns="http://www.w3.org/2000/svg">
<rect width="128" height="216" fill="white"/>
<path d="M-5.62668e-07 4.00002C-5.62668e-07 6.40012 1.59992 8.00003 4.00002 8.00003C6.40012 8.00003 8.00002 6.40012 8.00002 4.00002C8.00002 1.59991 6.40012 2.64454e-06 4.00002 2.64454e-06C1.59992 2.64454e-06 -5.62668e-07 1.60038 -5.62668e-07 4.00002Z" transform="translate(104 63.9998)" fill="white"/>
<path d="M2.58827e-06 4.00002C2.58827e-06 6.40012 1.59992 8.00003 4.00002 8.00003C6.40012 8.00003 8.00002 6.40012 8.00002 4.00002C8.00002 1.59991 6.40012 2.64454e-06 4.00002 2.64454e-06C1.59992 2.64454e-06 2.58827e-06 1.60038 2.58827e-06 4.00002Z" transform="translate(80 63.9998)" fill="white"/>
<path d="M-5.62668e-07 4.00002C-5.62668e-07 6.40012 1.59992 8.00003 4.00002 8.00003C6.40012 8.00003 8.00002 6.40012 8.00002 4.00002C8.00002 1.59992 6.40012 -1.23787e-06 4.00002 -1.23787e-06C1.59992 0.0004597 -5.62668e-07 1.60038 -5.62668e-07 4.00002Z" transform="translate(104 39.9996)" fill="white"/>
<path d="M2.58827e-06 4.00002C2.58827e-06 6.40012 1.59992 8.00003 4.00002 8.00003C6.40012 8.00003 8.00002 6.40012 8.00002 4.00002C8.00002 1.59992 6.40012 -1.23787e-06 4.00002 -1.23787e-06C1.59992 -1.23787e-06 2.58827e-06 1.60038 2.58827e-06 4.00002Z" transform="translate(80 39.9996)" fill="white"/>
<path d="M1.0128e-06 4.00002C1.0128e-06 6.40012 1.59992 8.00003 4.00002 8.00003C6.40012 8.00003 8.00002 6.40012 8.00002 4.00002C8.00002 1.59992 6.40012 -2.81334e-06 4.00002 -2.81334e-06C1.59992 -2.81334e-06 1.0128e-06 1.60038 1.0128e-06 4.00002Z" transform="translate(92.0005 51.9996)" fill="white"/>
<path d="M4.16374e-06 4.00002C4.16374e-06 6.40012 1.59991 8.00003 4.00001 8.00003C6.40011 8.00003 8.00003 6.40012 8.00003 4.00002C8.00003 1.59992 6.40011 -2.81334e-06 4.00001 -2.81334e-06C1.59991 -2.81334e-06 4.16374e-06 1.60038 4.16374e-06 4.00002Z" transform="translate(68.0005 51.9996)" fill="white"/>
<path d="M1.0128e-06 4.00002C1.0128e-06 6.40012 1.59992 8.00004 4.00002 8.00004C6.40012 8.00004 8.00002 6.40012 8.00002 4.00002C8.00002 1.59992 6.40012 8.44002e-08 4.00002 8.44002e-08C1.59992 8.44002e-08 1.0128e-06 1.59992 1.0128e-06 4.00002Z" transform="translate(92.0005 28)" fill="white"/>
<path d="M4.16374e-06 4.00002C4.16374e-06 6.40012 1.59991 8.00004 4.00001 8.00004C6.40011 8.00004 8.00003 6.40012 8.00003 4.00002C8.00003 1.59992 6.40011 8.44002e-08 4.00001 8.44002e-08C1.59991 8.44002e-08 4.16374e-06 1.59992 4.16374e-06 4.00002Z" transform="translate(68.0005 28)" fill="white"/>
<path d="M-1.29414e-06 4.00002C-1.29414e-06 6.40012 1.59992 8.00003 4.00002 8.00003C6.40012 8.00003 8.00003 6.40012 8.00003 4.00002C8.00003 1.59991 6.40012 2.64454e-06 4.00002 2.64454e-06C1.59992 2.64454e-06 -1.29414e-06 1.60038 -1.29414e-06 4.00002Z" transform="translate(56 63.9998)" fill="white"/>
<path d="M1.8568e-06 4.00002C1.8568e-06 6.40012 1.59991 8.00003 4.00001 8.00003C6.40011 8.00003 8.00003 6.40012 8.00003 4.00002C8.00003 1.59991 6.40011 2.64454e-06 4.00001 2.64454e-06C1.59991 2.64454e-06 1.8568e-06 1.60038 1.8568e-06 4.00002Z" transform="translate(32 63.9998)" fill="white"/>
<path d="M-1.29414e-06 4.00002C-1.29414e-06 6.40012 1.59992 8.00003 4.00002 8.00003C6.40012 8.00003 8.00003 6.40012 8.00003 4.00002C8.00003 1.59992 6.40012 -1.23787e-06 4.00002 -1.23787e-06C1.59992 -1.23787e-06 -1.29414e-06 1.60038 -1.29414e-06 4.00002Z" transform="translate(56 39.9996)" fill="white"/>
<path d="M1.8568e-06 4.00002C1.8568e-06 6.40012 1.59991 8.00003 4.00001 8.00003C6.40011 8.00003 8.00003 6.40012 8.00003 4.00002C8.00003 1.59992 6.40011 -1.23787e-06 4.00001 -1.23787e-06C1.59991 0.0004597 1.8568e-06 1.60038 1.8568e-06 4.00002Z" transform="translate(32 39.9996)" fill="white"/>
<path d="M2.81334e-07 4.00002C2.81334e-07 6.40012 1.59991 8.00003 4.00001 8.00003C6.40011 8.00003 8.00003 6.40012 8.00003 4.00002C8.00003 1.59992 6.40011 -2.81334e-06 4.00001 -2.81334e-06C1.59991 -2.81334e-06 2.81334e-07 1.60038 2.81334e-07 4.00002Z" transform="translate(44 51.9996)" fill="white"/>
<path d="M3.43227e-06 4.00002C3.43227e-06 6.40012 1.59991 8.00003 4.00001 8.00003C6.40012 8.00003 8.00003 6.40012 8.00003 4.00002C8.00003 1.59992 6.40012 -2.81334e-06 4.00001 -2.81334e-06C1.59991 -2.81334e-06 3.43227e-06 1.60038 3.43227e-06 4.00002Z" transform="translate(20 51.9996)" fill="white"/>
<path d="M2.81334e-07 4.00002C2.81334e-07 6.40012 1.59991 8.00004 4.00001 8.00004C6.40011 8.00004 8.00003 6.40012 8.00003 4.00002C8.00003 1.59992 6.40011 8.44002e-08 4.00001 8.44002e-08C1.59991 8.44002e-08 2.81334e-07 1.59992 2.81334e-07 4.00002Z" transform="translate(44 28)" fill="white"/>
<path d="M3.43227e-06 4.00002C3.43227e-06 6.40012 1.59991 8.00004 4.00001 8.00004C6.40012 8.00004 8.00003 6.40012 8.00003 4.00002C8.00003 1.59992 6.40012 8.44002e-08 4.00001 8.44002e-08C1.59991 8.44002e-08 3.43227e-06 1.59992 3.43227e-06 4.00002Z" transform="translate(20 28)" fill="white"/>
<path d="M-5.62668e-07 4.00002C-5.62668e-07 6.40012 1.59992 8.00003 4.00002 8.00003C6.40012 8.00003 8.00002 6.40012 8.00002 4.00002C8.00002 1.59991 6.40012 1.65987e-06 4.00002 1.65987e-06C1.59992 1.65987e-06 -5.62668e-07 1.59991 -5.62668e-07 4.00002Z" transform="translate(104 16)" fill="white"/>
<path d="M2.58827e-06 4.00002C2.58827e-06 6.40012 1.59992 8.00003 4.00002 8.00003C6.40012 8.00003 8.00002 6.40012 8.00002 4.00002C8.00002 1.59991 6.40012 1.65987e-06 4.00002 1.65987e-06C1.59992 1.65987e-06 2.58827e-06 1.59991 2.58827e-06 4.00002Z" transform="translate(80 16)" fill="white"/>
<path d="M-1.29414e-06 4.00002C-1.29414e-06 6.40012 1.59992 8.00003 4.00002 8.00003C6.40012 8.00003 8.00003 6.39966 8.00003 4.00002C8.00003 1.59991 6.40012 1.65987e-06 4.00002 1.65987e-06C1.59992 1.65987e-06 -1.29414e-06 1.59991 -1.29414e-06 4.00002Z" transform="translate(56 16)" fill="white"/>
<path d="M1.8568e-06 4.00002C1.8568e-06 6.40012 1.59991 8.00003 4.00001 8.00003C6.40011 8.00003 8.00003 6.40012 8.00003 4.00002C8.00003 1.59991 6.40011 1.65987e-06 4.00001 1.65987e-06C1.59991 1.65987e-06 1.8568e-06 1.59991 1.8568e-06 4.00002Z" transform="translate(32 16)" fill="white"/>
<path d="M-5.62668e-08 216H128V8.29935e-07H-5.62668e-08V216Z" fill="#E0585D"/>
<path d="M5.17654e-06 16.0001H16V-2.08187e-06H5.17654e-06V16.0001Z" transform="translate(96 100)" fill="#DE9A1F"/>
<path d="M16.0001 8.00004H4.00002C1.59992 8.00004 2.58827e-06 6.40012 2.58827e-06 4.00002C2.58827e-06 1.59991 1.59992 -4.95148e-06 4.00002 -4.95148e-06H16.0001C18.4002 -4.95148e-06 20.0001 1.59991 20.0001 4.00002C20.0001 6.40012 18.3997 8.00004 16.0001 8.00004Z" transform="translate(80 104)" fill="#F5B33C"/>
<path d="M-7.31468e-07 55.9998H95.9999V1.65987e-06H-7.31468e-07V55.9998Z" transform="translate(15.9995 16.0001)" fill="#BCE0F7"/>
</svg>
