<svg width="487" height="470" viewBox="0 0 487 470" fill="none" xmlns="http://www.w3.org/2000/svg">
<g id="Group 11">
<mask id="mask0" mask-type="alpha" maskUnits="userSpaceOnUse" x="-44" y="-9" width="549" height="479">
<rect id="Rectangle" width="549" height="479" transform="translate(-44 -9)" fill="#C4C4C4"/>
</mask>
<g mask="url(#mask0)">
<g id="Asset 5">
<path id="Shape" opacity="0.1" fill-rule="evenodd" clip-rule="evenodd" d="M0 75.8301C0.0644531 74.4312 0.164551 73.0425 0.300293 71.6641L72.3003 0.307617C73.7075 0.169922 75.1113 0.0673828 76.5122 0L0 75.8301ZM0.442383 88.2959C0.31543 87.1309 0.203613 85.9458 0.12207 84.7656L85.5312 0.0849609C86.7368 0.165527 87.9321 0.266602 89.1226 0.397461L0.442383 88.2959ZM27.1743 139.219C26.4961 138.613 25.8179 137.998 25.1396 137.373L138.593 24.9038C139.224 25.5762 139.844 26.2485 140.455 26.9209L27.1743 139.219ZM42.5723 149.769C41.7246 149.321 40.8872 148.861 40.0596 148.387L149.713 39.6802C150.188 40.5005 150.65 41.3311 151.102 42.1714L42.5723 149.769ZM58.3418 156.083C59.3594 156.371 60.3765 156.638 61.4399 156.885L158.238 60.897L158.221 60.8276C157.978 59.8403 157.723 58.811 157.435 57.8208L58.3418 156.083ZM115.6 150.908L152.226 114.597C150.653 117.763 148.87 120.822 146.89 123.755L124.823 145.633C121.871 147.593 118.79 149.355 115.6 150.908ZM159.703 68.4966L69.0952 158.301C70.2549 158.462 71.4248 158.594 72.5952 158.705L160.09 71.9614C160.025 71.2617 159.949 70.5625 159.861 69.8633C159.841 69.686 159.819 69.5098 159.797 69.334L159.796 69.3237L159.794 69.3135L159.793 69.3037L159.791 69.2891L159.785 69.2383L159.779 69.1899L159.777 69.1797L159.776 69.1694C159.749 68.9443 159.722 68.7202 159.703 68.4966ZM101.011 156.335C99.3428 156.786 97.647 157.179 95.9243 157.515L158.926 95.0601C158.583 96.7578 158.185 98.439 157.73 100.104L101.011 156.335ZM34.0884 144.597L34.1289 144.625L34.4897 144.877L146.173 34.1587C145.64 33.3955 145.096 32.644 144.54 31.9043L32.2158 143.264C32.8306 143.716 33.4663 144.161 34.0884 144.597ZM85.4346 158.882C84.0781 158.973 82.7217 159.028 81.3652 159.048L160.457 80.6265C160.436 81.9712 160.384 83.3164 160.299 84.6611L85.4346 158.882ZM48.7329 152.693C49.6519 153.083 50.5796 153.455 51.5156 153.808L155.166 51.0425C154.807 50.1143 154.432 49.1948 154.042 48.2837L48.7329 152.693ZM11.064 39.0791L39.4897 10.8926C27.7632 17.7544 17.9829 27.4521 11.064 39.0791ZM2.15723 60.8013C2.6084 58.9854 3.11719 57.1953 3.68311 55.4302L55.9053 3.66162C57.6826 3.08984 59.4849 2.58545 61.313 2.14844L2.15723 60.8013ZM4.55322 106.155C4.89258 107.103 5.24854 108.041 5.62158 108.969L109.903 5.58301C108.967 5.21338 108.022 4.86035 107.07 4.52393L4.55322 106.155ZM1.71484 96.0693C1.93848 97.1235 2.18262 98.1724 2.44727 99.2114L100.116 2.38135C99.0679 2.11426 98.0098 1.87695 96.9517 1.64502L1.71484 96.0693ZM9.80762 117.699C9.34668 116.875 8.89893 116.034 8.46484 115.177L116.231 8.37158C117.082 8.80176 117.93 9.24756 118.774 9.70801L9.80762 117.699ZM18.7959 130.746C19.3892 131.445 19.9946 132.134 20.6118 132.813L133.984 20.4199C133.302 19.8101 132.6 19.2095 131.893 18.6196L18.7959 130.746ZM14.7881 125.667C14.2441 124.916 13.71 124.149 13.2012 123.373L124.452 13.1128C125.232 13.624 126.003 14.1484 126.766 14.686L14.7881 125.667Z" transform="translate(0.928223 389.255)" fill="white"/>
<g id="Group" opacity="0.1">
<path id="Shape_2" fill-rule="evenodd" clip-rule="evenodd" d="M98.5225 0C44.1094 0 0.0151367 43.8779 0.0151367 98.002H0C0 152.136 44.1045 196.004 98.5073 196.004C152.92 196.004 197.015 152.126 197.015 98.002C197.015 43.873 152.92 0 98.5225 0ZM3.58545 98.2764C3.5498 73.1543 13.5825 49.0552 31.4609 31.3149C49.2935 13.5283 73.5171 3.54736 98.7681 3.58203C124.018 3.54834 148.239 13.5288 166.07 31.3149C183.949 49.0552 193.981 73.1543 193.946 98.2764C193.98 123.398 183.948 147.497 166.07 165.238C148.24 183.024 124.018 193.005 98.7681 192.97C73.5171 193.005 49.2935 183.024 31.4609 165.238C13.583 147.497 3.55078 123.398 3.58545 98.2764Z" transform="translate(250.607 40.8276)" fill="white"/>
<path id="Shape_3" fill-rule="evenodd" clip-rule="evenodd" d="M139.622 0C62.5073 0 0 62.1865 0 138.905C0 215.623 62.5073 277.815 139.622 277.815C216.73 277.81 279.243 215.623 279.243 138.905C279.243 62.1914 216.73 0 139.622 0ZM1.12988 138.904C1.0752 102.35 15.6675 67.2817 41.6763 41.4619C67.6294 15.5864 102.878 1.06934 139.621 1.12354C176.364 1.06934 211.613 15.5864 237.566 41.4619C263.576 67.2817 278.167 102.35 278.112 138.904C278.167 175.458 263.575 210.526 237.566 236.346C211.612 262.22 176.364 276.737 139.621 276.685C102.879 276.737 67.6304 262.22 41.6763 236.346C15.668 210.526 1.07568 175.458 1.12988 138.904Z" transform="translate(207.579 0.236328)" fill="white"/>
</g>
<path id="Shape_4" opacity="0.1" fill-rule="evenodd" clip-rule="evenodd" d="M0 62.1025C0.0507812 60.957 0.131836 59.8198 0.243652 58.6909L59.3081 0.251465C60.4658 0.137207 61.6187 0.0537109 62.7661 0L0 62.1025ZM0.339844 72.3276C0.23291 71.3579 0.141602 70.3882 0.0756836 69.4233L70.1846 0.0703125C71.1699 0.135742 72.1553 0.21582 73.1299 0.32666L0.339844 72.3276ZM22.2881 114.016C21.7197 113.523 21.1592 113.021 20.6074 112.509L113.695 20.4097C114.21 20.9521 114.718 21.5049 115.219 22.0679L22.2881 114.016ZM34.9121 122.683C34.2148 122.317 33.5278 121.941 32.8506 121.552L122.835 32.498C123.229 33.168 123.609 33.8481 123.978 34.5381L34.9121 122.683ZM47.8564 127.838C48.6943 128.075 49.5474 128.291 50.3955 128.497L129.838 49.8784C129.635 49.0342 129.417 48.1904 129.178 47.3662L47.8564 127.838ZM94.8604 123.608L124.928 93.8579C123.635 96.4551 122.169 98.9644 120.541 101.37L102.432 119.287C100.008 120.893 97.4785 122.336 94.8604 123.608ZM131.021 56.0981L56.6821 129.652C57.6318 129.782 58.5913 129.893 59.5513 129.983L131.356 58.937C131.302 58.3643 131.24 57.7915 131.168 57.2188C131.137 56.9297 131.098 56.6436 131.058 56.3584L131.021 56.0981ZM82.896 128.04C81.5249 128.408 80.1318 128.731 78.7168 129.009L130.417 77.8501C130.137 79.2437 129.81 80.6221 129.438 81.9854L82.896 128.04ZM26.4116 117.327C27.0259 117.779 27.6509 118.221 28.2754 118.648L119.931 27.9712C119.494 27.3486 119.047 26.7339 118.59 26.1274L26.4116 117.327ZM70.083 130.119C68.9658 130.192 67.8521 130.238 66.7417 130.254L131.656 66.0264C131.642 67.1318 131.6 68.2305 131.529 69.3223L70.083 130.119ZM39.9697 125.054C40.7246 125.389 41.4863 125.694 42.2549 125.969L127.319 41.8037C127.025 41.043 126.718 40.2896 126.4 39.5425L39.9697 125.054ZM9.06592 31.9946L32.3833 8.92383C22.7651 14.541 14.7432 22.4785 9.06592 31.9946ZM1.76221 49.7925C2.12451 48.3086 2.5376 46.8428 3.00146 45.396L45.8711 2.98438C47.3301 2.52881 48.8096 2.12158 50.3096 1.76318L1.76221 49.7925ZM3.73193 86.939C4.00977 87.7129 4.30078 88.4814 4.60547 89.2456L90.1978 4.5625C89.4292 4.25781 88.6538 3.96826 87.8721 3.69336L3.73193 86.939ZM1.38623 78.6934C1.56885 79.5576 1.76709 80.417 1.99072 81.2661L82.1494 1.95947C81.291 1.74316 80.4229 1.54248 79.5542 1.35645L1.38623 78.6934ZM8.02832 96.4253C7.64893 95.7383 7.28174 95.0449 6.92627 94.3452L95.3525 6.85352C96.0767 7.20508 96.7778 7.57031 97.4546 7.94873L8.02832 96.4253ZM15.417 107.077C15.9043 107.649 16.4023 108.214 16.9102 108.77L109.932 16.7314C109.373 16.229 108.794 15.7266 108.22 15.2593L15.417 107.077ZM12.1523 102.926C11.7056 102.309 11.2739 101.68 10.8472 101.047L102.117 10.7471C102.757 11.1626 103.39 11.5913 104.016 12.0332L12.1523 102.926Z" transform="translate(313.512 373.548)" fill="white"/>
<path id="Shape_5" opacity="0.1" fill-rule="evenodd" clip-rule="evenodd" d="M0 56.2183C0.046875 55.1841 0.121094 54.1553 0.222168 53.1309L53.7446 0.22998C54.7939 0.126953 55.8379 0.0498047 56.8774 0L0 56.2183ZM0.321289 65.4727C0.220215 64.5923 0.139648 63.7168 0.0791016 62.8408L63.585 0.0634766C64.478 0.118652 65.3706 0.193359 66.2534 0.293457L0.321289 65.4727ZM20.1929 103.209C19.6851 102.763 19.1807 102.307 18.6797 101.844L103.055 18.457C103.522 18.9473 103.983 19.4478 104.437 19.958L20.1929 103.209ZM31.6445 111.009C31.0156 110.696 30.3931 110.362 29.7778 110.009L111.323 29.394C111.676 30.001 112.021 30.6167 112.357 31.2402L31.6445 111.009ZM43.3975 115.704C44.1592 115.919 44.9106 116.114 45.6978 116.299L117.643 45.1509C117.457 44.3853 117.26 43.6245 117.048 42.8691L43.3975 115.704ZM85.9585 111.886L113.199 84.9575C112.029 87.3086 110.703 89.5801 109.229 91.7573L92.8188 107.978C90.6226 109.431 88.3306 110.736 85.9585 111.886ZM118.749 50.7798L118.725 50.8032L118.723 50.7798H118.749ZM118.725 50.8032L51.3633 117.36C52.2261 117.48 53.0938 117.58 53.9663 117.66L119.041 53.3467C118.994 52.8296 118.938 52.311 118.875 51.7905L118.832 51.5459C118.789 51.2998 118.745 51.0532 118.725 50.8032ZM75.1182 115.903C73.8735 116.233 72.6108 116.525 71.3296 116.779L118.178 70.4722C117.923 71.7329 117.627 72.9805 117.291 74.2148L75.1182 115.903ZM23.9609 106.212C24.5156 106.622 25.0811 107.018 25.6509 107.408L108.659 25.3218C108.266 24.7583 107.862 24.2012 107.448 23.6509L23.9609 106.212ZM63.5303 117.79C62.521 117.873 61.5122 117.915 60.5034 117.915L119.313 59.7505C119.299 60.751 119.261 61.752 119.197 62.7524L63.5303 117.79ZM36.2397 113.202C36.9121 113.488 37.6016 113.764 38.3081 114.027L115.363 37.8403C115.098 37.1533 114.82 36.4712 114.531 35.7939L36.2397 113.202ZM8.2168 28.9741L29.3535 8.08008C20.6401 13.1602 13.3682 20.3491 8.2168 28.9741ZM1.59863 45.0957C1.92822 43.7349 2.30322 42.4009 2.72363 41.0933L41.5664 2.69727C42.9116 2.29346 44.2568 1.9248 45.6021 1.59131L1.59863 45.0957ZM3.38428 78.6982C3.6333 79.3989 3.89697 80.0942 4.17627 80.7847L81.731 4.12793C81.0352 3.85449 80.332 3.59229 79.6226 3.34229L3.38428 78.6982ZM1.25586 71.2378C1.42236 72.0186 1.604 72.7988 1.80078 73.5693L74.4424 1.77588C73.6655 1.58057 72.8784 1.39551 72.0913 1.23047L1.25586 71.2378ZM7.30957 87.2896C6.97314 86.6694 6.63721 86.042 6.30078 85.4082L86.4033 6.19971C87.042 6.5332 87.6763 6.8667 88.3052 7.2002L7.30957 87.2896ZM13.9932 96.9155C14.437 97.436 14.8877 97.9463 15.3452 98.4463L99.6143 15.145C99.1099 14.6895 98.6055 14.2495 98.0605 13.8091L13.9932 96.9155ZM11.0322 93.1484C10.6284 92.5879 10.2349 92.0225 9.85156 91.4473L92.5469 9.70166C93.1284 10.0786 93.7021 10.4673 94.2671 10.8677L11.0322 93.1484Z" transform="translate(6.77881 68.8535)" fill="white"/>
<g id="mPower-Woman-01">
<path id="Vector" d="M18.5731 270.269L50.3884 26.132C51.0964 21.9245 52.6582 17.9057 54.9781 14.3222C57.298 10.7387 60.3271 7.66604 63.8794 5.29276C67.4318 2.91948 71.4326 1.29562 75.6363 0.520798C79.84 -0.254026 84.1581 -0.163474 88.3255 0.786912C92.4929 1.7373 96.4218 3.52746 99.8711 6.04759C103.32 8.56771 106.218 11.7647 108.385 15.4423C110.552 19.1199 111.943 23.2006 112.473 27.4341C113.003 31.6675 112.661 35.9645 111.468 40.0613L48.2874 259.036L32.6799 327.484C31.8759 331.088 29.8258 334.294 26.8895 336.54C23.9531 338.786 20.3181 339.928 16.6222 339.766C12.7793 339.533 9.14454 337.944 6.36776 335.282C3.59098 332.621 1.85313 329.06 1.46488 325.238L0.264299 314.903C-2.58707 283.749 18.5731 270.269 18.5731 270.269Z" transform="translate(60.9424 421.31)" fill="#C48469"/>
<path id="Vector_2" d="M94.1423 270.269L62.3269 26.132C61.619 21.9245 60.0572 17.9057 57.7373 14.3222C55.4174 10.7387 52.3883 7.66604 48.8359 5.29276C45.2835 2.91948 41.2828 1.29562 37.079 0.520798C32.8753 -0.254026 28.5573 -0.163474 24.3899 0.786912C20.2225 1.7373 16.2936 3.52746 12.8442 6.04759C9.39488 8.56771 6.49783 11.7647 4.33081 15.4423C2.16379 19.1199 0.772492 23.2006 0.242292 27.4341C-0.287908 31.6675 0.054166 35.9645 1.24752 40.0613L64.428 259.036L80.1855 327.484C80.9896 331.088 83.0396 334.294 85.976 336.54C88.9123 338.786 92.5474 339.928 96.2433 339.766C100.086 339.533 103.721 337.944 106.498 335.282C109.274 332.621 111.012 329.06 111.401 325.238L112.601 314.903C115.453 283.749 94.1423 270.269 94.1423 270.269Z" transform="translate(286.268 421.31)" fill="#C48469"/>
<path id="Vector_3" d="M3.45167 9.14169e-06H32.7158C76.6869 9.14169e-06 113.305 18.4226 121.559 55.1181C126.361 76.3865 137.166 118.774 137.166 118.774H4.57984e-06L3.45167 9.14169e-06Z" transform="translate(222.383 354.58)" fill="#F1A71E"/>
<path id="Vector_4" d="M133.714 9.14169e-06H104.45C60.4791 9.14169e-06 23.8615 18.4226 15.6075 55.1181C10.8052 76.3865 0 118.774 0 118.774H137.166L133.714 9.14169e-06Z" transform="translate(100.375 354.58)" fill="#F1A71E"/>
<path id="Vector_5" d="M51.4748 102.747C79.9035 102.747 102.95 79.7466 102.95 51.3737C102.95 23.0008 79.9035 0 51.4748 0C23.046 0 -2.28992e-06 23.0008 -2.28992e-06 51.3737C-2.28992e-06 79.7466 23.046 102.747 51.4748 102.747Z" transform="translate(178.562 78.0903)" fill="#A19EA9"/>
<path id="Vector_6" d="M74.1357 9.14169e-06H132.364C156.075 23.6648 186.54 31.4533 186.54 70.2456L204.548 286.824C204.548 286.824 145.72 308.092 92.2944 308.092C38.8687 308.092 -4.57984e-06 295.81 -4.57984e-06 295.81L19.8095 70.2456C19.8095 31.4533 46.2223 27.7088 74.1357 9.14169e-06Z" transform="translate(127.688 354.58)" fill="#F1A71E"/>
<path id="Vector_7" d="M18.0087 4.57085e-06H137.766C142.543 4.57085e-06 147.123 1.8936 150.5 5.26425C153.878 8.63489 155.775 13.2065 155.775 17.9733C155.775 22.7401 153.878 27.3117 150.5 30.6823C147.123 34.053 142.543 35.9466 137.766 35.9466H18.0087C13.2325 35.9466 8.6519 34.053 5.27462 30.6823C1.89733 27.3117 0 22.7401 0 17.9733C0 13.2065 1.89733 8.63489 5.27462 5.26425C8.6519 1.8936 13.2325 4.57085e-06 18.0087 4.57085e-06Z" transform="translate(152.15 251.532)" fill="#B87C63"/>
<path id="Vector_8" d="M60.1792 0.000192279C76.1396 0.000192279 91.4464 6.32801 102.732 17.5916C114.018 28.8552 120.358 44.1318 120.358 60.0609V89.1178C120.358 106.792 110.603 123.716 97.5472 135.699C93.6705 139.309 90.6488 143.737 88.7019 148.66C86.7549 153.582 85.9316 158.876 86.2917 164.156L88.0926 188.57L60.1792 224.217L32.2657 188.57L34.0666 164.156C34.4473 158.874 33.6334 153.574 31.6852 148.649C29.7369 143.723 26.7042 139.297 22.8112 135.699C9.75489 123.716 0.000192658 106.642 0.000192658 89.1178V60.0609C-0.0196031 52.1681 1.52345 44.3492 4.54072 37.0533C7.55798 29.7575 11.99 23.1286 17.5821 17.5475C23.1741 11.9664 29.8161 7.54314 37.1263 4.5318C44.4365 1.52046 52.2708 -0.0195646 60.1792 0.000192279Z" transform="translate(169.859 178.141)" fill="#C48469"/>
<path id="Vector_9" d="M72.785 0.000240907H75.6364C79.8752 -0.0119701 84.1025 0.44007 88.2425 1.34824C123.359 6.89001 145.72 33.4006 145.72 85.8227C145.72 101.699 137.766 128.509 133.114 128.509L123.209 73.6908C122.823 71.5535 121.987 69.5221 120.758 67.7303C119.528 65.9386 117.932 64.427 116.075 63.2951C114.218 62.1632 112.141 61.4366 109.983 61.1631C107.824 60.8897 105.631 61.0756 103.55 61.7085L90.0434 65.9023C78.8479 69.3475 66.8723 69.3475 55.6768 65.9023L42.3204 61.7085C40.2295 61.0481 38.0213 60.841 35.8437 61.1013C33.6661 61.3615 31.5694 62.083 29.6938 63.2175C27.8182 64.352 26.2071 65.8732 24.9683 67.6794C23.7296 69.4857 22.8917 71.5352 22.5108 73.6908L12.6061 128.509C7.95383 128.509 -4.57984e-06 101.549 -4.57984e-06 85.8227C0.150068 26.0615 29.114 0.000240907 72.785 0.000240907Z" transform="translate(156.953 140.998)" fill="#B3AFBB"/>
<g id="Group_2" opacity="0.29">
<path id="Vector_10" opacity="0.29" d="M8.85425 24.8631C7.27937 16.1494 4.28855 7.75108 0 9.14169e-06" transform="translate(251.949 272.202)" stroke="#B37860" stroke-width="4" stroke-linecap="round" stroke-linejoin="round"/>
<path id="Vector_11" opacity="0.29" d="M4.57984e-06 24.8631C1.57489 16.1494 4.5657 7.75108 8.85426 9.14169e-06" transform="translate(199.124 272.202)" stroke="#B37860" stroke-width="4" stroke-linecap="round" stroke-linejoin="round"/>
</g>
</g>
</g>
<g id="Group 4">
<g id="bolt">
<path id="Fill 1" fill-rule="evenodd" clip-rule="evenodd" d="M0 0V71.0238H37.65L0 0Z" transform="translate(110.649 31)" fill="#FCCB6F"/>
<path id="Fill 2" fill-rule="evenodd" clip-rule="evenodd" d="M0 0L37.65 71.0238V0H0Z" transform="translate(73 77.4165)" fill="#FCCB6F"/>
</g>
</g>
<g id="Asset 9_5">
<g id="Group_3">
<path id="Shape_6" d="M3.02996 15.9246L15.9348 3.03022C17.5505 1.41657 15.0487 -1.09977 13.4271 0.525674L0.522236 13.423C-1.09346 15.0367 1.40836 17.553 3.02996 15.9276V15.9246Z" transform="translate(334.572 102.793)" fill="#9DA3B3"/>
<path id="Shape_7" d="M0.531135 2.88274L16.1501 17.3376C17.7936 18.8587 20.3033 16.4656 18.6688 14.9416L3.04976 0.486763C1.40627 -1.03436 -1.10345 1.3588 0.531135 2.88274Z" transform="translate(366.115 100.051)" fill="#9DA3B3"/>
<path id="Shape_8" d="M3.07631 28.2894L26.2905 6.20074L29.6246 3.02949C31.2932 1.44089 28.7635 -1.08183 27.095 0.503794L3.88081 22.5925L0.54662 25.7637C-1.12196 27.3523 1.40773 29.875 3.07631 28.2894Z" transform="translate(401.771 95.9375)" fill="#9DA3B3"/>
<path id="Shape_9" d="M26.0564 13.024C26.0912 16.4893 24.7194 19.8227 22.2499 22.2732C19.7804 24.7236 16.4211 26.0849 12.9289 26.0503C5.75706 25.9427 0 20.1429 0 13.0255C0 5.90806 5.75706 0.108283 12.9289 0.000643626C16.4211 -0.0339515 19.7804 1.32735 22.2499 3.7778C24.7194 6.22825 26.0912 9.56169 26.0564 13.027V13.024Z" transform="translate(314 112.391)" fill="#87C987"/>
<path id="Shape_10" d="M26.0555 12.8285C26.1266 17.5285 23.6593 21.9022 19.5995 24.2729C15.5398 26.6437 10.5173 26.6437 6.45746 24.2729C2.39766 21.9022 -0.0696074 17.5285 0.00149641 12.8285C0.109154 5.71235 5.90989 0 13.0285 0C20.1471 0 25.9479 5.71235 26.0555 12.8285Z" transform="translate(345.542 80.8555)" fill="#F89C55"/>
<path id="Shape_11" d="M26.057 13.0255C25.9493 20.2509 20.1479 26.051 13.0285 26.051C5.90907 26.051 0.107669 20.2509 0 13.0255C0.107669 5.80007 5.90907 0 13.0285 0C20.1479 0 25.9493 5.80007 26.057 13.0255Z" transform="translate(425.085 74)" fill="#E566A1"/>
<path id="Shape_12" d="M26.0564 13.0258C26.0564 20.2194 20.2234 26.051 13.0282 26.051C5.83292 26.051 0 20.2194 0 13.0258C0 5.83221 5.83292 0.000643568 13.0282 0.000643568C16.494 -0.0339485 19.8279 1.32723 22.2787 3.77746C24.7295 6.2277 26.091 9.56084 26.0564 13.0258Z" transform="translate(378.457 115.133)" fill="#A6DDE0"/>
</g>
</g>
<g id="Group 30">
<g id="Layer 2">
<g id="Layer 1">
<path id="Vector_12" d="M14.5944 66.7283C12.6785 66.729 10.7812 66.3598 9.01091 65.6419C7.24058 64.924 5.63188 63.8715 4.27666 62.5443C2.92144 61.2172 1.84624 59.6415 1.11245 57.9071C0.378661 56.1728 0.000650725 54.3138 1.8099e-06 52.4363V14.2969C1.8099e-06 10.5051 1.5371 6.86863 4.27317 4.18745C7.00923 1.50627 10.7201 1.6258e-06 14.5895 1.6258e-06C18.4589 1.6258e-06 22.1698 1.50627 24.9058 4.18745C27.6419 6.86863 29.179 10.5051 29.179 14.2969V52.4363C29.1777 56.2264 27.6407 59.8609 24.9058 62.5409C22.171 65.2209 18.4621 66.7271 14.5944 66.7283Z" transform="translate(356.863 314.292)" fill="#42C7BB"/>
<path id="Vector_13" d="M0.00988685 -8.868e-07V19.4112C-0.0622908 21.3317 0.261383 23.2467 0.961568 25.0418C1.66175 26.8369 2.72408 28.4753 4.08504 29.859C5.446 31.2427 7.07768 32.3433 8.88253 33.095C10.6874 33.8468 12.6284 34.2342 14.5895 34.2342C16.5506 34.2342 18.4916 33.8468 20.2965 33.095C22.1013 32.3433 23.733 31.2427 25.094 29.859C26.4549 28.4753 27.5173 26.8369 28.2174 25.0418C28.9176 23.2467 29.2413 21.3317 29.1691 19.4112V-8.868e-07H0.00988685Z" transform="translate(356.858 347.317)" fill="#5171C0"/>
<path id="Vector_14" d="M50.4728 3.69299C51.8944 4.95215 53.0489 6.47341 53.8704 8.16987C54.692 9.86634 55.1644 11.7048 55.2608 13.5802C55.3572 15.4556 55.0756 17.3313 54.4321 19.1C53.7887 20.8688 52.796 22.496 51.5107 23.8888L25.4156 52.1725C24.1307 53.5656 22.5783 54.6969 20.8471 55.502C19.1159 56.307 17.2398 56.77 15.326 56.8645C13.4122 56.9589 11.4982 56.683 9.69321 56.0524C7.88824 55.4219 6.22771 54.4491 4.80646 53.1896C3.38488 51.9304 2.23035 50.4091 1.40882 48.7127C0.587288 47.0162 0.114847 45.1778 0.0184682 43.3023C-0.0779105 41.4269 0.203665 39.5513 0.847118 37.7825C1.49057 36.0138 2.48329 34.3865 3.76859 32.9938L29.8636 4.71005C31.1486 3.31698 32.701 2.18562 34.4322 1.38056C36.1633 0.57551 38.0394 0.112538 39.9532 0.0180924C41.867 -0.076353 43.7811 0.199581 45.586 0.830127C47.391 1.46067 49.0515 2.43348 50.4728 3.69299Z" transform="translate(387.447 347.14)" fill="#42C7BB"/>
<path id="Vector_15" d="M21.647 38.2817L34.9268 23.888C37.5222 21.075 38.8708 17.367 38.6762 13.5795C38.4816 9.79207 36.7595 6.23552 33.889 3.69227C31.0184 1.14901 27.2344 -0.172619 23.3694 0.0181151C19.5045 0.208849 15.8751 1.89633 13.2798 4.70932L-1.8099e-06 19.1079L21.647 38.2817Z" transform="translate(404.032 347.136)" fill="#5171C0"/>
</g>
</g>
</g>
</g>
</g>
</svg>
