<svg width="214" height="52" viewBox="0 0 214 52" fill="none" xmlns="http://www.w3.org/2000/svg">
<path d="M2.64 39V18.48H5.66C6.3 18.48 6.72 18.78 6.92 19.38L7.24 20.9C7.6 20.5 7.97333 20.1333 8.36 19.8C8.76 19.4667 9.18 19.18 9.62 18.94C10.0733 18.7 10.5533 18.5133 11.06 18.38C11.58 18.2333 12.1467 18.16 12.76 18.16C14.0533 18.16 15.1133 18.5133 15.94 19.22C16.78 19.9133 17.4067 20.84 17.82 22C18.14 21.32 18.54 20.74 19.02 20.26C19.5 19.7667 20.0267 19.3667 20.6 19.06C21.1733 18.7533 21.78 18.5267 22.42 18.38C23.0733 18.2333 23.7267 18.16 24.38 18.16C25.5133 18.16 26.52 18.3333 27.4 18.68C28.28 19.0267 29.02 19.5333 29.62 20.2C30.22 20.8667 30.6733 21.68 30.98 22.64C31.3 23.6 31.46 24.7 31.46 25.94V39H26.52V25.94C26.52 24.6333 26.2333 23.6533 25.66 23C25.0867 22.3333 24.2467 22 23.14 22C22.6333 22 22.16 22.0867 21.72 22.26C21.2933 22.4333 20.9133 22.6867 20.58 23.02C20.26 23.34 20.0067 23.7467 19.82 24.24C19.6333 24.7333 19.54 25.3 19.54 25.94V39H14.58V25.94C14.58 24.5667 14.3 23.5667 13.74 22.94C13.1933 22.3133 12.38 22 11.3 22C10.5933 22 9.92667 22.18 9.3 22.54C8.68667 22.8867 8.11333 23.3667 7.58 23.98V39H2.64ZM42.1519 28.82V39H36.7719V10.08H46.1919C48.1252 10.08 49.7985 10.3067 51.2119 10.76C52.6252 11.2133 53.7919 11.8467 54.7119 12.66C55.6319 13.4733 56.3119 14.4467 56.7519 15.58C57.1919 16.7133 57.4119 17.9533 57.4119 19.3C57.4119 20.7 57.1785 21.9867 56.7119 23.16C56.2452 24.32 55.5452 25.32 54.6119 26.16C53.6785 27 52.5119 27.6533 51.1119 28.12C49.7119 28.5867 48.0719 28.82 46.1919 28.82H42.1519ZM42.1519 24.62H46.1919C47.1785 24.62 48.0385 24.5 48.7719 24.26C49.5052 24.0067 50.1119 23.6533 50.5919 23.2C51.0719 22.7333 51.4319 22.1733 51.6719 21.52C51.9119 20.8533 52.0319 20.1133 52.0319 19.3C52.0319 18.5267 51.9119 17.8267 51.6719 17.2C51.4319 16.5733 51.0719 16.04 50.5919 15.6C50.1119 15.16 49.5052 14.8267 48.7719 14.6C48.0385 14.36 47.1785 14.24 46.1919 14.24H42.1519V24.62ZM69.4859 18.16C71.0193 18.16 72.4059 18.4067 73.6459 18.9C74.8993 19.3933 75.9659 20.0933 76.8459 21C77.7259 21.9067 78.4059 23.0133 78.8859 24.32C79.3659 25.6267 79.6059 27.0867 79.6059 28.7C79.6059 30.3267 79.3659 31.7933 78.8859 33.1C78.4059 34.4067 77.7259 35.52 76.8459 36.44C75.9659 37.36 74.8993 38.0667 73.6459 38.56C72.4059 39.0533 71.0193 39.3 69.4859 39.3C67.9526 39.3 66.5593 39.0533 65.3059 38.56C64.0526 38.0667 62.9793 37.36 62.0859 36.44C61.2059 35.52 60.5193 34.4067 60.0259 33.1C59.5459 31.7933 59.3059 30.3267 59.3059 28.7C59.3059 27.0867 59.5459 25.6267 60.0259 24.32C60.5193 23.0133 61.2059 21.9067 62.0859 21C62.9793 20.0933 64.0526 19.3933 65.3059 18.9C66.5593 18.4067 67.9526 18.16 69.4859 18.16ZM69.4859 35.5C71.1926 35.5 72.4526 34.9267 73.2659 33.78C74.0926 32.6333 74.5059 30.9533 74.5059 28.74C74.5059 26.5267 74.0926 24.84 73.2659 23.68C72.4526 22.52 71.1926 21.94 69.4859 21.94C67.7526 21.94 66.4726 22.5267 65.6459 23.7C64.8193 24.86 64.4059 26.54 64.4059 28.74C64.4059 30.94 64.8193 32.62 65.6459 33.78C66.4726 34.9267 67.7526 35.5 69.4859 35.5ZM80.9603 18.48H84.8803C85.2536 18.48 85.567 18.5667 85.8203 18.74C86.0736 18.9133 86.2336 19.1333 86.3003 19.4L89.2403 30.36C89.4003 30.96 89.527 31.5467 89.6203 32.12C89.727 32.6933 89.827 33.2667 89.9203 33.84C90.067 33.2667 90.2203 32.6933 90.3803 32.12C90.5536 31.5467 90.7336 30.96 90.9203 30.36L94.3203 19.36C94.4003 19.0933 94.5603 18.8733 94.8003 18.7C95.0403 18.5267 95.3203 18.44 95.6403 18.44H97.8203C98.1803 18.44 98.4803 18.5267 98.7203 18.7C98.9603 18.8733 99.1203 19.0933 99.2003 19.36L102.56 30.56C102.734 31.1333 102.887 31.6933 103.02 32.24C103.167 32.7733 103.307 33.3133 103.44 33.86C103.534 33.2867 103.634 32.7133 103.74 32.14C103.86 31.5667 104.007 30.9733 104.18 30.36L107.22 19.4C107.287 19.1333 107.447 18.9133 107.7 18.74C107.954 18.5667 108.247 18.48 108.58 18.48H112.32L105.82 39H101.84C101.414 39 101.107 38.7067 100.92 38.12L97.2203 26.26C97.1003 25.8733 96.987 25.4867 96.8803 25.1C96.787 24.7 96.707 24.3067 96.6403 23.92C96.5603 24.32 96.4736 24.72 96.3803 25.12C96.287 25.5067 96.1803 25.9 96.0603 26.3L92.3203 38.12C92.1336 38.7067 91.7736 39 91.2403 39H87.4603L80.9603 18.48ZM123.581 18.16C124.874 18.16 126.061 18.3667 127.141 18.78C128.234 19.1933 129.174 19.8 129.961 20.6C130.748 21.3867 131.361 22.36 131.801 23.52C132.241 24.6667 132.461 25.98 132.461 27.46C132.461 27.8333 132.441 28.1467 132.401 28.4C132.374 28.64 132.314 28.8333 132.221 28.98C132.141 29.1133 132.028 29.2133 131.881 29.28C131.734 29.3333 131.548 29.36 131.321 29.36H118.641C118.788 31.4667 119.354 33.0133 120.341 34C121.328 34.9867 122.634 35.48 124.261 35.48C125.061 35.48 125.748 35.3867 126.321 35.2C126.908 35.0133 127.414 34.8067 127.841 34.58C128.281 34.3533 128.661 34.1467 128.981 33.96C129.314 33.7733 129.634 33.68 129.941 33.68C130.141 33.68 130.314 33.72 130.461 33.8C130.608 33.88 130.734 33.9933 130.841 34.14L132.281 35.94C131.734 36.58 131.121 37.12 130.441 37.56C129.761 37.9867 129.048 38.3333 128.301 38.6C127.568 38.8533 126.814 39.0333 126.041 39.14C125.281 39.2467 124.541 39.3 123.821 39.3C122.394 39.3 121.068 39.0667 119.841 38.6C118.614 38.12 117.548 37.42 116.641 36.5C115.734 35.5667 115.021 34.42 114.501 33.06C113.981 31.6867 113.721 30.1 113.721 28.3C113.721 26.9 113.948 25.5867 114.401 24.36C114.854 23.12 115.501 22.0467 116.341 21.14C117.194 20.22 118.228 19.4933 119.441 18.96C120.668 18.4267 122.048 18.16 123.581 18.16ZM123.681 21.7C122.241 21.7 121.114 22.1067 120.301 22.92C119.488 23.7333 118.968 24.8867 118.741 26.38H128.021C128.021 25.74 127.934 25.14 127.761 24.58C127.588 24.0067 127.321 23.5067 126.961 23.08C126.601 22.6533 126.148 22.32 125.601 22.08C125.054 21.8267 124.414 21.7 123.681 21.7ZM136.468 39V18.48H139.368C139.875 18.48 140.228 18.5733 140.428 18.76C140.628 18.9467 140.761 19.2667 140.828 19.72L141.128 22.2C141.861 20.9333 142.721 19.9333 143.708 19.2C144.695 18.4667 145.801 18.1 147.028 18.1C148.041 18.1 148.881 18.3333 149.548 18.8L148.908 22.5C148.868 22.74 148.781 22.9133 148.648 23.02C148.515 23.1133 148.335 23.16 148.108 23.16C147.908 23.16 147.635 23.1133 147.288 23.02C146.941 22.9267 146.481 22.88 145.908 22.88C144.881 22.88 144.001 23.1667 143.268 23.74C142.535 24.3 141.915 25.1267 141.408 26.22V39H136.468Z" transform="translate(64)" fill="#5A478F"/>
<path d="M2.03704 8.8L5.90741 0L10.1852 2.6L13.037 5.8L15.4815 8.8L17.7222 12.6L20.9815 7.6L23.4259 3.8L26.6852 0L28.9259 2.6L31.9815 7.6L35.6481 12.6L38.7037 7.6L42.9815 2.6L46.8519 0L48.6852 2.6L51.537 8.8L52.963 17.6V24.6L50.5185 33.2L46.8519 39.2L41.1481 44.2L35.6481 48.4L30.3519 49.8H24.6481L19.7593 48.4L14.463 46.4L7.94444 40.8L3.66667 35L1.01852 28L0 18.6L2.03704 8.8Z" transform="translate(0.611328 1.2002)" fill="#F5B33C"/>
<path d="M46.5878 3.17598C47.0429 2.83375 47.6867 2.95833 47.9767 3.44832C49.7168 6.38847 53.1295 13.1781 53.1295 21.2025C53.1295 37.1716 41.6314 50.1631 27.4995 50.1631C13.3677 50.1631 1.87053 37.1707 1.87053 21.2025C1.87053 13.1797 5.28401 6.38874 7.02426 3.44833C7.31425 2.95833 7.95808 2.83376 8.41307 3.17606C9.29142 3.83686 10.4715 4.78915 11.731 5.98923C14.216 8.35699 16.0603 10.7725 17.2135 13.1706C17.2135 13.1706 17.2135 13.1706 17.2135 13.1706L18.0739 14.9596C18.4504 15.7424 19.5772 15.706 19.9024 14.9005L20.644 13.0632C20.6441 13.0632 20.6441 13.0631 20.6441 13.0631C22.4361 8.62284 25.1905 5.14248 26.7924 3.34894C27.1716 2.92447 27.8274 2.92456 28.2065 3.34907C29.8084 5.14293 32.5629 8.62269 34.355 13.0631C34.355 13.0631 34.355 13.0632 34.355 13.0632L35.0962 14.9003C35.4211 15.7058 36.548 15.7425 36.9246 14.9598L37.7855 13.1708C37.7855 13.1707 37.7856 13.1705 37.7856 13.1704C38.9379 10.7733 40.7841 8.35693 43.269 5.98923C44.5286 4.7891 45.7092 3.83678 46.5878 3.17598ZM28.1862 0.648583C27.8008 0.284552 27.1983 0.284552 26.8129 0.648583L26.7648 0.69399C26.7645 0.69423 26.7644 0.694333 26.7642 0.694574C26.553 0.894503 22.6222 4.65641 19.8313 10.3205C19.4474 11.0996 18.2717 11.143 17.8126 10.4057C16.6097 8.47398 15.0132 6.55678 13.0338 4.67125C10.3737 2.13693 8.02255 0.635712 7.9201 0.570543C7.91977 0.570337 7.91964 0.570256 7.91932 0.57005L7.86218 0.533804C7.41315 0.248956 6.81972 0.365348 6.51155 0.798711L6.47693 0.847405C6.47677 0.847623 6.47671 0.847706 6.47656 0.847924C6.20895 1.22366 -8.91936e-09 10.0929 -8.91936e-09 21.2025C-8.91936e-09 38.1846 12.3361 52 27.4995 52C42.6639 52 55 38.1846 55 21.2025C55 10.0926 48.7888 1.22309 48.5225 0.847887C48.5224 0.847711 48.5223 0.847643 48.5222 0.847467L48.489 0.800716C48.1812 0.36641 47.5871 0.249413 47.1375 0.534574L47.0816 0.570049C47.0813 0.570256 47.0812 0.570337 47.0808 0.570544C46.9784 0.635713 44.6254 2.13601 41.9652 4.67125C39.9862 6.5565 38.3888 8.47342 37.1858 10.4049C36.7266 11.1422 35.5504 11.0989 35.1665 10.3197C32.3757 4.65605 28.4461 0.894494 28.2349 0.694574C28.2346 0.694333 28.2345 0.69423 28.2343 0.69399L28.1862 0.648583Z" fill="#FCCB6F"/>
<path d="M12.8333 0C10.7963 7.8 6.51852 13.2 0 17.2" transform="translate(36.2598 27.3994)" stroke="#FCCB6F" stroke-opacity="0.5" stroke-width="2" stroke-linecap="round"/>
</svg>
