<svg width="462" height="462" viewBox="0 0 462 462" fill="none" xmlns="http://www.w3.org/2000/svg">
<path d="M163.347 0C253.555 3.24433e-06 326.686 73.1594 326.694 163.411C326.702 253.663 253.584 326.836 163.376 326.852C73.1678 326.868 0.0241937 253.722 5.88042e-06 163.47C-0.0116123 120.119 17.193 78.5397 47.8277 47.8819C78.4625 17.2241 120.017 -1.55836e-06 163.347 0Z" transform="translate(63.8418 72.1531)" fill="#3C4A63"/>
<path d="M163.563 9.77046e-05C226.202 -0.012132 283.332 35.8122 310.627 92.2189C327.049 153.226 310.045 218.374 265.905 263.558C221.766 308.743 157.056 327.244 95.7186 312.216C25.7082 280.342 -12.5953 203.924 3.74539 128.725C20.0861 53.5256 86.6441 -0.0835302 163.563 9.77046e-05Z" transform="translate(63.625 72.1528)" fill="#4A5B7B"/>
<path fill-rule="evenodd" clip-rule="evenodd" d="M49.4053 10.6776C24.5166 33.3763 7.25879 63.2245 0 96.1263L0.273438 96.1483C3.09277 99.5677 3.03418 100.231 2.85156 102.316L2.84961 102.337C2.78223 103.107 2.69824 104.072 2.7373 105.438C5.39844 107.859 9.37305 109.952 13.1943 111.759C13.9053 112.092 14.4424 112.355 14.8594 112.56L14.8711 112.566C15.7812 113.012 16.123 113.18 16.4678 113.188C16.6748 113.193 16.8838 113.141 17.2188 113.057C17.6768 112.942 18.3711 112.768 19.6221 112.603C21.6162 112.314 22.377 113.329 23.2295 114.468L23.2393 114.481C23.6162 114.983 24.0107 115.507 24.5381 115.955C26.084 117.361 27.498 117.569 28.8496 117.768C30.877 118.066 32.7607 118.342 34.7324 122.615C35.2646 123.804 35.2578 124.115 35.2559 124.239C35.2549 124.266 35.2549 124.285 35.2598 124.301C35.2705 124.336 35.3066 124.363 35.418 124.446C35.71 124.666 36.5205 125.275 38.7617 127.436C40.0879 128.205 41.4551 128.981 42.8252 129.759L42.8369 129.765L42.9775 129.845L44.0391 130.448C44.4697 129.755 44.5938 129.246 44.6943 128.83C44.8633 128.135 44.9697 127.699 46.3389 127.096C47.4883 127.929 48.8467 130.569 49.3174 132.453C50.3838 137.452 48.4014 139.988 46.624 142.261C44.752 144.655 43.1084 146.759 45.4961 151.142C45.1875 151.922 44.8613 152.378 44.5947 152.751C44.0859 153.464 43.791 153.877 44.2363 155.667C44.6299 157.512 45.1289 157.879 45.7979 158.372C46.1895 158.66 46.6387 158.991 47.1602 159.687C48.3613 161.26 49.6494 163.842 51.0029 166.555C53.0811 170.72 55.3145 175.195 57.6279 176.82C57.708 176.915 57.8223 176.974 57.9453 176.985C58.8691 177.609 59.8623 178.145 60.8301 178.668C62.7998 179.731 64.6631 180.737 65.6104 182.309C66.0225 183.09 66.3281 183.922 66.5195 184.785C67.2832 187.915 67.5176 192.533 67.7441 197.005C67.9688 201.44 68.1865 205.731 68.9062 208.283C70.2402 212.985 70.0332 215.022 69.8389 216.934C69.7129 218.176 69.5918 219.366 69.9023 221.199C70.0674 222.103 70.3145 222.636 70.5928 223.237C70.9424 223.99 71.3408 224.849 71.6875 226.677C71.9736 228.679 72.4277 230.655 73.0449 232.581C74.3857 231.94 74.0576 231.751 73.7744 231.588C73.54 231.453 73.3359 231.335 74.1396 230.993C75.5898 230.375 74.875 233.203 74.4814 234.759C74.3926 235.108 74.3213 235.393 74.293 235.561C73.7871 237.995 74.5596 239.217 75.1162 240.099C75.3066 240.4 75.4717 240.661 75.5527 240.918C75.7383 241.487 75.7803 241.996 75.8232 242.513L75.8242 242.527C75.9092 243.588 75.998 244.684 77.3262 246.395C77.9414 247.118 78.5186 247.871 79.0566 248.652C80.8604 251.261 83.2891 253.378 86.1191 254.809C87.6953 255.641 91.4629 257.318 93.2363 256.901L93.4922 256.843C94.2617 256.667 94.6123 256.588 94.7607 256.37C94.8848 256.19 94.8691 255.916 94.8418 255.416L94.8408 255.403C94.8232 255.102 94.8018 254.72 94.8018 254.228C91.0693 253.963 89.4248 251.44 87.7266 248.836C87.5322 248.537 87.3369 248.237 87.1377 247.94C87.3193 246.95 87.7266 245.593 88.1064 244.328L88.1094 244.318C88.4863 243.066 88.835 241.905 88.9111 241.279C88.0195 240.03 87.2715 239.772 86.3926 239.469C86.084 239.362 85.7598 239.251 85.4072 239.089C85.6055 237.058 85.7568 236.97 85.9893 236.834C86.1934 236.715 86.46 236.56 86.875 235.024C86.9775 234.645 87.0762 234.265 87.1748 233.883L87.2061 233.764L87.2354 233.651L87.2539 233.579C87.4775 232.716 87.7031 231.845 87.9697 230.96C86.916 230.303 86.6074 230.388 86.4512 230.431C86.417 230.44 86.3896 230.448 86.3643 230.445C86.2715 230.435 86.1943 230.292 85.8408 229.632L85.8311 229.613L85.8271 229.605L85.5605 229.109C86.1348 228.527 86.6006 228.489 87.1836 228.441C87.6113 228.406 88.1025 228.365 88.7471 228.101C88.8604 226.769 88.7842 225.912 88.7334 225.343C88.6914 224.868 88.667 224.593 88.7852 224.41C88.9473 224.16 89.376 224.083 90.3926 223.899C90.6709 223.849 90.9922 223.79 91.3643 223.719C96.0723 222.842 95.7002 220.158 93.4004 216.598C93.04 216.087 92.708 215.557 92.4043 215.01C98.3545 216.07 98.6514 215.099 99.6533 211.817C99.9541 210.829 100.32 209.632 100.923 208.217C101.253 207.442 101.612 206.951 102.026 206.387C102.396 205.884 102.807 205.322 103.277 204.449C104.51 202.143 104.338 200.334 104.192 198.794C103.928 195.997 103.747 194.09 112.223 191.708C115.836 190.744 116.932 182.791 117.14 178.935C117.204 177.283 117.133 176.122 117.075 175.185C116.898 172.318 116.85 171.535 121.224 165.153C123.107 162.426 123.677 158.997 121.432 155.853C120.675 155.327 120.175 155.22 119.669 155.112C119.12 154.995 118.564 154.876 117.665 154.221C116.505 153.345 115.797 152.732 115.283 152.287L115.276 152.281C114.8 151.868 114.491 151.601 114.143 151.405C113.505 151.046 112.735 150.922 110.563 150.572L109.552 150.408C108.886 150.292 108.376 150.211 107.979 150.148C107.08 150.005 106.758 149.954 106.511 149.789C106.372 149.697 106.258 149.569 106.079 149.369C105.908 149.178 105.679 148.922 105.313 148.568C103.846 147.163 102.4 146.87 101.051 146.595C99.6631 146.313 98.376 146.051 97.2656 144.624C96.7949 143.528 96.3242 142.433 95.9082 141.338C95.8174 141.135 95.7051 140.95 95.5967 140.773L95.585 140.754L95.5742 140.737L95.5654 140.722L95.5566 140.708L95.5479 140.693L95.541 140.682L95.5283 140.662L95.5195 140.648C95.4092 140.468 95.3037 140.296 95.2295 140.121C94.8281 139.236 94.6934 138.678 94.5859 138.235C94.3994 137.468 94.2959 137.044 93.0391 135.849C90.1426 133.039 89.0283 133.114 87.6377 133.208C86.7686 133.267 85.791 133.333 84.2031 132.705L77.8193 126.592C77.5381 125.963 77.2051 125.358 76.8232 124.785L76.5596 124.576C76.5596 124.5 76.3516 124.412 76.3516 124.412C75.9229 124.303 75.502 124.164 75.0928 123.996C73.0889 123.29 72.2764 123.494 71.3428 123.728C70.8271 123.857 70.2744 123.996 69.4648 123.996C68.4287 123.954 67.4023 123.781 66.4092 123.481C65.3057 123.169 64.5527 122.579 63.9209 122.085C62.7539 121.172 62.0039 120.584 60.2344 122.681C60.0781 122.368 59.9131 122.052 59.7461 121.734L59.707 121.66L59.6934 121.633L59.6787 121.606L59.6602 121.571C59.4131 121.098 59.1631 120.619 58.9307 120.129C58.7676 120.227 58.6191 120.32 58.4775 120.408C58.2588 120.544 58.0557 120.671 57.8359 120.797C56.4639 121.601 55.54 121.88 54.8438 122.091C53.6504 122.453 53.1201 122.613 52.1309 124.861C51.9863 125.198 51.8799 125.452 51.7979 125.648C51.6279 126.055 51.5615 126.213 51.4668 126.352C51.4072 126.44 51.335 126.52 51.2168 126.651L51.1982 126.672C51.0469 126.841 50.8213 127.094 50.4561 127.545C49.4268 127.378 48.9268 126.975 48.4746 126.611C47.8867 126.138 47.3799 125.73 45.9014 125.99C45.1211 126.128 44.5811 126.414 44.1113 126.662C43.1641 127.165 42.501 127.516 40.7217 126.198C38.3789 124.434 38.7139 121.549 39.0703 118.476C39.2383 117.024 39.4111 115.53 39.3096 114.092C36.7422 112.561 35.6064 112.749 34.4736 112.936C33.6201 113.077 32.7676 113.217 31.3047 112.624C30.834 111.337 31.54 109.69 32.0332 108.539C32.1367 108.299 32.2305 108.081 32.3018 107.892L32.4531 107.434C33.0352 105.683 33.6211 103.922 33.1885 101.604C29.2402 100.977 28.8203 101.962 27.957 103.989L27.9512 104.004L27.9355 104.039C27.7627 104.444 27.5713 104.89 27.3301 105.372C25.1406 109.776 16.5664 109.239 16.1943 99.8073C16.0586 97.5504 16.6152 95.7719 17.1924 93.9315L17.1953 93.9215L17.1982 93.9115L17.2012 93.9015L17.2041 93.8915L17.207 93.8815L17.21 93.8715C17.5088 92.9169 17.8135 91.9449 18.0234 90.8788C18.4824 88.6129 20.0586 87.5902 21.9082 86.3905L21.9248 86.3795C22.1895 86.2081 22.459 86.0333 22.7314 85.8505C25.1064 84.3065 26.5156 84.84 27.8652 85.351C28.7188 85.6737 29.5479 85.9877 30.582 85.7628C31.3789 85.5953 31.8252 85.1693 32.2783 84.7362C33.1904 83.8658 34.1309 82.9677 38.0059 84.0868C39.2617 84.4493 40.1504 84.6066 40.7891 84.7196C41.4912 84.8439 41.8896 84.9142 42.1367 85.1456C42.46 85.4484 42.5264 86.026 42.6777 87.359C42.7559 88.0531 42.8584 88.9518 43.0322 90.1229C44.2803 90.5831 45.5947 91.0433 46.9521 91.4596C46.835 88.1925 46.4229 86.2689 46.1426 84.9628L46.1406 84.955C45.5557 82.2347 45.5469 82.1925 49.9854 78.226C51.252 77.1088 52.0186 76.7032 52.9443 76.2137C53.5068 75.9161 54.1279 75.5875 54.9561 75.049L55.415 74.7538C57.6396 73.327 58.1182 73.0206 57.5732 68.9689C57.6113 68.9357 57.6494 68.8978 57.6914 68.8561L57.7031 68.8448C57.7695 68.7799 57.8447 68.7064 57.9346 68.6293L62.7529 64.0282C64.3164 62.3885 66.9062 61.5875 69.1719 60.8871L69.3223 60.8405C69.6289 57.4005 70.0342 57.2362 72.7275 56.1407L72.9355 56.0641C73.4482 55.8492 73.9336 55.6266 74.4053 55.4098C75.8604 54.7416 77.1953 54.1288 78.8486 53.9716C78.1494 55.0695 77.8818 55.0514 77.7979 55.0458C77.7842 55.0448 77.7754 55.0443 77.7705 55.0482C77.7607 55.0555 77.7637 55.079 77.7725 55.1461L77.7734 55.1569L77.7744 55.1644C77.7969 55.3451 77.8516 55.7953 77.8516 56.9076C78.9648 56.6527 79.7275 56.2384 80.5674 55.7819C81.3896 55.3356 82.2852 54.8488 83.6553 54.4318C84.0352 54.3126 84.3984 54.2115 84.7432 54.1158C86.6787 53.577 88.0098 53.2064 88.3633 50.7509C88.0498 50.808 87.5645 50.9806 86.998 51.1822C84.6299 52.024 80.8369 53.3732 82.1885 48.9542C82.4873 48.0089 82.7051 47.951 82.8691 47.9078C83.0771 47.8529 83.1973 47.8212 83.2832 46.0184C82.1221 45.5582 81.0273 45.098 79.9326 44.5941C83.2256 42.7975 83.8682 43.5424 84.7656 44.5851C85.1875 45.0746 85.666 45.6298 86.502 46.0184C86.6299 45.8065 86.7197 45.6647 86.7803 45.5695L86.7871 45.559L86.7939 45.5475L86.8018 45.5348C86.873 45.4215 86.8945 45.3871 86.8838 45.3734C86.8799 45.3675 86.8701 45.3654 86.8574 45.3622C86.7969 45.3478 86.6572 45.3143 86.6113 44.8024C86.583 44.309 86.541 44.0228 86.4922 43.8763C87.2432 43.7799 87.9258 43.7823 88.5918 43.7845C89.585 43.788 90.54 43.7914 91.627 43.4659C92.4834 43.1988 92.9424 42.889 93.3975 42.5821C94.0244 42.1593 94.6426 41.7421 96.2803 41.4501C95.5791 43.1869 94.6924 44.0765 93.8291 44.9427C92.9395 45.8358 92.0742 46.7042 91.4629 48.4503C91.9775 48.6146 99.8828 50.3346 100.036 50.3346C100.047 49.9405 100.063 49.547 100.08 49.153L100.087 48.9774L100.095 48.7987L100.103 48.6151L100.104 48.6005C100.146 47.6195 100.189 46.6337 100.189 45.6349L100.172 45.6273L100.154 45.6197L100.137 45.6122C99.1582 45.2035 98.1787 44.7943 97.2549 44.3422C97.5742 43.1459 97.9834 42.0968 98.3506 41.1573C99.665 37.7867 100.431 35.8258 94.5391 33.5297C94.3682 32.3424 94.2754 31.3793 94.1934 30.5275C93.9961 28.4867 93.8604 27.0843 92.8643 24.7657C91.2119 25.0316 90.5898 25.7181 89.9941 26.3751C89.4619 26.9635 88.9502 27.528 87.7393 27.7455C85.0625 28.1688 85.2461 26.4398 85.4434 24.5778C85.4961 24.0782 85.5498 23.5692 85.5498 23.0897C84.2227 22.503 83.8301 22.0516 83.5166 21.6903C83.1621 21.2823 82.9072 20.9891 81.5205 20.7452C80.7314 20.5699 77.1289 20.1537 76.2422 20.1537C75.4482 21.078 74.7783 22.1017 74.25 23.1991C73.2695 25.2904 73.2178 27.0602 73.1729 28.5797C73.083 31.6608 73.0225 33.712 65.3145 35.3263C65.1562 35.861 65.0244 36.4503 64.8926 37.0433L64.8906 37.0504L64.876 37.1166L64.8682 37.1539C64.2793 39.8185 63.6885 42.4943 60.9346 40.5629C60.0283 39.028 60.4971 37.765 60.9795 36.4642C61.2725 35.6761 61.5703 34.8744 61.5703 33.9899C60.1025 33.7416 58.8984 33.4896 57.9561 33.234C55.7734 32.6107 54.8848 31.9742 54.1328 31.4349C53.2051 30.7704 52.4834 30.2533 49.7988 30.09C49.6465 28.2614 49.4404 27.8468 49.2715 27.507C49.0996 27.163 48.9668 26.8956 48.9668 25.3136C51.7266 23.0192 54.7705 21.09 58.0225 19.5731C61.0303 18.1078 64.1406 16.8629 67.3291 15.8485C66.8584 16.7357 66.3877 17.6012 65.917 18.4447C67.584 19.4203 68.0986 20.141 68.3887 20.546C68.6816 20.9552 68.7432 21.0426 69.5303 20.7452C71.0957 20.1537 69.5303 19.9457 69.5303 19.9457C69.4424 19.7079 69.0508 19.5677 68.6924 19.4396C67.9775 19.1844 67.3975 18.9769 69.6289 18.1381C70.7129 17.7313 71.4248 17.9823 72.2549 18.275C72.6318 18.4078 73.0332 18.5494 73.5049 18.642C73.3936 16.3109 72.6846 16.0182 71.9131 15.7001C71.2412 15.423 70.5234 15.1266 70.1104 13.4493C71.5459 14.2225 73.2744 14.2225 74.71 13.4493C76.0801 12.6429 77.1816 11.1632 78.3408 9.6051C78.8672 8.89758 79.4062 8.17395 79.9873 7.48987C80.7402 7.48987 81.3799 7.46179 81.9434 7.43689L81.9541 7.4364L81.9648 7.43591L81.9746 7.43542C84.3613 7.32922 85.3604 7.28479 87.7285 9.68078C88.3213 10.2687 88.4834 10.2447 88.5674 10.2325C88.582 10.2303 88.5938 10.2286 88.6055 10.2303C88.667 10.2396 88.7139 10.3453 89.0059 11.0062L89.1416 11.3131C87.7637 12.5482 86.3008 13.6832 84.7617 14.7091C83.4189 15.3859 82.4785 15.2562 81.6641 15.1439C80.6729 15.0072 79.8682 14.8961 78.75 16.2975C79.5 16.9745 80.4141 16.8741 81.2832 16.7787C81.582 16.746 81.876 16.7137 82.1553 16.7137C83.8066 16.5843 83.9785 16.7848 84.8857 17.84L84.9258 17.8861C85.1582 18.1417 85.3623 18.3695 85.5449 18.5739L85.6104 18.6471L85.6182 18.6561C86.3242 19.4457 86.6982 19.8639 87.1553 20.1512C87.6689 20.4745 88.2881 20.6315 89.5986 20.9637L89.6543 20.9779L89.709 20.9918L89.7617 21.0052L89.8125 21.0182C90.1172 21.0956 90.457 21.1822 90.8379 21.2821L91.6709 20.3619C91.7441 20.2513 91.832 20.1517 91.9336 20.066L92.1963 19.9017C92.9893 19.4572 93.1064 19.6183 93.2285 19.7858C93.3711 19.9813 93.5195 20.1852 94.7578 19.4415C96.3281 18.5211 95.9189 17.7587 95.3408 16.6805C94.9561 15.962 94.4951 15.1031 94.4951 13.9642C96.0635 13.817 96.373 14.2494 96.6973 14.7015C96.999 15.1241 97.3145 15.5636 98.6787 15.5636C100.348 15.5255 101.773 14.348 102.127 12.7152C100.927 11.2355 100.39 11.0931 99.8066 10.9384C99.4482 10.8434 99.0723 10.7438 98.5137 10.327C97.543 9.6029 97.4697 8.80529 97.3926 7.96203C97.333 7.31262 97.2715 6.63611 96.7949 5.94519C96.332 5.25818 95.2129 4.92224 94.2002 4.61853C93.7275 4.47668 93.2783 4.34167 92.9297 4.18127C91.2402 3.40149 90.9736 2.79821 90.7686 2.33532C90.3545 1.40002 90.1934 1.03772 79.0674 0.949582C77.751 0.923947 76.4453 1.19348 75.2461 1.7384C73.6699 2.4425 72.4727 3.79162 71.9609 5.44128C72.334 6.15124 72.8652 6.47131 73.4072 6.79699C73.8506 7.06433 74.3018 7.33557 74.6768 7.82946C73.5801 9.77087 71.6152 11.0641 69.3984 11.3021C69.9678 8.50134 69.5107 8.52136 68.9209 8.54724C68.2051 8.57873 67.292 8.61902 67.7783 3.63366C68.4766 3.34826 69.2119 3.15051 69.9395 2.95471C71.3359 2.57898 72.7061 2.21057 73.7354 1.24548L73.3809 1.03552C72.8604 0.728635 72.3232 0.41174 71.8516 0.0733614C69.7803 -0.330447 68.5166 1.00696 67.3232 2.26916C66.7686 2.85583 66.2295 3.42614 65.6318 3.79797C65.2559 2.93908 65.3887 2.61413 65.5898 2.12365C65.7227 1.8009 65.8848 1.40661 65.9502 0.741574C63.541 0.566281 60.2998 1.20154 58.624 3.04211L58.7002 3.12072C59.4492 3.8883 59.7891 4.23669 60.2012 4.44079C60.5439 4.61023 60.9346 4.68029 61.6504 4.80847C61.9531 4.86267 62.3135 4.92712 62.7529 5.01404C61.9717 6.55774 62.0693 7.43005 62.1436 8.08777C62.2373 8.92346 62.292 9.41223 60.4531 10.4913L60.4277 10.4364C60.3623 10.2936 60.252 10.0521 60.2998 10.119C60.3545 10.1957 60.2451 9.73547 60.2451 9.73547C60.0918 9.1112 59.9385 8.47571 59.8291 7.85119C59.2148 7.78747 58.5938 7.84314 58 8.0155C56.9561 8.41443 56.5049 9.28186 55.9609 10.3263C55.8779 10.4872 55.792 10.6522 55.7012 10.8202C55.2568 10.838 54.7822 10.8751 54.291 10.9137C52.6641 11.0411 50.8594 11.1825 49.4053 10.6776ZM320.42 103.116C313.541 63.954 292.618 28.6483 261.576 3.81994L261.588 3.8966C261.059 4.33093 260.507 4.73694 259.934 5.11267C258.423 2.47253 258.105 1.96863 254.602 2.68054C252.547 6.13879 253.206 6.70642 254.603 7.91003C255.082 8.32312 255.648 8.81115 256.222 9.51648C255.068 9.35388 253.959 8.97424 252.854 8.59607C251.057 7.98059 249.271 7.3695 247.331 7.70886C245.903 7.97009 245.886 8.02649 245.716 8.57287C245.644 8.80603 245.543 9.12805 245.294 9.59314C243.774 8.95178 243.302 9.09753 242.502 9.34387C242.086 9.47204 241.581 9.62756 240.794 9.71374C239.258 9.87439 238.59 9.72448 237.979 9.58752C237.467 9.47253 236.995 9.36682 236.086 9.46179C234.344 9.64734 232.88 10.4943 231.535 11.2723C230.42 11.9176 229.387 12.5155 228.345 12.6495C227.617 11.4452 227.752 10.8497 227.825 10.5284C227.85 10.4198 227.867 10.3424 227.842 10.2836C227.779 10.1385 227.458 10.1056 226.343 9.99084L226.1 9.9657C225.264 11.2015 225.293 11.2755 225.566 11.9633C225.683 12.257 225.844 12.6625 226.001 13.318C225.514 13.3766 225.075 13.4152 224.679 13.4501C222.48 13.6439 221.565 13.7245 220.768 16.462L220.21 16.359C219.453 16.2201 218.698 16.0814 217.942 15.9142C217.513 16.4393 217.519 16.503 217.537 16.6964C217.552 16.858 217.576 17.1102 217.361 17.7985L217.139 17.7301C214.469 16.9088 214.203 16.8273 213.595 13.7343C214.746 13.6639 215.765 13.8226 216.7 13.9684C218.531 14.2538 220.041 14.4891 221.6 12.8578C221.088 10.0043 216.212 9.12219 212.188 8.39441C210.436 8.07727 208.844 7.78918 207.847 7.38025C203.664 5.66028 201.31 4.69641 195.562 6.62439C194.835 6.87146 194.118 7.03161 193.439 7.18322C192.612 7.36779 191.843 7.53967 191.182 7.84045L190.974 7.9281H190.875C190.167 8.29162 189.897 8.54406 189.705 8.724C189.342 9.06433 189.255 9.14563 186.998 9.23156C186.335 10.9828 186.399 11.3749 186.424 11.5192C186.429 11.5465 186.432 11.5648 186.428 11.5819C186.42 11.6178 186.384 11.6476 186.271 11.7406C186.068 11.9076 185.618 12.2782 184.645 13.2521C183.666 14.2216 183.146 15.0883 182.699 15.8346C182.045 16.9261 181.545 17.7599 179.99 18.2804L179.501 18.4291C177.651 18.985 174.113 20.0485 173.355 21.8846C173.246 24.5687 173.301 27.7455 175.6 28.6329C176.905 29.1366 177.806 28.5704 178.866 27.9025C179.674 27.3942 180.574 26.827 181.819 26.628C182.212 28.2396 182.706 28.9196 183.142 29.5197C183.58 30.1229 183.96 30.6454 184.119 31.9523C183.926 32.0538 183.728 32.1554 183.528 32.2572L183.516 32.2638C183.075 32.4894 182.632 32.7167 182.235 32.9491C181.119 32.1434 181.16 31.9945 181.233 31.7316C181.305 31.4762 181.406 31.1134 180.505 29.9366C179.662 30.3199 178.83 30.6925 177.943 31.0321C177.699 33.1058 178.104 34.359 178.367 35.1732C178.789 36.4794 178.847 36.6554 175.271 37.2765C173.204 37.6088 172.782 38.3141 172.241 39.2179C171.837 39.8937 171.366 40.6803 170.092 41.505C169.337 41.9877 168.683 42.5521 168.052 43.0961C166.938 44.058 165.896 44.9567 164.497 45.2296C163.192 45.4491 162.672 45.736 162.145 46.026C161.698 46.2716 161.248 46.5196 160.314 46.7306C159.554 46.9003 159.415 46.7653 159.324 46.6779C159.211 46.5677 159.175 46.5328 158.069 47.2782C158.527 48.2509 159.207 48.6544 159.938 49.0883C160.623 49.495 161.354 49.9286 161.989 50.8824C163.167 52.722 163.167 55.079 161.989 56.9186C161.025 57.744 159.088 57.423 157.061 57.0873C154.138 56.6031 151.029 56.088 150.383 58.9342C150.147 59.8983 150.147 60.6105 150.147 61.3224C150.147 62.0345 150.147 62.7465 149.912 63.7106C149.855 63.9476 149.802 64.1639 149.752 64.3627L149.721 64.4896L149.683 64.6415L149.678 64.66C149.432 65.6488 149.307 66.1525 149.318 66.6532C149.33 67.1693 149.486 67.6818 149.803 68.7186C149.909 69.0656 150.032 69.4711 150.175 69.955C152.792 70.0426 155.189 70.5028 153.941 74.0631C153.401 75.837 152.354 76.3929 151.265 76.9718C150.564 77.3436 149.846 77.725 149.233 78.4452C148.137 79.8387 147.953 81.0421 147.757 82.3348L147.754 82.3514C147.631 83.1569 147.502 83.9979 147.142 84.9413C146.695 86.0717 145.717 86.7484 144.523 87.5741C142.79 88.7728 140.603 90.2858 138.93 93.9574C137.103 97.9071 136.076 99.5531 135.561 100.38C135.267 100.85 135.139 101.056 135.123 101.269C135.11 101.434 135.165 101.604 135.262 101.906C135.468 102.55 135.865 103.792 136.214 106.862C136.458 108.876 135.951 110.802 135.46 112.67C134.694 115.578 133.966 118.349 136.159 121.104C136.63 121.719 137.337 122.411 138.054 123.111C139.021 124.056 140.005 125.018 140.451 125.836C141.42 127.45 141.538 128.13 141.618 128.592C141.732 129.252 141.769 129.463 144.108 131.314C145.886 132.72 147.136 133.757 148.04 134.508L148.07 134.533C149.711 135.895 150.202 136.303 150.649 136.259C150.84 136.241 151.023 136.14 151.284 135.996C151.866 135.677 152.835 135.143 155.146 134.83C156.534 134.63 157.517 134.833 158.418 135.019C159.585 135.26 160.614 135.472 162.208 134.743C162.757 134.487 163.306 134.212 163.851 133.937L163.92 133.902C167.817 131.939 171.501 130.083 173.509 136.298C174.407 136.338 175.257 136.297 176.033 136.259C179.303 136.099 181.265 136.004 180.078 142.334C179.91 143.333 179.757 144.154 179.628 144.841C179.279 146.705 179.114 147.585 179.343 148.348C179.547 149.032 180.066 149.621 181.052 150.739C181.334 151.059 181.654 151.422 182.017 151.843C185.027 155.373 185.654 159.373 186.348 163.798L186.517 164.869C186.562 165.288 186.675 165.664 186.794 166.061C186.937 166.534 187.087 167.035 187.141 167.673C187.234 169.236 186.48 170.758 185.657 172.421C184.166 175.432 182.445 178.906 185.104 183.93C187.133 187.646 187.655 190.788 188.196 194.042L188.2 194.067L188.201 194.075L188.203 194.084C188.54 196.104 188.885 198.168 189.604 200.44C189.933 201.36 190.354 202.245 190.863 203.08L190.974 203.277C192.261 205.232 193.246 207.37 193.896 209.62C194.108 210.65 194.022 211.365 193.951 211.96C193.831 212.961 193.751 213.62 195.2 214.856C196.032 215.448 205.81 215.327 210.365 211.131C211.28 210.397 212.104 209.554 212.817 208.623C213.468 207.823 213.716 207.269 213.988 206.659L213.993 206.649C214.201 206.183 214.425 205.685 214.854 205.019C215.456 204.137 215.823 203.901 216.125 203.708C216.51 203.461 216.79 203.281 217.318 201.918C217.837 200.754 217.913 199.83 217.987 198.944C218.04 198.296 218.093 197.667 218.314 196.978C218.861 196.541 219.417 196.26 219.956 195.987C220.808 195.556 221.618 195.146 222.289 194.173C222.948 191.041 222.506 189.471 222.179 188.308C221.782 186.901 221.554 186.088 223.646 183.821C225.8 181.542 227.695 180.355 229.062 179.5C229.98 178.925 230.659 178.499 231.016 177.993C233.294 174.923 232.171 169.467 231.133 164.427C230.315 160.457 229.552 156.744 230.545 154.659C231.805 152 232.648 150.845 233.658 149.462C234.237 148.669 234.871 147.8 235.67 146.53C237.325 143.806 239.196 142.255 241.026 140.739C243.531 138.663 245.959 136.652 247.648 131.785C247.885 131.112 248.308 130.292 248.771 129.395C250.04 126.932 251.606 123.892 250.419 121.772C249.74 121.256 247.449 121.868 244.985 122.525C242.477 123.194 239.787 123.911 238.439 123.536C237.937 122.328 237.668 121.394 237.439 120.6C236.883 118.664 236.565 117.562 233.677 115.363C230.585 112.986 230.43 112.2 230.23 111.189C230.078 110.42 229.901 109.521 228.388 107.695C227.194 106.228 227.174 106 227.07 104.886L227.069 104.87C227.027 104.422 226.972 103.831 226.822 102.962C226.582 101.506 225.978 100.725 225.366 99.9359C225.03 99.5023 224.693 99.0663 224.413 98.5145C223.625 96.9589 220.482 90.5941 221.062 88.7098C223.516 88.3815 224.896 91.2411 226.014 93.559C226.163 93.8688 226.309 94.1688 226.45 94.4503C226.846 95.2362 227.27 95.764 227.667 96.2587C228.051 96.7367 228.409 97.1837 228.694 97.8026C229.056 98.5294 229.161 99.1698 229.268 99.8158C229.406 100.659 229.547 101.512 230.261 102.579C231.2 104.112 231.796 104.701 232.287 105.187C233.192 106.082 233.743 106.626 235.439 112.088C236.326 114.564 237.225 117.028 238.111 119.461C240.762 119.299 243.308 117.999 245.829 116.713C247.234 115.995 248.632 115.282 250.035 114.772C252.191 113.984 252.258 113.748 252.378 113.326C252.462 113.032 252.571 112.647 253.43 111.923C254.182 111.3 254.769 111.176 255.389 111.044C255.936 110.928 256.508 110.807 257.24 110.335C259.277 109.086 265.453 101.867 264.664 99.2267C263.542 97.8131 263.461 97.7789 262.621 97.4247C262.289 97.285 261.839 97.0951 261.16 96.7509C259.426 95.8832 259.325 95.3956 259.2 94.7855C259.103 94.3097 258.989 93.7589 258.072 92.8947C257.604 93.2413 257.193 93.6022 256.796 93.9515L256.777 93.9679C255.362 95.2135 254.115 96.3114 251.064 96.1154C251.01 95.9073 250.692 94.3187 250.692 94.3187C250.289 93.1696 249.484 92.4113 248.659 91.6342C248.32 91.3148 247.979 90.9923 247.659 90.6381C247.382 90.3466 247.1 90.0831 246.823 89.826C245.596 88.6818 244.502 87.6625 244.626 84.8536C247.284 83.4447 247.96 84.6046 248.907 86.2306C249.396 87.0695 249.957 88.0323 250.9 88.8304C253.967 91.4701 254.603 91.3451 256.379 90.9955C257.058 90.8619 257.902 90.6954 259.113 90.6381C261.37 93.6691 261.862 93.7118 265.104 93.9923L265.159 93.9972C265.439 94.0214 265.741 94.0475 266.065 94.0778C267.112 94.1874 268.811 94.0839 270.483 93.9818C272.485 93.8595 274.45 93.7396 275.22 93.9901C277.092 95.6664 278.921 97.3424 280.694 99.0184C281.021 99.65 281.119 100.137 281.205 100.561C281.34 101.232 281.443 101.743 282.37 102.414C283.718 103.383 284.179 103.146 284.928 102.762C285.347 102.546 285.856 102.284 286.662 102.162C286.922 102.923 287.135 104.459 287.352 106.03L287.354 106.042C287.53 107.317 287.711 108.614 287.921 109.535C288.471 112.109 289.241 114.069 290.035 116.089C290.428 117.088 290.826 118.1 291.206 119.209C291.885 121.18 294.765 128.312 295.443 128.432C297.634 128.772 299.451 124.368 299.823 122.736C300.373 120.11 300.346 118.745 300.317 117.298C300.298 116.294 300.277 115.25 300.448 113.72C302.506 112.466 304.061 110.706 305.628 108.932C306.729 107.684 307.838 106.43 309.131 105.339C310.72 104 310.78 103.797 310.904 103.381C310.986 103.107 311.097 102.739 311.693 101.889L311.857 101.659C314.271 101.337 316.639 100.745 318.92 99.8949C319.286 101.026 319.79 102.108 320.42 103.116ZM51.2002 9.10022C52.1934 8.22375 53.1934 7.35827 54.2002 6.50378L54.2773 6.66809C54.5811 7.01111 54.7812 7.43225 54.8574 7.88415C53.3369 8.23156 52.6924 8.53869 52.2246 8.76184C51.8799 8.9259 51.6318 9.04455 51.2002 9.10022ZM195.287 60.2487C193.914 59.3097 192.483 58.4552 191.006 57.691C190.636 57.4608 190.285 57.2023 189.954 56.9186C189.305 56.3365 188.801 55.7718 188.354 55.2718C187.222 54.0023 186.46 53.1486 184.622 53.4786C184.525 55.2091 184.721 55.4642 185.424 56.3802C185.514 56.4965 185.61 56.6232 185.717 56.765C188.341 60.0365 188.435 60.0797 189.414 60.5311C189.763 60.692 190.224 60.9047 190.951 61.3334L191.05 61.3881C191.895 61.9015 192.713 62.4574 193.502 63.0533C191.482 64.8434 191.677 65.7064 191.815 66.3199C191.92 66.7843 191.993 67.1056 191.05 67.5775H190.951C190.756 67.6495 190.565 67.7338 190.382 67.8297C190.081 67.0704 190.176 66.7716 190.263 66.4984C190.388 66.1053 190.496 65.7648 189.385 64.1815C188.433 62.9987 187.165 62.1097 185.728 61.618C183.083 60.3695 182.371 59.3002 181.518 58.0175C181.053 57.3192 180.546 56.5577 179.662 55.6696C177.871 55.7252 177.471 56.0978 176.909 56.62C176.586 56.9215 176.209 57.2726 175.479 57.6415C174.131 58.2548 173.654 58.1024 173 57.8937C172.485 57.7296 171.861 57.5306 170.617 57.6415C169.57 59.4733 169.685 59.7748 169.723 59.8768C169.729 59.8907 169.732 59.901 169.731 59.911C169.729 59.9384 169.692 59.9635 169.556 60.0572C169.307 60.2272 168.729 60.6217 167.431 61.662C165.354 63.2738 164.84 64.9135 164.385 66.3688C163.737 68.4347 163.207 70.1288 158.485 70.8422C158.025 70.8502 157.568 70.9203 157.128 71.0504C156.812 71.1637 156.601 71.2338 156.455 71.2816L156.421 71.2931C156.224 71.3575 156.16 71.3783 156.116 71.4193C156.099 71.4359 156.084 71.4559 156.064 71.4835L156.056 71.4965C156 71.5785 155.901 71.722 155.605 72.0143C155.776 72.4103 155.847 72.692 155.898 72.8976L155.9 72.9054C155.944 73.0858 155.975 73.2072 156.046 73.2955C156.191 73.4764 156.508 73.5197 157.473 73.6517L158.069 73.7343C161.087 74.14 162.507 73.1727 163.963 72.181C164.905 71.5392 165.862 70.8871 167.277 70.5902C171.827 70.1134 176.401 69.9049 180.976 69.9657C182.626 71.8129 182.202 73.2811 181.777 74.7526C181.584 75.4193 181.392 76.087 181.392 76.7906C182.544 77.3986 183.909 77.8046 185.206 78.1906C186.854 78.6805 188.392 79.1378 189.243 79.9349C190.107 80.7733 190.332 81.1183 190.445 81.2906C190.482 81.348 190.507 81.3864 190.539 81.4174C190.603 81.4794 190.695 81.5123 190.973 81.611H191.071C191.389 81.6986 191.849 81.8629 192.648 82.1696C193.352 82.4105 193.807 82.619 194.192 82.7955C194.929 83.1332 195.412 83.3544 196.886 83.4623C197.197 82.4178 197.411 81.5494 197.586 80.8392L197.591 80.8185C197.937 79.4147 198.129 78.6324 198.618 78.3295C199.234 77.9481 200.32 78.3248 202.771 79.1754L202.781 79.1793C203.812 79.5372 205.085 79.9786 206.664 80.4825C213.126 82.6034 213.668 82.1671 214.283 81.6708C214.645 81.38 215.031 81.0685 216.649 81.2384C217.469 81.3177 217.892 81.4642 218.269 81.5944C218.878 81.8051 219.363 81.9728 221.205 81.7423C221.785 80.5702 226.001 69.922 220.526 71.2694C219.911 71.4274 219.703 71.6154 219.55 71.7538C219.3 71.9799 219.196 72.0731 217.701 71.6857C216.572 71.3929 216.468 71.1364 216.406 70.9847C216.336 70.8129 216.321 70.7758 214.931 70.9738C214.528 71.0309 214.113 71.1342 213.692 71.2386C211.373 71.8151 208.857 72.4401 207.135 65.7372C206.313 62.8888 204.944 60.4132 201.66 64.7294C202.114 65.5204 202.489 65.9232 202.885 66.3492C203.225 66.7142 203.579 67.0961 204.014 67.7528C203.562 68.3854 203.073 68.9891 202.547 69.5604C201.646 70.4293 201.808 70.663 201.849 70.7228C201.854 70.7306 201.857 70.7355 201.856 70.7384C201.854 70.7433 201.84 70.743 201.8 70.7418C201.677 70.7386 201.315 70.7291 200.356 70.8531C199.488 70.203 199.199 69.4486 198.854 68.5482L198.852 68.5414C198.575 67.8204 198.263 67.0057 197.587 66.0768C195.994 63.7428 195.971 63.4491 195.917 62.7911C195.881 62.3497 195.832 61.7443 195.287 60.2487ZM246.838 170.522C245.521 171.193 244.854 172.36 244.194 173.517C243.701 174.38 243.212 175.237 242.458 175.879C241.758 176.519 240.972 176.811 240.223 177.09C238.959 177.561 237.801 177.992 237.334 179.987C236.949 181.61 237.14 182.368 237.312 183.051C237.56 184.04 237.769 184.871 236.13 187.951C235.144 189.879 235.034 194.688 236.601 196.123C240.686 200.063 243.09 191.5 244.297 187.199L244.322 187.11C244.447 186.663 244.56 186.265 244.659 185.935C244.935 185.058 245.206 184.14 245.479 183.218L245.481 183.207C245.978 181.529 246.478 179.837 247.014 178.354C247.104 178.099 247.198 177.846 247.292 177.595C248.111 175.4 248.875 173.351 246.86 170.5L246.838 170.522ZM243.675 61.8072C241.734 59.8942 239.624 57.8136 239.326 53.5992C240.712 52.5502 242.18 51.6158 243.717 50.8055C246.126 49.8417 247.231 50.1813 248.218 52.1092C247.805 52.8776 247.729 53.12 247.712 53.1744L247.707 53.1874C247.699 53.1869 247.719 52.8483 246.597 53.5773C246.221 53.8234 246.071 53.8607 245.932 53.8956C245.742 53.9432 245.571 53.986 244.878 54.5414C245.185 57.8278 249.17 60.3256 251.623 61.1141L251.486 61.7404C251.396 62.1661 251.376 62.254 251.343 62.2601C251.334 62.2618 251.324 62.2577 251.312 62.2528C251.246 62.2264 251.11 62.1715 250.681 62.7465C250.348 62.9806 250.049 63.2609 249.794 63.5792C250.181 64.441 250.572 65.0184 250.915 65.5238C251.687 66.6632 252.212 67.4379 251.886 70.2836C248.535 71.1927 246.651 70.0753 244.089 68.224C244.057 66.2052 244.25 65.6124 244.467 64.9469C244.614 64.4967 244.771 64.0128 244.878 63.0314C244.506 62.6266 244.106 62.2328 243.7 61.8324L243.675 61.8072ZM217.155 53.7572L217.109 53.683C216.223 52.2618 215.769 51.5345 213.289 51.4738C211.804 53.0258 210.648 54.8632 209.895 56.8746C209.25 58.6986 209.254 58.7101 209.389 59.0931C209.483 59.361 209.642 59.8109 209.687 61.1908C209.659 61.3285 209.659 61.4696 209.687 61.6071C209.687 62.702 209.531 62.4943 209.44 62.3729C209.364 62.2706 209.333 62.2294 209.479 63.0751C210.823 62.7999 210.872 62.6881 210.938 62.5399C210.991 62.4166 211.057 62.2682 211.887 61.9796C213.716 61.3444 218.895 59.7887 220.417 60.183C221.38 60.4083 222.303 60.7772 223.216 61.142C225.721 62.1422 228.152 63.1136 231.137 61.0265C230.961 57.9481 227.808 56.4845 224.984 55.1744L224.973 55.1691C224.454 54.9286 223.946 54.693 223.472 54.4535C223.547 52.7989 223.815 52.6044 224.035 52.4442C224.261 52.2799 224.437 52.152 224.304 50.5209C223.414 50.3605 222.497 50.432 221.644 50.7289C219.852 51.5629 220.152 51.9078 220.399 52.1896C220.477 52.278 220.548 52.36 220.548 52.4488C220.603 53.3458 221.183 53.2609 221.466 53.2194C221.547 53.2074 221.604 53.1991 221.616 53.2189C221.646 53.2643 221.439 53.4584 220.761 54.0995L220.548 54.3002C219.756 54.7606 218.847 54.9813 217.932 54.9357C217.621 54.5013 217.375 54.1085 217.155 53.7572ZM158.771 34.536C157.648 33.8558 156.812 33.3488 156.876 29.5421V29.5531C158.46 28.1473 158.484 28.139 160.196 27.576C160.472 27.4855 160.791 27.3802 161.168 27.2526C161.584 28.1727 162 29.0929 162.471 30.0133C162.748 31.1688 162.497 31.3868 162.312 31.5465C162.083 31.7452 161.958 31.8534 163.095 33.5736C164.716 35.5016 166.292 37.4298 167.858 39.3578L167.719 39.7638C166.859 42.2745 166.777 42.5143 164.092 42.7538C162.184 43.0621 160.261 43.2704 158.332 43.3783C158.633 41.4418 158.483 41.0419 158.394 40.8009C158.31 40.5768 158.277 40.4896 158.704 39.4344C159.178 38.1505 159.466 38.0004 159.748 37.8529C160.026 37.7074 160.3 37.5646 160.741 36.3341C160.065 35.3204 159.377 34.903 158.771 34.536Z" transform="translate(67.6631 104.2)" fill="#69BE60"/>
<path d="M45.9885 92.0216C71.3873 92.0216 91.9771 71.4219 91.9771 46.0108C91.9771 20.5997 71.3873 0 45.9885 0C20.5898 0 0 20.5997 0 46.0108C0 71.4219 20.5898 92.0216 45.9885 92.0216Z" transform="translate(26.9189 337.384)" fill="#88C7D6"/>
<path d="M0.772989 14.4444C0.459938 14.4426 0.178505 14.2532 0.0589487 13.9637C-0.0606081 13.6742 0.0050391 13.3413 0.225506 13.1189L13.0585 0.279681C13.2471 0.0533671 13.5474 -0.0468571 13.8341 0.0208103C14.1207 0.0884776 14.3446 0.312415 14.4122 0.599222C14.4798 0.886028 14.3797 1.18645 14.1535 1.37518L1.32047 14.2144C1.17559 14.3605 0.97872 14.4433 0.772989 14.4444Z" transform="translate(47.9248 393.949)" fill="white"/>
<path d="M17.0048 5.18618L12.1432 0.322176C11.7138 -0.107392 11.0177 -0.107392 10.5883 0.322176C10.159 0.751744 10.159 1.44821 10.5883 1.87778L12.0446 3.28001L0 15.3305L1.93809 17.2695L13.9827 5.21904L15.439 6.67605C15.8684 7.10562 16.5645 7.10562 16.9939 6.67605C17.4232 6.24648 17.4232 5.55002 16.9939 5.12045L17.0048 5.18618Z" transform="translate(79.7949 359.179)" fill="#E6E9EC"/>
<path d="M3.8703 29.5835L0.694899 26.4065C0.250693 25.9753 0 25.3825 0 24.7633C0 24.1441 0.250693 23.5512 0.694899 23.12L23.1088 0.695235C23.5398 0.250815 24.1324 0 24.7513 0C25.3702 0 25.9627 0.250815 26.3937 0.695235L29.5691 3.87217C30.0133 4.30337 30.264 4.89619 30.264 5.51542C30.264 6.13464 30.0133 6.72746 29.5691 7.15866L7.1114 29.5835C6.68203 30.0143 6.09894 30.2564 5.49085 30.2564C4.88275 30.2564 4.29966 30.0143 3.8703 29.5835Z" transform="translate(56.04 370.002)" fill="white"/>
<path d="M14.59 0L0.694898 13.869C0.250693 14.3002 0 14.893 0 15.5122C0 16.1314 0.250693 16.7243 0.694898 17.1555L3.8703 20.3324C4.30129 20.7768 4.89382 21.0276 5.51275 21.0276C6.13167 21.0276 6.72421 20.7768 7.15519 20.3324L20.9956 6.41961L14.59 0Z" transform="translate(56.04 379.264)" fill="#FED588"/>
<path d="M14.9791 7.15866C15.4233 6.72746 15.674 6.13464 15.674 5.51542C15.674 4.89619 15.4233 4.30337 14.9791 3.87217L11.8037 0.695235C11.3727 0.250815 10.7802 0 10.1613 0C9.54235 0 8.94982 0.250815 8.51883 0.695235L0 9.21819L6.4165 15.6378L14.9791 7.15866Z" transform="translate(65.0234 375.523)" fill="white"/>
<path d="M11.7646 13.3149C11.3544 13.3167 10.9605 13.1551 10.6696 12.8658L0.453585 2.6448C0.0623914 2.25341 -0.0903871 1.68296 0.0527996 1.14832C0.195986 0.613682 0.613385 0.196081 1.14776 0.0528252C1.68214 -0.0904309 2.25232 0.0624216 2.64352 0.453805L12.8595 10.6748C13.3039 11.1167 13.4372 11.7834 13.1971 12.3623C12.957 12.9412 12.3911 13.3176 11.7646 13.3149Z" transform="translate(76.4727 366.519)" fill="#A6A8AB"/>
<path d="M45.9885 92.0216C71.3873 92.0216 91.9771 71.4219 91.9771 46.0108C91.9771 20.5997 71.3873 0 45.9885 0C20.5898 0 0 20.5997 0 46.0108C0 71.4219 20.5898 92.0216 45.9885 92.0216Z" transform="translate(342.783 332.169)" fill="#88C7D6"/>
<path d="M3.12065 0H55.3395C57.0605 0.00600992 58.4542 1.40034 58.4602 3.12216V35.3078H0V3.11121C0.011995 1.39366 1.4039 0.00596363 3.12065 0Z" transform="translate(358.857 355.273)" fill="#A6A8AB"/>
<path d="M0 31.0573H54.2227V0.996901C54.2168 0.448801 53.7741 0.00592592 53.2263 0H0.996418C0.448584 0.00592592 0.00592305 0.448801 0 0.996901V31.0573H0Z" transform="translate(360.982 357.398)" fill="#E6E9EC"/>
<path d="M58.4602 0V3.41795C58.3716 5.22958 56.8329 6.62692 55.022 6.54011H3.43819C1.62735 6.62692 0.0885685 5.22958 0 3.41795V0H58.4602Z" transform="translate(358.857 390.57)" fill="white"/>
<path d="M1.07307 2.14717C1.6657 2.14717 2.14613 1.66651 2.14613 1.07359C2.14613 0.480661 1.6657 0 1.07307 0C0.480428 0 0 0.480661 0 1.07359C0 1.66651 0.480428 2.14717 1.07307 2.14717Z" transform="translate(387.021 392.629)" fill="#B7B6B8"/>
<path d="M18.4392 4.90782L23.3994 6.49629H0L3.99662 4.90782V0H18.4392V4.90782Z" transform="translate(376.389 397.11)" fill="#C2C2C4"/>
<path d="M3.99662 0H18.4392L23.3994 1.58847V2.27863H0V1.58847L3.99662 0Z" transform="translate(376.389 402.018)" fill="#EDF0F1"/>
<path d="M2.62792 10.8564H0.437986C0.196093 10.8564 0 10.6602 0 10.4182V0.438198C0 0.196188 0.196093 0 0.437986 0H2.62792C2.86981 0 3.0659 0.196188 3.0659 0.438198V10.4182C3.0659 10.6602 2.86981 10.8564 2.62792 10.8564Z" transform="translate(387.754 374.466)" fill="#FED588"/>
<path d="M2.62792 8.24909H0.437986C0.196093 8.24909 0 8.0529 0 7.81089V0.438198C0 0.196188 0.196093 0 0.437986 0H2.62792C2.86981 0 3.0659 0.196188 3.0659 0.438198V7.81089C3.0659 8.0529 2.86981 8.24909 2.62792 8.24909Z" transform="translate(387.754 377.073)" fill="#FCCC71"/>
<path d="M2.62792 18.6453H0.437986C0.196093 18.6453 0 18.4492 0 18.2071V0.438198C0 0.196188 0.196093 0 0.437986 0H2.62792C2.86981 0 3.0659 0.196188 3.0659 0.438198V18.2181C3.05996 18.4558 2.8656 18.6454 2.62792 18.6453Z" transform="translate(392.09 366.677)" fill="#44BDA2"/>
<path d="M2.62792 13.4417H0.437986C0.196093 13.4417 0 13.2455 0 13.0035V0.438198C0 0.196188 0.196093 0 0.437986 0H2.62792C2.86981 0 3.0659 0.196188 3.0659 0.438198V13.0145C3.05996 13.2522 2.8656 13.4418 2.62792 13.4417Z" transform="translate(392.09 371.881)" fill="#37B096"/>
<path d="M2.62792 8.24909H0.437986C0.196093 8.24909 0 8.0529 0 7.81089V0.438198C0 0.196188 0.196093 0 0.437986 0H2.62792C2.86981 0 3.0659 0.196188 3.0659 0.438198V7.81089C3.0659 8.0529 2.86981 8.24909 2.62792 8.24909Z" transform="translate(379.093 377.073)" fill="#88C7D6"/>
<path d="M2.62792 21.2526H0.437986C0.196093 21.2526 0 21.0564 0 20.8144V0.438198C0 0.196188 0.196093 0 0.437986 0H2.62792C2.86981 0 3.0659 0.196188 3.0659 0.438198V20.8254C3.05996 21.0631 2.8656 21.2527 2.62792 21.2526Z" transform="translate(396.426 364.07)" fill="#5A488F"/>
<path d="M2.62792 16.049H0.437986C0.196093 16.049 0 15.8528 0 15.6108V0.438198C0 0.196188 0.196093 0 0.437986 0H2.62792C2.86981 0 3.0659 0.196188 3.0659 0.438198V15.6218C3.05996 15.8595 2.8656 16.0491 2.62792 16.049Z" transform="translate(396.426 369.273)" fill="#4D3D78"/>
<path d="M2.62792 13.4417H0.437986C0.196093 13.4417 0 13.2455 0 13.0035V0.438198C0 0.196188 0.196093 0 0.437986 0H2.62792C2.86981 0 3.0659 0.196188 3.0659 0.438198V13.0145C3.05996 13.2522 2.8656 13.4418 2.62792 13.4417Z" transform="translate(383.429 371.881)" fill="#F58876"/>
<path d="M2.62792 10.8564H0.437986C0.196093 10.8564 0 10.6602 0 10.4182V0.438198C0 0.196188 0.196093 0 0.437986 0H2.62792C2.86981 0 3.0659 0.196188 3.0659 0.438198V10.4182C3.0659 10.6602 2.86981 10.8564 2.62792 10.8564Z" transform="translate(383.429 374.466)" fill="#F1806F"/>
<path d="M2.62792 5.65275H0.437986C0.196093 5.65275 0 5.45657 0 5.21456V0.438198C0 0.196188 0.196093 0 0.437986 0H2.62792C2.86981 0 3.0659 0.196188 3.0659 0.438198V5.21456C3.0659 5.45657 2.86981 5.65275 2.62792 5.65275Z" transform="translate(379.093 379.67)" fill="#7DB8C5"/>
<path d="M0 0.657297V24.9444C0 25.3075 0.29414 25.6017 0.65698 25.6017C1.01982 25.6017 1.31396 25.3075 1.31396 24.9444V0.657297C1.31396 0.294282 1.01982 0 0.65698 0C0.29414 0 0 0.294282 0 0.657297Z" transform="translate(376.509 360.323)" fill="#4A5B7B"/>
<path d="M24.9324 0H0.656979C0.294139 1.22399e-07 0 0.294282 0 0.657297C0 1.02031 0.294139 1.31459 0.656979 1.31459H24.9324C25.2952 1.31459 25.5893 1.02031 25.5893 0.657297C25.5893 0.294282 25.2952 0 24.9324 0V0Z" transform="translate(375.314 384.665)" fill="#4A5B7B"/>
<path d="M1.95999 0H0.65698C0.29414 0 0 0.294282 0 0.657297C0 1.02031 0.29414 1.31459 0.65698 1.31459H1.95999C2.32283 1.31459 2.61697 1.02031 2.61697 0.657297C2.61697 0.294282 2.32283 0 1.95999 0Z" transform="translate(375.205 363.851)" fill="#4A5B7B"/>
<path d="M1.95999 0H0.65698C0.29414 0 0 0.294282 0 0.657297C0 1.02031 0.29414 1.31459 0.65698 1.31459H1.95999C2.32283 1.31459 2.61697 1.02031 2.61697 0.657297C2.61697 0.294282 2.32283 0 1.95999 0Z" transform="translate(375.205 366.458)" fill="#4A5B7B"/>
<path d="M1.95999 0H0.65698C0.29414 0 0 0.294282 0 0.657297C0 1.02031 0.29414 1.31459 0.65698 1.31459H1.95999C2.32283 1.31459 2.61697 1.02031 2.61697 0.657297C2.61697 0.294282 2.32283 1.224e-07 1.95999 0V0Z" transform="translate(375.184 368.956)" fill="#4A5B7B"/>
<path d="M1.95999 0H0.65698C0.29414 0 0 0.294282 0 0.657297C0 1.02031 0.29414 1.31459 0.65698 1.31459H1.95999C2.32283 1.31459 2.61697 1.02031 2.61697 0.657297C2.61697 0.294282 2.32283 0 1.95999 0Z" transform="translate(375.184 371.563)" fill="#4A5B7B"/>
<path d="M1.95999 0H0.65698C0.29414 0 0 0.294282 0 0.657297C0 1.02031 0.29414 1.31459 0.65698 1.31459H1.95999C2.32283 1.31459 2.61697 1.02031 2.61697 0.657297C2.61697 0.294282 2.32283 0 1.95999 0Z" transform="translate(375.194 374.258)" fill="#4A5B7B"/>
<path d="M1.95999 0H0.656979C0.29414 1.22399e-07 0 0.294282 0 0.657297C0 1.02031 0.29414 1.31459 0.656979 1.31459H1.95999C2.32283 1.31459 2.61697 1.02031 2.61697 0.657297C2.61697 0.294282 2.32283 1.22399e-07 1.95999 0V0Z" transform="translate(375.194 376.865)" fill="#4A5B7B"/>
<path d="M1.95999 0H0.65698C0.29414 0 0 0.294282 0 0.657297C0 1.02031 0.29414 1.31459 0.65698 1.31459H1.95999C2.32283 1.31459 2.61697 1.02031 2.61697 0.657297C2.61697 0.294282 2.32283 0 1.95999 0Z" transform="translate(375.173 379.363)" fill="#4A5B7B"/>
<path d="M1.95999 0H0.65698C0.29414 0 0 0.294282 0 0.657297C0 1.02031 0.29414 1.31459 0.65698 1.31459H1.95999C2.32283 1.31459 2.61697 1.02031 2.61697 0.657297C2.61697 0.294282 2.32283 0 1.95999 0Z" transform="translate(375.173 381.97)" fill="#4A5B7B"/>
<path d="M30.9811 0.960456L3.81504 150.441L0.0264622 171.255C-0.291078 172.975 2.34779 173.72 2.66533 171.978L29.8314 22.5308L33.62 1.71635C33.9375 -0.00358038 31.2987 -0.748517 30.9811 0.993321V0.960456Z" transform="translate(90.1152 177.927)" fill="#88C7D6"/>
<path d="M16.3723 9.56368C15.9015 18.3276 2.71812 18.3934 2.71812 9.56368C2.71812 0.733982 15.8577 0.799712 16.3723 9.56368C16.4709 11.3165 19.2083 11.3274 19.1098 9.56368C18.8251 4.37103 14.9598 0 9.55071 0C4.36214 0.0045559 0.124563 4.14938 0.00268736 9.33903C-0.119188 14.5287 3.91914 18.868 9.10177 19.1164C14.6861 19.3684 18.8251 14.9426 19.1098 9.57463C19.1645 7.79993 16.3723 7.81088 16.3723 9.56368Z" transform="translate(113.999 160.68)" fill="#88C7D6"/>
<path d="M0.243823 1.99043L38.5676 57.3458L99.9514 146.158L114.065 166.545C115.062 167.98 117.438 166.622 116.431 165.165L78.1068 109.809L16.734 20.9973L2.60895 0.610104C1.61253 -0.824995 -0.763545 0.53342 0.243823 1.99043Z" transform="translate(239.559 188.838)" fill="#88C7D6"/>
<path d="M14.3781 4.73802C17.0379 7.40483 17.0348 11.7235 14.3712 14.3865C11.7076 17.0495 7.391 17.0495 4.72739 14.3865C2.06377 11.7235 2.06068 7.40483 4.72049 4.73802C7.40758 2.11915 11.691 2.11915 14.3781 4.73802C15.6701 5.93211 17.663 4.00404 16.3162 2.79899C12.5825 -0.934114 6.53115 -0.932833 2.79907 2.80185C-0.933022 6.53654 -0.933022 12.5908 2.79907 16.3255C6.53115 20.0602 12.5825 20.0615 16.3162 16.3284C19.9696 12.5592 19.9696 6.56816 16.3162 2.79899C15.1336 1.49535 13.1846 3.43438 14.3781 4.73802Z" transform="translate(225.829 173.437)" fill="#88C7D6"/>
<path d="M1.95662 65.5245L81.4949 10.4321L92.784 2.61021C94.2184 1.61331 92.8606 -0.763915 91.4043 0.243941L11.8661 55.3364L0.609809 63.1583C-0.824596 64.1552 0.533161 66.5324 1.98947 65.5245H1.95662Z" transform="translate(274.297 87.0159)" fill="#88C7D6"/>
<path d="M4.73572 4.6804C7.40125 2.0193 11.7178 2.02239 14.3795 4.6873C17.0412 7.35221 17.0412 11.6709 14.3795 14.3358C11.7178 17.0007 7.40125 17.0038 4.73572 14.3427C2.11812 11.6543 2.11812 7.36879 4.73572 4.6804C5.92924 3.38772 4.0021 1.39391 2.79764 2.74137C-0.933661 6.47685 -0.932382 12.5311 2.80049 16.265C6.53337 19.9989 12.5847 19.9989 16.3176 16.265C20.0505 12.5311 20.0518 6.47685 16.3205 2.74137C12.5531 -0.913791 6.56498 -0.913791 2.79764 2.74137C1.50558 3.94642 3.44367 5.88545 4.73572 4.6804Z" transform="translate(258.86 147.444)" fill="#88C7D6"/>
<path d="M46.3061 92.657C71.8802 92.657 92.6122 71.915 92.6122 46.3285C92.6122 20.742 71.8802 0 46.3061 0C20.7319 0 0 20.742 0 46.3285C0 71.915 20.7319 92.657 46.3061 92.657Z" transform="translate(330.038 32.4851)" fill="#88C7D6"/>
<path d="M6.08801 41.344C2.72819 41.338 0.00602659 38.6145 0 35.2531V0H12.176V35.2531C12.17 38.6145 9.44782 41.338 6.08801 41.344Z" transform="translate(352.375 60.1025)" fill="white"/>
<path d="M0 0V15.0959C0 17.7732 2.16928 19.9435 4.84522 19.9435C7.52117 19.9435 9.69045 17.7732 9.69045 15.0959V0H0Z" transform="translate(353.613 80.2598)" fill="#F58732"/>
<path d="M0 0H12.176V1.30364H0V0Z" transform="translate(352.375 60.1245)" fill="#E6E9ED"/>
<path d="M13.3148 3.20984H1.60964C1.18185 3.21278 0.770732 3.04406 0.468234 2.74142C0.165736 2.43877 -0.00290241 2.02746 3.78122e-05 1.59946C2.78221e-05 1.17336 0.169959 0.764874 0.472136 0.464607C0.774313 0.16434 1.18375 -0.00288065 1.60964 3.78305e-05H13.3477C13.7755 -0.00290381 14.1866 0.165816 14.4891 0.46846C14.7916 0.771105 14.9602 1.18242 14.9573 1.61042C14.9335 2.5008 14.2051 3.21016 13.3148 3.20984Z" transform="translate(351.04 56.8928)" fill="white"/>
<path d="M0 0H2.55127V1.11741H0V0Z" transform="translate(353.679 63.7288)" fill="#E6E9ED"/>
<path d="M0 0H2.55127V1.11741H0V0Z" transform="translate(353.679 66.9604)" fill="#E6E9ED"/>
<path d="M0 0H2.55127V1.11741H0V0Z" transform="translate(353.679 70.1265)" fill="#E6E9ED"/>
<path d="M0 0H2.55127V1.11741H0V0Z" transform="translate(353.679 73.3582)" fill="#E6E9ED"/>
<path d="M0 0H2.55127V1.11741H0V0Z" transform="translate(353.679 76.5239)" fill="#E6E9ED"/>
<path d="M6.08801 41.344C2.72819 41.338 0.00602659 38.6145 0 35.2531V0H12.176V35.2531C12.17 38.6145 9.44782 41.338 6.08801 41.344Z" transform="translate(370.256 60.1025)" fill="white"/>
<path d="M0 0V15.0959C0 17.7732 2.16928 19.9435 4.84522 19.9435C7.52116 19.9435 9.69044 17.7732 9.69044 15.0959V0H0Z" transform="translate(371.505 80.2598)" fill="#F58876"/>
<path d="M0 0H12.176V1.30364H0V0Z" transform="translate(370.256 60.1245)" fill="#E6E9ED"/>
<path d="M13.3148 3.22079H1.60964C1.18185 3.22374 0.770732 3.05502 0.468234 2.75237C0.165736 2.44973 -0.00290241 2.03841 3.78122e-05 1.61042C-0.00290241 1.18242 0.165736 0.771105 0.468234 0.46846C0.770732 0.165816 1.18185 -0.00290381 1.60964 3.78305e-05H13.3148C13.7426 -0.00290381 14.1537 0.165816 14.4562 0.46846C14.7587 0.771105 14.9274 1.18242 14.9244 1.61042C14.9014 2.4901 14.1941 3.19778 13.3148 3.22079Z" transform="translate(368.898 56.8818)" fill="white"/>
<path d="M0 0H2.55127V1.11741H0V0Z" transform="translate(371.56 63.7288)" fill="#E6E9ED"/>
<path d="M0 0H2.55127V1.11741H0V0Z" transform="translate(371.56 66.9604)" fill="#E6E9ED"/>
<path d="M0 0H2.55127V1.11741H0V0Z" transform="translate(371.56 70.1265)" fill="#E6E9ED"/>
<path d="M0 0H2.55127V1.11741H0V0Z" transform="translate(371.56 73.3582)" fill="#E6E9ED"/>
<path d="M0 0H2.55127V1.11741H0V0Z" transform="translate(371.56 76.5239)" fill="#E6E9ED"/>
<path d="M6.08801 41.344C2.72819 41.338 0.00602659 38.6145 0 35.2531V0H12.176V35.2531C12.17 38.6145 9.44782 41.338 6.08801 41.344Z" transform="translate(388.17 60.1025)" fill="white"/>
<path d="M0 0V15.0959C0 17.7732 2.16928 19.9435 4.84522 19.9435C7.52116 19.9435 9.69044 17.7732 9.69044 15.0959V0H0Z" transform="translate(389.385 80.2598)" fill="#4D3D78"/>
<path d="M0 0H12.176V1.30364H0V0Z" transform="translate(388.148 60.1245)" fill="#E6E9ED"/>
<path d="M13.3477 3.22079H1.60964C1.18185 3.22374 0.770732 3.05502 0.468234 2.75237C0.165736 2.44973 -0.00290241 2.03841 3.78122e-05 1.61042C-0.00290241 1.18242 0.165736 0.771105 0.468234 0.46846C0.770732 0.165816 1.18185 -0.00290381 1.60964 3.78305e-05H13.3477C13.7755 -0.00290381 14.1866 0.165816 14.4891 0.46846C14.7916 0.771105 14.9602 1.18242 14.9573 1.61042C14.9602 2.03841 14.7916 2.44973 14.4891 2.75237C14.1866 3.05502 13.7755 3.22374 13.3477 3.22079Z" transform="translate(386.725 56.8818)" fill="white"/>
<path d="M0 0H2.55127V1.11741H0V0Z" transform="translate(389.451 63.7288)" fill="#E6E9ED"/>
<path d="M0 0H2.55127V1.11741H0V0Z" transform="translate(389.451 66.9604)" fill="#E6E9ED"/>
<path d="M0 0H2.55127V1.11741H0V0Z" transform="translate(389.451 70.1265)" fill="#E6E9ED"/>
<path d="M0 0H2.55127V1.11741H0V0Z" transform="translate(389.451 73.3582)" fill="#E6E9ED"/>
<path d="M0 0H2.55127V1.11741H0V0Z" transform="translate(389.451 76.5239)" fill="#E6E9ED"/>
</svg>
