<svg width="162" height="161" viewBox="0 0 162 161" fill="none" xmlns="http://www.w3.org/2000/svg">
<rect width="162" height="161" fill="white"/>
<path d="M159.358 80.3857C159.358 123.385 124.26 158.271 80.9288 158.271C37.5979 158.271 2.5 123.385 2.5 80.3857C2.5 37.3865 37.5979 2.5 80.9288 2.5C124.26 2.5 159.358 37.3865 159.358 80.3857Z" stroke="#F47E6C" stroke-width="5"/>
<path fill-rule="evenodd" clip-rule="evenodd" d="M33.3214 0H6.66384C2.98408 0 0 2.96244 0 6.61069V16.5287H6.66384V9.91621C6.66384 8.09209 8.15351 6.61069 9.99595 6.61069H29.9897C31.8321 6.61069 33.3214 8.09209 33.3214 9.91621V16.5287H39.9874V6.61069C39.9874 2.96425 37.0008 0 33.3214 0Z" transform="translate(61.8691 26.9147)" fill="#3C4A63"/>
<path fill-rule="evenodd" clip-rule="evenodd" d="M6.66384 0H99.9678C103.647 0 106.633 2.96064 106.633 6.6143V72.7273C106.633 76.3777 103.647 79.3402 99.9678 79.3402H6.66384C2.9859 79.3402 0 76.3777 0 72.7273V6.6143C0 2.96064 2.9859 0 6.66384 0Z" transform="translate(28.5459 43.4471)" fill="#28448A"/>
<path fill-rule="evenodd" clip-rule="evenodd" d="M36.655 13.2214H26.6572V3.31275C26.6572 1.48501 25.1679 0 23.3255 0H16.6594C14.817 0 13.3277 1.48501 13.3277 3.31275V13.2214H3.33174C1.48931 13.2214 0 14.7064 0 16.5287V23.1394C0 24.9711 1.48931 26.4521 3.33174 26.4521H13.3277V36.3626C13.3277 38.1943 14.8188 39.6681 16.6616 39.6681H23.3255C25.1679 39.6681 26.6572 38.1943 26.6572 36.3626V26.4521H36.655C38.4978 26.4521 39.9871 24.9711 39.9871 23.1394V16.5287C39.9871 14.7104 38.4978 13.2214 36.655 13.2214Z" transform="translate(61.8696 63.2776)" fill="#C7D6FF"/>
<path fill-rule="evenodd" clip-rule="evenodd" d="M6.66384 0C2.98408 0 0 2.96244 0 6.61069V16.5287H6.66384V9.91621C6.66384 8.09209 8.15315 6.61069 9.99558 6.61069" transform="translate(61.8691 26.9147)" fill="#24334F"/>
<path fill-rule="evenodd" clip-rule="evenodd" d="M3.73164 110.567L14.4295 99.9548C22.9947 91.4579 31.5603 82.9606 40.1256 74.4637L71.3512 43.4872L98.1369 16.9151C102.502 12.5847 107.093 8.39038 111.275 3.88225C111.332 3.82013 111.396 3.76199 111.456 3.70204C113.446 1.72768 110.358 -1.33768 108.367 0.637759C104.801 4.17514 101.235 7.71288 97.6694 11.2503C89.1038 19.7475 80.5382 28.2445 71.973 36.7418L40.7474 67.7183C31.8188 76.5753 22.8902 85.4326 13.962 94.29C9.59641 98.6204 5.00507 102.815 0.824015 107.323C0.766132 107.385 0.703153 107.443 0.642721 107.503C-1.34788 109.477 1.74032 112.543 3.73164 110.567Z" transform="translate(26.3589 26.1196)" fill="#F47E6C"/>
</svg>
