<svg width="391" height="380" viewBox="0 0 391 380" fill="none" xmlns="http://www.w3.org/2000/svg">
<path fill-rule="evenodd" clip-rule="evenodd" d="M0 0V53.8239H28.5L0 0Z" transform="translate(276.5 44)" fill="#FCCB6F"/>
<path fill-rule="evenodd" clip-rule="evenodd" d="M0 0L28.5 53.8239V0H0Z" transform="translate(248 79.1758)" fill="#FCCB6F"/>
<mask id="mask0" mask-type="alpha" maskUnits="userSpaceOnUse" x="-5" y="0" width="380" height="380">
<rect width="380" height="380" transform="translate(-5)" fill="#C4C4C4"/>
</mask>
<g mask="url(#mask0)">
<g opacity="0.1">
<path fill-rule="evenodd" clip-rule="evenodd" d="M50.0825 0C22.4223 0.00634766 0.00210571 22.3901 0 50.0015C0.00210571 77.6128 22.4223 99.9966 50.0825 100.003C77.7455 100.001 100.17 77.6157 100.172 50.0015C100.172 22.3862 77.7464 0 50.0825 0ZM1.69214 50.0015C1.67465 37.1841 6.77686 24.8882 15.8689 15.8374C24.9361 6.76172 37.2535 1.66846 50.0938 1.68555C62.9341 1.66797 75.2517 6.76123 84.3187 15.8374C93.4107 24.8882 98.5129 37.1841 98.4954 50.0015C98.5125 62.8193 93.4103 75.1147 84.3187 84.166C75.2519 93.2422 62.9342 98.3354 50.0938 98.3174C37.2535 98.3345 24.9361 93.2417 15.8689 84.166C6.77722 75.1147 1.67508 62.8193 1.69214 50.0015Z" transform="translate(43.9448 107.374)" fill="#41495A"/>
<path fill-rule="evenodd" clip-rule="evenodd" d="M70.9977 0C31.7873 0 0 31.731 0 70.8721C0 110.013 31.7873 141.744 70.9977 141.744C110.208 141.744 141.995 110.013 141.995 70.8721C141.995 31.731 110.208 0 70.9977 0ZM0.562927 70.8721C0.535187 52.2158 7.96005 34.3184 21.1929 21.144C34.3907 7.93457 52.3199 0.522949 71.0092 0.550293C89.6985 0.522949 107.628 7.93457 120.825 21.144C134.058 34.3184 141.483 52.2158 141.455 70.8721C141.483 89.5283 134.058 107.426 120.825 120.6C107.627 133.809 89.6983 141.221 71.0092 141.194C52.32 141.221 34.3912 133.809 21.1929 120.6C7.96039 107.425 0.535614 89.5283 0.562927 70.8721Z" transform="translate(23.0295 86.5039)" fill="#41495A"/>
</g>
<path opacity="0.1" fill-rule="evenodd" clip-rule="evenodd" d="M0 57.4663C0.0487671 56.4062 0.124512 55.354 0.227203 54.3091L54.7292 0.23291C55.7946 0.128906 56.8574 0.0507812 57.9176 0L0 57.4663ZM0.334778 66.9131C0.238525 66.0303 0.153809 65.1323 0.0921936 64.2378L64.7445 0.0644531C65.6572 0.125488 66.562 0.202148 67.4631 0.30127L0.334778 66.9131ZM20.5701 105.503C20.0567 105.045 19.5433 104.579 19.0299 104.105L104.911 18.8726C105.388 19.3823 105.858 19.8916 106.32 20.4014L20.5701 105.503ZM32.2261 113.499C31.5843 113.16 30.9502 112.811 30.3239 112.452L113.328 30.0708C113.688 30.6924 114.038 31.3218 114.38 31.959L32.2261 113.499ZM44.163 118.284C44.9332 118.502 45.7033 118.705 46.5081 118.892L119.782 46.1499L119.771 46.1035C119.585 45.353 119.392 44.5708 119.174 43.8184L44.163 118.284ZM87.5059 114.362L115.231 86.8447C114.04 89.2441 112.691 91.563 111.191 93.7852L94.4872 110.365C92.2524 111.85 89.9201 113.186 87.5059 114.362ZM120.891 51.9087L52.3033 119.965C53.1813 120.087 54.0669 120.187 54.9525 120.271L121.184 54.5342C121.135 54.0044 121.077 53.4746 121.01 52.9443C120.996 52.811 120.979 52.6777 120.963 52.5449C120.936 52.3325 120.91 52.1206 120.891 51.9087ZM76.4623 118.475C75.1993 118.816 73.9158 119.115 72.6117 119.37L120.302 72.0391C120.043 73.3257 119.741 74.5996 119.397 75.8608L76.4623 118.475ZM25.7767 109.561L25.816 109.588L26.1074 109.792L110.648 25.8862C110.245 25.3076 109.833 24.7383 109.412 24.1777L24.3861 108.569C24.8427 108.905 25.3143 109.236 25.7767 109.561ZM64.6716 120.405C63.6448 120.474 62.6179 120.516 61.5911 120.531L121.461 61.1006C121.446 62.1196 121.406 63.1392 121.342 64.1582L64.6716 120.405ZM36.8892 115.716C37.5848 116.011 38.287 116.292 38.9955 116.56L117.456 38.6816C117.184 37.978 116.9 37.2812 116.605 36.5908L36.8892 115.716ZM8.37512 29.6157L29.8925 8.25488C21.0158 13.4551 13.6126 20.8042 8.37512 29.6157ZM1.63275 46.0767C1.97418 44.7007 2.35925 43.3438 2.78793 42.0063L42.3187 2.77441C43.6638 2.34131 45.0283 1.95898 46.4119 1.62793L1.63275 46.0767ZM3.44629 80.4473C3.703 81.1655 3.97253 81.8765 4.25491 82.5796L83.1932 4.23096C82.4846 3.95068 81.7697 3.68311 81.0484 3.42822L3.44629 80.4473ZM1.29767 72.8037C1.4671 73.6025 1.65192 74.3975 1.85217 75.1846L75.7846 1.8042C74.9913 1.60156 74.1904 1.42188 73.3895 1.24609L1.29767 72.8037ZM7.42404 89.1953C7.07492 88.5713 6.73605 87.9341 6.40747 87.2842L87.9834 6.34424C88.6277 6.67041 89.2695 7.00781 89.9088 7.35693L7.42404 89.1953ZM14.2281 99.0825C14.6774 99.6128 15.1356 100.135 15.6028 100.649L101.422 15.4746C100.906 15.0122 100.375 14.5576 99.8396 14.1104L14.2281 99.0825ZM11.1939 95.2344C10.7819 94.6646 10.3776 94.084 9.99252 93.4951L94.2061 9.93701C94.7966 10.3242 95.3806 10.7217 95.9582 11.1294L11.1939 95.2344Z" transform="translate(8.57147 248.81)" fill="white"/>
<g opacity="0.1">
<path fill-rule="evenodd" clip-rule="evenodd" d="M74.5789 0C33.3896 0 0.0115356 33.252 0.0115356 74.2686H0C0 115.293 33.3857 148.537 74.5674 148.537C115.757 148.537 149.135 115.285 149.135 74.2686C149.135 33.248 115.757 0 74.5789 0ZM2.71436 74.4766C2.68744 55.4385 10.2817 37.1753 23.8154 23.731C37.314 10.252 55.6505 2.68799 74.765 2.71436C93.8782 2.68848 112.213 10.2524 125.711 23.731C139.244 37.1753 146.839 55.4385 146.812 74.4766C146.838 93.5142 139.244 111.777 125.711 125.222C112.213 138.701 93.8782 146.265 74.765 146.238C55.6505 146.265 37.314 138.701 23.8154 125.222C10.282 111.777 2.68787 93.5142 2.71436 74.4766Z" transform="translate(196.762 31.6665)" fill="white"/>
<path fill-rule="evenodd" clip-rule="evenodd" d="M105.69 0C47.3163 0 0 47.127 0 105.266C0 163.406 47.3163 210.536 105.69 210.536C164.059 210.532 211.379 163.406 211.379 105.266C211.379 47.1304 164.059 0 105.69 0ZM0.85556 105.266C0.814148 77.5645 11.86 50.9888 31.548 31.4219C51.1937 11.8125 77.8764 0.811035 105.69 0.852051C133.503 0.811035 160.185 11.8125 179.831 31.4219C199.519 50.9883 210.565 77.5645 210.523 105.266C210.565 132.968 199.519 159.543 179.831 179.111C160.185 198.719 133.502 209.72 105.69 209.68C77.8766 209.72 51.1945 198.719 31.548 179.111C11.8604 159.543 0.814545 132.968 0.85556 105.266Z" transform="translate(164.191 0.904785)" fill="white"/>
</g>
<path opacity="0.1" fill-rule="evenodd" clip-rule="evenodd" d="M0 47.0635C0.0384521 46.1953 0.0999146 45.3335 0.184509 44.478L44.8944 0.19043C45.7708 0.104004 46.6434 0.0405273 47.5122 0L0 47.0635ZM0.257385 54.812C0.176636 54.0771 0.107483 53.3423 0.0574951 52.6108L53.1281 0.0532227C53.8739 0.102539 54.6196 0.163574 55.3577 0.247559L0.257385 54.812ZM16.8714 86.4043C16.4409 86.0312 16.0167 85.6504 15.599 85.2622L86.0638 15.4668C86.4534 15.8779 86.8378 16.2969 87.2171 16.7231L16.8714 86.4043ZM26.4277 92.9727C25.8998 92.6958 25.3795 92.4102 24.867 92.1157L92.9832 24.6279C93.2805 25.1357 93.5687 25.6509 93.8481 26.1738L26.4277 92.9727ZM36.2261 96.8799C36.8604 97.0586 37.5062 97.2222 38.1481 97.3784L98.2841 37.7993C98.1304 37.1597 97.9651 36.52 97.7844 35.8955L36.2261 96.8799ZM71.8065 93.6733L94.567 71.1279C93.5881 73.0962 92.4786 74.9976 91.2457 76.8203L77.5379 90.3989C75.7032 91.6157 73.7885 92.7095 71.8065 93.6733ZM99.1797 42.5127L42.907 98.2539C43.6259 98.3525 44.3524 98.4365 45.0789 98.5049L99.4335 44.6641C99.3925 44.23 99.345 43.7959 99.2913 43.3618C99.2679 43.145 99.238 42.9307 99.2081 42.7168L99.1797 42.5127ZM62.7499 97.0322C61.712 97.3115 60.6575 97.5566 59.5862 97.7671L98.7223 58.9971C98.5096 60.0532 98.2623 61.0977 97.9804 62.1309L62.7499 97.0322ZM19.9927 88.9141C20.4579 89.2568 20.9307 89.5918 21.4035 89.9155L90.7844 21.1978C90.4537 20.7256 90.1155 20.2598 89.7695 19.8003L19.9927 88.9141ZM53.0514 98.6079C52.2057 98.6636 51.3626 98.6978 50.522 98.7104L99.6602 50.0366C99.65 50.8745 99.618 51.707 99.5641 52.5347L53.0514 98.6079ZM30.2563 94.7695C30.8278 95.0234 31.4044 95.2544 31.9861 95.4624L96.3774 31.6797C96.1545 31.1035 95.9225 30.5322 95.6816 29.9663L30.2563 94.7695ZM6.86328 24.2461L24.5134 6.7627C17.233 11.0195 11.1606 17.0342 6.86328 24.2461ZM1.33386 37.7344C1.60809 36.6099 1.92072 35.499 2.27179 34.4023L34.7231 2.26172C35.8276 1.9165 36.9475 1.60791 38.0828 1.33643L1.33386 37.7344ZM2.82538 65.8848C3.03552 66.4712 3.25592 67.0537 3.48657 67.6328L68.2776 3.45752C67.6959 3.22656 67.1091 3.00684 66.5171 2.79883L2.82538 65.8848ZM1.04944 59.6362C1.18781 60.291 1.33777 60.9419 1.5069 61.5854L62.1849 1.48486C61.5352 1.3208 60.8779 1.16895 60.2206 1.02783L1.04944 59.6362ZM6.07739 73.0737C5.79034 72.5532 5.51233 72.0278 5.24323 71.4976L72.1793 5.19385C72.7277 5.46045 73.2582 5.7373 73.7707 6.02393L6.07739 73.0737ZM11.6704 81.146C12.0394 81.5801 12.4161 82.0078 12.8005 82.4292L83.2155 12.6797C82.7926 12.2988 82.3544 11.918 81.92 11.564L11.6704 81.146ZM9.19879 78.0005C8.86053 77.5322 8.53375 77.0562 8.21088 76.5767L77.2996 8.14453C77.7839 8.45947 78.2632 8.78418 78.7372 9.11914L9.19879 78.0005Z" transform="translate(245.189 236.906)" fill="white"/>
<path opacity="0.1" fill-rule="evenodd" clip-rule="evenodd" d="M0 42.6035C0.0356445 41.8203 0.0916443 41.04 0.16803 40.2642L40.6832 0.174316C41.4774 0.0961914 42.2679 0.0380859 43.0545 0L0 42.6035ZM0.244202 49.6182C0.167847 48.9507 0.10675 48.2871 0.0609131 47.6235L48.1331 0.0488281C48.8089 0.090332 49.4848 0.147461 50.1531 0.223145L0.244202 49.6182ZM15.2857 78.2153C14.9013 77.8765 14.5195 77.5312 14.1402 77.1802L78.0098 13.9873C78.3636 14.3589 78.7124 14.7383 79.0561 15.125L15.2857 78.2153ZM23.9539 84.1265C23.4779 83.8887 23.0069 83.6357 22.541 83.3682L84.2684 22.2759C84.5357 22.7358 84.7967 23.2021 85.0512 23.6748L23.9539 84.1265ZM32.8512 87.6831C33.4278 87.8462 33.9968 87.9941 34.5925 88.1348L89.0531 34.2163C88.9118 33.6362 88.7629 33.0601 88.6025 32.4873L32.8512 87.6831ZM65.0686 84.7905L85.6889 64.3833C84.8032 66.165 83.7992 67.8867 82.6837 69.5361L70.2619 81.8291C68.599 82.9297 66.8641 83.9189 65.0686 84.7905ZM89.8894 38.4824L89.8717 38.5L89.8703 38.4824H89.8894ZM89.8717 38.5L38.8808 88.939C39.5338 89.0298 40.1906 89.1055 40.8512 89.1665L90.1109 40.4277C90.0753 40.0356 90.0333 39.6426 89.9849 39.2485L89.9523 39.0596C89.9195 38.874 89.8867 38.688 89.8717 38.5ZM56.8625 87.8345C55.9206 88.085 54.9646 88.3062 53.9947 88.498L89.4579 53.4058C89.2644 54.3613 89.0404 55.3066 88.7858 56.2422L56.8625 87.8345ZM18.1382 80.4902C18.5583 80.8013 18.986 81.1011 19.4175 81.3965L82.2522 19.1899C81.9544 18.7627 81.6489 18.3403 81.3358 17.9233L18.1382 80.4902ZM48.0912 89.2646C47.3275 89.3276 46.5638 89.3594 45.8 89.3594L90.3171 45.2808C90.3069 46.0391 90.2776 46.7974 90.2292 47.5557L48.0912 89.2646ZM27.4327 85.7871C27.9418 86.0044 28.4637 86.2129 28.9983 86.4126L87.3271 28.6763C87.126 28.1558 86.916 27.6387 86.6971 27.1255L27.4327 85.7871ZM6.22043 21.9575L22.2203 6.12354C15.6245 9.97363 10.1197 15.4214 6.22043 21.9575ZM1.21045 34.1748C1.45993 33.1436 1.74377 32.1323 2.06198 31.1416L31.4651 2.04395C32.4834 1.73828 33.5016 1.45898 34.5199 1.20605L1.21045 34.1748ZM2.56223 59.6396C2.75061 60.1704 2.95044 60.6978 3.16174 61.2207L61.8686 3.12793C61.3417 2.9209 60.8096 2.72217 60.2725 2.53271L2.56223 59.6396ZM0.950775 53.9863C1.07678 54.5776 1.21426 55.1694 1.36319 55.7534L56.3508 1.3457C55.7627 1.19824 55.167 1.05762 54.5713 0.932617L0.950775 53.9863ZM5.53308 66.1504C5.27853 65.6802 5.02396 65.2051 4.76938 64.7251L65.4046 4.69824C65.8883 4.95117 66.3682 5.20361 66.8442 5.45654L5.53308 66.1504ZM10.5927 73.4453C10.9287 73.8394 11.2698 74.2266 11.6161 74.6055L75.4055 11.4771C75.0236 11.1323 74.6418 10.7983 74.2294 10.4648L10.5927 73.4453ZM8.3512 70.5903C8.04572 70.1655 7.74786 69.7373 7.45764 69.3013L70.0557 7.35205C70.4961 7.6377 70.9301 7.93213 71.3578 8.23535L8.3512 70.5903Z" transform="translate(43.8572 27.1431)" fill="white"/>
<path fill-rule="evenodd" clip-rule="evenodd" d="M31.9241 33.7551H1.88927C0.845755 33.7551 0 32.9097 0 31.8669V1.88818C0 0.84503 0.845755 0 1.88927 0H31.9241V33.7551Z" transform="translate(0.428589 269.023)" fill="#F89C55"/>
<path fill-rule="evenodd" clip-rule="evenodd" d="M77.0373 33.7551H0V0H77.0373C78.8208 0 80.2664 1.41097 80.2664 3.15185V30.6028C80.2664 32.3437 78.8208 33.7551 77.0373 33.7551Z" transform="translate(32.3528 269.023)" fill="#EDEDED"/>
<path fill-rule="evenodd" clip-rule="evenodd" d="M0 1.8246C0 2.8323 0.816902 3.6492 1.8246 3.6492H66.5842C67.5919 3.6492 68.4088 2.8323 68.4088 1.8246C68.4088 0.816902 67.5919 0 66.5842 0H1.8246C0.816899 0 0 0.816902 0 1.8246Z" transform="translate(38.7375 293.656)" fill="#C7C5C5"/>
<path fill-rule="evenodd" clip-rule="evenodd" d="M0 1.8246C0 2.8323 0.816902 3.6492 1.8246 3.6492H20.9783C21.986 3.6492 22.8029 2.8323 22.8029 1.8246C22.8029 0.816902 21.986 0 20.9783 0H1.8246C0.816901 0 0 0.816902 0 1.8246Z" transform="translate(38.7375 284.533)" fill="#C7C5C5"/>
<path fill-rule="evenodd" clip-rule="evenodd" d="M0 1.8246C0 2.8323 0.816902 3.6492 1.8246 3.6492H36.4843C37.492 3.6492 38.3089 2.8323 38.3089 1.8246C38.3089 0.816902 37.492 0 36.4843 0H1.8246C0.816901 0 0 0.816902 0 1.8246Z" transform="translate(38.7375 273.585)" fill="#C7C5C5"/>
<path fill-rule="evenodd" clip-rule="evenodd" d="M5.30252 23.7629C4.73759 23.1839 4.4545 22.474 4.4545 21.6341C4.4545 20.7941 4.73759 20.0838 5.30252 19.5036C5.86744 18.9246 6.56052 18.6357 7.38006 18.6357C8.19918 18.6357 8.89225 18.9246 9.45718 19.5036C10.0221 20.0838 10.3052 20.7941 10.3052 21.6341C10.3052 22.474 10.0221 23.1839 9.45718 23.7629C8.89225 24.3418 8.19918 24.632 7.38006 24.632C6.56052 24.632 5.86744 24.3418 5.30252 23.7629ZM9.83995 17.2728H4.78743V14.7178C4.78743 13.7869 4.90343 13.089 5.13711 12.6225C5.36911 12.1581 5.86159 11.5263 6.61622 10.7315L8.87593 8.34776C9.20886 7.93874 9.37427 7.41083 9.37427 6.76362C9.37427 6.11554 9.19671 5.57647 8.84243 5.14428C8.48857 4.71337 8.02331 4.49749 7.44623 4.49749C6.87084 4.49749 6.38883 4.75372 6.00021 5.26488C5.61284 5.77562 5.37497 6.45031 5.28619 7.29195H0C0.244146 5.02067 1.05322 3.23781 2.4268 1.94252C3.8008 0.648507 5.52406 0 7.59699 0C9.66825 0 11.3521 0.578978 12.6491 1.73865C13.9448 2.89661 14.5939 4.49749 14.5939 6.54129C14.5939 7.45075 14.4825 8.12544 14.261 8.56836C14.0398 9.01171 13.8845 9.32975 13.7957 9.52245C13.7069 9.71559 13.5017 10.0057 13.1809 10.392C12.8585 10.7778 12.6432 11.0281 12.5318 11.1405C12 11.6856 11.497 12.1967 11.0192 12.6736C10.5435 13.1508 10.2269 13.5427 10.0732 13.8487C9.91659 14.1556 9.83995 14.6157 9.83995 15.2285V17.2728Z" transform="translate(7.72556 273.585)" fill="white"/>
<path fill-rule="evenodd" clip-rule="evenodd" d="M31.9241 33.7551H1.88927C0.845755 33.7551 0 32.9101 0 31.8669V1.88818C0 0.845461 0.845755 0 1.88927 0H31.9241V33.7551Z" transform="translate(0.428589 231.619)" fill="#42C7BB"/>
<path fill-rule="evenodd" clip-rule="evenodd" d="M77.0373 33.7551H0V0H77.0373C78.8208 0 80.2664 1.4114 80.2664 3.15228V30.6033C80.2664 32.3441 78.8208 33.7551 77.0373 33.7551Z" transform="translate(32.3528 231.619)" fill="#EDEDED"/>
<path d="M11.0719 50.4623C9.61838 50.4628 8.17903 50.1836 6.836 49.6407C5.49296 49.0978 4.27255 48.3018 3.24443 47.2982C2.21631 46.2946 1.40063 45.103 0.843946 43.7914C0.287266 42.4798 0.000493663 41.074 1.37306e-06 39.6542V10.8118C1.37306e-06 7.94432 1.1661 5.1943 3.24178 3.1667C5.31745 1.13909 8.13267 1.22949e-06 11.0681 1.22949e-06C14.0036 1.22949e-06 16.8188 1.13909 18.8945 3.1667C20.9701 5.1943 22.1362 7.94432 22.1362 10.8118V39.6542C22.1352 42.5204 20.9692 45.2689 18.8945 47.2956C16.8197 49.3223 14.006 50.4613 11.0719 50.4623Z" transform="translate(272.677 167.313) rotate(-106.051)" fill="#42C7BB"/>
<path d="M0.00750052 -6.70629e-07V14.6794C-0.047256 16.1318 0.198294 17.58 0.72948 18.9375C1.26067 20.295 2.06658 21.534 3.09906 22.5804C4.13153 23.6268 5.36938 24.4591 6.73861 25.0276C8.10784 25.5961 9.58034 25.8891 11.0681 25.8891C12.5559 25.8891 14.0284 25.5961 15.3976 25.0276C16.7669 24.4591 18.0047 23.6268 19.0372 22.5804C20.0697 21.534 20.8756 20.295 21.4068 18.9375C21.9379 17.58 22.1835 16.1318 22.1287 14.6794V-6.70629e-07H0.00750052Z" transform="translate(296.68 160.412) rotate(-106.051)" fill="#5171C0"/>
<path d="M38.2905 2.79277C39.3689 3.74499 40.2448 4.89542 40.868 6.17834C41.4913 7.46127 41.8497 8.85157 41.9228 10.2698C41.9959 11.6881 41.7823 13.1065 41.2942 14.4441C40.806 15.7817 40.0529 17.0123 39.0778 18.0655L19.2812 39.4547C18.3064 40.5082 17.1287 41.3637 15.8154 41.9725C14.502 42.5814 13.0788 42.9315 11.6269 43.0029C10.175 43.0743 8.72293 42.8657 7.35362 42.3888C5.9843 41.912 4.72456 41.1763 3.64635 40.2238C2.56789 39.2716 1.69203 38.1212 1.06878 36.8382C0.445538 35.5553 0.0871269 34.165 0.0140106 32.7468C-0.0591057 31.3285 0.154507 29.9101 0.642654 28.5725C1.1308 27.2349 1.88392 26.0043 2.85899 24.9511L22.6556 3.5619C23.6304 2.50842 24.8081 1.65284 26.1215 1.04403C27.4348 0.435221 28.8581 0.0851051 30.3099 0.0136821C31.7618 -0.0577408 33.2139 0.150931 34.5832 0.627772C35.9525 1.10461 37.2123 1.84028 38.2905 2.79277Z" transform="translate(290.134 138.148) rotate(-106.051)" fill="#42C7BB"/>
<path d="M16.4222 28.95L26.4968 18.065C28.4657 15.9377 29.4888 13.1335 29.3411 10.2693C29.1935 7.40511 27.8871 4.71552 25.7094 2.79222C23.5317 0.868923 20.661 -0.130541 17.7289 0.0136993C14.7968 0.157939 12.0434 1.43407 10.0745 3.56136L-1.37306e-06 14.4501L16.4222 28.95Z" transform="translate(286.653 126.058) rotate(-106.051)" fill="#5171C0"/>
<path fill-rule="evenodd" clip-rule="evenodd" d="M0 1.8246C0 2.8323 0.816902 3.6492 1.8246 3.6492H66.5842C67.5919 3.6492 68.4088 2.8323 68.4088 1.8246C68.4088 0.816902 67.5919 0 66.5842 0H1.8246C0.816899 0 0 0.816902 0 1.8246Z" transform="translate(38.7375 256.252)" fill="#C7C5C5"/>
<path fill-rule="evenodd" clip-rule="evenodd" d="M0 1.8246C0 2.8323 0.816902 3.6492 1.8246 3.6492H20.9783C21.986 3.6492 22.8029 2.8323 22.8029 1.8246C22.8029 0.816902 21.986 0 20.9783 0H1.8246C0.816901 0 0 0.816902 0 1.8246Z" transform="translate(38.7375 246.216)" fill="#C7C5C5"/>
<path fill-rule="evenodd" clip-rule="evenodd" d="M0 1.8246C0 2.8323 0.816902 3.6492 1.8246 3.6492H36.4843C37.492 3.6492 38.3089 2.8323 38.3089 1.8246C38.3089 0.816902 37.492 0 36.4843 0H1.8246C0.816901 0 0 0.816902 0 1.8246Z" transform="translate(38.7375 237.093)" fill="#C7C5C5"/>
<path fill-rule="evenodd" clip-rule="evenodd" d="M5.30252 23.7638C4.73759 23.1849 4.4545 22.4745 4.4545 21.6346C4.4545 20.7947 4.73759 20.0848 5.30252 19.5041C5.86744 18.9251 6.56052 18.6367 7.38006 18.6367C8.19918 18.6367 8.89225 18.9251 9.45718 19.5041C10.0221 20.0848 10.3052 20.7947 10.3052 21.6346C10.3052 22.4745 10.0221 23.1849 9.45718 23.7638C8.89225 24.3428 8.19918 24.6329 7.38006 24.6329C6.56052 24.6329 5.86744 24.3428 5.30252 23.7638ZM9.83995 17.2723H4.78743V14.7174C4.78743 13.7865 4.90343 13.0886 5.13711 12.6225C5.36911 12.1577 5.86159 11.5263 6.61622 10.7311L8.87593 8.34733C9.20886 7.93831 9.37427 7.4104 9.37427 6.76361C9.37427 6.11511 9.19671 5.57647 8.84243 5.14385C8.48857 4.71337 8.02331 4.49706 7.44623 4.49706C6.87084 4.49706 6.38883 4.75329 6.00021 5.26445C5.61284 5.77562 5.37497 6.45031 5.28619 7.29152H0C0.244146 5.02067 1.05322 3.23738 2.4268 1.94209C3.8008 0.648507 5.52406 0 7.59699 0C9.66825 0 11.3521 0.578978 12.6491 1.73822C13.9448 2.89618 14.5939 4.49706 14.5939 6.54129C14.5939 7.45075 14.4825 8.12501 14.261 8.56836C14.0398 9.01129 13.8845 9.32932 13.7957 9.52245C13.7069 9.71559 13.5017 10.0057 13.1809 10.3916C12.8585 10.7774 12.6432 11.0276 12.5318 11.1405C12 11.6851 11.497 12.1963 11.0192 12.6736C10.5435 13.1504 10.2269 13.5427 10.0732 13.8483C9.91659 14.1556 9.83995 14.6157 9.83995 15.2285V17.2723Z" transform="translate(7.72556 236.181)" fill="white"/>
<path fill-rule="evenodd" clip-rule="evenodd" d="M31.9241 33.7551H1.88927C0.845755 33.7551 0 32.9097 0 31.8665V1.88816C0 0.84545 0.845755 0 1.88927 0H31.9241V33.7551Z" transform="translate(0.428589 307.34)" fill="#7692D9"/>
<path fill-rule="evenodd" clip-rule="evenodd" d="M77.0373 33.7551H0V0H77.0373C78.8208 0 80.2664 1.41138 80.2664 3.15224V30.6029C80.2664 32.3437 78.8208 33.7551 77.0373 33.7551Z" transform="translate(32.3528 307.34)" fill="#EDEDED"/>
<path fill-rule="evenodd" clip-rule="evenodd" d="M0 1.8246C0 2.8323 0.816902 3.6492 1.8246 3.6492H66.5842C67.5919 3.6492 68.4088 2.8323 68.4088 1.8246C68.4088 0.816902 67.5919 0 66.5842 0H1.8246C0.816899 0 0 0.816902 0 1.8246Z" transform="translate(38.7375 331.972)" fill="#C7C5C5"/>
<path fill-rule="evenodd" clip-rule="evenodd" d="M0 1.8246C0 2.8323 0.816902 3.6492 1.8246 3.6492H20.9783C21.986 3.6492 22.8029 2.8323 22.8029 1.8246C22.8029 0.816902 21.986 0 20.9783 0H1.8246C0.816901 0 0 0.816902 0 1.8246Z" transform="translate(38.7375 321.937)" fill="#C7C5C5"/>
<path fill-rule="evenodd" clip-rule="evenodd" d="M0 1.8246C0 2.8323 0.816902 3.6492 1.8246 3.6492H36.4843C37.492 3.6492 38.3089 2.8323 38.3089 1.8246C38.3089 0.816902 37.492 0 36.4843 0H1.8246C0.816901 0 0 0.816902 0 1.8246Z" transform="translate(38.7375 312.814)" fill="#C7C5C5"/>
<path fill-rule="evenodd" clip-rule="evenodd" d="M5.30252 23.7629C4.73759 23.1839 4.4545 22.4736 4.4545 21.6336C4.4545 20.7941 4.73759 20.0838 5.30252 19.5031C5.86744 18.9242 6.56052 18.6357 7.38006 18.6357C8.19918 18.6357 8.89225 18.9242 9.45718 19.5031C10.0221 20.0838 10.3052 20.7941 10.3052 21.6336C10.3052 22.4736 10.0221 23.1839 9.45718 23.7629C8.89225 24.3418 8.19918 24.632 7.38006 24.632C6.56052 24.632 5.86744 24.3418 5.30252 23.7629ZM9.83995 17.2728H4.78743V14.7174C4.78743 13.7865 4.90343 13.0886 5.13711 12.6225C5.36911 12.1577 5.86159 11.5263 6.61622 10.7315L8.87593 8.34776C9.20886 7.93831 9.37427 7.41041 9.37427 6.76362C9.37427 6.11511 9.19671 5.57647 8.84243 5.14428C8.48857 4.71337 8.02331 4.49706 7.44623 4.49706C6.87084 4.49706 6.38883 4.75372 6.00021 5.26445C5.61284 5.77562 5.37497 6.45031 5.28619 7.29152H0C0.244146 5.02067 1.05322 3.23739 2.4268 1.94209C3.8008 0.648507 5.52406 0 7.59699 0C9.66825 0 11.3521 0.578978 12.6491 1.73822C13.9448 2.89618 14.5939 4.49706 14.5939 6.54129C14.5939 7.45075 14.4825 8.12544 14.261 8.56836C14.0398 9.01129 13.8845 9.32932 13.7957 9.52245C13.7069 9.71559 13.5017 10.0057 13.1809 10.3916C12.8585 10.7774 12.6432 11.0276 12.5318 11.1405C12 11.6856 11.497 12.1963 11.0192 12.6736C10.5435 13.1504 10.2269 13.5427 10.0732 13.8483C9.91659 14.1556 9.83995 14.6157 9.83995 15.2285V17.2728Z" transform="translate(7.72556 310.989)" fill="white"/>
<path d="M13.3663 194.694L36.2625 18.8248C36.7719 15.7938 37.8959 12.8988 39.5655 10.3173C41.235 7.73585 43.4149 5.5224 45.9714 3.81276C48.5279 2.10311 51.4071 0.933329 54.4323 0.375168C57.4576 -0.182993 60.5651 -0.117762 63.5642 0.56687C66.5633 1.2515 69.3908 2.54109 71.8731 4.35651C74.3555 6.17194 76.4404 8.47494 77.9999 11.1242C79.5594 13.7734 80.5606 16.7131 80.9422 19.7627C81.3238 22.8124 81.0776 25.9078 80.2188 28.859L34.7505 186.602L23.5184 235.91C22.9397 238.507 21.4644 240.816 19.3512 242.434C17.2381 244.052 14.6221 244.875 11.9623 244.758C9.1967 244.59 6.58095 243.445 4.58261 241.528C2.58428 239.611 1.33362 237.046 1.05421 234.292L0.190205 226.847C-1.86181 204.405 13.3663 194.694 13.3663 194.694Z" transform="translate(52.9048 278.913)" fill="#C48469"/>
<path d="M67.7503 194.694L44.8541 18.8248C44.3446 15.7938 43.2207 12.8988 41.5511 10.3173C39.8816 7.73585 37.7017 5.5224 35.1452 3.81276C32.5887 2.10311 29.7095 0.933329 26.6842 0.375168C23.659 -0.182993 20.5515 -0.117762 17.5524 0.56687C14.5533 1.2515 11.7258 2.54109 9.24346 4.35651C6.76111 6.17194 4.67622 8.47494 3.1167 11.1242C1.55719 13.7734 0.555931 16.7131 0.174368 19.7627C-0.207195 22.8124 0.038981 25.9078 0.89779 28.859L46.3661 186.602L57.7062 235.91C58.2848 238.507 59.7602 240.816 61.8733 242.434C63.9865 244.052 66.6025 244.875 69.2623 244.758C72.0279 244.59 74.6436 243.445 76.642 241.528C78.6403 239.611 79.891 237.046 80.1704 234.292L81.0344 226.847C83.0864 204.405 67.7503 194.694 67.7503 194.694Z" transform="translate(215.062 278.913)" fill="#C48469"/>
<path d="M2.48402 6.58542e-06H23.5442C55.1884 6.58542e-06 81.5406 13.2711 87.4806 39.7055C90.9367 55.0267 98.7127 85.5611 98.7127 85.5611H3.29592e-06L2.48402 6.58542e-06Z" transform="translate(169.088 230.842)" fill="#F1A71E"/>
<path d="M96.2287 6.58542e-06H75.1685C43.5243 6.58542e-06 17.1721 13.2711 11.2321 39.7055C7.77606 55.0267 0 85.5611 0 85.5611H98.7127L96.2287 6.58542e-06Z" transform="translate(81.2832 230.842)" fill="#F1A71E"/>
<path d="M37.0443 74.0163C57.5033 74.0163 74.0885 57.4472 74.0885 37.0081C74.0885 16.5691 57.5033 0 37.0443 0C16.5853 0 0 16.5691 0 37.0081C0 57.4472 16.5853 74.0163 37.0443 74.0163Z" transform="translate(137.552 31.667)" fill="#A19EA9"/>
<path d="M53.3524 6.58542e-06H95.2567C112.321 17.0475 134.245 22.658 134.245 50.603L147.205 206.62C147.205 206.62 104.869 221.941 66.4205 221.941C27.9722 221.941 -3.29592e-06 213.094 -3.29592e-06 213.094L14.2561 50.603C14.2561 22.658 33.2642 19.9607 53.3524 6.58542e-06Z" transform="translate(100.939 230.842)" fill="#F1A71E"/>
<path d="M12.9601 3.29271e-06H99.1447C102.582 3.29271e-06 105.878 1.3641 108.309 3.79222C110.739 6.22033 112.105 9.51358 112.105 12.9475C112.105 16.3813 110.739 19.6746 108.309 22.1027C105.878 24.5308 102.582 25.8949 99.1447 25.8949H12.9601C9.52286 25.8949 6.22641 24.5308 3.79592 22.1027C1.36543 19.6746 0 16.3813 0 12.9475C0 9.51358 1.36543 6.22033 3.79592 3.79222C6.22641 1.3641 9.52286 3.29271e-06 12.9601 3.29271e-06Z" transform="translate(118.544 156.61)" fill="#B87C63"/>
<path d="M43.3084 0.000138513C54.7945 0.000138513 65.8102 4.55852 73.932 12.6725C82.0539 20.7864 86.6168 31.7913 86.6168 43.2662V64.1979C86.6168 76.9296 79.5967 89.1218 70.2007 97.7534C67.4108 100.355 65.2362 103.544 63.8351 107.09C62.4339 110.636 61.8414 114.45 62.1006 118.254L63.3966 135.841L43.3084 161.52L23.2203 135.841L24.5163 118.254C24.7903 114.449 24.2046 110.631 22.8025 107.082C21.4004 103.534 19.2179 100.346 16.4163 97.7534C7.02019 89.1218 0.000138648 76.8217 0.000138648 64.1979V43.2662C-0.0141075 37.5804 1.09636 31.9479 3.26777 26.6922C5.43917 21.4365 8.62869 16.6612 12.6531 12.6407C16.6775 8.62028 21.4574 5.43386 26.7182 3.26458C31.9791 1.0953 37.6171 -0.0140938 43.3084 0.000138513Z" transform="translate(131.287 103.741)" fill="#C48469"/>
<path d="M52.3804 0.000173542H54.4324C57.4829 -0.00862294 60.5251 0.317014 63.5045 0.971234C88.7766 4.96337 104.869 24.0609 104.869 61.8243C104.869 73.2612 99.1447 92.5745 95.7967 92.5745L88.6686 53.0847C88.3905 51.5451 87.7891 50.0818 86.9042 48.791C86.0192 47.5003 84.8707 46.4114 83.5342 45.596C82.1976 44.7806 80.7034 44.2572 79.1499 44.0602C77.5963 43.8632 76.0186 43.9971 74.5205 44.4531L64.8005 47.4742C56.7436 49.956 48.1252 49.956 40.0683 47.4742L30.4562 44.4531C28.9515 43.9773 27.3623 43.8282 25.7952 44.0156C24.2281 44.2031 22.7192 44.7228 21.3694 45.5401C20.0196 46.3573 18.8602 47.4532 17.9687 48.7544C17.0772 50.0555 16.4742 51.5319 16.2001 53.0847L9.07206 92.5745C5.72404 92.5745 -3.29592e-06 73.1533 -3.29592e-06 61.8243C0.107997 18.774 20.9521 0.000173542 52.3804 0.000173542Z" transform="translate(122 76.9834)" fill="#B3AFBB"/>
<g opacity="0.47">
<path opacity="0.47" d="M96.0127 -6.58542e-06C64.1332 3.9921 31.8795 3.9921 1.64796e-06 -6.58542e-06" transform="translate(126.536 333.666)" stroke="#CF8929" stroke-width="10" stroke-linecap="round" stroke-linejoin="round"/>
</g>
<g opacity="0.29">
<path opacity="0.29" d="M6.37204 17.9106C5.23866 11.6336 3.0863 5.58366 0 6.58542e-06" transform="translate(190.364 171.5)" stroke="#B37860" stroke-width="4" stroke-linecap="round" stroke-linejoin="round"/>
<path opacity="0.29" d="M3.29592e-06 17.9106C1.13339 11.6336 3.28575 5.58366 6.37204 6.58542e-06" transform="translate(152.348 171.5)" stroke="#B37860" stroke-width="4" stroke-linecap="round" stroke-linejoin="round"/>
</g>
</g>
<path d="M31.1837 29.3549C29.9599 17.0673 21.7561 6.50941 9.97154 2.21886L6.4815 0.960902L4.35121 0.19714C3.35406 -0.162278 2.2436 -0.0274959 1.38242 0.579021C0.521242 1.18554 1.38321e-06 2.15147 1.38321e-06 3.20726V32.5672C1.38321e-06 34.3418 1.4504 35.7795 3.24075 35.7795H28.1016C29.892 35.7795 31.3424 34.3418 31.3424 32.5672C31.3424 31.4889 31.297 30.4107 31.1837 29.3549Z" transform="translate(359.635 305.304)" fill="#24AB9F"/>
<path d="M69.9863 11.4789L65.2725 9.77167L59.1763 7.54777L55.5956 6.24488L49.4993 4.04345L41.2048 1.03333C39.1652 0.292027 36.9896 1.7297 36.8763 3.86374C36.5364 9.68181 31.6639 14.2419 25.7716 14.2419C20.6046 14.2419 16.1627 10.7825 14.9616 5.81807C14.1457 2.38114 11.1316 0 7.64155 0H7.52824C3.38099 0 0.00425998 3.34708 0.00425998 7.45792V21.2955C0.00425998 23.115 -0.902243 21.7223 23.732 46.1402C24.3439 46.7468 25.1597 47.0837 26.0209 47.0837H68.8759H72.1166C72.1166 45.646 72.1166 13.905 72.1166 12.2876L69.9863 11.4789Z" transform="translate(294 294)" fill="#93ABE8"/>
<path d="M31.0251 30.1911C-0.725205 -1.28043 1.24644 0.449272 0 -3.42767e-07V37.2671H28.0563C31.7729 37.2896 33.6539 32.8193 31.0251 30.1911Z" transform="translate(294.004 310.196)" fill="#24AB9F"/>
<path d="M12.0114 2.2239L6.14183 14.2869C5.37131 15.8818 3.44499 16.5557 1.83594 15.7919C0.226899 15.0282 -0.452978 13.1187 0.31755 11.5238L5.91521 0L12.0114 2.2239Z" transform="translate(337.583 298.043)" fill="#EDEDED"/>
<path d="M96.8146 0H0V16.1289C0 17.9035 1.45041 19.3412 3.24075 19.3412H93.7551C95.5455 19.3412 96.9959 17.9035 96.9959 16.1289V3.2123C96.9732 2.13404 96.9279 1.05579 96.8146 0Z" transform="translate(294.004 334.659)" fill="#A6DDE0"/>
<path d="M12.0114 2.20143L6.14184 14.2644C5.37131 15.8593 3.42233 16.5332 1.83595 15.7695C0.226902 15.0057 -0.452979 13.0963 0.317549 11.5014L5.91521 1.71384e-07L12.0114 2.20143Z" transform="translate(347.261 301.57)" fill="#EDEDED"/>
<path d="M22.7589 56.607L31.8752 62.8949L59.2062 66.1585L65.1413 72.5609H80.3409L95.3958 61.6056L104.282 51.0109C104.282 51.0109 106.108 50.6504 105.529 38.8414C104.805 26.8902 92.5006 16.2195 92.5006 16.2195L79.1828 2.13414L54.7187 0L35.321 2.13414L13.0283 16.2195L0 35.5691V48.8008L9.69881 57.9065L24.4642 52.6422L22.7589 56.607Z" transform="translate(12.8924 26.0142)" fill="#C94281"/>
<path d="M36.7686 2.23611C31.123 6.07757 24.7537 7.64261 18.5291 6.93123C18.0948 8.21171 17.2262 9.91903 15.4891 11.9109C12.1597 15.8946 6.9484 19.4515 0 22.4393C3.76372 26.8499 9.84357 28.984 15.9234 27.2767C17.95 26.7076 19.8319 25.7117 21.2795 24.4312C22.0033 24.2889 22.8718 24.1467 23.5956 23.8621C34.3077 20.732 41.1977 10.5284 39.8948 0C39.171 0.853658 37.9267 1.52473 36.7686 2.23611Z" transform="translate(77.8879 76.1357)" fill="#E566A1"/>
<path d="M111.566 35.8881C111.421 34.6076 111.131 33.1849 110.697 31.9044C110.697 31.7621 110.552 31.6198 110.552 31.4776C108.381 24.2215 103.459 18.3881 97.0899 14.9735C90.5758 4.58732 77.837 -0.819175 65.0983 2.16863C64.664 2.3109 64.2297 2.45318 63.6507 2.59546C63.6507 2.59546 63.6507 2.59546 63.5059 2.59546C57.8604 -0.107794 51.2015 -0.819175 44.6874 1.03042C39.7656 2.45318 35.7123 5.15643 32.5277 8.57106C29.922 8.42879 27.1716 8.71334 24.5659 9.42472C16.4595 11.7011 10.6691 18.3881 9.07681 26.071C2.41792 31.6198 -1.49056 40.8678 0.536062 49.6889C3.28647 61.6401 14.8671 70.6035 31.8039 63.632C31.8039 63.7743 31.8039 63.7743 31.9486 63.9165C32.5277 57.0873 36.8704 53.1035 39.3313 51.254C34.9885 45.2784 24.7107 33.754 17.1833 37.1686C12.2615 39.445 11.5377 43.8556 12.9853 47.1279C14.5776 50.5426 18.4861 52.9613 24.1317 50.6849C25.145 50.258 26.4478 50.6848 26.8821 51.8231C27.3164 52.819 26.8821 54.0995 25.724 54.5263C17.6175 57.7987 11.3929 53.8149 9.22156 48.693C6.90543 43.571 8.35301 36.5995 15.4462 33.3271C16.8938 32.6158 18.6309 32.1889 20.8022 32.3312C20.8022 28.0629 22.2498 24.506 25.0002 21.8028C29.343 17.5345 35.7123 16.6808 38.7523 16.5385C40.9236 10.2784 47.0035 6.72147 54.9652 7.29057C59.1632 7.57513 62.7822 9.567 65.3878 11.4166C66.6906 12.4125 67.8487 13.4085 68.5725 14.1198C73.2048 11.2743 79.7189 9.567 85.2197 11.5589C88.9834 12.8394 93.6157 16.1117 95.208 24.7906C97.2346 25.7865 101.288 28.2052 102.446 32.6158C103.314 35.7458 102.591 39.3027 100.419 42.1483C98.5375 44.7092 94.4842 47.8393 86.5225 48.1239C86.3778 48.1239 86.3778 48.1239 86.233 48.1239C86.0882 48.1239 71.6124 46.7011 66.4011 56.8027C66.1116 57.3718 65.8221 57.9409 65.5326 58.3678C63.6507 61.3556 61.6241 63.0629 59.308 63.7743C58.8737 63.9166 58.4394 63.9165 58.0051 64.0588C53.5176 64.4856 50.4777 60.7865 50.3329 60.6442C49.6091 59.7905 49.7539 58.5101 50.6225 57.7987C51.491 57.0873 52.7938 57.2296 53.5176 58.0832C53.5176 58.0832 55.3995 60.2174 57.5709 60.0751C59.308 59.9328 61.0451 58.0832 62.7822 54.9531C63.5059 53.5304 64.5193 52.2499 65.5326 50.9694C68.4277 47.8393 72.481 45.7052 77.4027 44.7092C81.8903 43.7133 85.7987 43.9979 86.6673 44.1401C92.8919 43.8556 95.7871 41.7214 97.2346 39.8719C98.5375 38.0223 99.1165 35.8881 98.5375 33.8962C97.5242 30.1971 92.7471 28.4897 92.7471 28.3475C92.0233 28.0629 91.4443 27.4938 91.4443 26.6402C90.5758 20.6645 88.1149 16.9654 84.0616 15.5426C78.9951 13.8353 72.3362 16.254 68.7172 19.5263C64.5193 23.5101 65.8221 28.632 66.5459 30.4816C74.0733 28.632 79.7189 32.3312 79.8636 32.6158C80.877 33.3271 81.0217 34.6076 80.4427 35.4613C79.7189 36.4572 78.4161 36.5995 77.5475 36.0304C77.4027 35.8881 72.9152 33.0426 66.9801 34.7499C66.4011 34.8922 65.9668 35.0345 65.5326 35.1767C61.0451 36.884 59.7422 39.5873 59.7422 39.8719C59.5975 40.441 59.1632 40.8678 58.5842 41.1523C58.0051 41.4369 57.4261 41.2946 56.8471 41.1523C56.5575 41.0101 52.5043 39.445 47.872 43.0019C43.095 46.5588 44.2531 51.3962 44.3978 51.5385C44.6874 52.5344 44.2531 53.5304 43.3845 53.9572C43.095 54.0995 36.8704 57.3718 36.4361 64.9125C36.2914 68.1848 37.8837 71.7417 41.2132 73.8759C44.9769 75.7255 49.4644 76.1523 53.8071 75.0141C55.3995 74.5873 56.8471 73.8759 58.1499 73.0222C60.466 74.1604 63.0717 74.7295 65.6773 74.445C68.862 74.445 73.3495 72.3109 74.5076 71.7417C79.1398 69.1808 81.7455 66.6198 83.3378 64.7702C85.9435 61.9247 86.233 59.7905 86.233 59.506C86.233 58.9369 86.5225 58.3678 86.9568 57.9409C87.3911 57.5141 88.1149 57.5141 88.6939 57.5141C94.4842 58.7946 100.275 57.5141 105.486 53.9572C107.947 52.2499 109.829 50.1157 110.697 47.2702C111.131 45.9897 111.087 46.2429 111.391 45.0571C111.826 43.8714 112 40.9071 112 39.5873C112 38.5357 111.765 37.6464 111.566 35.8881Z" transform="translate(7 21)" fill="#E566A1"/>
<path d="M29.6891 0.0438348C23.1749 -0.382994 18.5427 2.32026 17.3846 7.58448C17.0951 8.58041 16.2265 9.29179 15.2132 9.14952C15.0685 9.14952 7.25153 9.00724 2.90878 13.2755C0.882158 15.2674 -0.131151 17.9706 0.0136078 21.3853C0.0136078 21.5276 0.0136078 21.6698 0.0136078 21.8121C2.90878 22.808 6.23822 24.7999 9.85718 28.3568C12.0286 30.3487 13.9104 32.6251 15.358 34.3324C16.0818 32.3406 17.3846 30.0641 19.9903 28.0723C24.6225 24.5154 28.9653 24.6576 31.4262 25.2267C32.4395 23.804 34.1766 21.9544 37.3613 20.3893C35.9137 16.8324 35.1899 10.2877 40.2564 5.30806C38.3746 3.60074 34.3213 0.328387 29.6891 0.0438348Z" transform="translate(31.8419 32.5151)" fill="#E566A1"/>
</svg>
