<svg width="129" height="162" viewBox="0 0 129 162" fill="none" xmlns="http://www.w3.org/2000/svg">
<path d="M67.6408 1.61564e-06H15.3729C5.17555 1.61564e-06 1.56381e-06 5.34706 1.56381e-06 15.8823V146.118C1.56381e-06 156.653 5.17555 162 15.3729 162H67.6408C77.8382 162 83.0137 156.653 83.0137 146.118V15.8823C83.0137 5.4 77.8382 1.61564e-06 67.6408 1.61564e-06Z" transform="translate(0.152832)" fill="#73C8CC"/>
<path d="M17.6789 1.61564e-06H1.79351C0.819891 1.61564e-06 1.56381e-06 0.84706 1.56381e-06 1.85294C1.56381e-06 2.85882 0.819891 3.70588 1.79351 3.70588H17.6789C18.6525 3.70588 19.4724 2.85882 19.4724 1.85294C19.4724 0.84706 18.7037 1.61564e-06 17.6789 1.61564e-06Z" transform="translate(31.9243 10.0585)" fill="white"/>
<path d="M66.821 0H0V118.323H66.821V0Z" transform="translate(7.99414 20.2761)" fill="#407BA0"/>
<path fill-rule="evenodd" clip-rule="evenodd" d="M14 0C6.26807 0 0 6.26801 0 14V47C0 54.7319 6.26807 61 14 61H16.6108L13.8242 71.8047C13.5771 72.7625 14.7222 73.4592 15.4595 72.7996L28.647 61H64C71.7319 61 78 54.7319 78 47V14C78 6.26801 71.7319 0 64 0H14Z" transform="translate(51 42)" fill="white"/>
<circle cx="5.5" cy="5.5" r="5.5" transform="translate(68 68)" fill="#5B95BA"/>
<circle cx="5.5" cy="5.5" r="5.5" transform="translate(85 68)" fill="#5B95BA"/>
<circle cx="5.5" cy="5.5" r="5.5" transform="translate(102 68)" fill="#5B95BA"/>
</svg>
