<svg width="91" height="175" viewBox="0 0 91 175" fill="none" xmlns="http://www.w3.org/2000/svg">
<rect width="91" height="175" fill="white"/>
<path d="M73.1986 1.74529e-06H16.636C5.6008 1.74529e-06 1.69231e-06 5.77615 1.69231e-06 17.1569V157.843C1.69231e-06 169.224 5.6008 175 16.636 175H73.1986C84.2338 175 89.8346 169.224 89.8346 157.843V17.1569C89.8346 5.83334 84.2338 1.74529e-06 73.1986 1.74529e-06Z" transform="translate(0.165527)" fill="#73C8CC"/>
<path d="M19.1315 1.74529e-06H1.94087C0.887257 1.74529e-06 1.69231e-06 0.915034 1.69231e-06 2.00164C1.69231e-06 3.08824 0.887257 4.00327 1.94087 4.00327H19.1315C20.1851 4.00327 21.0723 3.08824 21.0723 2.00164C21.0723 0.915034 20.2405 1.74529e-06 19.1315 1.74529e-06Z" transform="translate(34.5474 10.8656)" fill="white"/>
<path d="M72.3113 0H0V127.819H72.3113V0Z" transform="translate(9 21.9031)" fill="#F5B33C"/>
<path fill-rule="evenodd" clip-rule="evenodd" d="M0 3.22902V29.4807C0 33.7822 6.89814 33.7894 6.89814 29.4807V3.22902C6.89814 -1.073 0 -1.07968 0 3.22902Z" transform="translate(43.6172 63)" fill="white"/>
<path fill-rule="evenodd" clip-rule="evenodd" d="M10 4.84576C10 7.52213 7.76155 9.69152 5 9.69152C2.23845 9.69152 0 7.52213 0 4.84576C0 2.16939 2.23845 0 5 0C7.76155 0 10 2.16939 10 4.84576Z" transform="translate(42 101.308)" fill="white"/>
</svg>
