<svg width="462" height="409" viewBox="0 0 462 409" fill="none" xmlns="http://www.w3.org/2000/svg">
<mask id="mask0" mask-type="alpha" maskUnits="userSpaceOnUse" x="-16" y="-8" width="496" height="417">
<rect width="496" height="417" transform="translate(-16 -8)" fill="#C4C4C4"/>
</mask>
<g mask="url(#mask0)">
<path d="M34.5695 34.4435C12.3946 56.4901 -0.0465226 86.4335 0.000130738 117.646V117.646C-0.0460444 148.858 12.395 178.801 34.5695 200.848V200.848C56.6976 222.941 86.7502 235.336 118.076 235.291V235.291C149.402 235.336 179.455 222.941 201.583 200.848V200.848C223.758 178.801 236.199 148.858 236.152 117.646V117.646C236.2 86.4334 223.758 56.4898 201.583 34.4435V34.4435C179.456 12.3494 149.403 -0.0463529 118.076 0.000130261V0.000130261C86.7499 -0.0463529 56.6968 12.3494 34.5695 34.4435V34.4435Z" transform="translate(224.437 7.84668)" stroke="#DADADA"/>
<path d="M27.8134 27.667C9.97225 45.3762 -0.0374304 69.4286 0.000105187 94.5V94.5C-0.0370457 119.571 9.97257 143.624 27.8134 161.333V161.333C45.6169 179.079 69.7961 189.036 95 189V189C120.204 189.036 144.383 179.079 162.187 161.333V161.333C180.028 143.624 190.037 119.571 190 94.5V94.5C190.038 69.4285 180.028 45.376 162.187 27.667V27.667C144.384 9.91976 120.204 -0.0372334 95 0.000104633V0.000104633C69.7959 -0.0372334 45.6163 9.91976 27.8134 27.667V27.667Z" transform="translate(248 30)" stroke="#DADADA"/>
<mask id="mask1" mask-type="alpha" maskUnits="userSpaceOnUse" x="32" y="-1" width="428" height="409">
<rect width="428" height="409" transform="translate(32 -1)" fill="#C4C4C4"/>
</mask>
<g mask="url(#mask1)">
<g opacity="0.1">
<path fill-rule="evenodd" clip-rule="evenodd" d="M56.4087 0C25.2544 0.00683594 0.00244141 25.2275 0 56.3379C0.00244141 87.4482 25.2544 112.668 56.4087 112.676C87.5659 112.673 112.824 87.4512 112.826 56.3379C112.826 25.2236 87.5669 0 56.4087 0ZM1.90625 56.3379C1.88672 41.8965 7.6333 28.042 17.8735 17.8447C28.0864 7.61914 41.9595 1.87988 56.4219 1.89941C70.8843 1.87988 84.7573 7.61816 94.9697 17.8447C105.21 28.042 110.957 41.8965 110.938 56.3379C110.957 70.7803 105.21 84.6338 94.9697 94.832C84.7578 105.059 70.8843 110.797 56.4219 110.777C41.9595 110.796 28.0864 105.058 17.8735 94.832C7.63379 84.6338 1.88721 70.7803 1.90625 56.3379Z" transform="translate(87.1274 179.696)" fill="#41495A"/>
<path fill-rule="evenodd" clip-rule="evenodd" d="M79.9658 0C35.8027 0 0 35.752 0 79.8535C0 123.954 35.8027 159.706 79.9658 159.706C124.129 159.706 159.932 123.954 159.932 79.8535C159.932 35.752 124.129 0 79.9658 0ZM0.633789 79.8535C0.602539 58.833 8.96533 38.667 23.8696 23.8232C38.7349 8.94043 58.9287 0.588867 79.9785 0.620117C101.029 0.588867 121.223 8.94043 136.087 23.8232C150.992 38.667 159.354 58.833 159.323 79.8535C159.354 100.874 150.992 121.039 136.087 135.883C121.222 150.766 101.028 159.116 79.9785 159.086C58.9287 159.116 38.7354 150.766 23.8696 135.883C8.96582 121.039 0.603027 100.873 0.633789 79.8535Z" transform="translate(63.5703 156.182)" fill="#41495A"/>
</g>
<path opacity="0.1" fill-rule="evenodd" clip-rule="evenodd" d="M0 64.748C0.0551758 63.5537 0.140137 62.3682 0.255859 61.1914L61.6426 0.262695C62.8423 0.144531 64.0396 0.0576172 65.2334 0L0 64.748ZM0.37793 75.3936C0.269531 74.3984 0.173828 73.3867 0.104492 72.3789L72.9233 0.0732422C73.9512 0.142578 74.9707 0.228516 75.9854 0.339844L0.37793 75.3936ZM23.168 118.874C22.5898 118.357 22.0112 117.832 21.4331 117.298L118.162 21.2646C118.7 21.8389 119.229 22.4131 119.75 22.9873L23.168 118.874ZM36.2969 127.882C35.5737 127.5 34.8599 127.107 34.1543 126.702L127.644 33.8818C128.048 34.582 128.443 35.291 128.828 36.0088L36.2969 127.882ZM49.7417 133.273C50.6089 133.519 51.4766 133.747 52.3828 133.958L134.913 51.998L134.899 51.9434C134.691 51.0986 134.474 50.2178 134.228 49.3711L49.7417 133.273ZM98.5591 128.854L129.786 97.8496C128.445 100.553 126.925 103.166 125.236 105.67L106.422 124.35C103.905 126.023 101.278 127.528 98.5591 128.854ZM136.161 58.4873L58.9097 135.168C59.8984 135.306 60.896 135.418 61.8936 135.513L136.491 61.4453C136.436 60.8486 136.371 60.251 136.295 59.6543L136.242 59.209L136.241 59.1982C136.211 58.9609 136.182 58.7236 136.161 58.4873ZM86.1206 133.488C84.6982 133.873 83.2524 134.209 81.7837 134.496L135.498 81.168C135.206 82.6182 134.866 84.0527 134.479 85.4746L86.1206 133.488ZM29.0474 123.453L29.0537 123.458L29.4053 123.705L124.625 29.166C124.171 28.5146 123.707 27.873 123.233 27.2412L27.4668 122.327C27.9858 122.708 28.522 123.085 29.0474 123.453ZM72.8408 135.663C71.6841 135.741 70.5278 135.788 69.3711 135.806L136.803 68.8438C136.786 69.9922 136.741 71.1406 136.669 72.2891L72.8408 135.663ZM41.5488 130.379C42.3325 130.712 43.123 131.029 43.9214 131.331L132.293 43.583C131.986 42.791 131.667 42.0059 131.334 41.2275L41.5488 130.379ZM9.43311 33.3682L33.6685 9.30078C23.6704 15.1602 15.332 23.4404 9.43311 33.3682ZM1.83887 51.915C2.22363 50.3652 2.65723 48.8359 3.14014 47.3291L47.6641 3.12598C49.1792 2.6377 50.7158 2.20703 52.2744 1.83398L1.83887 51.915ZM3.88135 90.6416C4.17041 91.4512 4.47412 92.252 4.79199 93.0439L93.7017 4.7666C92.9033 4.45117 92.0981 4.14941 91.2856 3.8623L3.88135 90.6416ZM1.46191 82.0293C1.65283 82.9297 1.86084 83.8252 2.08643 84.7119L85.3579 2.0332C84.4644 1.80469 83.562 1.60254 82.6602 1.4043L1.46191 82.0293ZM8.36133 100.499C7.96826 99.7949 7.58643 99.0771 7.21631 98.3457L99.0967 7.14844C99.8223 7.51562 100.545 7.89648 101.265 8.29004L8.36133 100.499ZM16.0249 111.639C16.5308 112.235 17.0469 112.824 17.5732 113.404L114.233 17.4355C113.652 16.915 113.053 16.4023 112.45 15.8984L16.0249 111.639ZM12.6079 107.303C12.144 106.661 11.6885 106.006 11.2549 105.343L106.106 11.1963C106.771 11.6328 107.429 12.0801 108.08 12.54L12.6079 107.303Z" transform="translate(47.2856 339.056)" fill="white"/>
<g opacity="0.1">
<path d="M0 118.606C0 53.0987 53.2931 0 119.04 0V0C184.782 0 238.08 53.103 238.08 118.606V118.606C238.08 184.113 184.782 237.211 119.04 237.216V237.216C53.2931 237.216 0 184.113 0 118.606Z" transform="translate(426)" fill="white"/>
</g>
<path opacity="0.1" fill-rule="evenodd" clip-rule="evenodd" d="M0 53.0273C0.043457 52.0488 0.112793 51.0781 0.208008 50.1143L50.5654 0.214844C51.5522 0.117188 52.5352 0.0458984 53.5137 0L0 53.0273ZM0.290039 61.7568C0.199219 60.9297 0.121094 60.1016 0.0649414 59.2773L59.8394 0.0595703C60.6792 0.115234 61.519 0.183594 62.3506 0.27832L0.290039 61.7568ZM19.0024 97.3535C18.5176 96.9336 18.04 96.5039 17.5693 96.0664L96.9351 17.4268C97.3735 17.8896 97.8066 18.3623 98.2339 18.8428L19.0024 97.3535ZM29.7656 104.754C29.1709 104.442 28.585 104.121 28.0078 103.789L104.728 27.749C105.063 28.3213 105.388 28.9014 105.702 29.4912L29.7656 104.754ZM40.8018 109.156C41.5161 109.358 42.2437 109.543 42.9663 109.719L110.699 42.5898C110.525 41.8691 110.339 41.1475 110.136 40.4443L40.8018 109.156ZM80.877 105.544L106.512 80.1416C105.41 82.3594 104.16 84.502 102.771 86.5557L87.3325 101.854C85.2661 103.226 83.1094 104.458 80.877 105.544ZM111.708 47.9004L48.3267 110.705C49.1362 110.816 49.9546 110.911 50.7729 110.988L111.993 50.3242C111.947 49.835 111.894 49.3467 111.833 48.8574C111.806 48.6084 111.772 48.3613 111.737 48.1152L111.708 47.9004ZM70.6768 109.328C69.5073 109.643 68.3198 109.918 67.1133 110.155L111.193 66.4727C110.953 67.6621 110.675 68.8398 110.357 70.0039L70.6768 109.328ZM22.5176 100.182C23.0415 100.567 23.5742 100.945 24.1064 101.31L102.251 23.8838C101.879 23.3525 101.498 22.8271 101.108 22.3096L22.5176 100.182ZM59.752 111.104C58.7998 111.167 57.8501 111.205 56.9033 111.22L112.249 56.3779C112.237 57.3223 112.201 58.2598 112.14 59.1924L59.752 111.104ZM34.0781 106.779C34.7217 107.065 35.3711 107.325 36.0264 107.56L108.551 35.6943C108.3 35.0449 108.039 34.4014 107.768 33.7637L34.0781 106.779ZM7.71924 27.3291L27.6094 7.62012C19.4058 12.418 12.564 19.1992 7.71924 27.3291ZM1.50244 42.5156C1.81152 41.249 2.16357 39.998 2.55908 38.7617L39.1094 2.54883C40.3535 2.15918 41.6147 1.81152 42.8931 1.50586L1.50244 42.5156ZM3.18213 74.2334C3.41895 74.8945 3.66699 75.5508 3.92676 76.2031L76.9019 3.89551C76.2471 3.63574 75.5859 3.3877 74.9189 3.15332L3.18213 74.2334ZM1.18164 67.1934C1.3374 67.9316 1.50635 68.665 1.69678 69.3896L70.0396 1.67285C69.3076 1.48828 68.5674 1.31738 67.8271 1.1582L1.18164 67.1934ZM6.84473 82.334C6.52148 81.748 6.2085 81.1562 5.90527 80.5586L81.2964 5.85254C81.9141 6.15332 82.5117 6.46484 83.0889 6.78809L6.84473 82.334ZM13.1445 91.4287C13.5601 91.918 13.9844 92.3994 14.4175 92.875L93.7271 14.2861C93.2505 13.8574 92.7568 13.4287 92.2676 13.0293L13.1445 91.4287ZM10.3608 87.8848C9.97998 87.3574 9.61182 86.8213 9.24805 86.2803L87.064 9.17676C87.6094 9.53125 88.1489 9.89746 88.6831 10.2754L10.3608 87.8848Z" transform="translate(313.792 325.644)" fill="white"/>
<path opacity="0.1" fill-rule="evenodd" clip-rule="evenodd" d="M0 48.0029C0.0400391 47.1191 0.103027 46.2412 0.189453 45.3662L45.8223 0.196289C46.7168 0.108398 47.6069 0.0429688 48.4932 0L0 48.0029ZM0.275391 55.9053C0.189453 55.1533 0.120605 54.4053 0.0688477 53.6582L54.2134 0.0546875C54.9746 0.101562 55.7358 0.166016 56.4883 0.250977L0.275391 55.9053ZM17.2163 88.127C16.7837 87.7451 16.3535 87.3564 15.9263 86.96L87.8638 15.7598C88.2622 16.1787 88.6548 16.6055 89.042 17.041L17.2163 88.127ZM26.9795 94.7871C26.4434 94.5195 25.9131 94.2344 25.3882 93.9326L94.9126 25.0986C95.2139 25.6172 95.5078 26.1426 95.7944 26.6748L26.9795 94.7871ZM37.001 98.7949C37.6504 98.9785 38.291 99.1455 38.9624 99.3037L100.302 38.5527C100.143 37.8994 99.9751 37.25 99.7944 36.6045L37.001 98.7949ZM73.2881 95.5352L96.5132 72.542C95.5156 74.5498 94.3848 76.4893 93.1284 78.3477L79.1372 92.1982C77.2646 93.4385 75.3105 94.5537 73.2881 95.5352ZM101.224 43.3779L43.7925 100.209C44.5278 100.312 45.2676 100.396 46.0117 100.465L101.494 45.5498C101.454 45.1084 101.406 44.666 101.352 44.2217L101.315 44.0088C101.278 43.7998 101.241 43.5898 101.224 43.3779ZM64.0449 98.9658C62.9839 99.2471 61.9072 99.4971 60.8149 99.7129L100.758 60.1738C100.54 61.25 100.288 62.3154 100 63.3691L64.0449 98.9658ZM20.4297 90.6904C20.9028 91.04 21.3843 91.3779 21.8706 91.7109L92.6421 21.6211C92.3066 21.1396 91.9629 20.6641 91.6099 20.1943L20.4297 90.6904ZM54.166 100.576C53.3057 100.647 52.4458 100.683 51.5854 100.683L101.726 51.0186C101.714 51.873 101.681 52.7275 101.627 53.582L54.166 100.576ZM30.8979 96.6582C31.4712 96.9023 32.0591 97.1377 32.6611 97.3623L98.3579 32.3096C98.1313 31.7227 97.895 31.1406 97.6484 30.5625L30.8979 96.6582ZM7.00635 24.7402L25.0273 6.89941C17.5981 11.2373 11.3979 17.375 7.00635 24.7402ZM1.36377 38.5049C1.64453 37.3428 1.96436 36.2041 2.32275 35.0879L35.4399 2.30273C36.5869 1.95801 37.7339 1.64355 38.8809 1.3584L1.36377 38.5049ZM2.88623 67.1973C3.09863 67.7949 3.32373 68.3896 3.56152 68.9785L69.6841 3.52441C69.0903 3.29102 68.4912 3.06738 67.8862 2.85352L2.88623 67.1973ZM1.0708 60.8271C1.21289 61.4941 1.36768 62.1602 1.53516 62.8184L63.4688 1.5166C62.8062 1.34961 62.1353 1.19141 61.4644 1.05078L1.0708 60.8271ZM6.23242 74.5322C5.94531 74.0029 5.65869 73.4678 5.37207 72.9268L73.6665 5.29297C74.2114 5.57812 74.752 5.8623 75.2881 6.14746L6.23242 74.5322ZM11.9312 82.752C12.3096 83.1963 12.6938 83.6328 13.084 84.0596L84.9307 12.9316C84.501 12.543 84.0708 12.167 83.606 11.791L11.9312 82.752ZM9.40576 79.5352C9.06152 79.0566 8.72607 78.5742 8.39941 78.083L78.9048 8.2832C79.4004 8.60547 79.8896 8.93652 80.3711 9.27832L9.40576 79.5352Z" transform="translate(52.2739 65.4766)" fill="white"/>
</g>
<path fill-rule="evenodd" clip-rule="evenodd" d="M0 81.6168H63.0643V0H0V81.6168Z" transform="translate(29.9878 83.2305)" fill="#77AFD4"/>
<path fill-rule="evenodd" clip-rule="evenodd" d="M48.5418 0L0 65.5861L50.6775 103.148L99.22 37.562L48.5425 0H48.5418Z" transform="translate(43.7803 41)" fill="#94C9EB"/>
<path fill-rule="evenodd" clip-rule="evenodd" d="M0 9.33874L12.0682 90.0571L74.4384 80.7184L62.3703 0L0 9.33874Z" transform="translate(0 50.1279)" fill="#BCE0F7"/>
<path fill-rule="evenodd" clip-rule="evenodd" d="M0.575436 3.34253C3.61985 6.38914 6.66427 9.43576 9.70868 12.4824C11.4904 14.2654 14.2559 11.4992 12.4738 9.71554C9.4291 6.66892 6.38469 3.62231 3.34027 0.575703C1.55885 -1.20733 -1.20696 1.55885 0.575436 3.34253" transform="translate(100.346 145.543)" fill="#164B6E"/>
<path fill-rule="evenodd" clip-rule="evenodd" d="M59.711 29.8772C59.711 46.3777 46.3443 59.7544 29.8557 59.7544C13.3667 59.7544 0 46.3777 0 29.8772C0 13.3763 13.3667 0 29.8557 0C46.3443 0 59.711 13.3763 59.711 29.8772" transform="translate(48.3579 99.1006)" fill="#2B688F"/>
<path fill-rule="evenodd" clip-rule="evenodd" d="M0.848694 3.74562C10.7089 10.9198 20.5688 18.0943 30.4284 25.2685C31.8259 26.2853 33.2232 27.302 34.6207 28.3187C36.6583 29.8018 38.6121 26.4082 36.5941 24.9402C26.7342 17.7656 16.8743 10.5915 7.01442 3.41726C5.61718 2.40052 4.21961 1.38347 2.82237 0.367059C0.784501 -1.11597 -1.16897 2.27759 0.848694 3.74562" transform="translate(89.6475 58.2041)" fill="#77AFD4"/>
<path fill-rule="evenodd" clip-rule="evenodd" d="M0.848694 3.74581C10.7086 10.92 20.5688 18.0945 30.4284 25.2687C31.8256 26.2854 33.2232 27.3022 34.6207 28.3189C36.6583 29.8019 38.6121 26.4084 36.5941 24.9403C26.7342 17.7658 16.8743 10.5916 7.01442 3.41744C5.61718 2.40071 4.21961 1.38365 2.82237 0.366917C0.784501 -1.11579 -1.16897 2.27777 0.848694 3.74581" transform="translate(82.0596 68.709)" fill="#77AFD4"/>
<path fill-rule="evenodd" clip-rule="evenodd" d="M0.848694 3.74581C10.7089 10.92 20.5688 18.0945 30.4284 25.2687C31.8259 26.2854 33.2232 27.3022 34.6207 28.3189C36.6583 29.8019 38.6121 26.4084 36.5941 24.9403C26.7342 17.7658 16.8743 10.5916 7.01442 3.41744C5.61718 2.40071 4.21994 1.38365 2.82237 0.366917C0.784501 -1.11579 -1.16897 2.27777 0.848694 3.74581" transform="translate(74.8921 79.5703)" fill="#77AFD4"/>
<path fill-rule="evenodd" clip-rule="evenodd" d="M2.45422 10.3231C14.4957 8.41906 26.5371 6.51505 38.5783 4.61071C40.2851 4.34104 41.9915 4.07137 43.698 3.80137C46.1764 3.40942 45.1243 -0.361754 42.6585 0.0282439C30.6171 1.93225 18.576 3.83626 6.53419 5.74027C4.82771 6.00994 3.12156 6.27994 1.41508 6.54994C-1.06366 6.94157 -0.0111605 10.7131 2.45422 10.3231" transform="translate(12.5474 81.4082)" fill="#94C9EB"/>
<path fill-rule="evenodd" clip-rule="evenodd" d="M2.45422 10.3233C14.4957 8.41934 26.5371 6.515 38.5783 4.61099C40.2851 4.34132 41.9915 4.07132 43.698 3.80165C46.1764 3.4097 45.1243 -0.361473 42.6585 0.0281982C30.6171 1.93253 18.576 3.83654 6.53419 5.74055C4.82771 6.01023 3.12156 6.28022 1.41508 6.5499C-1.06366 6.94185 -0.0111605 10.713 2.45422 10.3233" transform="translate(15.1543 94.1602)" fill="#94C9EB"/>
<path fill-rule="evenodd" clip-rule="evenodd" d="M2.45431 10.3231C14.4958 8.41906 26.5369 6.51505 38.5784 4.61071C40.2852 4.34104 41.9916 4.07137 43.6978 3.80137C46.1765 3.40942 45.1244 -0.361754 42.6586 0.0282439C30.6172 1.93225 18.5761 3.83626 6.53428 5.74027C4.8278 6.00994 3.12133 6.27994 1.41518 6.54994C-1.06356 6.94157 -0.0113929 10.7131 2.45431 10.3231" transform="translate(10.4658 68.2266)" fill="#94C9EB"/>
<path fill-rule="evenodd" clip-rule="evenodd" d="M51.6929 25.7306C51.6929 32.6033 49.0032 39.065 44.1225 43.9276H44.119C42.1998 45.8384 40.0019 47.4308 37.5908 48.6567C33.9345 50.5195 29.9828 51.4612 25.8451 51.4612C16.0867 51.4612 7.26088 46.085 2.81699 37.4248C1.88177 35.603 1.17667 33.7128 0.705107 31.7575C0.237329 29.8022 0 27.7886 0 25.7306C0 23.3541 0.326757 20.9947 0.977174 18.7107C1.9743 15.2041 3.67378 12.0092 6.03296 9.20809C10.9618 3.35587 18.1849 0 25.8451 0C29.9791 0 33.9311 0.945122 37.5908 2.80797C45.3882 6.7768 50.6026 14.3001 51.5385 22.9295V22.9363C51.6417 23.8678 51.6929 24.8095 51.6929 25.7306" transform="translate(52.5269 103.251)" fill="white"/>
<path fill-rule="evenodd" clip-rule="evenodd" d="M0 40.3128C7.45968 42.7171 15.5347 40.7813 21.0734 35.2671C23.4219 32.9289 25.1283 30.161 26.1416 27.0376C26.8109 24.9793 27.1507 22.8332 27.1507 20.6642L27.1524 20.6622C27.1507 15.1442 24.9934 9.95662 21.0751 6.05525C20.5499 5.53269 19.9841 5.02726 19.3942 4.55675C19.3925 4.55504 19.3925 4.55504 19.3904 4.55298C13.9394 0.183506 6.6906 -1.14001 0.00206373 1.01357" transform="translate(73.3706 108.231)" fill="#BCE0F7" fill-opacity="0.25"/>
<path fill-rule="evenodd" clip-rule="evenodd" d="M34.5824 24.2314L24.2172 34.6074L0 10.3728L5.08945 5.28257L10.3685 0L34.5824 24.2314Z" transform="translate(106.721 151.393)" fill="#FCCB6F"/>
<path d="M170.749 288.18C170.749 321.321 132.525 255.426 85.3746 255.426C38.2238 255.426 3.45123e-06 321.321 3.45123e-06 288.18C-0.013261 0 38.2106 0 85.3614 0C132.513 0 170.749 0 170.749 288.931" transform="translate(180.613 102)" fill="#3A3E47"/>
<path d="M57.6765 0C32.7932 0 12.1676 16.4935 0 45.2747C11.5309 81.9512 32.4262 113.75 57.6765 113.75C82.9268 113.75 104.379 81.5062 115.91 44.8342C103.747 16.0485 82.5642 0 57.6765 0Z" transform="translate(208.033 200.75)" fill="#2B2C2E"/>
<path d="M164.518 58.5162C164.518 80.7792 126.273 98.75 79.0979 98.75C31.9223 98.75 0 52.5407 0 30.2777C0 8.0147 31.909 0 79.0802 0C126.251 0 158.16 6.19804 158.16 28.4566" transform="translate(186.845 298.25)" fill="#F0EFEF"/>
<path d="M0 0C0 0 23.0554 15.0285 48.6075 0L27.4734 97.4295C27.4734 97.4295 24.9367 100.401 21.2226 97.4295C17.5084 94.4581 0 0 0 0Z" transform="translate(242.931 299.5)" fill="#24AB9F"/>
<path d="M0 0H48.6075V42.5H0V0Z" transform="translate(242.931 270.75)" fill="#C48468"/>
<path d="M25.4841 0C25.4841 0 -67.4494 246.25 101.623 246.25C270.695 246.25 177.565 0 177.565 0L101.623 93.7961L25.4841 0Z" transform="translate(165.657 315.75)" fill="#F0EFEF"/>
<path d="M27.4196 21.25C27.4196 32.9995 21.282 42.5 13.7098 42.5C6.13758 42.5 0 32.9774 0 21.25C0 9.52265 6.13758 0 13.7098 0C21.282 0 27.4196 9.52265 27.4196 21.25Z" transform="translate(312.726 198.25)" fill="#B3785F"/>
<path d="M27.4196 21.25C27.4196 32.9995 21.282 42.5 13.7098 42.5C6.13758 42.5 0 32.9774 0 21.25C0 9.52265 6.13758 0 13.7098 0C21.282 0 27.4196 9.52265 27.4196 21.25Z" transform="translate(191.83 198.25)" fill="#B3785F"/>
<path d="M60.4588 172.5C27.2096 172.5 0 138.541 0 107.491V56.4555C0 25.4045 27.2051 0 60.4588 0C93.7124 0 120.895 25.4045 120.895 56.4555V107.513C120.895 138.559 93.7079 172.5 60.4588 172.5Z" transform="translate(205.54 115.75)" fill="#C48468"/>
<path d="M67.5174 44.6102C94.8041 82.7255 133.415 90 133.415 90C133.415 90 148.981 0 67.5174 0C-13.9462 0 1.09373 90 1.09373 90C27.9483 90 67.5174 44.6102 67.5174 44.6102Z" transform="translate(200.555 102)" fill="#3A3E47"/>
<path d="M0 19.6046C0 8.77727 8.78106 0 19.613 0H42.8091C53.6411 0 62.4222 8.77727 62.4222 19.6046V155.102C62.4222 165.929 53.6411 174.707 42.8091 174.707H19.613C8.78106 174.707 0 165.929 0 155.102V19.6046Z" transform="matrix(0.651795 0.758395 -0.756505 0.653988 205.167 297.45)" fill="#F0EFEF"/>
<path d="M0 19.6046C0 8.77727 8.78106 0 19.613 0H42.8091C53.6411 0 62.4222 8.77727 62.4222 19.6046V155.102C62.4222 165.929 53.6411 174.707 42.8091 174.707H19.613C8.78106 174.707 0 165.929 0 155.102V19.6046Z" transform="matrix(-0.651795 0.758395 -0.756505 -0.653988 454 411.712)" fill="#F0EFEF"/>
<path d="M32.5776 2.65658L56.0313 99.5591C56.2093 100.159 55.9378 100.799 55.3812 101.094C54.8245 101.389 54.1352 101.256 53.7303 100.777L16.3555 60.872C15.9284 60.4242 15.8713 59.7436 16.2178 59.2321L22.0324 50.4396C22.2491 50.123 22.3163 49.7289 22.2166 49.3594C22.1169 48.99 21.86 48.6815 21.5127 48.5141L0.746369 38.152C0.149253 37.8625 -0.14075 37.1815 0.0667449 36.5562L9.76359 6.22196C9.84308 5.96866 9.99788 5.74498 10.2078 5.5801C12.1534 4.08097 22.561 -3.33993 31.938 1.77293C32.2654 1.96733 32.4969 2.2872 32.5776 2.65658Z" transform="translate(209.279 294.5)" fill="#DCDBDB"/>
<path d="M23.4986 2.65658L0.0542117 99.5591C-0.123737 100.159 0.14758 100.799 0.704074 101.094C1.26057 101.389 1.94951 101.256 2.35425 100.777L39.7365 60.872C40.1633 60.4242 40.2206 59.7436 39.8742 59.2321L34.0619 50.4396C33.8452 50.123 33.7781 49.7289 33.8777 49.3594C33.9774 48.99 34.2341 48.6815 34.5815 48.5141L55.3395 38.152C55.9363 37.8625 56.2262 37.1815 56.0189 36.5562L46.3258 6.22196C46.2464 5.96866 46.0916 5.74498 45.8818 5.5801C43.9369 4.08097 33.5335 -3.33993 24.1602 1.77293C23.8244 1.96278 23.5845 2.28331 23.4986 2.65658Z" transform="translate(267.857 294.5)" fill="#DCDBDB"/>
<path d="M170.749 288.18C170.749 321.321 132.525 255.426 85.3746 255.426C38.2238 255.426 3.45123e-06 321.321 3.45123e-06 288.18C-0.013261 0 38.2106 0 85.3614 0C132.513 0 170.749 0 170.749 288.931" transform="translate(180.613 102)" fill="#3A3E47"/>
<path d="M57.6765 0C32.7932 0 12.1676 16.4935 0 45.2747C11.5309 81.9512 32.4262 113.75 57.6765 113.75C82.9268 113.75 104.379 81.5062 115.91 44.8342C103.747 16.0485 82.5642 0 57.6765 0Z" transform="translate(208.033 200.75)" fill="#2B2C2E"/>
<path d="M164.518 58.5162C164.518 80.7792 126.273 98.75 79.0979 98.75C31.9223 98.75 0 52.5407 0 30.2777C0 8.0147 31.909 0 79.0802 0C126.251 0 158.16 6.19804 158.16 28.4566" transform="translate(186.845 298.25)" fill="#F0EFEF"/>
<path d="M0 0C0 0 23.0554 15.0285 48.6075 0L27.4734 97.4295C27.4734 97.4295 24.9367 100.401 21.2226 97.4295C17.5084 94.4581 0 0 0 0Z" transform="translate(242.931 299.5)" fill="#24AB9F"/>
<path d="M0 0H48.6075V42.5H0V0Z" transform="translate(242.931 270.75)" fill="#C48468"/>
<path d="M25.4841 0C25.4841 0 -67.4494 246.25 101.623 246.25C270.695 246.25 177.565 0 177.565 0L100.843 79.25L25.4841 0Z" transform="translate(165.657 315.75)" fill="#F0EFEF"/>
<path d="M27.4196 21.25C27.4196 32.9995 21.282 42.5 13.7098 42.5C6.13758 42.5 0 32.9774 0 21.25C0 9.52265 6.13758 0 13.7098 0C21.282 0 27.4196 9.52265 27.4196 21.25Z" transform="translate(312.726 198.25)" fill="#B3785F"/>
<path d="M27.4196 21.25C27.4196 32.9995 21.282 42.5 13.7098 42.5C6.13758 42.5 0 32.9774 0 21.25C0 9.52265 6.13758 0 13.7098 0C21.282 0 27.4196 9.52265 27.4196 21.25Z" transform="translate(191.83 198.25)" fill="#B3785F"/>
<path d="M60.4588 172.5C27.2096 172.5 0 138.541 0 107.491V56.4555C0 25.4045 27.2051 0 60.4588 0C93.7124 0 120.895 25.4045 120.895 56.4555V107.513C120.895 138.559 93.7079 172.5 60.4588 172.5Z" transform="translate(205.54 115.75)" fill="#C48468"/>
<path d="M67.5174 44.6102C94.8041 82.7255 133.415 90 133.415 90C133.415 90 148.981 0 67.5174 0C-13.9462 0 1.09373 90 1.09373 90C27.9483 90 67.5174 44.6102 67.5174 44.6102Z" transform="translate(200.555 102)" fill="#3A3E47"/>
<path d="M0 19.6046C0 8.77727 8.78106 0 19.613 0H42.8091C53.6411 0 62.4222 8.77727 62.4222 19.6046V155.102C62.4222 165.929 53.6411 174.707 42.8091 174.707H19.613C8.78106 174.707 0 165.929 0 155.102V19.6046Z" transform="matrix(0.651795 0.758395 -0.756505 0.653988 205.167 297.45)" fill="#F0EFEF"/>
<path d="M0 19.6046C0 8.77727 8.78106 0 19.613 0H42.8091C53.6411 0 62.4222 8.77727 62.4222 19.6046V155.102C62.4222 165.929 53.6411 174.707 42.8091 174.707H19.613C8.78106 174.707 0 165.929 0 155.102V19.6046Z" transform="matrix(-0.651795 0.758395 -0.756505 -0.653988 454 411.712)" fill="#F0EFEF"/>
<path d="M32.5776 2.65658L56.0313 99.5591C56.2093 100.159 55.9378 100.799 55.3812 101.094C54.8245 101.389 54.1352 101.256 53.7303 100.777L16.3555 60.872C15.9284 60.4242 15.8713 59.7436 16.2178 59.2321L22.0324 50.4396C22.2491 50.123 22.3163 49.7289 22.2166 49.3594C22.1169 48.99 21.86 48.6815 21.5127 48.5141L0.746369 38.152C0.149253 37.8625 -0.14075 37.1815 0.0667449 36.5562L9.76359 6.22196C9.84308 5.96866 9.99788 5.74498 10.2078 5.5801C12.1534 4.08097 22.561 -3.33993 31.938 1.77293C32.2654 1.96733 32.4969 2.2872 32.5776 2.65658Z" transform="translate(209.279 294.5)" fill="#DCDBDB"/>
<path d="M23.4986 2.65658L0.0542117 99.5591C-0.123737 100.159 0.14758 100.799 0.704074 101.094C1.26057 101.389 1.94951 101.256 2.35425 100.777L39.7365 60.872C40.1633 60.4242 40.2206 59.7436 39.8742 59.2321L34.0619 50.4396C33.8452 50.123 33.7781 49.7289 33.8777 49.3594C33.9774 48.99 34.2341 48.6815 34.5815 48.5141L55.3395 38.152C55.9363 37.8625 56.2262 37.1815 56.0189 36.5562L46.3258 6.22196C46.2464 5.96866 46.0916 5.74498 45.8818 5.5801C43.9369 4.08097 33.5335 -3.33993 24.1602 1.77293C23.8244 1.96278 23.5845 2.28331 23.4986 2.65658Z" transform="translate(267.857 294.5)" fill="#DCDBDB"/>
<path fill-rule="evenodd" clip-rule="evenodd" d="M35.1064 47.4388L37.883 46.7148L51.7668 80.4687L48.9905 81.1923L35.1064 47.4388ZM80.7258 32.2397L81.5191 35.0034L38.0159 44.6755L37.2227 41.9122L80.7258 32.2397ZM34.1152 0.0655237L36.958 0L37.6851 35.201L34.8427 35.2669L34.1152 0.0655237ZM34.71 42.5701L33.8506 45.3337L0 35.0694L0.859459 32.3062L34.71 42.5701Z" transform="translate(43.5288 349.628) rotate(-90)" fill="#4A5E81"/>
<path fill-rule="evenodd" clip-rule="evenodd" d="M19.1081 0C29.6612 0 38.2165 8.51385 38.2165 19.0167C38.2165 29.5191 29.6612 38.033 19.1081 38.033C8.55494 38.033 0 29.5191 0 19.0167C0 8.51385 8.55494 0 19.1081 0" transform="translate(68.5942 332.836) rotate(-90)" fill="#5A478F"/>
<path fill-rule="evenodd" clip-rule="evenodd" d="M13.8851 0C21.5541 0 27.7706 6.1867 27.7706 13.8188C27.7706 21.4505 21.5541 27.6372 13.8851 27.6372C6.21656 27.6372 0 21.4505 0 13.8188C0 6.1867 6.21656 0 13.8851 0" transform="translate(116.363 310.754) rotate(-90)" fill="#F47E6C"/>
<path fill-rule="evenodd" clip-rule="evenodd" d="M10.3801 0C16.1131 0 20.7605 4.62505 20.7605 10.3305C20.7605 16.036 16.1131 20.6611 10.3801 20.6611C4.64738 20.6611 0 16.036 0 10.3305C0 4.62505 4.64738 0 10.3801 0" transform="translate(66.6885 277.761) rotate(-90)" fill="#73C8CC"/>
<mask id="mask2" mask-type="alpha" maskUnits="userSpaceOnUse" x="61" y="341" width="29" height="29">
<path fill-rule="evenodd" clip-rule="evenodd" d="M0 27.2399V0L27.3712 0V27.2399H0H0Z" transform="translate(61.8853 369) rotate(-90)" fill="white"/>
</mask>
<g mask="url(#mask2)">
<path fill-rule="evenodd" clip-rule="evenodd" d="M13.6858 0C21.2443 0 27.3713 6.09793 27.3713 13.6198C27.3713 21.1419 21.2443 27.2399 13.6858 27.2399C6.12736 27.2399 0 21.1419 0 13.6198C0 6.09793 6.12736 0 13.6858 0" transform="translate(61.8853 369) rotate(-90)" fill="#42C7BB"/>
</g>
<path fill-rule="evenodd" clip-rule="evenodd" d="M7.9999 0C12.4179 0 15.9998 3.56435 15.9998 7.96148C15.9998 12.3583 12.4179 15.9226 7.9999 15.9226C3.5819 15.9226 0 12.3583 0 7.96148C0 3.56435 3.5819 0 7.9999 0" transform="translate(28 322.388) rotate(-90)" fill="#FCCB6F"/>
<path d="M10.4912 43.7739H1.74485C0.773037 43.7739 -1.34807e-06 42.9993 -1.34807e-06 42.0256V1.7483C-1.34807e-06 0.774566 0.773037 6.75366e-07 1.74485 6.75366e-07H10.4912C11.463 6.75366e-07 12.2361 0.774566 12.2361 1.7483V42.0256C12.2361 42.9772 11.463 43.7739 10.4912 43.7739Z" transform="translate(398.447 98.8291)" fill="#FCCB6F"/>
<path d="M10.4912 33.2841H1.74485C0.773037 33.2841 -1.34807e-06 32.5095 -1.34807e-06 31.5358V1.7483C-1.34807e-06 0.774565 0.773037 2.70146e-06 1.74485 2.70146e-06H10.4912C11.463 2.70146e-06 12.2361 0.774565 12.2361 1.7483V31.5137C12.2361 32.4874 11.463 33.2841 10.4912 33.2841Z" transform="translate(398.447 109.319)" fill="#F5B33C"/>
<path d="M10.4912 75.3097H1.74485C0.773037 75.3097 1.34807e-06 74.5351 1.34807e-06 73.5614V1.7483C1.34807e-06 0.774563 0.773037 6.75366e-07 1.74485 6.75366e-07H10.4912C11.463 6.75366e-07 12.2361 0.774563 12.2361 1.7483V73.5614C12.2361 74.513 11.4409 75.3097 10.4912 75.3097Z" transform="translate(415.939 67.2939)" fill="#24AB9F"/>
<path d="M10.4912 54.2858H1.74485C0.773037 54.2858 1.34807e-06 53.5113 1.34807e-06 52.5375V1.7483C1.34807e-06 0.774563 0.773037 6.75366e-07 1.74485 6.75366e-07H10.4912C11.463 6.75366e-07 12.2361 0.774563 12.2361 1.7483V52.5375C12.2361 53.4891 11.4409 54.2858 10.4912 54.2858Z" transform="translate(415.939 88.3174)" fill="#109488"/>
<path d="M10.4691 33.2841H1.74485C0.773036 33.2841 -6.74034e-07 32.5095 -6.74034e-07 31.5358V1.7483C-6.74034e-07 0.774565 0.773036 2.70146e-06 1.74485 2.70146e-06H10.4912C11.463 2.70146e-06 12.2361 0.774565 12.2361 1.7483V31.5137C12.2361 32.4874 11.4409 33.2841 10.4691 33.2841Z" transform="translate(363.505 109.319)" fill="#73C8CC"/>
<path d="M10.4912 85.8216H1.74486C0.773038 85.8216 2.69614e-06 85.0471 2.69614e-06 84.0733V1.7483C2.69614e-06 0.774563 0.773038 -1.68841e-07 1.74486 -1.68841e-07H10.4912C11.463 -1.68841e-07 12.2361 0.774563 12.2361 1.7483V84.0733C12.2361 85.0249 11.463 85.8216 10.4912 85.8216Z" transform="translate(433.41 56.7812)" fill="#5A478F"/>
<path d="M10.4912 64.7978H1.74486C0.773038 64.7978 2.69614e-06 64.0232 2.69614e-06 63.0495V1.7483C2.69614e-06 0.774563 0.773038 6.75366e-07 1.74486 6.75366e-07H10.4912C11.463 6.75366e-07 12.2361 0.774563 12.2361 1.7483V63.0495C12.2361 64.0011 11.463 64.7978 10.4912 64.7978Z" transform="translate(433.41 77.8057)" fill="#47337D"/>
<path d="M10.4912 54.2858H1.74485C0.773036 54.2858 6.74034e-07 53.5113 6.74034e-07 52.5375V1.7483C6.74034e-07 0.774563 0.773036 6.75366e-07 1.74485 6.75366e-07H10.4912C11.463 6.75366e-07 12.2361 0.774563 12.2361 1.7483V52.5375C12.2361 53.4891 11.463 54.2858 10.4912 54.2858Z" transform="translate(380.976 88.3174)" fill="#FCA79A"/>
<path d="M10.4912 43.7739H1.74485C0.773036 43.7739 6.74034e-07 42.9993 6.74034e-07 42.0256V1.7483C6.74034e-07 0.774566 0.773036 6.75366e-07 1.74485 6.75366e-07H10.4912C11.463 6.75366e-07 12.2361 0.774566 12.2361 1.7483V42.0256C12.2361 42.9772 11.463 43.7739 10.4912 43.7739Z" transform="translate(380.976 98.8291)" fill="#F47E6C"/>
<path d="M10.4691 22.7722H1.74485C0.773036 22.7722 -6.74034e-07 21.9976 -6.74034e-07 21.0239V1.7483C-6.74034e-07 0.774565 0.773036 2.70146e-06 1.74485 2.70146e-06H10.4912C11.463 2.70146e-06 12.2361 0.774565 12.2361 1.7483V21.0239C12.2361 21.9755 11.4409 22.7722 10.4691 22.7722Z" transform="translate(363.505 119.831)" fill="#5BB0B5"/>
<path d="M0.0687144 1.27803C0.0687144 4.5312 0.0687144 7.80649 0.0687144 11.0597C0.0687144 18.8496 0.0687144 26.6395 0.0687144 34.4293C0.0687144 43.879 0.0687144 53.3508 0.0687144 62.8005C0.0687144 70.9445 0.0687144 79.0885 0.0687144 87.2546C0.0687144 91.2159 -0.085893 95.2215 0.0687144 99.205C0.0687144 99.2714 0.0687144 99.3156 0.0687144 99.382C0.0687144 101.086 2.71913 101.086 2.71913 99.382C2.71913 96.1289 2.71913 92.8536 2.71913 89.6004C2.71913 81.8105 2.71913 74.0206 2.71913 66.2307C2.71913 56.781 2.71913 47.3092 2.71913 37.8596C2.71913 29.7156 2.71913 21.5716 2.71913 13.4055C2.71913 9.44414 2.87373 5.43854 2.71913 1.45507C2.71913 1.38868 2.71913 1.34442 2.71913 1.27803C2.71913 -0.42601 0.0687144 -0.42601 0.0687144 1.27803Z" transform="translate(354.227 43)" fill="#4A5E81"/>
<path d="M99.1861 0.0688514C95.9394 0.0688514 92.6705 0.0688514 89.4238 0.0688514C81.6492 0.0688514 73.8747 0.0688514 66.1002 0.0688514C56.6691 0.0688514 47.216 0.0688514 37.7849 0.0688514C29.657 0.0688514 21.5291 0.0688514 13.3791 0.0688514C9.42552 0.0688514 5.42782 -0.0860613 1.4522 0.0688514C1.38594 0.0688514 1.34177 0.0688514 1.27551 0.0688514C-0.42517 0.0688514 -0.42517 2.7245 1.27551 2.7245C4.52226 2.7245 7.7911 2.7245 11.0379 2.7245C18.8124 2.7245 26.5869 2.7245 34.3615 2.7245C43.7925 2.7245 53.2457 2.7245 62.6767 2.7245C70.8046 2.7245 78.9326 2.7245 87.0826 2.7245C91.0361 2.7245 95.0338 2.87941 99.0094 2.7245C99.0757 2.7245 99.1199 2.7245 99.1861 2.7245C100.887 2.7245 100.909 0.0688514 99.1861 0.0688514Z" transform="translate(349.53 141.207)" fill="#4A5E81"/>
<path d="M6.51007 -6.75366e-07C4.76522 -6.75366e-07 3.02036 -6.75366e-07 1.27551 -6.75366e-07C-0.42517 -6.75366e-07 -0.42517 2.65565 1.27551 2.65565C3.02036 2.65565 4.76522 2.65565 6.51007 2.65565C8.23284 2.65565 8.23284 -6.75366e-07 6.51007 -6.75366e-07Z" transform="translate(349.11 57.2021)" fill="#4A5E81"/>
<path d="M6.51007 -6.75366e-07C4.76522 -6.75366e-07 3.02036 -6.75366e-07 1.27551 -6.75366e-07C-0.42517 -6.75366e-07 -0.42517 2.65565 1.27551 2.65565C3.02036 2.65565 4.76522 2.65565 6.51007 2.65565C8.23284 2.65565 8.23284 -6.75366e-07 6.51007 -6.75366e-07Z" transform="translate(349.11 67.7139)" fill="#4A5E81"/>
<path d="M6.51007 6.75366e-07C4.76522 6.75366e-07 3.02036 6.75366e-07 1.27551 6.75366e-07C-0.42517 6.75366e-07 -0.42517 2.65565 1.27551 2.65565C3.02036 2.65565 4.76522 2.65565 6.51007 2.65565C8.21075 2.65565 8.21075 6.75366e-07 6.51007 6.75366e-07Z" transform="translate(349.044 77.8057)" fill="#4A5E81"/>
<path d="M6.51007 6.75366e-07C4.76522 6.75366e-07 3.02036 6.75366e-07 1.27551 6.75366e-07C-0.42517 6.75366e-07 -0.42517 2.65565 1.27551 2.65565C3.02036 2.65565 4.76522 2.65565 6.51007 2.65565C8.21075 2.65565 8.21075 6.75366e-07 6.51007 6.75366e-07Z" transform="translate(349.044 88.3174)" fill="#4A5E81"/>
<path d="M6.51007 1.35073e-06C4.76522 1.35073e-06 3.02036 1.35073e-06 1.27551 1.35073e-06C-0.42517 1.35073e-06 -0.42517 2.65565 1.27551 2.65565C3.02036 2.65565 4.76522 2.65565 6.51007 2.65565C8.21075 2.65565 8.21075 1.35073e-06 6.51007 1.35073e-06Z" transform="translate(349.088 99.2275)" fill="#4A5E81"/>
<path d="M6.51007 2.70146e-06C4.76522 2.70146e-06 3.02036 2.70146e-06 1.27551 2.70146e-06C-0.42517 2.70146e-06 -0.42517 2.65565 1.27551 2.65565C3.02036 2.65565 4.76522 2.65565 6.51007 2.65565C8.21075 2.65565 8.21075 2.70146e-06 6.51007 2.70146e-06Z" transform="translate(349.088 109.762)" fill="#4A5E81"/>
<path d="M6.51007 2.70146e-06C4.76522 2.70146e-06 3.02036 2.70146e-06 1.27551 2.70146e-06C-0.42517 2.70146e-06 -0.42517 2.65565 1.27551 2.65565C3.02036 2.65565 4.76522 2.65565 6.51007 2.65565C8.23284 2.65565 8.23284 2.70146e-06 6.51007 2.70146e-06Z" transform="translate(349 119.831)" fill="#4A5E81"/>
<path d="M6.51007 -2.70146e-06C4.76522 -2.70146e-06 3.02036 -2.70146e-06 1.27551 -2.70146e-06C-0.42517 -2.70146e-06 -0.42517 2.65564 1.27551 2.65564C3.02036 2.65564 4.76522 2.65564 6.51007 2.65564C8.23284 2.65564 8.23284 -2.70146e-06 6.51007 -2.70146e-06Z" transform="translate(349 130.365)" fill="#4A5E81"/>
</g>
</svg>
