<svg width="148" height="153" viewBox="0 0 148 153" fill="none" xmlns="http://www.w3.org/2000/svg">
<rect width="148" height="153" fill="white"/>
<path d="M82.3598 0L114.04 30.0675L31.7219 116.303L0 86.277L82.3598 0Z" transform="translate(22.1802 11.8916)" fill="#495B7A"/>
<path d="M12.3456 2.54885e-06L44.0675 30.0675L12.3456 44.0572L0 32.3226L12.4293 0.0417591L12.3456 2.54885e-06Z" transform="translate(9.83472 98.1686)" fill="#FAD591"/>
<path d="M22.1802 11.6929L0 22.4671L9.83463 2.54885e-06L22.1802 11.6929Z" transform="translate(0 130.533)" fill="#0D1C38"/>
<path d="M82.1087 0L113.705 29.6499L32.1404 115.259L0 85.0242L82.1087 0Z" transform="translate(21.7617 12.9355)" fill="#4A5E81"/>
<path d="M82.5 0L96.5 13.5L16 99.5L0 86L82.5 0Z" transform="translate(21.5 12.5)" fill="#4A5E81"/>
<path d="M24.3145 2.37021L40.6777 17.9468C44.9045 21.9558 44.0675 29.765 38.8782 35.2357L31.68 42.7943L31.5963 42.8778L2.55429e-06 12.7268L0.0837002 12.6433L7.28181 5.08464C12.4711 -0.385974 20.2551 -1.68055 24.3982 2.37021H24.3145Z" transform="translate(103.829)" fill="#F47E6C"/>
</svg>
