<svg xmlns="http://www.w3.org/2000/svg" viewBox="0 0 41.06 41.68"><defs><style>.cls-1{fill:#f89c56;}.cls-2{fill:#ededee;}.cls-3{fill:#c8c5c5;}.cls-4{fill:#fff;}.cls-5{fill:#4dc1b8;}.cls-6{fill:#7a91ca;}.cls-7{fill:#70c59a;}</style></defs><title>Step1Asset 2</title><g id="Layer_2" data-name="Layer 2"><g id="Layer_1-2" data-name="Layer 1"><path class="cls-1" d="M10.21,22.64H.6A.6.6,0,0,1,0,22V12.5a.6.6,0,0,1,.6-.6h9.61Z"/><path class="cls-2" d="M34.84,22.64H10.21V11.9H34.84a1,1,0,0,1,1,1v8.73A1,1,0,0,1,34.84,22.64Z"/><path class="cls-3" d="M12.25,20.31a.58.58,0,0,0,.58.58H33.54a.58.58,0,0,0,0-1.16H12.83A.58.58,0,0,0,12.25,20.31Z"/><path class="cls-3" d="M12.25,17.41a.58.58,0,0,0,.58.58H19a.58.58,0,1,0,0-1.16H12.83A.58.58,0,0,0,12.25,17.41Z"/><path class="cls-3" d="M12.25,13.93a.58.58,0,0,0,.58.58H23.92a.58.58,0,0,0,0-1.16H12.83A.58.58,0,0,0,12.25,13.93Z"/><path class="cls-4" d="M4,20.91a1,1,0,0,1,0-1.36,1,1,0,0,1,1.33,0,1,1,0,0,1,0,1.36.93.93,0,0,1-1.33,0Zm1.45-2.07H3.86V18A1.49,1.49,0,0,1,4,17.36a3.12,3.12,0,0,1,.47-.6L5.17,16a.73.73,0,0,0,.16-.5A.77.77,0,0,0,5.16,15a.54.54,0,0,0-.45-.21.57.57,0,0,0-.46.24,1.36,1.36,0,0,0-.23.65H2.33A2.63,2.63,0,0,1,3.11,14a2.33,2.33,0,0,1,1.65-.62,2.36,2.36,0,0,1,1.62.55A2,2,0,0,1,7,15.43a1.55,1.55,0,0,1-.11.65l-.15.3a1.35,1.35,0,0,1-.19.28c-.11.12-.17.2-.21.23l-.48.49a1.65,1.65,0,0,0-.31.37,1,1,0,0,0-.07.44Z"/><path class="cls-5" d="M10.21,10.74H.6a.6.6,0,0,1-.6-.6V.6A.6.6,0,0,1,.6,0h9.61Z"/><path class="cls-2" d="M34.84,10.74H10.21V0H34.84a1,1,0,0,1,1,1V9.73A1,1,0,0,1,34.84,10.74Z"/><path class="cls-3" d="M12.25,8.42a.58.58,0,0,0,.58.58H33.54a.58.58,0,0,0,0-1.16H12.83A.58.58,0,0,0,12.25,8.42Z"/><path class="cls-3" d="M12.25,5.22a.58.58,0,0,0,.58.58H19a.58.58,0,1,0,0-1.16H12.83A.58.58,0,0,0,12.25,5.22Z"/><path class="cls-3" d="M12.25,2.32a.58.58,0,0,0,.58.58H23.92a.58.58,0,1,0,0-1.16H12.83A.58.58,0,0,0,12.25,2.32Z"/><path class="cls-4" d="M4,9A1,1,0,0,1,4,7.66a.87.87,0,0,1,.66-.28.88.88,0,0,1,.67.28,1,1,0,0,1-.67,1.63A.91.91,0,0,1,4,9ZM5.48,7H3.86V6.13A1.41,1.41,0,0,1,4,5.47a2.84,2.84,0,0,1,.47-.61l.72-.75a.76.76,0,0,0,.16-.51.78.78,0,0,0-.17-.51.54.54,0,0,0-.45-.21.56.56,0,0,0-.46.25A1.28,1.28,0,0,0,4,3.77H2.33a2.63,2.63,0,0,1,.78-1.7,2.33,2.33,0,0,1,1.65-.62A2.41,2.41,0,0,1,6.38,2,2,2,0,0,1,7,3.53a1.52,1.52,0,0,1-.11.65l-.15.3a1.35,1.35,0,0,1-.19.28c-.11.12-.17.2-.21.23l-.48.49a1.46,1.46,0,0,0-.31.38,1,1,0,0,0-.07.44Z"/><path class="cls-6" d="M10.21,34.82H.6a.6.6,0,0,1-.6-.6V24.69a.6.6,0,0,1,.6-.6h9.61Z"/><path class="cls-2" d="M34.84,34.82H10.21V24.09H34.84a1,1,0,0,1,1,1v8.73A1,1,0,0,1,34.84,34.82Z"/><path class="cls-3" d="M12.25,32.5a.58.58,0,0,0,.58.58H33.54a.58.58,0,0,0,0-1.16H12.83A.58.58,0,0,0,12.25,32.5Z"/><path class="cls-3" d="M12.25,29.31a.58.58,0,0,0,.58.58H19a.58.58,0,0,0,0-1.16H12.83A.58.58,0,0,0,12.25,29.31Z"/><path class="cls-3" d="M12.25,26.41a.58.58,0,0,0,.58.58H23.92a.58.58,0,1,0,0-1.16H12.83A.58.58,0,0,0,12.25,26.41Z"/><path class="cls-4" d="M4,32.81a1,1,0,0,1,0-1.36,1,1,0,0,1,1.33,0,1,1,0,0,1,0,1.36,1,1,0,0,1-1.33,0Zm1.45-2.07H3.86v-.81A1.46,1.46,0,0,1,4,29.26a2.84,2.84,0,0,1,.47-.6l.72-.76a.73.73,0,0,0,.16-.5.81.81,0,0,0-.17-.52.56.56,0,0,0-.45-.2.57.57,0,0,0-.46.24,1.36,1.36,0,0,0-.23.65H2.33a2.63,2.63,0,0,1,.78-1.7,2.29,2.29,0,0,1,1.65-.62,2.36,2.36,0,0,1,1.62.55A2,2,0,0,1,7,27.33a1.47,1.47,0,0,1-.11.64l-.15.31a1.13,1.13,0,0,1-.19.27,2.37,2.37,0,0,1-.21.24l-.48.49a1.65,1.65,0,0,0-.31.37,1,1,0,0,0-.07.44Z"/><circle class="cls-7" cx="31.3" cy="31.92" r="9.76"/><path class="cls-4" d="M35.09,27.88,29.55,33.8l-2-2.17a.92.92,0,0,0-1.36,0,1.09,1.09,0,0,0,0,1.45L28.87,36a.93.93,0,0,0,.68.3.91.91,0,0,0,.67-.3l6.22-6.63a1.06,1.06,0,0,0,0-1.45A.93.93,0,0,0,35.09,27.88Z"/></g></g></svg>