<svg xmlns="http://www.w3.org/2000/svg" viewBox="0 0 42.41 46.65"><defs><style>.cls-1{fill:#4dc1b8;}.cls-2{fill:#7a91ca;}.cls-3{fill:#154c6f;}.cls-4{fill:#2b6990;}.cls-5{fill:#fccb71;}.cls-6{fill:#fad591;}.cls-7{fill:#fff;}.cls-8{fill:#bddff6;fill-opacity:0.25;}.cls-9{fill:#70c59a;}</style></defs><title>Step4Asset 5</title><g id="Layer_2" data-name="Layer 2"><g id="Layer_1-2" data-name="Layer 1"><path class="cls-1" d="M33.85,21.61A16.93,16.93,0,1,1,16.93,4.69,16.93,16.93,0,0,1,33.85,21.61Z"/><path class="cls-2" d="M17.91,0A21.65,21.65,0,0,1,38.54,20.63a.94.94,0,0,1-.94,1H16.93V.94A1,1,0,0,1,17.91,0Z"/><path class="cls-3" d="M24.16,28.09l2.54,2.55a.54.54,0,0,0,.77-.77c-.85-.85-1.7-1.7-2.54-2.56A.55.55,0,0,0,24.16,28.09Z"/><path class="cls-4" d="M26.15,22.52a8.32,8.32,0,1,1-8.32-8.36A8.34,8.34,0,0,1,26.15,22.52Z"/><path class="cls-5" d="M35.3,35.61l-2.89,2.9-6.74-6.78,1.41-1.42,1.47-1.48Z"/><path class="cls-6" d="M28.55,28.83l-1.47,1.48,6.82,6.84,1.4-1.54Z"/><path class="cls-7" d="M25.07,22.52A7.15,7.15,0,0,1,23,27.61h0a7.24,7.24,0,0,1-5.09,2.11,7.18,7.18,0,0,1-7-5.51A7.24,7.24,0,0,1,11,20.56,7.2,7.2,0,0,1,25,21.74h0A6.79,6.79,0,0,1,25.07,22.52Z"/><path class="cls-8" d="M16.48,28a5.75,5.75,0,0,0,5.87-1.41,5.61,5.61,0,0,0,1.41-2.3A5.71,5.71,0,0,0,24,22.5h0a5.79,5.79,0,0,0-1.7-4.09,3.8,3.8,0,0,0-.47-.42h0a5.76,5.76,0,0,0-5.4-1"/><circle class="cls-9" cx="32.65" cy="36.89" r="9.76"/><path class="cls-7" d="M36.44,32.85l-5.55,5.91-2-2.16a.91.91,0,0,0-1.35,0,1.05,1.05,0,0,0,0,1.44l2.7,2.89a.94.94,0,0,0,.68.3.93.93,0,0,0,.68-.3l6.22-6.63a1.09,1.09,0,0,0,0-1.45A.91.91,0,0,0,36.44,32.85Z"/></g></g></svg>