<svg xmlns="http://www.w3.org/2000/svg" viewBox="0 0 46.01 47.95"><defs><style>.cls-1{fill:none;stroke:#f47f6c;stroke-width:2px;}.cls-2{fill:#3d4b63;}.cls-3{fill:#28458a;}.cls-4{fill:#cad5ed;}.cls-5{fill:#243450;}.cls-6{fill:#f47f6c;}.cls-7{fill:#70c59a;}.cls-8{fill:#fff;}</style></defs><title>Step6Asset 7</title><g id="Layer_2" data-name="Layer 2"><g id="Layer_1-2" data-name="Layer 1"><path class="cls-1" d="M43.55,22.13A21.28,21.28,0,1,1,22.28,1,21.2,21.2,0,0,1,43.55,22.13Z"/><path class="cls-2" d="M26.14,7.62H18.91a1.81,1.81,0,0,0-1.8,1.8v2.69h1.8v-1.8a.9.9,0,0,1,.91-.89h5.42a.89.89,0,0,1,.9.89v1.8H28V9.42A1.81,1.81,0,0,0,26.14,7.62Z"/><path class="cls-3" d="M9.87,12.11H35.18A1.8,1.8,0,0,1,37,13.9V31.84a1.8,1.8,0,0,1-1.81,1.79H9.87a1.8,1.8,0,0,1-1.8-1.79V13.9A1.8,1.8,0,0,1,9.87,12.11Z"/><path class="cls-4" d="M27.05,21.07H24.34V18.39a.9.9,0,0,0-.91-.9H21.62a.9.9,0,0,0-.9.9v2.68H18a.9.9,0,0,0-.9.9v1.79a.9.9,0,0,0,.9.9h2.71v2.69a.9.9,0,0,0,.91.9h1.8a.9.9,0,0,0,.91-.9V24.66h2.71a.9.9,0,0,0,.9-.9V22A.9.9,0,0,0,27.05,21.07Z"/><path class="cls-5" d="M18.91,7.62a1.81,1.81,0,0,0-1.8,1.8v2.69h1.8v-1.8a.9.9,0,0,1,.91-.89"/><path class="cls-6" d="M8.48,37.4l2.91-2.88,7-6.91,8.47-8.41L34.09,12c1.19-1.18,2.43-2.32,3.57-3.54l.05-.05c.54-.53-.3-1.37-.84-.83L34,10.46l-7,6.91-8.47,8.41L11.26,33c-1.18,1.17-2.43,2.31-3.56,3.53,0,0,0,0,0,0A.59.59,0,0,0,8.48,37.4Z"/><circle class="cls-7" cx="36.25" cy="38.19" r="9.76"/><path class="cls-8" d="M40,34.16l-5.55,5.91-2-2.17a.93.93,0,0,0-1.35,0,1.09,1.09,0,0,0,0,1.45l2.71,2.88a.91.91,0,0,0,.67.3.93.93,0,0,0,.68-.3l6.22-6.63a1.07,1.07,0,0,0,0-1.44A.91.91,0,0,0,40,34.16Z"/></g></g></svg>