<svg xmlns="http://www.w3.org/2000/svg" viewBox="0 0 42.73 39.9"><defs><style>.cls-1{fill:#ca4382;}.cls-2{fill:#f284b5;}.cls-3{fill:#154c6f;}.cls-4{fill:#70c59a;}.cls-5{fill:#fff;}</style></defs><title>Step7Asset 8</title><g id="Layer_2" data-name="Layer 2"><g id="Layer_1-2" data-name="Layer 1"><path class="cls-1" d="M35.17,16.52H34a1.18,1.18,0,0,1,0-2.35h1.17a2.34,2.34,0,0,0,2.33-2.35,2.36,2.36,0,0,0-.68-1.66,1.17,1.17,0,0,1,0-1.66,1.16,1.16,0,0,1,1.65,0,4.7,4.7,0,0,1-3.3,8Z"/><path class="cls-2" d="M22.25,2.35H16.42a11.57,11.57,0,0,0-2.27.23A8.26,8.26,0,0,0,8.17,0,1.17,1.17,0,0,0,7,1.17V6.54a13,13,0,0,0-3,5.28H3.5A3.51,3.51,0,0,0,0,15.35V17.7a3.5,3.5,0,0,0,3.5,3.52H4.9a13.42,13.42,0,0,0,3.27,4.17v4.13a1.15,1.15,0,0,0,1.17,1.17h4.74a1.15,1.15,0,0,0,1.17-1.17V28.3c.4,0,.77.05,1.17.05h5.83v1.17a1.16,1.16,0,0,0,1.17,1.17h4.67a1.16,1.16,0,0,0,1.17-1.17V26.25a13.19,13.19,0,0,0,5.91-10.9A13,13,0,0,0,22.25,2.35Z"/><path class="cls-3" d="M9.33,14.2A1.19,1.19,0,1,1,10.5,13,1.19,1.19,0,0,1,9.33,14.2ZM10.48,13h0ZM9.33,13h0Z"/><path class="cls-1" d="M24.59,9.47H15.25a1.17,1.17,0,0,1,0-2.34h9.34a1.17,1.17,0,0,1,0,2.34Z"/><path class="cls-1" d="M24.59,7.13H19.92V9.47h4.67a1.17,1.17,0,0,0,0-2.34Z"/><circle class="cls-4" cx="32.97" cy="30.14" r="9.76"/><path class="cls-5" d="M36.76,26.1,31.21,32l-2-2.17a.91.91,0,0,0-1.35,0,1.06,1.06,0,0,0,0,1.45l2.7,2.88a.94.94,0,0,0,.68.3.93.93,0,0,0,.68-.3l6.22-6.63a1.09,1.09,0,0,0,0-1.45A.93.93,0,0,0,36.76,26.1Z"/></g></g></svg>