<svg xmlns="http://www.w3.org/2000/svg" viewBox="0 0 44.36 46.34"><defs><style>.cls-1{fill:#fff;}.cls-2{fill:#fccb71;}.cls-3{fill:#f5b33c;}.cls-4{fill:#21ab9f;}.cls-5{fill:#149489;}.cls-6{fill:#75c8cc;}.cls-7{fill:#5a488f;}.cls-8{fill:#47347e;}.cls-9{fill:#f8a69b;}.cls-10{fill:#f47f6c;}.cls-11{fill:#5bb0b5;}.cls-12{fill:#4a5f82;}.cls-13{fill:#70c59a;}</style></defs><title>Step3Asset 4</title><g id="Layer_2" data-name="Layer 2"><g id="Layer_1-2" data-name="Layer 1"><rect class="cls-1" width="38.64" height="38.88"/><path class="cls-2" d="M22.93,38.11H19.59a.67.67,0,0,1-.67-.67V22a.67.67,0,0,1,.67-.67h3.34a.66.66,0,0,1,.67.67V37.44A.66.66,0,0,1,22.93,38.11Z"/><path class="cls-3" d="M22.93,38.11H19.59a.67.67,0,0,1-.67-.67V26a.66.66,0,0,1,.67-.66h3.34a.66.66,0,0,1,.67.66V37.43A.67.67,0,0,1,22.93,38.11Z"/><path class="cls-4" d="M29.63,38.11H26.28a.67.67,0,0,1-.67-.67V10a.66.66,0,0,1,.67-.66h3.35a.65.65,0,0,1,.66.66V37.44A.67.67,0,0,1,29.63,38.11Z"/><path class="cls-5" d="M29.63,38.11H26.28a.67.67,0,0,1-.67-.67V18a.67.67,0,0,1,.67-.67h3.35a.66.66,0,0,1,.66.67V37.44A.67.67,0,0,1,29.63,38.11Z"/><path class="cls-6" d="M9.56,38.11H6.22a.67.67,0,0,1-.67-.67V26a.66.66,0,0,1,.67-.66H9.56a.66.66,0,0,1,.67.66V37.43A.67.67,0,0,1,9.56,38.11Z"/><path class="cls-7" d="M36.31,38.11H33a.66.66,0,0,1-.66-.67V5.94A.66.66,0,0,1,33,5.27h3.35a.67.67,0,0,1,.67.67v31.5A.67.67,0,0,1,36.31,38.11Z"/><path class="cls-8" d="M36.31,38.11H33a.66.66,0,0,1-.66-.67V14a.66.66,0,0,1,.66-.67h3.35A.66.66,0,0,1,37,14V37.44A.67.67,0,0,1,36.31,38.11Z"/><path class="cls-9" d="M16.25,38.11H12.9a.67.67,0,0,1-.67-.67V18a.67.67,0,0,1,.67-.67h3.35a.67.67,0,0,1,.67.67V37.44A.67.67,0,0,1,16.25,38.11Z"/><path class="cls-10" d="M16.25,38.11H12.9a.67.67,0,0,1-.67-.67V22a.67.67,0,0,1,.67-.67h3.35a.67.67,0,0,1,.67.67V37.44A.67.67,0,0,1,16.25,38.11Z"/><path class="cls-11" d="M9.56,38.11H6.22a.67.67,0,0,1-.67-.67V30.07a.66.66,0,0,1,.67-.67H9.56a.66.66,0,0,1,.67.67v7.37A.67.67,0,0,1,9.56,38.11Z"/><path class="cls-12" d="M2,.49v32.9C2,34.9,2,36.43,2,38V38a.51.51,0,0,0,1,0V5.13c0-1.52.06-3,0-4.57V.49A.51.51,0,0,0,2,.49Z"/><path class="cls-12" d="M38.15,37.6H5.32c-1.51,0-3-.06-4.56,0H.69a.51.51,0,0,0,0,1H33.52c1.52,0,3,.06,4.57,0h.06A.51.51,0,0,0,38.15,37.6Z"/><path class="cls-12" d="M2.53,5.43h-2a.51.51,0,0,0,0,1h2A.51.51,0,0,0,2.53,5.43Z"/><path class="cls-12" d="M2.53,9.46h-2a.51.51,0,0,0,0,1h2A.51.51,0,0,0,2.53,9.46Z"/><path class="cls-12" d="M2.51,13.32H.5a.51.51,0,0,0,0,1h2A.51.51,0,0,0,2.51,13.32Z"/><path class="cls-12" d="M2.51,17.34H.5a.51.51,0,0,0,0,1h2A.51.51,0,0,0,2.51,17.34Z"/><path class="cls-12" d="M2.52,21.51h-2a.51.51,0,0,0,0,1h2A.51.51,0,0,0,2.52,21.51Z"/><path class="cls-12" d="M2.52,25.54h-2a.51.51,0,0,0,0,1h2A.51.51,0,0,0,2.52,25.54Z"/><path class="cls-12" d="M2.49,29.4h-2a.51.51,0,0,0,0,1h2A.51.51,0,0,0,2.49,29.4Z"/><path class="cls-12" d="M2.49,33.43h-2a.51.51,0,0,0,0,1h2A.51.51,0,0,0,2.49,33.43Z"/><circle class="cls-13" cx="34.6" cy="36.58" r="9.76"/><path class="cls-1" d="M38.39,32.54l-5.54,5.91-2-2.16a.92.92,0,0,0-1.36,0,1.07,1.07,0,0,0,0,1.44l2.71,2.89a.93.93,0,0,0,.68.3.91.91,0,0,0,.67-.3L39.74,34a1.06,1.06,0,0,0,0-1.45A.91.91,0,0,0,38.39,32.54Z"/></g></g></svg>