<svg xmlns="http://www.w3.org/2000/svg" viewBox="0 0 40.08 42.66"><defs><style>.cls-1{fill:#75c8cc;}.cls-2{fill:#fff;}.cls-3{fill:#f5b33c;}.cls-4{fill:#a8dce0;}.cls-5{fill:#59a159;}.cls-6{fill:#70c59a;}</style></defs><title>Step5Asset 6</title><g id="Layer_2" data-name="Layer 2"><g id="Layer_1-2" data-name="Layer 1"><path class="cls-1" d="M31.16,0h-12c-2.35,0-3.54,1.23-3.54,3.64V33.5c0,2.41,1.19,3.64,3.54,3.64h12c2.35,0,3.54-1.23,3.54-3.64V3.64C34.7,1.24,33.51,0,31.16,0Z"/><path class="cls-2" d="M27,2.31H23.31a.41.41,0,0,0-.41.42.42.42,0,0,0,.41.43H27a.43.43,0,0,0,.41-.43A.41.41,0,0,0,27,2.31Z"/><path class="cls-3" d="M32.85,4.65H17.46V31.78H32.85Z"/><path class="cls-2" d="M24.83,14.06v5.57a.73.73,0,0,0,1.46,0V14.06A.73.73,0,0,0,24.83,14.06Z"/><path class="cls-2" d="M26.61,22.53a1.07,1.07,0,1,1-1.06-1A1,1,0,0,1,26.61,22.53Z"/><path class="cls-4" d="M15.58,0h-12C1.19,0,0,1.23,0,3.64V33.5c0,2.41,1.19,3.64,3.54,3.64h12c2.35,0,3.54-1.23,3.54-3.64V3.64C19.12,1.24,17.93,0,15.58,0Z"/><path class="cls-2" d="M11.39,2.31H7.73a.42.42,0,0,0-.41.42.43.43,0,0,0,.41.43h3.66a.43.43,0,0,0,.42-.43A.42.42,0,0,0,11.39,2.31Z"/><path class="cls-5" d="M17.27,4.65H1.88V31.78H17.27Z"/><path class="cls-2" d="M6,18.84H14a.61.61,0,0,0,0-1.22H6A.61.61,0,0,0,6,18.84Z"/><path class="cls-2" d="M9.33,14.29v7.88a.62.62,0,0,0,1.23,0V14.29A.62.62,0,0,0,9.33,14.29Z"/><circle class="cls-6" cx="30.32" cy="32.9" r="9.76"/><path class="cls-2" d="M34.11,28.86l-5.54,5.92-2-2.17a.92.92,0,0,0-1.36,0,1.09,1.09,0,0,0,0,1.45l2.71,2.88a.93.93,0,0,0,.68.3.91.91,0,0,0,.67-.3l6.23-6.63a1.09,1.09,0,0,0,0-1.45A.94.94,0,0,0,34.11,28.86Z"/></g></g></svg>