<svg xmlns="http://www.w3.org/2000/svg" viewBox="0 0 32.97 43.9"><defs><style>.cls-1{fill:#fff;}.cls-2{fill:#e15a5e;}.cls-3{fill:#dd9b27;}.cls-4{fill:#f5b33c;}.cls-5{fill:#bddff6;}.cls-6{fill:#70c59a;}</style></defs><title>Step8Asset 9</title><g id="Layer_2" data-name="Layer 2"><g id="Layer_1-2" data-name="Layer 1"><rect class="cls-1" width="19.62" height="33.11"/><path class="cls-1" d="M15.94,10.42a.62.62,0,1,0,.62-.61A.59.59,0,0,0,15.94,10.42Z"/><path class="cls-1" d="M12.26,10.42a.62.62,0,1,0,.62-.61A.59.59,0,0,0,12.26,10.42Z"/><path class="cls-1" d="M15.94,6.74a.62.62,0,1,0,.62-.61A.59.59,0,0,0,15.94,6.74Z"/><path class="cls-1" d="M12.26,6.74a.62.62,0,1,0,.62-.61A.59.59,0,0,0,12.26,6.74Z"/><path class="cls-1" d="M14.1,8.58A.62.62,0,1,0,14.72,8,.59.59,0,0,0,14.1,8.58Z"/><path class="cls-1" d="M10.42,8.58A.59.59,0,0,0,11,9.2a.62.62,0,1,0-.62-.62Z"/><path class="cls-1" d="M14.1,4.91a.62.62,0,0,0,1.23,0,.62.62,0,1,0-1.23,0Z"/><path class="cls-1" d="M10.42,4.91a.59.59,0,0,0,.62.61.58.58,0,0,0,.61-.61A.58.58,0,0,0,11,4.29.59.59,0,0,0,10.42,4.91Z"/><path class="cls-1" d="M8.58,10.42A.59.59,0,0,0,9.2,11a.62.62,0,1,0-.62-.62Z"/><path class="cls-1" d="M4.91,10.42a.58.58,0,0,0,.61.62.62.62,0,0,0,0-1.23A.58.58,0,0,0,4.91,10.42Z"/><path class="cls-1" d="M8.58,6.74a.59.59,0,0,0,.62.62.58.58,0,0,0,.61-.62.58.58,0,0,0-.61-.61A.59.59,0,0,0,8.58,6.74Z"/><path class="cls-1" d="M4.91,6.74a.58.58,0,0,0,.61.62.58.58,0,0,0,.61-.62.58.58,0,0,0-.61-.61A.58.58,0,0,0,4.91,6.74Z"/><path class="cls-1" d="M6.75,8.58A.61.61,0,1,0,7.36,8,.58.58,0,0,0,6.75,8.58Z"/><path class="cls-1" d="M3.07,8.58a.58.58,0,0,0,.61.62A.62.62,0,0,0,3.68,8,.58.58,0,0,0,3.07,8.58Z"/><path class="cls-1" d="M6.75,4.91A.61.61,0,0,0,8,4.91a.61.61,0,1,0-1.22,0Z"/><path class="cls-1" d="M3.07,4.91a.58.58,0,0,0,.61.61.58.58,0,0,0,.61-.61.58.58,0,0,0-.61-.62A.58.58,0,0,0,3.07,4.91Z"/><path class="cls-1" d="M15.94,3.07a.62.62,0,0,0,1.23,0,.62.62,0,1,0-1.23,0Z"/><path class="cls-1" d="M12.26,3.07a.62.62,0,0,0,1.23,0,.62.62,0,1,0-1.23,0Z"/><path class="cls-1" d="M8.58,3.07a.59.59,0,0,0,.62.61.58.58,0,0,0,.61-.61.58.58,0,0,0-.61-.62A.59.59,0,0,0,8.58,3.07Z"/><path class="cls-1" d="M4.91,3.07a.58.58,0,0,0,.61.61.58.58,0,0,0,.61-.61.58.58,0,0,0-.61-.62A.58.58,0,0,0,4.91,3.07Z"/><path class="cls-2" d="M0,33.11H19.62V0H0Z"/><path class="cls-3" d="M14.72,17.78h2.45V15.33H14.72Z"/><path class="cls-4" d="M14.72,17.17H12.88a.62.62,0,1,1,0-1.23h1.84a.62.62,0,0,1,0,1.23Z"/><path class="cls-5" d="M2.45,11H17.17V2.45H2.45Z"/><circle class="cls-6" cx="23.21" cy="34.14" r="9.76"/><path class="cls-1" d="M27,30.11,21.45,36l-2-2.17a.93.93,0,0,0-1.35,0,1.06,1.06,0,0,0,0,1.45l2.7,2.88a.93.93,0,0,0,.68.3.94.94,0,0,0,.68-.3l6.22-6.63a1.07,1.07,0,0,0,0-1.44A.92.92,0,0,0,27,30.11Z"/></g></g></svg>