<svg xmlns="http://www.w3.org/2000/svg" xmlns:xlink="http://www.w3.org/1999/xlink" viewBox="0 0 40.5 44.57"><defs><style>.cls-1{fill:none;}.cls-2{clip-path:url(#clip-path);}.cls-3{fill:#4a5f82;}.cls-4{fill:#243450;}.cls-5{fill:#6379a1;}.cls-6{fill:#70c59a;}.cls-7{fill:#fff;}</style><clipPath id="clip-path" transform="translate(-2.56)"><rect class="cls-1" width="35.54" height="41.43"/></clipPath></defs><title>Step2Asset 3</title><g id="Layer_2" data-name="Layer 2"><g id="Layer_1-2" data-name="Layer 1"><g class="cls-2"><path class="cls-3" d="M24.88,10.76v5.6h3.87v-5.6A10.82,10.82,0,0,0,17.9,0V3.84A7,7,0,0,1,24.88,10.76Z" transform="translate(-2.56)"/><path class="cls-3" d="M10.92,16.36v-5.6a7,7,0,0,1,7-6.92V0A10.82,10.82,0,0,0,7.05,10.76v5.6h3.87Z" transform="translate(-2.56)"/><path class="cls-4" d="M17.9,41.43c8.47,0,15.34-6.62,15.34-14.79S26.37,11.86,17.9,11.86,2.56,18.48,2.56,26.64,9.43,41.43,17.9,41.43Z" transform="translate(-2.56)"/><path class="cls-5" d="M18,31.31A2.38,2.38,0,0,1,15.54,29V24.31a2.42,2.42,0,0,1,4.84,0V29A2.38,2.38,0,0,1,18,31.31Z" transform="translate(-2.56)"/></g><circle class="cls-6" cx="30.74" cy="34.81" r="9.76"/><path class="cls-7" d="M37.08,30.77l-5.54,5.91-2-2.16a.91.91,0,0,0-1.35,0,1.05,1.05,0,0,0,0,1.44l2.7,2.89a1,1,0,0,0,.68.29,1,1,0,0,0,.68-.29l6.22-6.64a1.07,1.07,0,0,0,0-1.44A.92.92,0,0,0,37.08,30.77Z" transform="translate(-2.56)"/></g></g></svg>