<svg width="42" height="42" viewBox="0 0 42 42" fill="none" xmlns="http://www.w3.org/2000/svg">
<rect width="42" height="42" fill="white"/>
<path fill-rule="evenodd" clip-rule="evenodd" d="M0 14.1641V30.6885H38V14.1641L18.9998 2.95068L0 14.1641Z" fill="#407BA0"/>
<path fill-rule="evenodd" clip-rule="evenodd" d="M4.15614 0H33.8436C34.4969 0 35.0309 0.531112 35.0309 1.18013V21.836C35.0309 22.4853 34.4969 23.0165 33.8436 23.0165H4.15614C3.50318 23.0165 2.96875 22.4853 2.96875 21.836V1.18013C2.96875 0.531112 3.50318 0 4.15614 0" fill="#E6E6E8"/>
<path fill-rule="evenodd" clip-rule="evenodd" d="M37.9996 34.2294C37.9996 35.2032 37.1984 36 36.2186 36H1.78137C0.801644 36 0 35.2032 0 34.2294V14.1641L18.9998 22.4265L38 14.1641V34.2294H37.9996Z" fill="#A6DDE0"/>
<path fill-rule="evenodd" clip-rule="evenodd" d="M37.9996 34.2294C37.9996 35.2032 37.1984 36 36.2186 36H1.78137C0.801645 36 0 35.2032 0 34.2294V30.6885L37.9996 14.1641V34.2294Z" fill="#73C8CC"/>
<path fill-rule="evenodd" clip-rule="evenodd" d="M7.0842 9.2652H15.1551H27.9616H30.907C31.6345 9.2652 31.6356 8.14136 30.907 8.14136H22.8361H10.0296H7.0842C6.35661 8.14136 6.35548 9.2652 7.0842 9.2652" fill="#BCC0CA"/>
<path fill-rule="evenodd" clip-rule="evenodd" d="M7.41867 12.9996H15.4896H28.296H31.2414C31.969 12.9996 31.9701 11.8757 31.2414 11.8757H23.1705H10.364H7.41867C6.69109 11.8757 6.68996 12.9996 7.41867 12.9996" fill="#BCC0CA"/>
<path fill-rule="evenodd" clip-rule="evenodd" d="M7.0842 5.43195H15.1551H27.9616H30.907C31.6345 5.43195 31.6356 4.30811 30.907 4.30811H22.8361H10.0296H7.0842C6.35661 4.30811 6.35548 5.43195 7.0842 5.43195" fill="#BCC0CA"/>
<path d="M31.3015 41.6799C36.6918 41.6799 41.0615 37.3102 41.0615 31.9199C41.0615 26.5296 36.6918 22.1599 31.3015 22.1599C25.9112 22.1599 21.5415 26.5296 21.5415 31.9199C21.5415 37.3102 25.9112 41.6799 31.3015 41.6799Z" fill="#70C59A"/>
<path d="M35.0916 27.88L29.5516 33.8L27.5516 31.63C27.4654 31.5354 27.3604 31.4598 27.2433 31.4081C27.1262 31.3564 26.9996 31.3297 26.8716 31.3297C26.7436 31.3297 26.617 31.3564 26.4999 31.4081C26.3828 31.4598 26.2778 31.5354 26.1916 31.63C26.0138 31.8296 25.9155 32.0876 25.9155 32.355C25.9155 32.6223 26.0138 32.8803 26.1916 33.08L28.8716 36C28.9582 36.094 29.0633 36.1692 29.1803 36.2209C29.2973 36.2725 29.4237 36.2994 29.5516 36.3C29.678 36.2992 29.8028 36.2722 29.9182 36.2205C30.0336 36.1689 30.1369 36.0938 30.2216 36L36.4416 29.37C36.6258 29.1735 36.7283 28.9143 36.7283 28.645C36.7283 28.3757 36.6258 28.1164 36.4416 27.92C36.3575 27.8257 36.255 27.7495 36.1404 27.6961C36.0258 27.6427 35.9016 27.6133 35.7752 27.6095C35.6489 27.6058 35.5231 27.6278 35.4055 27.6743C35.288 27.7208 35.1812 27.7908 35.0916 27.88V27.88Z" fill="white"/>
</svg>
