<svg width="468" height="408" viewBox="0 0 468 408" fill="none" xmlns="http://www.w3.org/2000/svg">
<path d="M34.5695 34.4435C12.3946 56.4901 -0.0465226 86.4335 0.000130738 117.646V117.646C-0.0460444 148.858 12.395 178.801 34.5695 200.848V200.848C56.6976 222.941 86.7502 235.336 118.076 235.291V235.291C149.402 235.336 179.455 222.941 201.583 200.848V200.848C223.758 178.801 236.199 148.858 236.152 117.646V117.646C236.2 86.4334 223.758 56.4898 201.583 34.4435V34.4435C179.456 12.3494 149.403 -0.0463529 118.076 0.000130261V0.000130261C86.7499 -0.0463529 56.6968 12.3494 34.5695 34.4435V34.4435Z" transform="translate(230.437 7.84668)" stroke="#DADADA"/>
<path d="M27.8134 27.667C9.97225 45.3762 -0.0374304 69.4286 0.000105187 94.5V94.5C-0.0370457 119.571 9.97257 143.624 27.8134 161.333V161.333C45.6169 179.079 69.7961 189.036 95 189V189C120.204 189.036 144.383 179.079 162.187 161.333V161.333C180.028 143.624 190.037 119.571 190 94.5V94.5C190.038 69.4285 180.028 45.376 162.187 27.667V27.667C144.384 9.91976 120.204 -0.0372334 95 0.000104633V0.000104633C69.7959 -0.0372334 45.6163 9.91976 27.8134 27.667V27.667Z" transform="translate(254 30)" stroke="#DADADA"/>
<mask id="mask0" mask-type="alpha" maskUnits="userSpaceOnUse" x="38" y="-1" width="428" height="409">
<rect width="428" height="409" transform="translate(38 -1)" fill="#C4C4C4"/>
</mask>
<g mask="url(#mask0)">
<g opacity="0.1">
<path fill-rule="evenodd" clip-rule="evenodd" d="M56.4087 0C25.2544 0.00708008 0.00244141 25.2275 0 56.3376C0.00244141 87.448 25.2544 112.668 56.4087 112.676C87.5659 112.673 112.824 87.4512 112.826 56.3376C112.826 25.2231 87.5669 0 56.4087 0ZM1.90625 56.3379C1.88672 41.896 7.6333 28.042 17.8735 17.8442C28.0864 7.61841 41.9595 1.88013 56.4219 1.89917C70.8843 1.87964 84.7573 7.61816 94.9697 17.8442C105.21 28.042 110.957 41.896 110.938 56.3379C110.957 70.7798 105.21 84.6335 94.9697 94.8318C84.7578 105.058 70.8843 110.797 56.4219 110.777C41.9595 110.796 28.0864 105.057 17.8735 94.8318C7.63379 84.6335 1.88721 70.7798 1.90625 56.3379Z" transform="translate(93.1274 179.697)" fill="#41495A"/>
<path fill-rule="evenodd" clip-rule="evenodd" d="M79.9658 0C35.8027 0 0 35.7522 0 79.853C0 123.954 35.8027 159.706 79.9658 159.706C124.129 159.706 159.932 123.954 159.932 79.853C159.932 35.7522 124.129 0 79.9658 0ZM0.633789 79.8533C0.602539 58.8328 8.96533 38.6672 23.8696 23.8235C38.7349 8.93994 58.9287 0.589111 79.9785 0.620117C101.029 0.589111 121.223 8.93994 136.087 23.8235C150.992 38.6672 159.354 58.8328 159.323 79.8533C159.354 100.874 150.992 121.039 136.087 135.883C121.222 150.766 101.028 159.116 79.9785 159.086C58.9287 159.116 38.7354 150.766 23.8696 135.883C8.96582 121.039 0.603027 100.874 0.633789 79.8533Z" transform="translate(69.5703 156.182)" fill="#41495A"/>
</g>
<path opacity="0.1" fill-rule="evenodd" clip-rule="evenodd" d="M0 64.7483C0.0551758 63.554 0.140137 62.3684 0.255859 61.1914L61.6426 0.262695C62.8423 0.14502 64.0396 0.057373 65.2334 0L0 64.7483ZM0.37793 75.3933C0.269531 74.3984 0.173828 73.3865 0.104492 72.3789L72.9233 0.0732422C73.9512 0.14209 74.9707 0.228271 75.9854 0.340332L0.37793 75.3933ZM23.168 118.874C22.5898 118.357 22.0112 117.831 21.4331 117.297L118.162 21.2644C118.7 21.8386 119.229 22.4128 119.75 22.9868L23.168 118.874ZM36.2969 127.882C35.5737 127.5 34.8599 127.107 34.1543 126.702L127.644 33.8813C128.048 34.5818 128.443 35.291 128.828 36.0085L36.2969 127.882ZM49.7417 133.273C50.6089 133.518 51.4766 133.747 52.3828 133.958L134.913 51.9973L134.899 51.9421C134.691 51.0979 134.474 50.2175 134.228 49.3706L49.7417 133.273ZM98.5591 128.855L129.786 97.8499C128.445 100.553 126.925 103.166 125.236 105.67L106.422 124.35C103.905 126.024 101.278 127.529 98.5591 128.855ZM136.161 58.4868L58.9097 135.168C59.8984 135.305 60.896 135.417 61.8936 135.512L136.491 61.4451C136.436 60.8481 136.371 60.251 136.295 59.6538C136.282 59.5303 136.267 59.4072 136.251 59.2847L136.242 59.2075L136.241 59.197L136.24 59.1892L136.239 59.1812L136.238 59.1729L136.232 59.1235L136.231 59.1155L136.23 59.1069L136.225 59.061C136.201 58.8694 136.178 58.678 136.161 58.4868ZM86.1206 133.489C84.6982 133.873 83.2524 134.209 81.7837 134.496L135.498 81.168C135.206 82.6177 134.866 84.0532 134.479 85.4741L86.1206 133.489ZM29.0269 123.439L29.062 123.464L29.4053 123.705L124.625 29.166C124.171 28.5144 123.707 27.8728 123.233 27.2412L27.4668 122.327C27.9595 122.689 28.4683 123.047 28.9678 123.398L29.0078 123.426L29.0269 123.439ZM72.8408 135.663C71.6841 135.74 70.5278 135.788 69.3711 135.805L136.803 68.8435C136.786 69.9919 136.741 71.1401 136.669 72.2886L72.8408 135.663ZM41.5488 130.379C42.3325 130.712 43.123 131.029 43.9214 131.331L132.293 43.583C131.986 42.7908 131.667 42.0056 131.334 41.2275L41.5488 130.379ZM9.43311 33.3687L33.6685 9.30127C23.6704 15.1602 15.332 23.4407 9.43311 33.3687ZM1.83887 51.9155C2.22363 50.3652 2.65723 48.8367 3.14014 47.3293L47.6641 3.12598C49.1792 2.63794 50.7158 2.20752 52.2744 1.83423L1.83887 51.9155ZM3.88135 90.6416C4.17041 91.4512 4.47412 92.2522 4.79199 93.0444L93.7017 4.76709C92.9033 4.45142 92.0981 4.1499 91.2856 3.86279L3.88135 90.6416ZM1.46191 82.0293C1.65283 82.9294 1.86084 83.825 2.08643 84.7122L85.3579 2.03271C84.4644 1.80444 83.562 1.60205 82.6602 1.40405L1.46191 82.0293ZM8.36133 100.498C7.96826 99.7949 7.58643 99.0774 7.21631 98.3452L99.0967 7.14819C99.8223 7.51562 100.545 7.896 101.265 8.28931L8.36133 100.498ZM16.0249 111.639C16.5308 112.236 17.0469 112.824 17.5732 113.404L114.233 17.4358C113.652 16.9148 113.053 16.4023 112.45 15.8984L16.0249 111.639ZM12.6079 107.302C12.144 106.66 11.6885 106.006 11.2549 105.343L106.106 11.1958C106.771 11.6321 107.429 12.0801 108.08 12.5393L12.6079 107.302Z" transform="translate(53.2856 339.055)" fill="white"/>
<g opacity="0.1">
<path d="M0 118.606C0 53.0987 53.2931 0 119.04 0C184.782 0 238.08 53.103 238.08 118.606C238.08 184.113 184.782 237.211 119.04 237.216C53.2931 237.216 0 184.113 0 118.606Z" transform="translate(432)" fill="white"/>
</g>
<path opacity="0.1" fill-rule="evenodd" clip-rule="evenodd" d="M0 53.0271C0.043457 52.0491 0.112793 51.0779 0.208008 50.114L50.5654 0.2146C51.5522 0.117188 52.5352 0.0456543 53.5137 0L0 53.0271ZM0.290039 61.7576C0.199219 60.9294 0.121094 60.1016 0.0649414 59.2778L59.8394 0.0598145C60.6792 0.115479 61.519 0.184326 62.3506 0.278564L0.290039 61.7576ZM19.0024 97.3535C18.5176 96.9331 18.04 96.5042 17.5693 96.0667L96.9351 17.4268C97.3735 17.8901 97.8066 18.3621 98.2339 18.8425L19.0024 97.3535ZM29.7656 104.754C29.1709 104.442 28.585 104.121 28.0078 103.789L104.728 27.749C105.063 28.321 105.388 28.9016 105.702 29.491L29.7656 104.754ZM40.8018 109.156C41.5161 109.358 42.2437 109.542 42.9663 109.718L110.699 42.5891C110.525 41.8684 110.339 41.1477 110.136 40.4441L40.8018 109.156ZM80.877 105.544L106.512 80.1418C105.41 82.3594 104.16 84.502 102.771 86.5557L87.3325 101.855C85.2661 103.226 83.1094 104.458 80.877 105.544ZM111.708 47.9001L48.3267 110.705C49.1362 110.816 49.9546 110.911 50.7729 110.988L111.993 50.3242C111.947 49.835 111.894 49.3459 111.833 48.8569C111.807 48.6182 111.774 48.3816 111.742 48.146L111.737 48.1152L111.708 47.9001ZM70.6768 109.328C69.5073 109.643 68.3198 109.919 67.1133 110.156L111.193 66.4731C110.953 67.6631 110.675 68.8398 110.357 70.0039L70.6768 109.328ZM22.5176 100.181C23.0415 100.567 23.5742 100.945 24.1064 101.309L102.251 23.8835C101.879 23.3516 101.498 22.8267 101.108 22.3091L22.5176 100.181ZM59.752 111.104C58.7998 111.167 57.8501 111.205 56.9033 111.219L112.249 56.3774C112.237 57.3213 112.201 58.2595 112.14 59.1919L59.752 111.104ZM34.0781 106.779C34.7217 107.065 35.3711 107.325 36.0264 107.56L108.551 35.6943C108.3 35.0449 108.039 34.4014 107.768 33.7637L34.0781 106.779ZM7.72998 27.3181L27.6094 7.61963C19.4092 12.4158 12.5698 19.1929 7.72998 27.3181ZM1.50244 42.5161C1.81152 41.249 2.16357 39.9978 2.55908 38.7622L39.1094 2.54834C40.3535 2.15942 41.6147 1.81201 42.8931 1.50586L1.50244 42.5161ZM3.18213 74.2339C3.41895 74.8948 3.66699 75.551 3.92676 76.2031L76.9019 3.89575C76.2471 3.6355 75.5859 3.38818 74.9189 3.15356L3.18213 74.2339ZM1.18164 67.1936C1.3374 67.9314 1.50635 68.665 1.69678 69.3901L70.0396 1.67334C69.3076 1.48877 68.5674 1.31714 67.8271 1.15845L1.18164 67.1936ZM6.84473 82.3345C6.52148 81.748 6.2085 81.156 5.90527 80.5581L81.2964 5.85254C81.9141 6.15283 82.5117 6.4646 83.0889 6.78784L6.84473 82.3345ZM13.1445 91.4292C13.5601 91.9182 13.9844 92.4001 14.4175 92.875L93.7271 14.2866C93.2505 13.8577 92.7568 13.4285 92.2676 13.0295L13.1445 91.4292ZM10.3608 87.8853C9.97998 87.3574 9.61182 86.8213 9.24805 86.2808L87.064 9.17676C87.6094 9.53149 88.1489 9.89746 88.6831 10.2751L10.3608 87.8853Z" transform="translate(319.792 325.644)" fill="white"/>
<path opacity="0.1" fill-rule="evenodd" clip-rule="evenodd" d="M0 48.0024C0.0400391 47.1196 0.103027 46.241 0.189453 45.3667L45.8223 0.196533C46.7168 0.108154 47.6069 0.0427246 48.4932 0L0 48.0024ZM0.275391 55.9055C0.189453 55.1536 0.120605 54.406 0.0688477 53.6584L54.2134 0.0549316C54.9746 0.101807 55.7358 0.166016 56.4883 0.251465L0.275391 55.9055ZM17.2163 88.127C16.7837 87.7454 16.3535 87.3564 15.9263 86.9607L87.8638 15.76C88.2622 16.1787 88.6548 16.606 89.042 17.0417L17.2163 88.127ZM26.9795 94.7874C26.4434 94.5198 25.9131 94.2349 25.3882 93.9329L94.9126 25.0991C95.2139 25.6174 95.5078 26.1431 95.7944 26.6755L26.9795 94.7874ZM37.001 98.7947C37.6504 98.9783 38.291 99.1448 38.9624 99.303L100.302 38.5522C100.143 37.8984 99.9751 37.249 99.7944 36.604L37.001 98.7947ZM73.2881 95.5352L96.5132 72.5422C95.5156 74.5498 94.3848 76.4895 93.1284 78.3481L79.1372 92.1987C77.2646 93.439 75.3105 94.5535 73.2881 95.5352ZM101.244 43.3586L101.224 43.3784L101.223 43.3586H101.244ZM101.224 43.3784L43.7925 100.209C44.5278 100.312 45.2676 100.397 46.0117 100.465L101.494 45.5503C101.454 45.1089 101.406 44.666 101.352 44.2217L101.315 44.0076C101.278 43.7991 101.241 43.5896 101.224 43.3784ZM64.0449 98.9653C62.9839 99.2473 61.9072 99.4963 60.8149 99.7129L100.758 60.1736C100.54 61.2502 100.288 62.3154 100 63.3691L64.0449 98.9653ZM20.4297 90.6899C20.9028 91.0403 21.3843 91.3779 21.8706 91.7112L92.6421 21.6213C92.3066 21.1399 91.9629 20.6643 91.6099 20.1943L20.4297 90.6899ZM54.166 100.576C53.3057 100.648 52.4458 100.683 51.5854 100.683L101.726 51.0188C101.714 51.8733 101.681 52.7278 101.627 53.582L54.166 100.576ZM30.8979 96.6584C31.4712 96.9033 32.0591 97.1382 32.6611 97.3633L98.3579 32.3103C98.1313 31.7236 97.895 31.1411 97.6484 30.563L30.8979 96.6584ZM7.00635 24.7407L25.0273 6.8999C17.5981 11.2378 11.3979 17.376 7.00635 24.7407ZM1.36377 38.5056C1.64453 37.3435 1.96436 36.2041 2.32275 35.0876L35.4399 2.30273C36.5869 1.95825 37.7339 1.64355 38.8809 1.35864L1.36377 38.5056ZM2.88623 67.1973C3.09863 67.7954 3.32373 68.3892 3.56152 68.9788L69.6841 3.52417C69.0903 3.29077 68.4912 3.06714 67.8862 2.85352L2.88623 67.1973ZM1.0708 60.8274C1.21289 61.4937 1.36768 62.1602 1.53516 62.8181L63.4688 1.51611C62.8062 1.34961 62.1353 1.19141 61.4644 1.05054L1.0708 60.8274ZM6.23242 74.5332C5.94531 74.0034 5.65869 73.468 5.37207 72.9268L73.6665 5.29346C74.2114 5.57837 74.752 5.86304 75.2881 6.14795L6.23242 74.5332ZM11.9312 82.7527C12.3096 83.197 12.6938 83.6328 13.084 84.0601L84.9307 12.9319C84.501 12.5432 84.0708 12.1672 83.606 11.7913L11.9312 82.7527ZM9.40576 79.5354C9.06152 79.0569 8.72607 78.5742 8.39941 78.0828L78.9048 8.28345C79.4004 8.60522 79.8896 8.93701 80.3711 9.27881L9.40576 79.5354Z" transform="translate(58.2739 65.4766)" fill="white"/>
<path d="M15.8352 230.773L42.9607 22.3131C43.5642 18.7205 44.8958 15.289 46.8738 12.2292C48.8517 9.16936 51.4342 6.54574 54.4629 4.51929C57.4917 2.49283 60.9027 1.10628 64.4867 0.44469C68.0708 -0.216903 71.7523 -0.139584 75.3054 0.671915C78.8585 1.48341 82.2082 3.01197 85.1491 5.16381C88.09 7.31565 90.56 10.0454 92.4075 13.1856C94.2551 16.3257 95.4413 19.8101 95.8934 23.4249C96.3454 27.0397 96.0538 30.7087 95.0363 34.2068L41.1694 221.181L27.8626 279.626C27.177 282.704 25.4292 285.441 22.9257 287.359C20.4222 289.277 17.323 290.252 14.1719 290.113C10.8955 289.915 7.79654 288.558 5.42909 286.285C3.06163 284.012 1.57996 280.972 1.24894 277.708L0.225339 268.884C-2.20571 242.283 15.8352 230.773 15.8352 230.773Z" transform="translate(104.453 366.426)" fill="#C48469"/>
<path d="M80.2647 230.773L53.1393 22.3131C52.5357 18.7205 51.2041 15.289 49.2262 12.2292C47.2483 9.16936 44.6657 6.54574 41.637 4.51929C38.6083 2.49283 35.1973 1.10628 31.6132 0.44469C28.0292 -0.216903 24.3476 -0.139584 20.7946 0.671915C17.2415 1.48341 13.8917 3.01197 10.9509 5.16381C8.00998 7.31565 5.53998 10.0454 3.6924 13.1856C1.84482 16.3257 0.658619 19.8101 0.206576 23.4249C-0.245467 27.0397 0.0461814 30.7087 1.06362 34.2068L54.9306 221.181L68.3654 279.626C69.0509 282.704 70.7987 285.441 73.3022 287.359C75.8057 289.277 78.9049 290.252 82.056 290.113C85.3325 289.915 88.4314 288.558 90.7988 286.285C93.1663 284.012 94.648 280.972 94.979 277.708L96.0026 268.884C98.4336 242.283 80.2647 230.773 80.2647 230.773Z" transform="translate(296.562 366.426)" fill="#C48469"/>
<path d="M2.94286 7.80574e-06H27.8931C65.3825 7.80574e-06 96.6023 15.7304 103.64 47.0633C107.734 65.2235 116.946 101.416 116.946 101.416H3.90473e-06L2.94286 7.80574e-06Z" transform="translate(242.096 309.447)" fill="#F1A71E"/>
<path d="M114.004 7.80574e-06H89.0532C51.5639 7.80574e-06 20.3441 15.7304 13.3068 47.0633C9.21241 65.2235 0 101.416 0 101.416H116.946L114.004 7.80574e-06Z" transform="translate(138.072 309.447)" fill="#F1A71E"/>
<path d="M43.8869 87.7321C68.1249 87.7321 87.7737 68.0926 87.7737 43.866C87.7737 19.6395 68.1249 0 43.8869 0C19.6488 0 -1.95236e-06 19.6395 -1.95236e-06 43.866C-1.95236e-06 68.0926 19.6488 87.7321 43.8869 87.7321Z" transform="translate(204.734 73.3635)" fill="#A19EA9"/>
<path d="M63.2073 7.80574e-06H112.852C133.068 20.2065 159.042 26.8568 159.042 59.9801L174.396 244.908C174.396 244.908 124.24 263.068 78.6893 263.068C33.1391 263.068 -3.90473e-06 252.581 -3.90473e-06 252.581L16.8894 59.9801C16.8894 26.8568 39.4086 23.6595 63.2073 7.80574e-06Z" transform="translate(161.36 309.447)" fill="#F1A71E"/>
<path d="M15.354 3.90287e-06H117.458C121.53 3.90287e-06 125.436 1.61687 128.315 4.49494C131.194 7.37301 132.812 11.2765 132.812 15.3467C132.812 19.4169 131.194 23.3204 128.315 26.1985C125.436 29.0765 121.53 30.6934 117.458 30.6934H15.354C11.2819 30.6934 7.37652 29.0765 4.49708 26.1985C1.61765 23.3204 0 19.4169 0 15.3467C0 11.2765 1.61765 7.37301 4.49708 4.49494C7.37652 1.61687 11.2819 3.90287e-06 15.354 3.90287e-06Z" transform="translate(182.216 221.459)" fill="#B87C63"/>
<path d="M51.3081 0.00016418C64.9158 0.00016418 77.9662 5.40324 87.5883 15.0208C97.2104 24.6383 102.616 37.6825 102.616 51.2838V76.0943C102.616 91.1852 94.2994 105.637 83.1677 115.868C79.8625 118.951 77.2863 122.732 75.6263 126.935C73.9663 131.138 73.2644 135.658 73.5714 140.167L75.1068 161.013L51.3081 191.45L27.5094 161.013L29.0448 140.167C29.3694 135.657 28.6755 131.131 27.0144 126.925C25.3534 122.719 22.7677 118.94 19.4486 115.868C8.31691 105.637 0.000164258 91.0574 0.000164258 76.0943V51.2838C-0.0167134 44.5444 1.29888 37.8681 3.87137 31.6384C6.44386 25.4088 10.2225 19.7486 14.9903 14.9832C19.758 10.2177 25.4209 6.4408 31.6535 3.86953C37.8861 1.29826 44.5655 -0.0167055 51.3081 0.00016418Z" transform="translate(197.314 158.793)" fill="#C48469"/>
<path d="M62.0558 0.000205701H64.4868C68.1008 -0.0102208 71.7049 0.375759 75.2346 1.15121C105.175 5.88312 124.24 28.5195 124.24 73.2808C124.24 86.8371 117.458 109.729 113.492 109.729L105.047 62.9217C104.717 61.0968 104.005 59.3623 102.957 57.8324C101.908 56.3024 100.547 55.0118 98.9641 54.0453C97.3807 53.0788 95.6105 52.4584 93.77 52.2249C91.9294 51.9914 90.0603 52.1501 88.2855 52.6906L76.77 56.2715C67.2249 59.2132 57.0146 59.2132 47.4695 56.2715L36.0819 52.6906C34.2992 52.1266 32.4166 51.9499 30.56 52.1721C28.7034 52.3943 26.9157 53.0103 25.3166 53.979C23.7175 54.9477 22.3439 56.2467 21.2878 57.7889C20.2316 59.3312 19.5172 61.0812 19.1925 62.9217L10.7478 109.729C6.78135 109.729 -3.90473e-06 86.7092 -3.90473e-06 73.2808C0.127946 22.2529 24.8223 0.000205701 62.0558 0.000205701Z" transform="translate(186.31 127.077)" fill="#B3AFBB"/>
<g opacity="0.29">
<path opacity="0.29" d="M7.54905 21.2296C6.20631 13.7893 3.65638 6.61835 0 7.80574e-06" transform="translate(267.303 239.108)" stroke="#B37860" stroke-width="4" stroke-linecap="round" stroke-linejoin="round"/>
<path opacity="0.29" d="M3.90473e-06 21.2296C1.34274 13.7893 3.89267 6.61835 7.54905 7.80574e-06" transform="translate(222.265 239.108)" stroke="#B37860" stroke-width="4" stroke-linecap="round" stroke-linejoin="round"/>
</g>
<path fill-rule="evenodd" clip-rule="evenodd" d="M0 0V60.6445H32.1L0 0Z" transform="translate(138.004 29.6611)" fill="#FCCB6F"/>
<path fill-rule="evenodd" clip-rule="evenodd" d="M0 0L32.1 60.6445V0H0Z" transform="translate(105.905 69.2949)" fill="#FCCB6F"/>
<path d="M2.58331 13.5974L13.5859 2.58739C14.9634 1.20956 12.8304 -0.939053 11.4478 0.448853L0.445253 11.4614C-0.932269 12.8393 1.20075 14.9879 2.58331 13.6V13.5974Z" transform="translate(347.539 105.585)" fill="#9DA3B3"/>
<path d="M0.45284 2.46146L13.7694 14.8039C15.1707 16.1027 17.3104 14.0593 15.9168 12.7581L2.60019 0.415629C1.19897 -0.883197 -0.940787 1.16022 0.45284 2.46146Z" transform="translate(374.433 103.244)" fill="#9DA3B3"/>
<path d="M2.62283 24.1552L22.415 5.29457L25.2577 2.58677C26.6803 1.23032 24.5235 -0.923734 23.1009 0.430171L3.30873 19.2908L0.466042 21.9987C-0.956574 23.3551 1.20021 25.5092 2.62283 24.1552Z" transform="translate(404.833 99.7317)" fill="#9DA3B3"/>
<path d="M22.2154 11.1207C22.2451 14.0796 21.0755 16.9259 18.97 19.0182C16.8646 21.1106 14.0005 22.2729 11.0231 22.2434C4.90841 22.1515 0 17.1993 0 11.122C0 5.04467 4.90841 0.0924587 11.0231 0.000549567C14.0005 -0.0289899 16.8646 1.13337 18.97 3.22572C21.0755 5.31807 22.2451 8.16437 22.2154 11.1232V11.1207Z" transform="translate(330 113.781)" fill="#87C987"/>
<path d="M22.2147 10.9538C22.2753 14.9669 20.1717 18.7014 16.7104 20.7257C13.249 22.75 8.9669 22.75 5.50556 20.7257C2.04422 18.7014 -0.0593465 14.9669 0.00127582 10.9538C0.0930632 4.87756 5.03871 0 11.108 0C17.1772 0 22.1229 4.87756 22.2147 10.9538Z" transform="translate(356.893 86.8538)" fill="#F89C55"/>
<path d="M22.2159 11.122C22.1241 17.2915 17.1779 22.244 11.108 22.244C5.03802 22.244 0.0917979 17.2915 0 11.122C0.0917979 4.95246 5.03802 0 11.108 0C17.1779 0 22.1241 4.95246 22.2159 11.122Z" transform="translate(424.709 81)" fill="#E566A1"/>
<path d="M22.2154 11.1223C22.2154 17.2646 17.2423 22.244 11.1077 22.244C4.97308 22.244 0 17.2646 0 11.1223C0 4.9799 4.97308 0.000549518 11.1077 0.000549518C14.0626 -0.0289873 16.905 1.13327 18.9946 3.22543C21.0841 5.31759 22.2449 8.16364 22.2154 11.1223Z" transform="translate(384.955 116.122)" fill="#A6DDE0"/>
<path d="M12.4431 56.9768C10.8096 56.9774 9.19197 56.6621 7.68261 56.0492C6.17324 55.4362 4.80168 54.5374 3.64624 53.4042C2.49079 52.271 1.57409 50.9256 0.948465 49.4447C0.322842 47.9638 0.000554801 46.3765 1.54311e-06 44.7734V12.2075C1.54311e-06 8.9699 1.31052 5.86487 3.64326 3.57551C5.976 1.28615 9.13987 1.38821e-06 12.4389 1.38821e-06C15.7379 1.38821e-06 18.9017 1.28615 21.2345 3.57551C23.5672 5.86487 24.8777 8.9699 24.8777 12.2075V44.7734C24.8766 48.0096 23.5662 51.113 21.2345 53.4013C18.9028 55.6897 15.7406 56.9757 12.4431 56.9768Z" transform="translate(356.753 275.047)" fill="#42C7BB"/>
<path d="M0.00842943 -7.57205e-07V16.5745C-0.0531085 18.2143 0.222852 19.8495 0.819823 21.3823C1.41679 22.9151 2.32252 24.314 3.48286 25.4955C4.64321 26.6769 6.03435 27.6167 7.57315 28.2586C9.11196 28.9005 10.7668 29.2313 12.4389 29.2313C14.1109 29.2313 15.7658 28.9005 17.3046 28.2586C18.8434 27.6167 20.2345 26.6769 21.3949 25.4955C22.5552 24.314 23.4609 22.9151 24.0579 21.3823C24.6549 19.8495 24.9308 18.2143 24.8693 16.5745V-7.57205e-07H0.00842943Z" transform="translate(356.748 303.246)" fill="#5171C0"/>
<path d="M43.0326 3.1533C44.2446 4.22845 45.2289 5.5274 45.9294 6.97594C46.6298 8.42449 47.0326 9.99427 47.1148 11.5956C47.1969 13.197 46.9569 14.7985 46.4083 16.3088C45.8597 17.8191 45.0133 19.2085 43.9175 20.3977L21.6691 44.5481C20.5736 45.7376 19.25 46.7036 17.774 47.391C16.298 48.0784 14.6985 48.4738 13.0668 48.5544C11.4351 48.6351 9.80323 48.3994 8.26433 47.861C6.72543 47.3227 5.30968 46.492 4.09793 45.4166C2.88591 44.3414 1.90158 43.0425 1.20115 41.5939C0.500716 40.1454 0.0979172 38.5756 0.0157458 36.9742C-0.0664257 35.3729 0.173642 33.7713 0.722244 32.2611C1.27084 30.7508 2.11723 29.3614 3.21306 28.1722L25.4614 4.02173C26.557 2.83225 27.8805 1.86622 29.3565 1.17881C30.8325 0.491406 32.432 0.0960918 34.0637 0.0154484C35.6954 -0.0651949 37.3273 0.170415 38.8662 0.708814C40.4051 1.24721 41.8208 2.07785 43.0326 3.1533Z" transform="translate(382.827 303.094)" fill="#42C7BB"/>
<path d="M18.456 32.6873L29.7783 20.3971C31.991 17.9952 33.1409 14.829 32.9749 11.595C32.809 8.36108 31.3408 5.32428 28.8934 3.15269C26.446 0.981097 23.2198 -0.147393 19.9245 0.0154678C16.6293 0.178329 13.535 1.6192 11.3222 4.02111L-1.54311e-06 16.3155L18.456 32.6873Z" transform="translate(396.967 303.091)" fill="#5171C0"/>
</g>
<path d="M31.5052 30.3332C30.2688 17.6361 21.9804 6.72634 10.0743 2.29281L6.54832 0.992924L4.39607 0.20371C3.38864 -0.167686 2.26673 -0.0284122 1.39667 0.598317C0.526616 1.22505 1.39747e-06 2.22317 1.39747e-06 3.31414V33.6525C1.39747e-06 35.4863 1.46536 36.9718 3.27416 36.9718H28.3913C30.2001 36.9718 31.6654 35.4863 31.6654 33.6525C31.6654 32.5383 31.6197 31.4241 31.5052 30.3332Z" transform="translate(108.312 292.681)" fill="#87C3C7"/>
<path d="M70.7078 11.8614L65.9454 10.0973L59.7863 7.7993L56.1687 6.45299L50.0096 4.1782L41.6296 1.06776C39.5689 0.301759 37.3709 1.78734 37.2564 3.9925C36.913 10.0045 31.9903 14.7165 26.0373 14.7165C20.817 14.7165 16.3293 11.1419 15.1158 6.01196C14.2915 2.46049 11.2463 0 7.72033 0H7.60584C3.41584 0 0.0043039 3.45862 0.0043039 7.70645V22.0052C0.0043039 23.8854 -0.911544 22.4462 23.9766 47.6779C24.5948 48.3046 25.4191 48.6528 26.2891 48.6528H69.5859H72.86C72.86 47.1672 72.86 14.3684 72.86 12.6971L70.7078 11.8614Z" transform="translate(42 281)" fill="#10847A"/>
<path d="M31.3449 31.1972C-0.732681 -1.3231 1.25929 0.464244 0 -3.5419e-07V38.509H28.3455C32.1005 38.5323 34.0009 33.913 31.3449 31.1972Z" transform="translate(42.0044 297.736)" fill="#87C3C7"/>
<path d="M12.1353 2.29801L6.20515 14.763C5.42668 16.411 3.4805 17.1074 1.85487 16.3182C0.229238 15.529 -0.457647 13.5559 0.320823 11.9079L5.97618 0L12.1353 2.29801Z" transform="translate(86.0327 285.178)" fill="#EDEDED"/>
<path d="M97.8126 0H0V16.6664C0 18.5001 1.46536 19.9857 3.27416 19.9857H94.7216C96.5304 19.9857 97.9958 18.5001 97.9958 16.6664V3.31935C97.9729 2.20516 97.9271 1.09097 97.8126 0Z" transform="translate(42.0044 323.014)" fill="#4A5E81"/>
<path d="M12.1353 2.2748L6.20515 14.7397C5.42668 16.3878 3.45761 17.0842 1.85487 16.295C0.229241 15.5058 -0.457648 13.5327 0.320823 11.8846L5.97619 1.77095e-07L12.1353 2.2748Z" transform="translate(95.8096 288.823)" fill="#EDEDED"/>
<path fill-rule="evenodd" clip-rule="evenodd" d="M35.8611 24.3131H45.0613L30.9744 0L16.8876 24.3131H26.0863C25.9535 57.495 23.8778 74.7798 0 74.7798V84.5041C8.5302 84.5041 15.3006 82.6814 20.6975 78.9333C25.2106 75.7976 28.5862 71.4393 30.9744 65.646C33.3623 71.4393 36.7376 75.7988 41.2514 78.9333C46.6483 82.6814 53.4172 84.5041 61.9474 84.5041V74.7798C38.0692 74.7798 35.9939 57.495 35.8611 24.3131Z" transform="translate(0 138)" fill="#EB8231"/>
</svg>
