<svg width="26" height="40" viewBox="0 0 26 40" fill="none" xmlns="http://www.w3.org/2000/svg">
<path d="M13.6842 14.1591V6.25575C13.6842 2.81539 10.6053 0 6.84211 0C3.07895 0 0 2.81539 0 6.25575" transform="translate(5.47363 2)" stroke="#EDEDED" stroke-width="4" stroke-miterlimit="10" stroke-linecap="round" stroke-linejoin="round"/>
<path d="M13 25.7857C20.1797 25.7857 26 20.0134 26 12.8929C26 5.77233 20.1797 0 13 0C5.8203 0 0 5.77233 0 12.8929C0 20.0134 5.8203 25.7857 13 25.7857Z" transform="translate(0 14.2143)" fill="#C7C5C5"/>
<path d="M2.05263 8.14286C0.923684 8.14286 0 7.22679 0 6.10714V2.03571C0 0.916071 0.923684 0 2.05263 0C3.18158 0 4.10526 0.916071 4.10526 2.03571V6.10714C4.10526 7.22679 3.18158 8.14286 2.05263 8.14286Z" transform="translate(10.9473 22.3571)" fill="#EDEDED"/>
</svg>
